<svg xmlns="http://www.w3.org/2000/svg" viewBox="0 0 434 88.5">
  <defs>
    <style>
      .a {
        fill: #008030;
      }

      .b {
        fill: none;
        stroke: #008030;
        stroke-miterlimit: 10;
      }

      .c {
        isolation: isolate;
      }

      .d {
        fill: #fff;
      }
    </style>
  </defs>
  <title>footbanner</title>
  <g>
    <g>
      <path class="a" d="M112.6,24.6h10.1v8.6h-2.2v-.8h-5.9v.8h-2V26.1l-.9,1.3a10.9,10.9,0,0,0-1.5-1.8v7.6H108V26.9l-1.9,1.6a11.2,11.2,0,0,0-1-2.2,13.8,13.8,0,0,0,4.8-5.3h-4.1V19H108V15.5h2.2V19h1.2l1.3.8a20.5,20.5,0,0,1-2,3.9l1.9,1.6Zm10.1-8.4v1.9H112.5V16.2Zm-.9,2.8v4.7h-8.3V19Zm-7.2,7.4v1.2h1.9V26.4Zm0,4.2h1.9V29.3h-1.9Zm5.2-9.9h-4.3V22h4.3Zm.7,5.7h-2v1.2h2Zm0,4.2V29.3h-2v1.3Z"/>
      <path class="a" d="M131.1,27.9a14.2,14.2,0,0,0-1.7-2.1v7.4h-2.2V26.8l-2.1,1.7a14.7,14.7,0,0,0-1-2.2A13.3,13.3,0,0,0,129,21h-4.2V19h2.4V15.5h2.2V19h1.2l1.2.8a20.1,20.1,0,0,1-1.9,3.9,30.4,30.4,0,0,1,2.5,2.4Zm11.1,2.8v2.1H130.8V30.7h1.7V19.9h2.2V30.7h1.7v-15h2.3V22h3.1v2.2h-3.1v6.5Z"/>
      <path class="a" d="M157,20.5l-1.8,1a57.1,57.1,0,0,0-5.3,2.8c-1.5,1-2.6,2.1-2.6,3.4s1.3,2.1,3.9,2.1a30.2,30.2,0,0,0,6.2-.7v2.7a32.8,32.8,0,0,1-6,.5c-3.7,0-6.6-1.1-6.6-4.3s1.3-3.6,3.1-5c-.8-1.6-1.7-3.6-2.6-5.6l2.4-.9c.7,1.9,1.6,3.7,2.3,5.2l4.1-2.2,1.7-1.2Z"/>
      <path class="a" d="M172.9,20.5l-1.9,1a56.8,56.8,0,0,0-5.2,2.8c-1.6,1-2.6,2.1-2.6,3.4s1.3,2.1,3.9,2.1a30,30,0,0,0,6.1-.7v2.7a33.2,33.2,0,0,1-6.1.5c-3.7,0-6.5-1.1-6.5-4.3s1.3-3.6,3.1-5c-.9-1.6-1.8-3.6-2.7-5.6l2.4-.9a42.3,42.3,0,0,0,2.4,5.2l4-2.2,1.8-1.2Z"/>
      <path class="a" d="M189.4,23.2a7.2,7.2,0,0,1,1.8,4.5c0,2.9-2.6,4.9-6.7,4.9s-5-1.3-5-4.4a14.2,14.2,0,0,1,.1-1.9,16.8,16.8,0,0,1-3.6-.6V23.4a16.1,16.1,0,0,0,3.7.7l.3-2.5-3.7-.7V18.7a15.1,15.1,0,0,0,3.9.7,8.6,8.6,0,0,0,.1-1.5,8.6,8.6,0,0,0,.1-1.7l2.6.2c-.1.7-.2,1.2-.3,1.7s-.1.8-.2,1.4l3.4-.2v2.2l-3.7.2-.3,2.5h.1L186,24v2.3h-4.1v1.4c0,1.5.9,2.4,2.8,2.4s4.1-1.2,4.1-2.8a5.3,5.3,0,0,0-2-3.6Z"/>
      <path class="a" d="M198.2,17.1c-.1.3-.3,1.3-.4,1.6a42.9,42.9,0,0,0-.9,6.9,4.9,4.9,0,0,0,.1,1.2c.2-.6.5-1.2.8-1.9l1.2,1a32.3,32.3,0,0,0-1.4,4.6c0,.2-.1.7-.1.8v.8l-2.1.2a22.7,22.7,0,0,1-.8-6.2,51.9,51.9,0,0,1,.8-7.4,12.3,12.3,0,0,0,.2-1.9Zm4.5,9.2a5.5,5.5,0,0,0-.3,1.6c0,.9.7,1.4,2.6,1.4a26.1,26.1,0,0,0,4.8-.5v2.5a27.7,27.7,0,0,1-4.8.4c-3.3,0-4.8-1.2-4.8-3.1a11.3,11.3,0,0,1,.3-2.5Zm6.5-8v2.4a53.4,53.4,0,0,1-8,0V18.3A43.8,43.8,0,0,0,209.2,18.3Z"/>
      <path class="a" d="M229,18.2a25.4,25.4,0,0,1-2.7,9.9,10,10,0,0,0,3.4,3.1,7,7,0,0,0-1.5,1.9,13.2,13.2,0,0,1-3.3-2.9,15.8,15.8,0,0,1-3.4,2.9l-1.2-1.7v1.8h-2.2v-3l-6.2,1-.4-2.3,1.7-.2V18.6h-1.3V16.5h9.6v1.4h6Zm-13.6.4v1.8h2.7V18.6Zm0,5.8h2.7V22.5h-2.7Zm0,4,2.7-.3V26.4h-2.7Zm4.9,2.7a11.5,11.5,0,0,0,3.3-3,26.5,26.5,0,0,1-2.6-7.5l2.2-.5a20,20,0,0,0,1.7,5.7,23.8,23.8,0,0,0,1.6-5.7h-5.6V18.6h-.6Z"/>
      <path class="a" d="M235.2,16.4a22.4,22.4,0,0,0-.8,3.9,5.7,5.7,0,0,1,4.7-3.1c2.6,0,4.6,2.6,4.6,6.7s-3.3,7.9-8.2,8.8L234,30.5c4.2-.6,7.1-2,7.1-6.6,0-2.9-.9-4.5-2.5-4.5s-4.1,3.4-4.2,5.8a4.7,4.7,0,0,0,.1,2l-2.4.2a24.5,24.5,0,0,1-.2-3.2,44.1,44.1,0,0,1,.5-6,15,15,0,0,0,.2-2Z"/>
      <path class="a" d="M248.3,26.9a16,16,0,0,1-1.2,4.9l-1.7-.8a16.8,16.8,0,0,0,1-4.4Zm2.3-1.5v7.8h-2V25.6l-2.8.2-.2-2H247a6.2,6.2,0,0,0,.9-1.2,26.8,26.8,0,0,0-2.3-2.6l1.1-1.5.4.4a29.5,29.5,0,0,0,1.4-3.3l2,.7L248.4,20l.6.8a24.8,24.8,0,0,0,1.8-3.1l1.9.8c-1.1,1.7-2.4,3.6-3.6,5.2H251c-.2-.5-.5-.9-.7-1.3l1.6-.7a15.5,15.5,0,0,1,1.8,4l-1.8.8a5.2,5.2,0,0,0-.2-1.1Zm1.7,1.1a20.8,20.8,0,0,1,1.2,3.5l-1.7.7a22.5,22.5,0,0,0-1.2-3.7Zm11.2,4.2v2H252.4v-2h1.7V16.4h8.1V30.7Zm-7.2-12.3v2.7h3.6V18.4Zm3.6,4.7h-3.6v2.7h3.6Zm-3.6,7.6h3.6V27.9h-3.6Z"/>
      <path class="a" d="M281.1,29l-1.6-1.3a9.5,9.5,0,0,1-4.8,5.1l-2-1.6a7.8,7.8,0,0,0,4.8-4.8,15.2,15.2,0,0,0-4.4-1.5,31.6,31.6,0,0,1-2.2,4.5,3.1,3.1,0,0,1-2.9,1.7,2.8,2.8,0,0,1-2.9-3c0-2.9,2.6-5.2,6.4-5.4l1.5-3.3h-3.2l-1.5.2V17.2h5.5l1.2-.3,1.6,1.1-.7.8a28.6,28.6,0,0,0-1.8,4.1,16.9,16.9,0,0,1,4,1.2c0-.2.1-.4.1-.7v-2l2.4.3a19.8,19.8,0,0,1-.3,3.5l2,1.2Zm-10.6-4.1c-2,.3-3.2,1.6-3.2,2.8a.8.8,0,0,0,.7.9c.4,0,.7-.2,1-.7A16.6,16.6,0,0,0,270.5,24.9Z"/>
      <path class="a" d="M283.5,29.9c3.8-3.4,6.1-6,6.1-8.2a2.1,2.1,0,0,0-2.1-2.3,3.5,3.5,0,0,0-2.6,1.5l-1.5-1.5a5.6,5.6,0,0,1,4.4-2.2,4.2,4.2,0,0,1,4.5,4.4c0,2.5-2.2,5.2-4.7,7.8l2.3-.2h3v2.4h-9.4Z"/>
      <path class="a" d="M294.7,24.5c0-4.9,1.9-7.3,4.8-7.3s4.7,2.4,4.7,7.3-1.9,7.3-4.7,7.3S294.7,29.3,294.7,24.5Zm6.9,0c0-4-.9-5.1-2.1-5.1s-2.1,1.1-2.1,5.1.9,5.1,2.1,5.1S301.6,28.4,301.6,24.5Z"/>
      <path class="a" d="M315.7,27.1v3.7c0,1.1-.2,1.7-1,2a7.3,7.3,0,0,1-3.2.4,20.4,20.4,0,0,0-.9-2.2h2.3c.3,0,.4-.1.4-.4V27.1h-6.2V24.9h6.2V23.2h-3.7V21.9a18.2,18.2,0,0,1-2.7,1.5,10.2,10.2,0,0,0-1.3-1.8,21.1,21.1,0,0,0,7.7-6.1h2.2a20.2,20.2,0,0,0,8.1,5.9,10.4,10.4,0,0,0-1.5,2l-2.8-1.6v1.4h-3.6v1.7h6.6v2.2Zm-3.9,1.4a15.8,15.8,0,0,1-4.5,4.1,8.3,8.3,0,0,0-1.7-1.5,12.5,12.5,0,0,0,4.1-3.4Zm6.6-7.3a23.1,23.1,0,0,1-3.9-3.6,22.1,22.1,0,0,1-3.8,3.6Zm.5,6.4a25.8,25.8,0,0,1,4.2,3.7l-2,1.3a21.9,21.9,0,0,0-4.1-3.8Z"/>
      <path class="a" d="M342.3,29.2h-6.5v4h-2.4v-4h-8.5V27h3V22h5.5V19.7h-4a16.8,16.8,0,0,1-2.6,3.5l-2-1.5a14,14,0,0,0,4-6.3l2.3.6-.6,1.6h10.7v2.1h-5.4V22h5v2.1h-5V27h6.5ZM333.4,27V24.1h-3.3V27Z"/>
      <path class="a" d="M116.4,50.8,115,51l-2.8.4c.2,1.1.4,1.9.5,2.3L113,55l-1.9.4c0-.5-.1-1-.1-1.4s-.3-1.2-.5-2.3l-3.1.5-1.3.3-.3-1.8h1.3l3.1-.5-.4-2.1-2.5.4-1.2.3-.4-1.8H107l2.5-.3c-.1-.6-.2-1-.2-1.2l-.3-1,1.9-.3a3.8,3.8,0,0,0,.1,1c0,.2.1.6.2,1.2l2.6-.4,1.2-.3.3,1.7-1.2.2-2.6.4.4,2,2.8-.4,1.4-.4Z"/>
      <path class="a" d="M123,51.7a11.1,11.1,0,0,0,2-2.4l-3,.6c.4,1.8,1,3.8,1.2,4.5a7.6,7.6,0,0,0,.4,1.1l-1.8.4a4.5,4.5,0,0,0-.3-1.1c-.1-.7-.7-2.8-1.1-4.5l-2.5.5-.4-1.6h1.2l1.3-.3-.4-1.2-.3-.9,1.7-.4c.1.3.1.6.2,1l.4,1.2,3.9-.7.7-.2,1,.7a20.7,20.7,0,0,1-2.7,4.1Z"/>
      <path class="a" d="M131.5,44.6a3.1,3.1,0,0,0-.1,1V50a4.1,4.1,0,0,0,.1,1.1h-2c0-.3.1-.8.1-1.1V45.6a3.4,3.4,0,0,0-.1-1Zm6-.1a4.5,4.5,0,0,0-.1,1.3v2.5c0,2.8-.5,4-1.5,5.1a8.2,8.2,0,0,1-3.2,1.9l-1.3-1.4a5.9,5.9,0,0,0,3.2-1.7c.8-1,1-1.9,1-4V45.8a4.5,4.5,0,0,0-.1-1.3Z"/>
      <path class="a" d="M150.9,45.8l-.5.6a12.7,12.7,0,0,1-3.1,3.6l-1.4-1.1a6.8,6.8,0,0,0,2.4-2.4H140V44.8h9.9Zm-5.3,1.7c0,3.2-.1,5.9-3.6,7.8L140.5,54a2.8,2.8,0,0,0,1.3-.7c1.7-1.1,2-2.5,2-4.6a4.9,4.9,0,0,0-.1-1.2Z"/>
      <path class="a" d="M160.2,54.8v-.6h-7.6V52.4h7.6V47.1h-7.4V45.3h9.3a4.5,4.5,0,0,0-.1,1.2v6.7a6.6,6.6,0,0,0,.1,1.5Z"/>
      <path class="a" d="M164.8,48.5h10.6v2.1H164.8Z"/>
      <path class="a" d="M180.9,49.9a25.3,25.3,0,0,1-2.5,3.6l-1.4-.9a13.1,13.1,0,0,0,2.4-3.4Zm2.9-1.9v6.1a1.1,1.1,0,0,1-1.3,1.2h-2.1l-.2-1.6h1.5c.3,0,.4-.1.4-.4s.1-4.6.1-5.2h-4.6V46.4h4.6V45.4a3.6,3.6,0,0,0-.2-1.1h2a3.6,3.6,0,0,0-.2,1.1v1.1h4.4v1.7h-4.4Zm2.7,1.2a19.8,19.8,0,0,1,2.2,3.4l-1.5.8a35.9,35.9,0,0,0-2.1-3.5Zm-.7-4.4a1.5,1.5,0,0,1,1.5-1.5,1.5,1.5,0,0,1,0,3A1.5,1.5,0,0,1,185.8,44.8Zm.8,0a.7.7,0,1,0,.7-.7A.7.7,0,0,0,186.6,44.8Z"/>
      <path class="a" d="M191.1,54a1.2,1.2,0,0,0,.2-.8V46.1a5.2,5.2,0,0,0-.2-1.4h2.1a6.6,6.6,0,0,0-.1,1.4v6.8a14.6,14.6,0,0,0,6.6-4.3l1,1.5a17.6,17.6,0,0,1-7.6,4.7l-.8.3Z"/>
      <path class="a" d="M202.1,48.5h10.6v2.1H202.1Z"/>
      <path class="a" d="M218.2,49.1l-.9,1.4a29.8,29.8,0,0,0-3-1.8l1-1.5C216.1,47.7,217.6,48.6,218.2,49.1Zm1.1,2.9a12.9,12.9,0,0,0,5-4.8l1,1.7a15.4,15.4,0,0,1-5.1,4.7,18.2,18.2,0,0,1-4.4,1.6l-1-1.7A14.9,14.9,0,0,0,219.3,52Zm.9-5.9-1,1.5-2.9-1.9,1-1.4Z"/>
      <path class="a" d="M234.6,54.6v.9h-1.7a.7.7,0,0,0,.1-.5h-6.1V53.4H233V51.8h-5.6V50.3H233V48.7h-5.9V47.2h7.5v7.4Z"/>
      <path class="a" d="M241.9,51.6a13.4,13.4,0,0,0,4.8-5l1,1.8a13,13,0,0,1-4.8,4.8A13.5,13.5,0,0,1,238,55l-1-1.7A12.3,12.3,0,0,0,241.9,51.6Zm0-4.2-1.3,1.4a29.2,29.2,0,0,0-3.2-2.8l1.2-1.3A21.6,21.6,0,0,1,241.9,47.4Z"/>
      <path class="a" d="M251.6,44.6c-.1.2-.2.9-.3,1.1a34.3,34.3,0,0,0-.6,5,2.2,2.2,0,0,0,.1.8,6.9,6.9,0,0,1,.5-1.3l.8.6c-.3,1.1-.8,2.4-.9,3.1s-.1.5-.1.6V55h-1.4a13.7,13.7,0,0,1-.5-4.1,50.6,50.6,0,0,1,.5-5.3,5.7,5.7,0,0,0,.1-1.3Zm7.9,9.7A8.7,8.7,0,0,0,258,53a2.2,2.2,0,0,1-2.5,2.1c-1.8,0-2.9-.8-2.9-2.1s1.1-2.2,2.8-2.2h.9a21.7,21.7,0,0,1-.1-2.6H253V46.6h3.2a4.9,4.9,0,0,0-.1-1.4v-.9h1.8c0,.3-.1.6-.1.8v1.4l2-.3v1.6l-2,.2c0,1.3.1,2.3.1,3.2a8.3,8.3,0,0,1,2.5,1.6Zm-3.2-2.1-1-.2c-.7,0-1.2.3-1.2.8s.5.8,1.2.8,1-.4,1-1.2Z"/>
      <path class="a" d="M273.1,53.8v1.5H261.4V53.8h5V51.3h-3.7V49.8h3.7V47.5H262V46h5.2l-2-1.6,1.3-.9a18.2,18.2,0,0,1,2.5,2l-.7.5h4.1v1.5h-4.3v2.3h3.7v1.5h-3.7v2.5Z"/>
      <path class="a" d="M277.5,44.6c-.1.3-.2.9-.3,1.2a28.5,28.5,0,0,0-.6,4.7v.8l.6-1.3.8.7a31.9,31.9,0,0,0-.9,3.1c0,.2-.1.5-.1.6v.5h-1.4a14,14,0,0,1-.5-4.2,30.1,30.1,0,0,1,.5-5.1c0-.3.1-.8.1-1.2Zm3,6.4a4.1,4.1,0,0,0-.1,1.1c0,.5.5.9,1.8.9a11.7,11.7,0,0,0,3.2-.4v1.8l-3.3.2c-2.2,0-3.3-.8-3.3-2.1a5.5,5.5,0,0,1,.3-1.7Zm4.5-5.5v1.6a25.3,25.3,0,0,1-5.5,0V45.5A33.6,33.6,0,0,0,285,45.5Z"/>
      <path class="a" d="M294.7,51.8a12.4,12.4,0,0,0,4.2,2.4l-1.1,1.4a13.9,13.9,0,0,1-4.2-3.1v3.2H292V52.6a13.2,13.2,0,0,1-4.2,2.9,12.7,12.7,0,0,0-1.1-1.3,12,12,0,0,0,4.1-2.4h-2.6v-5H292v-.7h-4.9V44.6H292v-1h1.6v1h5v1.5h-5v.7h3.9v5Zm-5-3.1H292V48h-2.3Zm0,1.9H292v-.8h-2.3Zm3.9-2.6v.7H296V48Zm2.4,1.8h-2.4v.8H296Z"/>
      <path class="a" d="M303.5,52.3a11.9,11.9,0,0,1-2.5,2.9l-1.3-.9a6.5,6.5,0,0,0,2.2-2.5Zm8-6H300.1V44.8h4.8V43.5h1.7v1.3h4.9Zm-4.9,5v2.8a1.4,1.4,0,0,1-.7,1.4,8.2,8.2,0,0,1-2.4.2,6.6,6.6,0,0,0-.5-1.5h1.7c.2,0,.3,0,.3-.2V51.3h-3.5V47.2h8.6v4.1ZM303.1,50h5.4V48.5h-5.4Zm6.3,1.8a19.9,19.9,0,0,1,2.4,2.8l-1.6.7a22,22,0,0,0-2.2-2.8Z"/>
      <path class="a" d="M324.9,44.9c-.4,1.3-1,2.7-1.5,3.9a4.1,4.1,0,0,1,1.3,3c0,1-.2,1.6-.7,1.9l-.9.4h-1.2a2.8,2.8,0,0,0-.4-1.5h1.4q.3-.2.3-.9a3.7,3.7,0,0,0-1.3-2.6c.4-1,.8-2.3,1.1-3.3h-1.6v10h-1.5V44.5a18.3,18.3,0,0,1-1.4,2.8h.9v1.4h-1.9l-.8.9H319v5.9h-1.5V55h-2.1v.6H314V51.7l-.6.4a10.1,10.1,0,0,0-.9-1.3,13,13,0,0,0,3.1-2.1h-2.8V47.3h2.3V46.2h-1.7V44.9h1.7V43.7h1.4v1.2h1.4v.7l.6-1.5,1.4.4v-.2h3.9Zm-7.4,5.9h-2.1v.9h2.1Zm0,2.9v-.9h-2.1v.9Zm-.7-6.4.7-1.1h-1v1.1Z"/>
      <path class="a" d="M337.2,47.6a10.6,10.6,0,0,1-2.6,5.2,10.5,10.5,0,0,0,3.4,1.4,5.8,5.8,0,0,0-1.1,1.5,12.6,12.6,0,0,1-3.7-1.7,12,12,0,0,1-3.4,1.7,3.1,3.1,0,0,0-.9-1.4A10.7,10.7,0,0,0,332,53a12.1,12.1,0,0,1-2.2-3.2,10,10,0,0,1-3,5.7,7.5,7.5,0,0,0-1.1-1.3c2.5-2.3,2.8-5.5,2.8-7.6v-.9h-2.1V44.2h7.1l1.2.2-.6,3h2.1Zm-7.1-1.9v.5a10.7,10.7,0,0,0,3.2,5.7,8.5,8.5,0,0,0,1.9-3.2h-1.5v.6l-1.7-.3c.3-1,.6-2.2.9-3.3Z"/>
      <path class="a" d="M347.7,44.9a11,11,0,0,0,2.8,5.3l-1.2,1.3c-.4-.6-.8-1.1-1.2-1.8.1,3-1.3,5.8-4.6,5.8a3.4,3.4,0,0,1-3.6-3.6,8.1,8.1,0,0,1,2-5l-1.7.2-.7.2-.3-1.7h.8a22.1,22.1,0,0,0,4.3-.8l.5,1.5-.6.3a7.6,7.6,0,0,0-2.7,5.1,1.9,1.9,0,0,0,2.1,2.1c2.4,0,3.9-3,2.8-7.7a2.4,2.4,0,0,1-.2-.8Zm1,1.4a15.4,15.4,0,0,0-.8-1.9l1-.3a10.8,10.8,0,0,1,.8,1.9Zm1.4-.5-.7-1.9.9-.3a15.4,15.4,0,0,1,.8,1.9Z"/>
      <path class="a" d="M117.2,78.1h-9.8v.6h-1.6V67.2h11.1v1.5h-9.5v7.9h9.8Zm-2.7-2.2a16.4,16.4,0,0,0-2.3-2.3,15.4,15.4,0,0,1-3.1,2.7l-1.2-1.2a12.2,12.2,0,0,0,3.1-2.5,22.2,22.2,0,0,0-2.7-1.9l1.1-1,2.6,1.8a14,14,0,0,0,1.6-2.6l1.6.5a15.7,15.7,0,0,1-2,3,19.5,19.5,0,0,1,2.5,2.4Z"/>
      <path class="a" d="M123.7,67.4c-.1.4-.1.8-.2,1.1l-.3,1.3h1.1c1.4,0,2.3.6,2.3,2.4a11.6,11.6,0,0,1-.7,4.7,2,2,0,0,1-2.1,1.2l-1.5-.2-.3-1.7,1.6.3a1,1,0,0,0,.9-.6,8.6,8.6,0,0,0,.5-3.5c0-1-.4-1.2-1.2-1.2h-.9a27.8,27.8,0,0,1-2.6,6.9l-1.7-.7a22.3,22.3,0,0,0,2.6-6h-1.1l-1.4.2-.2-1.7h1.4l1.6-.2a13.1,13.1,0,0,0,.3-2.7Zm4.6,1.5a20,20,0,0,1,2.1,4.5l-1.6.8a14,14,0,0,0-2.2-4.8l1.2-.6-.9-1.5,1.1-.4,1,1.8Zm1.2-.4-1-1.8,1-.4a16.2,16.2,0,0,1,1,1.8Z"/>
      <path class="a" d="M135.4,73.5l-1.1.3v3.1c0,.8-.1,1.2-.6,1.5a4.4,4.4,0,0,1-1.9.3,4.2,4.2,0,0,0-.4-1.5h1.2c.1,0,.2-.1.2-.3V74.3l-1.4.4-.4-1.5,1.8-.4V70.4h-1.5V69h1.5V66.6h1.5V69h1v1.4h-1v2l1-.3Zm7.9,4.5h-5.6v.7h-1.5V71.8l-.5.7a7.1,7.1,0,0,0-1-1.4,10.6,10.6,0,0,0,2.4-4.6l1.5.4c-.2.7-.5,1.3-.7,2h1.4a20.9,20.9,0,0,0,.8-2.3l1.6.3-.9,2H143v1.4h-2.3v1.2h2v1.3h-2V74h2v1.3h-2v1.3h2.6Zm-4.1-7.7h-1.5v1.2h1.5Zm0,2.5h-1.5V74h1.5Zm-1.5,3.8h1.5V75.3h-1.5Z"/>
      <path class="a" d="M148.8,73.7h7.1v1h-7.3v.5h7.3v.4c-.2,1.6-.3,2.4-.6,2.7a1.1,1.1,0,0,1-.8.3h-1.3a5.3,5.3,0,0,0-.3-1.2H154a4,4,0,0,0,.3-1.3h-1.6a3,3,0,0,1,.7,1l-1,.5c-.1-.3-.5-.8-.7-1.2l.7-.3h-4.2v.2l-1.4-.2a20.2,20.2,0,0,0,.8-2.9h-1a10.8,10.8,0,0,1-1.2,5.3,5.7,5.7,0,0,0-1.3-.8c1-1.6,1.1-3.9,1.1-5.6V69.4h4.3v-.7h1.5v.7h5v1h-3.7v.5h3.2v2.4h-6.5Zm7.2-6.5v1.2h-2.7v.7h-1.5v-.7h-3.1v.7h-1.5v-.7h-2.7V67.2h2.7v-.7h1.5v.7h3.1v-.7h1.5v.7ZM145.7,78a3.5,3.5,0,0,0,1.2-1.7l1.1.5a5,5,0,0,1-1.3,1.9Zm.9-7.6v.5h1.5v-.5Zm0,2h1.5v-.6h-1.5v.6Zm2.9,4.1a6.8,6.8,0,0,1,.3,1.9h-1.2a12.4,12.4,0,0,0-.2-1.8Zm1.4-6.1h-1.5v.5h1.5Zm0,2v-.6h-1.5v.6Zm.2,4a5.2,5.2,0,0,1,.6,1.6l-1.1.3a6.4,6.4,0,0,0-.6-1.6Zm1.1-4.6v.6h1.7v-.6Z"/>
      <path class="a" d="M160.8,67.3a9.9,9.9,0,0,0-.2,1.7c-.1,1.4-.1,4.3-.1,5.9a1.5,1.5,0,0,0,1.7,1.7,5,5,0,0,0,4.4-2.6l1.2,1.4a6.6,6.6,0,0,1-5.6,2.9c-2.1,0-3.5-.9-3.5-3.1s.2-5.1.2-6.2a8.8,8.8,0,0,0-.2-1.7Z"/>
      <path class="a" d="M169.4,68.6l5.6-.5,3.6-.2v1.6a10.6,10.6,0,0,0-2.5.2,4,4,0,0,0-2.7,3.6c0,2.1,2,2.9,4.2,3l-.6,1.8c-2.7-.2-5.3-1.7-5.3-4.5a5.2,5.2,0,0,1,1.9-3.9c-1.1.1-3.8.4-5.3.7V68.6Z"/>
      <path class="a" d="M182.3,69.9a25.3,25.3,0,0,0,.1,2.7c.1,1.8.5,3.1,1.3,3.1s1.2-1.5,1.4-2.5l1.3,1.5c-.9,2.3-1.7,3.1-2.7,3.1s-2.6-1.3-3-4.8c-.1-1.1-.1-2.6-.1-3.4s-.1-.9-.1-1.3h1.9C182.4,68.8,182.3,69.5,182.3,69.9Zm8.9,5.2-1.7.7c-.2-2.1-.9-5.1-2.3-6.7l1.7-.5A13.8,13.8,0,0,1,191.2,75.1Z"/>
      <path class="a" d="M201.6,68.6l-.9.6-2.8,2.3h1.2c2.2,0,3.8,1.3,3.8,3.2s-1.5,3.6-4.6,3.6-3.2-.8-3.2-2.1a2.2,2.2,0,0,1,2.3-2,2.7,2.7,0,0,1,2.8,2.2,1.9,1.9,0,0,0,1-1.7c0-1.2-1.1-2-2.6-2s-3.3,1.1-4.7,2.6L192.8,74l3.2-2.6,2.7-2.3-3.1.2h-1.1V67.7h1.1l4.2-.2h1Zm-2.9,8.1a1.3,1.3,0,0,0-1.3-1.3c-.4,0-.8.2-.8.6s.6.8,1.3.8Z"/>
      <path class="a" d="M209.3,72.8h6.9v5.8h-1.5v-.4h-4v.5h-1.4V73.8l-.6.9-1-1.2v5.2h-1.6V74.4l-1.3,1a6.1,6.1,0,0,0-.7-1.4,9.9,9.9,0,0,0,3.3-3.7h-2.8V68.9h1.5V66.6h1.6v2.3h.8l.8.5a11.3,11.3,0,0,1-1.3,2.7l1.3,1.1Zm6.9-5.7v1.3h-7V67.1Zm-.6,1.8v3.3h-5.7V68.9ZM210.7,74v.9H212V74Zm0,2.9H212V76h-1.3Zm3.5-6.8h-2.9V71h2.9Zm.5,3.9h-1.4v.9h1.4Zm0,2.9V76h-1.4v.9Z"/>
      <path class="a" d="M221.9,75l-1.1-1.4v5.1h-1.5V74.3l-1.5,1.1a6.1,6.1,0,0,0-.7-1.4,9.4,9.4,0,0,0,3.4-3.7h-2.9V68.9h1.7V66.6h1.5v2.3h.8l.8.5a11.3,11.3,0,0,1-1.3,2.7l1.7,1.6Zm7.6,1.9v1.5h-7.8V76.9h1.2V69.5h1.5v7.4h1.2V66.7h1.5V71h2.1v1.5h-2.1v4.4Z"/>
      <path class="a" d="M234.7,67.1c-.3.9-.8,1.8-1.2,2.7v8.9h-1.6V72.2l-.8.9a8.3,8.3,0,0,0-.9-1.6,15,15,0,0,0,3-4.9Zm4.1,3v1.4h3.4v1.4h-3.4v1.5h3.6v1.4h-3.6v2.9h-1.6V70.1h-.5a13,13,0,0,1-1.7,2.6,5.7,5.7,0,0,0-1.1-1.1,14.5,14.5,0,0,0,2.7-4.9l1.5.4-.6,1.6h5v1.4Z"/>
      <path class="a" d="M251.4,75.7a11.6,11.6,0,0,0,4.2,1.4,13.4,13.4,0,0,0-1.1,1.4,9.8,9.8,0,0,1-4.3-2.2v2.4h-1.6V76.4a11.5,11.5,0,0,1-4.3,2.1l-1-1.3a12.5,12.5,0,0,0,4.1-1.5h-3.7V74.4h4.9v-.5h-3.7V72.8h3.7v-.6h-4.4V71h2.5c-.1-.4-.3-.8-.4-1.1h-2.6V68.7h1.8a8.3,8.3,0,0,0-.9-1.6l1.4-.5a11.2,11.2,0,0,1,1,1.8l-.7.3h1.2V66.5H249v2.2h.9V66.5h1.5v2.2h1.1l-.4-.2a10.8,10.8,0,0,0,.8-1.9l1.6.4-1,1.7h1.7v1.2h-2.5l-.6,1.1h2.6v1.2h-4.5v.6h3.9v1.1h-3.9v.5h5v1.3Zm-3.5-5.8a9.3,9.3,0,0,1,.5,1h2.2c.1-.3.3-.7.4-1.1Z"/>
      <path class="a" d="M258.5,74a9.4,9.4,0,0,1-1.2,4.7,3.8,3.8,0,0,0-1.2-.9,9.4,9.4,0,0,0,1-4.9V69.6h5V74Zm3.9-5.4h-5.8V67.2h5.8Zm-3.9,2.3v1.7h2.1V70.9Zm10,1.5h-1.1v6.3h-1.6V72.4h-1.5a9.8,9.8,0,0,1-2.3,6.3,3.2,3.2,0,0,0-1.2-1.1c1.9-1.8,2-4.4,2-6.3V67.7l1.1.2a16.6,16.6,0,0,0,3.2-1.2l1.3,1.1a16.5,16.5,0,0,1-4.1,1.4v1.7h4.2Z"/>
      <path class="a" d="M278.7,70l-1.3.7a32.8,32.8,0,0,0-3.6,1.9c-1.1.7-1.8,1.4-1.8,2.3s.9,1.4,2.7,1.4a27.2,27.2,0,0,0,4.2-.4v1.8a23.7,23.7,0,0,1-4.1.3c-2.6,0-4.5-.7-4.5-2.9a4.4,4.4,0,0,1,2.1-3.4c-.6-1.1-1.2-2.4-1.8-3.8l1.6-.7a31.7,31.7,0,0,0,1.6,3.6l2.8-1.5,1.2-.8Z"/>
      <path class="a" d="M291.1,69.3l-.4.9a19.5,19.5,0,0,1-1.8,3.5l1.2.9-1.2,1.5-1.2-.9a12.6,12.6,0,0,1-4.8,3.2l-1.5-1.3a11.4,11.4,0,0,0,4.9-2.9l-2.5-1.5,1.1-1.2,2.5,1.3a10.9,10.9,0,0,0,1.3-2.7H285a15.2,15.2,0,0,1-3.4,3.3l-1.4-1.1a10.7,10.7,0,0,0,4.1-4.3,5.2,5.2,0,0,0,.6-1.3l1.9.5a11.5,11.5,0,0,0-.8,1.4h2.6l1.2-.2Z"/>
      <path class="a" d="M299.3,76.4c0,.6.1,1.4.1,1.7h-2c0-.3.1-1.1.1-1.7V72.2a34.7,34.7,0,0,1-4.5,1.7l-.9-1.6A21.4,21.4,0,0,0,298,70a14.3,14.3,0,0,0,3.4-2.9l1.4,1.2a19.5,19.5,0,0,1-3.5,2.8Z"/>
      <path class="a" d="M315.2,68.8l-.5.6a12.7,12.7,0,0,1-3.1,3.6l-1.3-1.1a9.1,9.1,0,0,0,2.4-2.4h-8.4V67.8h9.9Zm-5.3,1.7c0,3.2,0,5.9-3.6,7.8L304.8,77a3.7,3.7,0,0,0,1.4-.7c1.6-1.1,1.9-2.5,1.9-4.6a4.9,4.9,0,0,0-.1-1.2Z"/>
      <path class="a" d="M319,73.5l-1.6.6a20.8,20.8,0,0,0-1.2-3l1.6-.6Zm6.6-2.7a9.2,9.2,0,0,0-.3.9,11.1,11.1,0,0,1-1.8,3.8,10.2,10.2,0,0,1-4.3,3.3l-1.4-1.4a8.9,8.9,0,0,0,4.3-2.8,9,9,0,0,0,1.7-4.4Zm-3.7,1.9-1.6.5a20,20,0,0,0-1-2.9l1.5-.5Z"/>
      <path class="a" d="M334.9,68.3h.7V68a1.6,1.6,0,0,1,1.6-1.5,1.5,1.5,0,0,1,1.5,1.5,1.6,1.6,0,0,1-1.5,1.6H337v.3a13.3,13.3,0,0,1-1.9,4.8,11.1,11.1,0,0,1-5.3,3.6l-1.4-1.6a8.4,8.4,0,0,0,5.1-3,7.3,7.3,0,0,0,1.5-3.7h-7.6V68.2h7.6Zm3-.3a.7.7,0,0,0-.7-.7.8.8,0,0,0-.8.7.9.9,0,0,0,.8.8A.8.8,0,0,0,337.9,68Z"/>
      <path class="a" d="M342.4,67.3c0,.5-.1,1.2-.1,1.7s-.2,4.3-.2,5.9.8,1.7,1.8,1.7a5.1,5.1,0,0,0,4.4-2.6l1.2,1.4a6.9,6.9,0,0,1-5.6,2.9c-2.1,0-3.5-.9-3.5-3.1s.1-5.1.1-6.2a9.1,9.1,0,0,0-.1-1.7Z"/>
      <path class="a" d="M351.1,68.6l5.5-.5,3.7-.2v1.6a10.6,10.6,0,0,0-2.5.2,4,4,0,0,0-2.7,3.6c0,2.1,2,2.9,4.1,3l-.6,1.8c-2.7-.2-5.2-1.7-5.2-4.5a4.9,4.9,0,0,1,1.9-3.9c-1.1.1-3.8.4-5.3.7l-.2-1.8Z"/>
      <path class="a" d="M363.9,69.9a25.3,25.3,0,0,0,.1,2.7c.2,1.8.6,3.1,1.4,3.1s1.1-1.5,1.4-2.5l1.3,1.5c-.9,2.3-1.7,3.1-2.7,3.1s-2.7-1.3-3-4.8a21.2,21.2,0,0,1-.2-3.4,5.7,5.7,0,0,0-.1-1.3h2A10,10,0,0,0,363.9,69.9Zm9,5.2-1.7.7c-.2-2.1-.9-5.1-2.3-6.7l1.6-.5A12.9,12.9,0,0,1,372.9,75.1Z"/>
      <path class="a" d="M383.4,77.6a13.2,13.2,0,0,0-2.6-1.8v.5c0,1.1-.8,1.9-2.5,1.9s-3.2-.7-3.2-2.1,1.2-2.2,3.2-2.2h.8a3.7,3.7,0,0,0-.1-1.1h-.6l-3.1-.2V71.1l3.1.2h.6V70h-.6l-2.8-.2V68.3a13.2,13.2,0,0,0,2.8.2h.6V67.1h1.7c0,.2-.1.6-.1.9v.5l3.1-.3v1.5l-3.1.2v1.3L384,71v1.5l-3.4.2c0,.5.1,1,.1,1.5a10.7,10.7,0,0,1,3.6,2Zm-4.3-2.3h-1c-.9,0-1.4.4-1.4.8s.4.8,1.3.8,1.2-.2,1.2-.9A1.3,1.3,0,0,0,379.1,75.3Z"/>
      <path class="a" d="M396.7,70.1H393V72a3.5,3.5,0,0,1,.5,1.8c0,1.6-1,3.8-4.1,4.7L388,77.1a5.7,5.7,0,0,0,3.1-1.5h-.6a2.3,2.3,0,0,1-2.2-2.4,2.4,2.4,0,0,1,2.6-2.4h.5v-.8l-5.5.2V68.7h5.6v-.4c-.1-.4-.1-.9-.2-1.1h1.9c0,.2-.1.9-.1,1.1v.4h3.7Zm-5.8,4.1c.5,0,1-.4.8-1.5a.9.9,0,0,0-.8-.4.9.9,0,0,0-1,1A.9.9,0,0,0,390.9,74.2Z"/>
      <path class="a" d="M400.4,76.4a2.1,2.1,0,0,1-2.1,2.1,2.1,2.1,0,0,1-2.1-2.1,2.2,2.2,0,0,1,2.1-2.1A2.1,2.1,0,0,1,400.4,76.4Zm-.9,0a1.1,1.1,0,0,0-1.2-1.1,1.1,1.1,0,0,0-1.1,1.1,1.1,1.1,0,0,0,1.1,1.2A1.2,1.2,0,0,0,399.5,76.4Z"/>
    </g>
    <rect class="b" x="0.5" y="0.5" width="433" height="87.5"/>
    <g>
      <rect class="a" x="13.3" y="70.7" width="78.2" height="7.94"/>
      <g class="c">
        <path class="a" d="M43.7,52.1h1.8v.9H44a3.9,3.9,0,0,0,1.8,1.8,1.2,1.2,0,0,0-.5.7,2.7,2.7,0,0,1-.8-.7,3.8,3.8,0,0,1-.8-1.1v1.6a1.7,1.7,0,0,0,.1.8h-.9a1.9,1.9,0,0,0,.1-.8V53.5a6.3,6.3,0,0,1-1.7,1.9l-.4-.7a4.7,4.7,0,0,0,1.8-1.9H41.4v-.3a1.6,1.6,0,0,0-.3.6,3.6,3.6,0,0,1-.4-.9V55a2.2,2.2,0,0,0,.1.9h-.9A2.2,2.2,0,0,0,40,55V52.6a6.7,6.7,0,0,1-.7,1.7,3.4,3.4,0,0,0-.3-.8,7.7,7.7,0,0,0,.9-2.2h-.8v-.8H40V50a1.5,1.5,0,0,0-.1-.7h.9a1.5,1.5,0,0,0-.1.7v.6h.6v.7a7,7,0,0,0,.6-1.7h.7c0,.1-.1.2-.1.4a.6.6,0,0,0-.1.4H43V50a1.5,1.5,0,0,0-.1-.7h.9a1.5,1.5,0,0,0-.1.7v.5h1.6v.8H43.7Zm-1.5-.9a5.9,5.9,0,0,0-.4.8l-.6-.5c0-.1.1-.1.1-.2h-.5a4.5,4.5,0,0,0,.6,1.2V52H43v-.9Z"/>
        <path class="a" d="M52,50.5h.6v.8H50.8a6.2,6.2,0,0,0,.5,2.7c.1.3.2.6.4.7s.1.2.2.2.1-.4.2-1.1l.7.4a2.4,2.4,0,0,1-.4,1.3.5.5,0,0,1-.5.3c-.3,0-.6-.3-1-.7a5.2,5.2,0,0,1-.7-2.1,6.5,6.5,0,0,1-.2-1.7H46.3v-.8H50a1.1,1.1,0,0,1-.1-.5v-.6h.9a1.3,1.3,0,0,0-.1.6v.5h.9l-.7-.8.6-.3.7.8-.6.3Zm-4.7,2.3h-.8v-.8h3.2v.8H48.5v1.7l1.5-.4v.8l-3.3.6h-.3v-.8l1.4-.2V52.8Z"/>
        <path class="a" d="M54.8,51.7l-1.1.6-.5-.8a4.5,4.5,0,0,0,1.8-1,3.4,3.4,0,0,0,1.2-1.2H57a4.6,4.6,0,0,0,1.2,1.2,5,5,0,0,0,1.9,1,3,3,0,0,0-.4.8,4.2,4.2,0,0,1-1.3-.7v.6H54.8Zm-.4,1.8h-.8v-.8h6.1v.8H56.4a9.1,9.1,0,0,1-.7,1.4l2.2-.2-.7-.8.7-.3a13.5,13.5,0,0,1,1.6,1.9l-.7.5-.4-.7-1.3.2-2.4.2h-.9v-.9h1a5,5,0,0,0,.8-1.4Zm3.4-2.1h.3A5,5,0,0,1,56.6,50a5.1,5.1,0,0,1-1.5,1.4h2.7Z"/>
        <path class="a" d="M62.3,55.2a1.5,1.5,0,0,0,.1.7h-.9V53.4l-.8.6c0-.3-.2-.5-.3-.8a3.4,3.4,0,0,0,1.2-.9,3.8,3.8,0,0,0,.8-1.1H60.6v-.8h1v-.6c0-.2-.1-.3-.1-.5h.9a.9.9,0,0,0-.1.5v.6H63l.4.4-.2.3a3.7,3.7,0,0,1-.7,1.2,4.8,4.8,0,0,0,1.1.9l-.3.7a2.5,2.5,0,0,1-1-.8Zm3.1-.4H67v.9H63v-.9h1.6V52.1H63.3v-.8h1.3V50.1a2.2,2.2,0,0,0-.1-.8h.9v2h1.4v.8H65.4Z"/>
        <path class="a" d="M15.9,58.9a5.6,5.6,0,0,0-.1-.7l.9-.2a2,2,0,0,0,.1.7v.6l1.5-.2.7-.2v.9h-.6l-1.6.2.3,1.2,1.6-.3h.8v.8h-.7l-1.7.3.3,1.4a2.6,2.6,0,0,1,.1.7l-.9.2c0-.2-.1-.4-.1-.8l-.3-1.4-1.7.3-.8.2v-.9h.8l1.7-.3-.2-1.1-1.4.2h-.7l-.2-.8h.8l1.3-.2Z"/>
        <path class="a" d="M21.9,59.9c0-.3-.1-.4-.1-.6h.8c0,.2.1.3.1.6v.5l2.1-.3.5-.2.5.5c0,.1-.1.2-.2.3a3.8,3.8,0,0,1-1.4,1.9,1,1,0,0,0-.6-.5,3.7,3.7,0,0,0,1.2-1.3h-.3l-1.7.2.5,2.7.2.6h-.9a1.5,1.5,0,0,0-.1-.6l-.5-2.6H20.9l-.2-.8H22Z"/>
        <path class="a" d="M28.3,58.3v3.2h-1c.1-.1.1-.4.1-.6V58.3Zm3.3,0c-.1.2-.1.2-.1.6v1a6.2,6.2,0,0,1-.2,2.2,2.4,2.4,0,0,1-1.4,1.6,3.1,3.1,0,0,1-1.4.6,2,2,0,0,0-.5-.9,3.4,3.4,0,0,0,1.6-.5,2.1,2.1,0,0,0,1-1.9V58.3Z"/>
        <path class="a" d="M36,59.9c-.1.1-.1.1-.1.6a3.6,3.6,0,0,1-.7,2.5,4.4,4.4,0,0,1-1.8,1.3,2.4,2.4,0,0,0-.6-.8l1.3-.6c.7-.6.9-1.2.9-2.6v-.4Zm2.9-.9-.3.5a7.6,7.6,0,0,1-1.1,1.4,4.7,4.7,0,0,1-.9.6l-.6-.6,1-.7.7-.9H33v-.9h5.4Z"/>
        <path class="a" d="M40.6,63.6h-.9v-.9h4.2V59.6H39.8v-.9h5V64h-.9v-.4Z"/>
        <path class="a" d="M46.1,60.7h6.2v1H46.1Z"/>
        <path class="a" d="M55.1,60.9H55a7.2,7.2,0,0,1-1.2,2.8,3.5,3.5,0,0,0-.8-.5,6.6,6.6,0,0,0,1.2-2.7Zm3.2-1.6h.4a.9.9,0,0,1-.6-.7.9.9,0,0,1,.9-.9.9.9,0,0,1,.8.9.7.7,0,0,1-.6.7v.9H56.7v4.3h-1a1.7,1.7,0,0,0,.1-.8V60.1H53.3v-.9h2.5v-.4a1.3,1.3,0,0,0-.1-.7h1v1.1Zm-.1,1.4a9.7,9.7,0,0,0,1.3,2.7l-.8.5a9.6,9.6,0,0,1-1.2-2.7c0-.2-.1-.2-.1-.3Zm.3-2.1a.5.5,0,0,0,.5.4.4.4,0,0,0,.4-.4.5.5,0,0,0-.4-.5A.5.5,0,0,0,58.5,58.6Z"/>
        <path class="a" d="M61.8,58.3a1.5,1.5,0,0,0-.1.7v4.1a5.4,5.4,0,0,0,1.9-.8,3.9,3.9,0,0,0,1.5-1.6l.7.7a6.6,6.6,0,0,1-1.6,1.7,7.9,7.9,0,0,1-2.6.9l-.5.2-.4-.6a5.6,5.6,0,0,0,.1-.7V59c0-.5,0-.5-.1-.7Z"/>
        <path class="a" d="M66.6,60.7h6.2v1H66.6Z"/>
        <path class="a" d="M74.2,60a5.6,5.6,0,0,1,1.9.9l-.4.8-1.9-1Zm-.3,3.2a6.3,6.3,0,0,0,2.1-.5,4.1,4.1,0,0,0,2.1-1.6,6,6,0,0,0,.8-1.6l.7.7a6.1,6.1,0,0,1-1,1.8,7,7,0,0,1-3.9,2h-.5Zm.9-5,1.9.9-.5.8-1.9-1Z"/>
        <path class="a" d="M81.4,64h-.6v-.7h3.4V62.2H81.1v-.8h3.1v-1H80.9v-.8H85v4.6h-.8V64Z"/>
        <path class="a" d="M86.6,63a5.4,5.4,0,0,0,2.1-.5,5.2,5.2,0,0,0,2.2-1.7,6.9,6.9,0,0,0,.7-1.5,1.8,1.8,0,0,0,.8.7,5.9,5.9,0,0,1-2.3,2.8,6.7,6.7,0,0,1-2.7,1.1h-.5Zm.6-4.4A10.4,10.4,0,0,1,89.1,60l-.6.8a9,9,0,0,0-1.9-1.5Z"/>
      </g>
      <g class="c">
        <path class="d" d="M37.4,75.6c.1.3.1.4.2.5a.8.8,0,0,0,.7.3c.5,0,.8-.3.8-.6a.5.5,0,0,0-.3-.5l-.8-.2-.8-.3a1.1,1.1,0,0,1-.3-.8c0-.7.5-1.1,1.4-1.1a1.7,1.7,0,0,1,1.2.5.8.8,0,0,1,.2.5H39a.4.4,0,0,0-.1-.3.9.9,0,0,0-.6-.3c-.5,0-.8.3-.8.6s.2.3.4.4l.7.2.8.3a1.2,1.2,0,0,1,.1,1.7,2.1,2.1,0,0,1-1.2.3l-1-.2a1,1,0,0,1-.5-.6.8.8,0,0,0-.1-.4Z"/>
        <path class="d" d="M41.1,73v3.9h-.7V73Z"/>
        <path class="d" d="M44.3,76.9c0-.2-.1-.3-.3-.6l-1.2-1.9-.4-.6c0,.1,0,.1.1.3v2.8h-.7V73h.8l.3.5,1.2,1.8.4.7c0-.2-.1-.5-.1-.7V73h.7v3.9Z"/>
        <path class="d" d="M49.1,75.7c-.1.3-.1.5-.3.7a1.7,1.7,0,0,1-1.3.5,1.7,1.7,0,0,1-1.3-.4,2.5,2.5,0,0,1-.5-1.6,1.9,1.9,0,0,1,.6-1.5,1.5,1.5,0,0,1,1.2-.5l.9.2c.2.2.4.3.5.6l.2.3-.7.2-.2-.4a.9.9,0,0,0-.7-.3c-.7,0-1.1.5-1.1,1.4s.4,1.5,1.1,1.5a1.2,1.2,0,0,0,.8-.4c.1-.1.1-.2.1-.5Z"/>
        <path class="d" d="M52.5,76.9H49.7V73h2.7v.7h-2v1.1h1.8v.7H50.4v1.2h2.1Z"/>
        <path class="d" d="M55.8,76.9V73.5h-.7v-.7h1.4v4Z"/>
        <path class="d" d="M58.8,75.9c0,.2.1.2.1.3l.6.2.5-.2a1.5,1.5,0,0,0,.4-1.2l-.2.3a1.2,1.2,0,0,1-.8.2,1.3,1.3,0,0,1-.7-2.4,1.1,1.1,0,0,1,.8-.2,1.3,1.3,0,0,1,1.3.9,3,3,0,0,1,.2,1,2.5,2.5,0,0,1-.5,1.7,1.4,1.4,0,0,1-1.1.4,1.2,1.2,0,0,1-.9-.3.7.7,0,0,1-.4-.5Zm1.5-1.7a.8.8,0,1,0-.8.8A.8.8,0,0,0,60.3,74.2Z"/>
        <path class="d" d="M62.2,75.9l.2.3.6.2.5-.2a1.5,1.5,0,0,0,.4-1.2c-.1.2-.2.2-.3.3s-.4.2-.8.2a1.2,1.2,0,0,1-1.3-1.3,1.1,1.1,0,0,1,.6-1.1,1.3,1.3,0,0,1,.9-.2,1.3,1.3,0,0,1,1.3.9,3,3,0,0,1,.2,1,2.5,2.5,0,0,1-.5,1.7,1.4,1.4,0,0,1-1.1.4,1.2,1.2,0,0,1-.9-.3.7.7,0,0,1-.4-.5Zm1.6-1.7a.8.8,0,0,0-.8-.8.7.7,0,0,0-.8.8.7.7,0,0,0,.7.8A.8.8,0,0,0,63.8,74.2Z"/>
        <path class="d" d="M65.7,75.9l.2.3.5.2a.8.8,0,0,0,.6-.2,2.8,2.8,0,0,0,.4-1.2l-.3.3a1.1,1.1,0,0,1-.8.2A1.2,1.2,0,0,1,65,74.2a1.1,1.1,0,0,1,.6-1.1c.2-.2.5-.2.9-.2a1.3,1.3,0,0,1,1.3.9,3,3,0,0,1,.2,1,2.1,2.1,0,0,1-.6,1.7,1.1,1.1,0,0,1-1,.4,1.7,1.7,0,0,1-1-.3l-.4-.5Zm1.6-1.7a.8.8,0,0,0-.9-.8.8.8,0,0,0-.8.8.7.7,0,0,0,.8.8A.8.8,0,0,0,67.3,74.2Z"/>
      </g>
      <g class="c">
        <path class="a" d="M55.2,25.7A13.6,13.6,0,0,1,60.9,20a11.7,11.7,0,0,1,4.5-1.3,29,29,0,0,1,5.1.2,31.5,31.5,0,0,1,5.2.9,9.6,9.6,0,0,1,2.8,1.1c.7.4.7.9,0,1.2a15.1,15.1,0,0,1-2.9,1.3l-3.8.8H68a31.3,31.3,0,0,0-5.3.1c-3.1.3-4.8,2.3-6.5,4.5l-.5.7c-.6.7-.8.7-1.4,0A51.5,51.5,0,0,0,49,23.5a12.6,12.6,0,0,0-3.6-2.4,9.4,9.4,0,0,0-2.4-.6l-7.4-.8-7.3-.5H23.1a11.9,11.9,0,0,1-6.4-1.8,1.8,1.8,0,0,1-.7-.5c-1.6-1.7-1.4-2.5.5-3.6a19.3,19.3,0,0,1,6.7-2l5.4-.5h7.9a30.7,30.7,0,0,1,5.3.5,11.5,11.5,0,0,1,6.1,2.6,13.5,13.5,0,0,1,4,4.9c.8,1.4,1.4,2.9,2.1,4.4a4.9,4.9,0,0,0,.4,1.1A11.5,11.5,0,0,0,55.2,25.7Z"/>
        <g>
          <path class="a" d="M16.9,35.3c0-4.4,3.5-7,8.1-7a8.2,8.2,0,0,1,5,1.6l-1.2,1.2A5.8,5.8,0,0,0,25,29.8c-3.4,0-5.7,2.1-5.7,5.4s2.2,5.6,5.7,5.6a6.7,6.7,0,0,0,4.2-1.5l1.3,1a8.2,8.2,0,0,1-5.6,2C20.3,42.3,16.9,39.7,16.9,35.3Z"/>
          <path class="a" d="M39.8,36.8H34.9l-1.3,2.9H31.8l4.6-9.6h1.9L43,39.7H41.1Zm-.4-1-.6-1.5c-.5-1.1-1-2.1-1.4-3.2h-.1c-.4,1.1-.9,2.1-1.3,3.2l-.7,1.5Z"/>
          <path class="a" d="M54.2,39.7l-4.5-4.1H47.2v4.1H45.5V30.1h4.3c2.7,0,4.7.7,4.7,2.7s-1.2,2.4-3.1,2.7l4.7,4.2Zm-7-5.1h2.3c2.1,0,3.3-.6,3.3-1.8s-1.2-1.7-3.3-1.7H47.2Z"/>
          <path class="a" d="M57.9,30.1h8v1H59.6v2.4h6.3v1.1H59.6v4.1h6.3v1h-8Z"/>
          <path class="a" d="M70,30.1h7.8v1H71.7v2.4h6.1v1.1H71.7v4.1h6.4v1H70Z"/>
          <path class="a" d="M90.2,39.7l-4.5-4.1H83.2v4.1H81.5V30.1h4.3c2.8,0,4.7.7,4.7,2.7s-1.2,2.4-3,2.7l4.6,4.2Zm-7-5.1h2.3q3.3,0,3.3-1.8c0-1.3-1.1-1.7-3.3-1.7H83.2Z"/>
        </g>
      </g>
    </g>
  </g>
</svg>
