<?xml version="1.0" encoding="utf-8"?>
<!-- Generator: Adobe Illustrator 23.0.2, SVG Export Plug-In . SVG Version: 6.00 Build 0)  -->
<svg version="1.1" id="レイヤー_1" xmlns="http://www.w3.org/2000/svg" xmlns:xlink="http://www.w3.org/1999/xlink" x="0px"
	 y="0px" width="434px" height="88.5px" viewBox="0 0 434 88.5" style="enable-background:new 0 0 434 88.5;" xml:space="preserve">
<style type="text/css">
	.st0{fill:none;stroke:#9B9B9B;stroke-miterlimit:10;}
	.st1{fill:#008030;}
	.st2{fill:#FFFFFF;}
</style>
<title>footbanner</title>
<g>
	<g>
		<path d="M112.6,24.6h10.1v8.6h-2.2v-0.8h-5.9v0.8h-2v-7.1l-0.9,1.3c-0.4-0.7-0.9-1.3-1.5-1.8v7.6H108v-6.3l-1.9,1.6
			c-0.3-0.8-0.6-1.5-1-2.2c2-1.3,3.7-3.1,4.8-5.3h-4.1v-2h2.2v-3.5h2.2V19h1.2l1.3,0.8c-0.5,1.4-1.2,2.7-2,3.9l1.9,1.6V24.6z
			 M122.7,16.2v1.9h-10.2v-1.9H122.7z M121.8,19v4.7h-8.3V19H121.8z M114.6,26.4v1.2h1.9v-1.2H114.6z M114.6,30.6h1.9v-1.3h-1.9
			V30.6z M119.8,20.7h-4.3V22h4.3V20.7z M120.5,26.4h-2v1.2h2V26.4z M120.5,30.6v-1.3h-2v1.3H120.5z"/>
		<path d="M131.1,27.9c-0.5-0.8-1.1-1.5-1.7-2.1v7.4h-2.2v-6.4l-2.1,1.7c-0.3-0.8-0.6-1.5-1-2.2c2.1-1.3,3.8-3.1,4.9-5.3h-4.2v-2
			h2.4v-3.5h2.2V19h1.2l1.2,0.8c-0.5,1.4-1.1,2.7-1.9,3.9c0.9,0.8,1.7,1.6,2.5,2.4L131.1,27.9z M142.2,30.7v2.1h-11.4v-2.1h1.7V19.9
			h2.2v10.8h1.7v-15h2.3V22h3.1v2.2h-3.1v6.5L142.2,30.7z"/>
		<path d="M157,20.5l-1.8,1c-1.8,0.8-3.6,1.8-5.3,2.8c-1.5,1-2.6,2.1-2.6,3.4s1.3,2.1,3.9,2.1c2.1,0,4.2-0.3,6.2-0.7v2.7
			c-2,0.4-4,0.5-6,0.5c-3.7,0-6.6-1.1-6.6-4.3s1.3-3.6,3.1-5c-0.8-1.6-1.7-3.6-2.6-5.6l2.4-0.9c0.7,1.9,1.6,3.7,2.3,5.2l4.1-2.2
			l1.7-1.2L157,20.5z"/>
		<path d="M172.9,20.5l-1.9,1c-1.8,0.8-3.5,1.8-5.2,2.8c-1.6,1-2.6,2.1-2.6,3.4s1.3,2.1,3.9,2.1c2.1,0,4.1-0.3,6.1-0.7v2.7
			c-2,0.4-4.1,0.5-6.1,0.5c-3.7,0-6.5-1.1-6.5-4.3s1.3-3.6,3.1-5c-0.9-1.6-1.8-3.6-2.7-5.6l2.4-0.9c0.7,1.8,1.5,3.5,2.4,5.2l4-2.2
			l1.8-1.2L172.9,20.5z"/>
		<path d="M189.4,23.2c1.1,1.2,1.7,2.8,1.8,4.5c0,2.9-2.6,4.9-6.7,4.9s-5-1.3-5-4.4c0-0.6,0-1.3,0.1-1.9c-1.2-0.1-2.4-0.3-3.6-0.6
			v-2.3c1.2,0.4,2.4,0.6,3.7,0.7l0.3-2.5l-3.7-0.7v-2.2c1.3,0.4,2.6,0.6,3.9,0.7c0.1-0.5,0.1-1,0.1-1.5c0.1-0.6,0.1-1.1,0.1-1.7
			l2.6,0.2c-0.1,0.7-0.2,1.2-0.3,1.7s-0.1,0.8-0.2,1.4l3.4-0.2v2.2l-3.7,0.2l-0.3,2.5h0.1l4-0.2v2.3h-4.1v1.4c0,1.5,0.9,2.4,2.8,2.4
			s4.1-1.2,4.1-2.8c-0.2-1.4-0.9-2.7-2-3.6L189.4,23.2z"/>
		<path d="M198.2,17.1c-0.1,0.3-0.3,1.3-0.4,1.6c-0.5,2.3-0.8,4.6-0.9,6.9c0,0.4,0,0.8,0.1,1.2c0.2-0.6,0.5-1.2,0.8-1.9l1.2,1
			c-0.6,1.5-1,3-1.4,4.6c0,0.2-0.1,0.7-0.1,0.8v0.8l-2.1,0.2c-0.6-2-0.8-4.1-0.8-6.2c0.1-2.5,0.4-5,0.8-7.4c0.1-0.6,0.2-1.3,0.2-1.9
			L198.2,17.1z M202.7,26.3c-0.2,0.5-0.3,1.1-0.3,1.6c0,0.9,0.7,1.4,2.6,1.4c1.6,0,3.2-0.2,4.8-0.5v2.5c-1.6,0.3-3.2,0.4-4.8,0.4
			c-3.3,0-4.8-1.2-4.8-3.1c0-0.8,0.1-1.7,0.3-2.5L202.7,26.3z M209.2,18.3v2.4c-2.7,0.2-5.3,0.2-8,0v-2.4
			C203.9,18.5,206.5,18.5,209.2,18.3z"/>
		<path d="M229,18.2c-0.2,3.4-1.1,6.8-2.7,9.9c0.9,1.3,2,2.3,3.4,3.1c-0.6,0.5-1.1,1.2-1.5,1.9c-1.3-0.8-2.4-1.8-3.3-2.9
			c-1,1.1-2.1,2.1-3.4,2.9l-1.2-1.7v1.8h-2.2v-3l-6.2,1l-0.4-2.3l1.7-0.2V18.6h-1.3v-2.1h9.6v1.4h6L229,18.2z M215.4,18.6v1.8h2.7
			v-1.8H215.4z M215.4,24.4h2.7v-1.9h-2.7V24.4z M215.4,28.4l2.7-0.3v-1.7h-2.7V28.4z M220.3,31.1c1.3-0.8,2.4-1.8,3.3-3
			c-1.2-2.4-2.1-4.9-2.6-7.5l2.2-0.5c0.3,2,0.9,3.9,1.7,5.7c0.8-1.8,1.3-3.7,1.6-5.7h-5.6v-1.5h-0.6L220.3,31.1z"/>
		<path d="M235.2,16.4c-0.4,1.3-0.6,2.6-0.8,3.9c0.9-1.8,2.7-3,4.7-3.1c2.6,0,4.6,2.6,4.6,6.7s-3.3,7.9-8.2,8.8l-1.5-2.2
			c4.2-0.6,7.1-2,7.1-6.6c0-2.9-0.9-4.5-2.5-4.5s-4.1,3.4-4.2,5.8c-0.1,0.7-0.1,1.3,0.1,2l-2.4,0.2c-0.1-1.1-0.2-2.1-0.2-3.2
			c0-2,0.2-4,0.5-6c0.1-0.7,0.2-1.3,0.2-2L235.2,16.4z"/>
		<path d="M248.3,26.9c-0.1,1.7-0.5,3.3-1.2,4.9l-1.7-0.8c0.5-1.4,0.9-2.9,1-4.4L248.3,26.9z M250.6,25.4v7.8h-2v-7.6l-2.8,0.2
			l-0.2-2h1.4c0.3-0.4,0.6-0.8,0.9-1.2c-0.7-0.9-1.5-1.8-2.3-2.6l1.1-1.5l0.4,0.4c0.5-1.1,1-2.2,1.4-3.3l2,0.7l-2.1,3.7l0.6,0.8
			c0.7-1,1.3-2,1.8-3.1l1.9,0.8c-1.1,1.7-2.4,3.6-3.6,5.2h1.9c-0.2-0.5-0.5-0.9-0.7-1.3l1.6-0.7c0.8,1.2,1.4,2.6,1.8,4l-1.8,0.8
			c0-0.4-0.1-0.7-0.2-1.1L250.6,25.4z M252.3,26.5c0.5,1.1,0.9,2.3,1.2,3.5l-1.7,0.7c-0.3-1.3-0.7-2.5-1.2-3.7L252.3,26.5z
			 M263.5,30.7v2h-11.1v-2h1.7V16.4h8.1v14.3H263.5z M256.3,18.4v2.7h3.6v-2.7L256.3,18.4z M259.9,23.1h-3.6v2.7h3.6V23.1z
			 M256.3,30.7h3.6v-2.8h-3.6V30.7z"/>
		<path d="M281.1,29l-1.6-1.3c-0.9,2.2-2.6,4.1-4.8,5.1l-2-1.6c2.2-0.8,4-2.6,4.8-4.8c-1.4-0.7-2.9-1.2-4.4-1.5
			c-0.6,1.6-1.3,3.1-2.2,4.5c-0.5,1.1-1.7,1.8-2.9,1.7c-1.5,0.1-2.8-1.1-2.9-2.7c0-0.1,0-0.2,0-0.3c0-2.9,2.6-5.2,6.4-5.4l1.5-3.3
			h-3.2l-1.5,0.2v-2.4h5.5l1.2-0.3l1.6,1.1l-0.7,0.8c-0.7,1.3-1.3,2.7-1.8,4.1c1.4,0.2,2.7,0.6,4,1.2c0-0.2,0.1-0.4,0.1-0.7v-2
			l2.4,0.3c0,1.2-0.1,2.3-0.3,3.5l2,1.2L281.1,29z M270.5,24.9c-2,0.3-3.2,1.6-3.2,2.8c-0.1,0.4,0.2,0.8,0.7,0.9c0,0,0,0,0,0
			c0.4,0,0.7-0.2,1-0.7C269.6,27,270.1,25.9,270.5,24.9z"/>
		<path d="M283.5,29.9c3.8-3.4,6.1-6,6.1-8.2c0.1-1.2-0.7-2.2-1.9-2.3c-0.1,0-0.1,0-0.2,0c-1,0.1-2,0.6-2.6,1.5l-1.5-1.5
			c1-1.4,2.7-2.2,4.4-2.2c2.3-0.2,4.3,1.6,4.5,3.9c0,0.2,0,0.3,0,0.5c0,2.5-2.2,5.2-4.7,7.8l2.3-0.2h3v2.4h-9.4L283.5,29.9z"/>
		<path d="M294.7,24.5c0-4.9,1.9-7.3,4.8-7.3s4.7,2.4,4.7,7.3s-1.9,7.3-4.7,7.3S294.7,29.3,294.7,24.5z M301.6,24.5
			c0-4-0.9-5.1-2.1-5.1s-2.1,1.1-2.1,5.1s0.9,5.1,2.1,5.1S301.6,28.4,301.6,24.5z"/>
		<path d="M315.7,27.1v3.7c0,1.1-0.2,1.7-1,2c-1,0.4-2.1,0.5-3.2,0.4c-0.3-0.8-0.6-1.5-0.9-2.2h2.3c0.3,0,0.4-0.1,0.4-0.4v-3.5h-6.2
			v-2.2h6.2v-1.7h-3.7v-1.3c-0.9,0.6-1.8,1.1-2.7,1.5c-0.4-0.6-0.8-1.2-1.3-1.8c3-1.4,5.6-3.5,7.7-6.1h2.2c2.2,2.6,4.9,4.6,8.1,5.9
			c-0.6,0.6-1.1,1.3-1.5,2l-2.8-1.6v1.4h-3.6v1.7h6.6v2.2H315.7z M311.8,28.5c-1.2,1.6-2.7,3-4.5,4.1c-0.5-0.6-1.1-1.1-1.7-1.5
			c1.6-0.8,3-2,4.1-3.4L311.8,28.5z M318.4,21.2c-1.4-1-2.7-2.3-3.9-3.6c-1.1,1.3-2.4,2.6-3.8,3.6H318.4z M318.9,27.6
			c1.5,1.1,2.9,2.3,4.2,3.7l-2,1.3c-1.2-1.4-2.6-2.7-4.1-3.8L318.9,27.6z"/>
		<path d="M342.3,29.2h-6.5v4h-2.4v-4h-8.5V27h3v-5h5.5v-2.3h-4c-0.7,1.3-1.6,2.5-2.6,3.5l-2-1.5c1.9-1.7,3.3-3.9,4-6.3l2.3,0.6
			l-0.6,1.6h10.7v2.1h-5.4V22h5v2.1h-5V27h6.5V29.2z M333.4,27v-2.9h-3.3V27H333.4z"/>
		<path d="M116.4,50.8L115,51l-2.8,0.4c0.2,1.1,0.4,1.9,0.5,2.3L113,55l-1.9,0.4c0-0.5-0.1-1-0.1-1.4s-0.3-1.2-0.5-2.3l-3.1,0.5
			l-1.3,0.3l-0.3-1.8h1.3l3.1-0.5l-0.4-2.1l-2.5,0.4l-1.2,0.3l-0.4-1.8h1.3l2.5-0.3c-0.1-0.6-0.2-1-0.2-1.2l-0.3-1l1.9-0.3
			c0,0.3,0,0.7,0.1,1c0,0.2,0.1,0.6,0.2,1.2l2.6-0.4l1.2-0.3l0.3,1.7l-1.2,0.2l-2.6,0.4l0.4,2l2.8-0.4l1.4-0.4L116.4,50.8z"/>
		<path d="M123,51.7c0.8-0.7,1.4-1.5,2-2.4l-3,0.6c0.4,1.8,1,3.8,1.2,4.5c0.1,0.4,0.2,0.7,0.4,1.1l-1.8,0.4
			c-0.1-0.4-0.2-0.7-0.3-1.1c-0.1-0.7-0.7-2.8-1.1-4.5l-2.5,0.5l-0.4-1.6h1.2l1.3-0.3l-0.4-1.2l-0.3-0.9l1.7-0.4
			c0.1,0.3,0.1,0.6,0.2,1l0.4,1.2l3.9-0.7l0.7-0.2l1,0.7c-0.7,1.5-1.6,2.8-2.7,4.1L123,51.7z"/>
		<path d="M131.5,44.6c-0.1,0.3-0.1,0.7-0.1,1V50c0,0.4,0,0.7,0.1,1.1h-2c0-0.3,0.1-0.8,0.1-1.1v-4.4c0-0.3,0-0.7-0.1-1H131.5z
			 M137.5,44.5c-0.1,0.4-0.1,0.9-0.1,1.3v2.5c0,2.8-0.5,4-1.5,5.1c-0.9,0.9-2,1.5-3.2,1.9l-1.3-1.4c1.2-0.2,2.3-0.8,3.2-1.7
			c0.8-1,1-1.9,1-4v-2.4c0-0.4,0-0.9-0.1-1.3H137.5z"/>
		<path d="M150.9,45.8l-0.5,0.6c-0.8,1.4-1.8,2.6-3.1,3.6l-1.4-1.1c1-0.6,1.8-1.4,2.4-2.4H140v-1.7h9.9L150.9,45.8z M145.6,47.5
			c0,3.2-0.1,5.9-3.6,7.8l-1.5-1.3c0.5-0.1,0.9-0.4,1.3-0.7c1.7-1.1,2-2.5,2-4.6c0-0.4,0-0.8-0.1-1.2H145.6z"/>
		<path d="M160.2,54.8v-0.6h-7.6v-1.8h7.6v-5.3h-7.4v-1.8h9.3c-0.1,0.4-0.1,0.8-0.1,1.2v6.7c0,0.5,0,1,0.1,1.5L160.2,54.8z"/>
		<path d="M164.8,48.5h10.6v2.1h-10.6V48.5z"/>
		<path d="M180.9,49.9c-0.7,1.3-1.6,2.5-2.5,3.6l-1.4-0.9c1-1,1.8-2.1,2.4-3.4L180.9,49.9z M183.8,48v6.1c0.1,0.6-0.4,1.1-1,1.2
			c-0.1,0-0.2,0-0.3,0h-2.1l-0.2-1.6h1.5c0.3,0,0.4-0.1,0.4-0.4s0.1-4.6,0.1-5.2h-4.6v-1.7h4.6v-1c0-0.4-0.1-0.7-0.2-1.1h2
			c-0.1,0.4-0.2,0.7-0.2,1.1v1.1h4.4v1.7h-4.4V48z M186.5,49.2c0.8,1.1,1.6,2.2,2.2,3.4l-1.5,0.8c-0.6-1.2-1.3-2.4-2.1-3.5
			L186.5,49.2z M185.8,44.8c0-0.8,0.7-1.5,1.5-1.5s1.5,0.7,1.5,1.5s-0.7,1.5-1.5,1.5C186.5,46.3,185.8,45.6,185.8,44.8L185.8,44.8z
			 M186.6,44.8c0,0.4,0.3,0.7,0.7,0.7c0.4,0,0.7-0.3,0.7-0.7c0-0.4-0.3-0.7-0.7-0.7l0,0C186.9,44.1,186.6,44.4,186.6,44.8
			L186.6,44.8z"/>
		<path d="M191.1,54c0.2-0.2,0.2-0.5,0.2-0.8v-7.1c0-0.5-0.1-0.9-0.2-1.4h2.1c-0.1,0.5-0.1,0.9-0.1,1.4v6.8c2.6-0.8,4.8-2.3,6.6-4.3
			l1,1.5c-2.1,2.2-4.7,3.8-7.6,4.7l-0.8,0.3L191.1,54z"/>
		<path d="M202.1,48.5h10.6v2.1h-10.6V48.5z"/>
		<path d="M218.2,49.1l-0.9,1.4c-1-0.7-2-1.3-3-1.8l1-1.5C216.1,47.7,217.6,48.6,218.2,49.1z M219.3,52c2.1-1.1,3.8-2.8,5-4.8l1,1.7
			c-1.3,1.9-3.1,3.5-5.1,4.7c-1.4,0.7-2.9,1.3-4.4,1.6l-1-1.7C216.4,53.2,217.9,52.7,219.3,52z M220.2,46.1l-1,1.5l-2.9-1.9l1-1.4
			L220.2,46.1z"/>
		<path d="M234.6,54.6v0.9h-1.7c0.1-0.1,0.1-0.3,0.1-0.5h-6.1v-1.6h6.1v-1.6h-5.6v-1.5h5.6v-1.6h-5.9v-1.5h7.5
			C234.6,47.2,234.6,54.6,234.6,54.6z"/>
		<path d="M241.9,51.6c2-1.2,3.7-2.9,4.8-5l1,1.8c-1.1,2-2.8,3.7-4.8,4.8c-1.5,0.9-3.2,1.5-4.9,1.8l-1-1.7
			C238.7,53.1,240.4,52.5,241.9,51.6z M241.9,47.4l-1.3,1.4c-1-1-2.1-1.9-3.2-2.8l1.2-1.3C239.8,45.5,240.9,46.4,241.9,47.4z"/>
		<path d="M251.6,44.6c-0.1,0.2-0.2,0.9-0.3,1.1c-0.3,1.6-0.5,3.3-0.6,5c0,0.3,0,0.5,0.1,0.8c0.1-0.4,0.3-0.9,0.5-1.3l0.8,0.6
			c-0.3,1.1-0.8,2.4-0.9,3.1s-0.1,0.5-0.1,0.6V55h-1.4c-0.4-1.3-0.5-2.7-0.5-4.1c0.1-1.8,0.2-3.5,0.5-5.3c0.1-0.4,0.1-0.9,0.1-1.3
			L251.6,44.6z M259.5,54.3c-0.4-0.5-1-0.9-1.5-1.3c0,1.2-1.1,2.2-2.3,2.1c-0.1,0-0.1,0-0.2,0c-1.8,0-2.9-0.8-2.9-2.1
			s1.1-2.2,2.8-2.2h0.9c-0.1-0.9-0.1-1.7-0.1-2.6H253v-1.6h3.2c0-0.5,0-0.9-0.1-1.4v-0.9h1.8c0,0.3-0.1,0.6-0.1,0.8v1.4l2-0.3v1.6
			l-2,0.2c0,1.3,0.1,2.3,0.1,3.2c0.9,0.4,1.8,0.9,2.5,1.6L259.5,54.3z M256.3,52.2l-1-0.2c-0.7,0-1.2,0.3-1.2,0.8s0.5,0.8,1.2,0.8
			s1-0.4,1-1.2V52.2z"/>
		<path d="M273.1,53.8v1.5h-11.7v-1.5h5v-2.5h-3.7v-1.5h3.7v-2.3H262V46h5.2l-2-1.6l1.3-0.9c0.9,0.6,1.7,1.3,2.5,2l-0.7,0.5h4.1v1.5
			h-4.3v2.3h3.7v1.5h-3.7v2.5H273.1z"/>
		<path d="M277.5,44.6c-0.1,0.3-0.2,0.9-0.3,1.2c-0.3,1.5-0.5,3.1-0.6,4.7v0.8l0.6-1.3l0.8,0.7c-0.4,1-0.7,2.1-0.9,3.1
			c0,0.2-0.1,0.5-0.1,0.6v0.5h-1.4c-0.4-1.4-0.5-2.8-0.5-4.2c0-1.7,0.2-3.4,0.5-5.1c0-0.3,0.1-0.8,0.1-1.2L277.5,44.6z M280.5,51
			c-0.1,0.4-0.1,0.7-0.1,1.1c0,0.5,0.5,0.9,1.8,0.9c1.1,0,2.2-0.1,3.2-0.4v1.8l-3.3,0.2c-2.2,0-3.3-0.8-3.3-2.1
			c0-0.6,0.1-1.2,0.3-1.7L280.5,51z M285,45.5v1.6c-1.8,0.2-3.7,0.2-5.5,0v-1.6C281.3,45.7,283.2,45.7,285,45.5z"/>
		<path d="M294.7,51.8c1.2,1.1,2.7,1.9,4.2,2.4l-1.1,1.4c-1.6-0.8-3-1.8-4.2-3.1v3.2H292v-3.1c-1.2,1.2-2.6,2.2-4.2,2.9
			c-0.3-0.5-0.7-0.9-1.1-1.3c1.5-0.5,2.9-1.3,4.1-2.4h-2.6v-5h3.8v-0.7h-4.9v-1.5h4.9v-1h1.6v1h5v1.5h-5v0.7h3.9v5H294.7z
			 M289.7,48.7h2.3V48h-2.3V48.7z M289.7,50.6h2.3v-0.8h-2.3V50.6z M293.6,48v0.7h2.4V48L293.6,48z M296,49.8h-2.4v0.8h2.4V49.8z"/>
		<path d="M303.5,52.3c-0.7,1.1-1.5,2.1-2.5,2.9l-1.3-0.9c0.9-0.6,1.7-1.5,2.2-2.5L303.5,52.3z M311.5,46.3h-11.4v-1.5h4.8v-1.3h1.7
			v1.3h4.9V46.3z M306.6,51.3v2.8c0.1,0.6-0.2,1.1-0.7,1.4c-0.8,0.2-1.6,0.3-2.4,0.2c-0.1-0.5-0.3-1-0.5-1.5h1.7
			c0.2,0,0.3,0,0.3-0.2v-2.7h-3.5v-4.1h8.6v4.1H306.6z M303.1,50h5.4v-1.5h-5.4V50z M309.4,51.8c0.9,0.9,1.7,1.8,2.4,2.8l-1.6,0.7
			c-0.7-1-1.4-1.9-2.2-2.8L309.4,51.8z"/>
		<path d="M324.9,44.9c-0.4,1.3-1,2.7-1.5,3.9c0.8,0.8,1.3,1.9,1.3,3c0,1-0.2,1.6-0.7,1.9l-0.9,0.4h-1.2c0-0.5-0.1-1-0.4-1.5h1.4
			c0.2-0.1,0.3-0.4,0.3-0.9c-0.1-1-0.5-1.9-1.3-2.6c0.4-1,0.8-2.3,1.1-3.3h-1.6v10h-1.5V44.5c-0.4,1-0.9,1.9-1.4,2.8h0.9v1.4h-1.9
			l-0.8,0.9h2.3v5.9h-1.5V55h-2.1v0.6H314v-3.9l-0.6,0.4c-0.3-0.5-0.6-0.9-0.9-1.3c1.1-0.5,2.2-1.3,3.1-2.1h-2.8v-1.4h2.3v-1.1h-1.7
			v-1.3h1.7v-1.2h1.4v1.2h1.4v0.7l0.6-1.5l1.4,0.4v-0.2h3.9L324.9,44.9z M317.5,50.8h-2.1v0.9h2.1V50.8z M317.5,53.7v-0.9h-2.1v0.9
			H317.5z M316.8,47.3l0.7-1.1h-1v1.1H316.8z"/>
		<path d="M337.2,47.6c-0.4,1.9-1.3,3.7-2.6,5.2c1,0.7,2.2,1.1,3.4,1.4c-0.4,0.4-0.8,0.9-1.1,1.5c-1.3-0.4-2.6-0.9-3.7-1.7
			c-1,0.7-2.2,1.3-3.4,1.7c-0.2-0.5-0.5-1-0.9-1.4C330,54,331,53.6,332,53c-0.9-0.9-1.6-2-2.2-3.2c-0.3,2.2-1.4,4.2-3,5.7
			c-0.3-0.5-0.7-0.9-1.1-1.3c2.5-2.3,2.8-5.5,2.8-7.6v-0.9h-2.1v-1.5h7.1l1.2,0.2l-0.6,3h2.1L337.2,47.6z M330.1,45.7v0.5
			c0.4,2.2,1.6,4.2,3.2,5.7c0.9-0.9,1.5-2,1.9-3.2h-1.5v0.6L332,49c0.3-1,0.6-2.2,0.9-3.3H330.1z"/>
		<path d="M347.7,44.9c0.4,2,1.4,3.8,2.8,5.3l-1.2,1.3c-0.4-0.6-0.8-1.1-1.2-1.8c0.1,3-1.3,5.8-4.6,5.8c-1.9,0.1-3.5-1.3-3.6-3.2
			c0-0.1,0-0.3,0-0.4c0.1-1.8,0.8-3.6,2-5l-1.7,0.2l-0.7,0.2l-0.3-1.7h0.8c1.5-0.1,2.9-0.4,4.3-0.8l0.5,1.5l-0.6,0.3
			c-1.5,1.3-2.5,3.1-2.7,5.1c-0.1,1,0.6,2,1.7,2.1c0.1,0,0.3,0,0.4,0c2.4,0,3.9-3,2.8-7.7c-0.1-0.3-0.2-0.5-0.2-0.8L347.7,44.9z
			 M348.7,46.3c-0.2-0.7-0.5-1.3-0.8-1.9l1-0.3c0.3,0.6,0.6,1.2,0.8,1.9L348.7,46.3z M350.1,45.8l-0.7-1.9l0.9-0.3
			c0.3,0.6,0.6,1.2,0.8,1.9L350.1,45.8z"/>
		<path d="M117.2,78.1h-9.8v0.6h-1.6V67.2h11.1v1.5h-9.5v7.9h9.8V78.1z M114.5,75.9c-0.7-0.8-1.5-1.6-2.3-2.3c-0.9,1-2,1.9-3.1,2.7
			l-1.2-1.2c1.2-0.7,2.2-1.5,3.1-2.5c-0.9-0.7-1.8-1.3-2.7-1.9l1.1-1l2.6,1.8c0.6-0.8,1.2-1.7,1.6-2.6l1.6,0.5c-0.5,1.1-1.2,2.1-2,3
			c0.9,0.7,1.7,1.5,2.5,2.4L114.5,75.9z"/>
		<path d="M123.7,67.4c-0.1,0.4-0.1,0.8-0.2,1.1l-0.3,1.3h1.1c1.4,0,2.3,0.6,2.3,2.4c0.1,1.6-0.1,3.2-0.7,4.7
			c-0.4,0.8-1.2,1.3-2.1,1.2l-1.5-0.2l-0.3-1.7l1.6,0.3c0.4,0,0.7-0.2,0.9-0.6c0.4-1.1,0.6-2.3,0.5-3.5c0-1-0.4-1.2-1.2-1.2h-0.9
			c-0.6,2.4-1.4,4.7-2.6,6.9l-1.7-0.7c1.2-1.9,2-3.9,2.6-6h-1.1l-1.4,0.2l-0.2-1.7h1.4l1.6-0.2c0.2-0.9,0.3-1.8,0.3-2.7L123.7,67.4z
			 M128.3,68.9c0.9,1.4,1.6,2.9,2.1,4.5l-1.6,0.8c-0.4-1.7-1.2-3.4-2.2-4.8l1.2-0.6l-0.9-1.5l1.1-0.4l1,1.8L128.3,68.9z M129.5,68.5
			l-1-1.8l1-0.4c0.4,0.6,0.7,1.2,1,1.8L129.5,68.5z"/>
		<path d="M135.4,73.5l-1.1,0.3v3.1c0,0.8-0.1,1.2-0.6,1.5c-0.6,0.2-1.3,0.3-1.9,0.3c0-0.5-0.2-1-0.4-1.5h1.2c0.1,0,0.2-0.1,0.2-0.3
			v-2.6l-1.4,0.4l-0.4-1.5l1.8-0.4v-2.4h-1.5V69h1.5v-2.4h1.5V69h1v1.4h-1v2l1-0.3L135.4,73.5z M143.3,78h-5.6v0.7h-1.5v-6.9
			l-0.5,0.7c-0.3-0.5-0.6-1-1-1.4c1.2-1.3,2-2.9,2.4-4.6l1.5,0.4c-0.2,0.7-0.5,1.3-0.7,2h1.4c0.3-0.8,0.6-1.5,0.8-2.3l1.6,0.3
			l-0.9,2h2.2v1.4h-2.3v1.2h2v1.3h-2V74h2v1.3h-2v1.3h2.6L143.3,78z M139.2,70.3h-1.5v1.2h1.5V70.3z M139.2,72.8h-1.5V74h1.5V72.8z
			 M137.7,76.6h1.5v-1.3h-1.5V76.6z"/>
		<path d="M148.8,73.7h7.1v1h-7.3v0.5h7.3v0.4c-0.2,1.6-0.3,2.4-0.6,2.7c-0.2,0.2-0.5,0.3-0.8,0.3h-1.3c-0.1-0.4-0.2-0.8-0.3-1.2
			h1.1c0.2-0.4,0.3-0.9,0.3-1.3h-1.6c0.3,0.3,0.5,0.6,0.7,1l-1,0.5c-0.1-0.3-0.5-0.8-0.7-1.2l0.7-0.3h-4.2v0.2l-1.4-0.2
			c0.3-0.9,0.6-1.9,0.8-2.9h-1c0.1,1.8-0.4,3.7-1.2,5.3c-0.4-0.3-0.8-0.6-1.3-0.8c1-1.6,1.1-3.9,1.1-5.6v-2.7h4.3v-0.7h1.5v0.7h5v1
			h-3.7v0.5h3.2v2.4H149L148.8,73.7z M156,67.2v1.2h-2.7v0.7h-1.5v-0.7h-3.1v0.7h-1.5v-0.7h-2.7v-1.2h2.7v-0.7h1.5v0.7h3.1v-0.7h1.5
			v0.7H156z M145.7,78c0.6-0.4,1-1,1.2-1.7l1.1,0.5c-0.3,0.7-0.7,1.4-1.3,1.9L145.7,78z M146.6,70.4v0.5h1.5v-0.5H146.6z
			 M146.6,72.4h1.5v-0.6h-1.5V72.4z M149.5,76.5c0.2,0.6,0.3,1.3,0.3,1.9h-1.2c0-0.6-0.1-1.2-0.2-1.8L149.5,76.5z M150.9,70.4h-1.5
			v0.5h1.5V70.4z M150.9,72.4v-0.6h-1.5v0.6H150.9z M151.1,76.4c0.3,0.5,0.5,1,0.6,1.6l-1.1,0.3c-0.1-0.6-0.3-1.1-0.6-1.6
			L151.1,76.4z M152.2,71.8v0.6h1.7v-0.6H152.2z"/>
		<path d="M160.8,67.3c-0.1,0.6-0.2,1.1-0.2,1.7c-0.1,1.4-0.1,4.3-0.1,5.9c-0.1,0.8,0.4,1.6,1.3,1.7c0.1,0,0.3,0,0.4,0
			c1.8,0,3.5-1,4.4-2.6l1.2,1.4c-1.3,1.9-3.4,2.9-5.6,2.9c-2.1,0-3.5-0.9-3.5-3.1s0.2-5.1,0.2-6.2c0-0.6-0.1-1.1-0.2-1.7L160.8,67.3
			z"/>
		<path d="M169.4,68.6l5.6-0.5l3.6-0.2v1.6c-0.8,0-1.7,0-2.5,0.2c-1.6,0.5-2.6,2-2.7,3.6c0,2.1,2,2.9,4.2,3l-0.6,1.8
			c-2.7-0.2-5.3-1.7-5.3-4.5c0-1.5,0.7-2.9,1.9-3.9c-1.1,0.1-3.8,0.4-5.3,0.7v-1.8H169.4z"/>
		<path d="M182.3,69.9c0,0.9,0,1.8,0.1,2.7c0.1,1.8,0.5,3.1,1.3,3.1s1.2-1.5,1.4-2.5l1.3,1.5c-0.9,2.3-1.7,3.1-2.7,3.1
			s-2.6-1.3-3-4.8c-0.1-1.1-0.1-2.6-0.1-3.4s-0.1-0.9-0.1-1.3h1.9C182.4,68.8,182.3,69.5,182.3,69.9z M191.2,75.1l-1.7,0.7
			c-0.2-2.1-0.9-5.1-2.3-6.7l1.7-0.5C190.2,70.5,191,72.8,191.2,75.1z"/>
		<path d="M201.6,68.6l-0.9,0.6l-2.8,2.3h1.2c2.2,0,3.8,1.3,3.8,3.2s-1.5,3.6-4.6,3.6s-3.2-0.8-3.2-2.1c0.1-1.2,1.1-2.1,2.3-2
			c1.4-0.1,2.6,0.9,2.8,2.2c0.6-0.3,1-1,1-1.7c0-1.2-1.1-2-2.6-2s-3.3,1.1-4.7,2.6l-1.1-1.3l3.2-2.6l2.7-2.3l-3.1,0.2h-1.1v-1.6h1.1
			l4.2-0.2h1L201.6,68.6z M198.7,76.7c0-0.7-0.6-1.3-1.3-1.3l0,0c-0.4,0-0.8,0.2-0.8,0.6s0.6,0.8,1.3,0.8L198.7,76.7z"/>
		<path d="M209.3,72.8h6.9v5.8h-1.5v-0.4h-4v0.5h-1.4v-4.9l-0.6,0.9l-1-1.2v5.2h-1.6v-4.3l-1.3,1c-0.2-0.5-0.4-1-0.7-1.4
			c1.4-0.9,2.5-2.2,3.3-3.7h-2.8v-1.4h1.5v-2.3h1.6v2.3h0.8l0.8,0.5c-0.3,1-0.7,1.9-1.3,2.7l1.3,1.1V72.8z M216.2,67.1v1.3h-7v-1.3
			L216.2,67.1z M215.6,68.9v3.3h-5.7v-3.3L215.6,68.9z M210.7,74v0.9h1.3V74H210.7z M210.7,76.9h1.3V76h-1.3V76.9z M214.2,70.1h-2.9
			V71h2.9V70.1z M214.7,74h-1.4v0.9h1.4V74z M214.7,76.9V76h-1.4v0.9H214.7z"/>
		<path d="M221.9,75l-1.1-1.4v5.1h-1.5v-4.4l-1.5,1.1c-0.2-0.5-0.4-1-0.7-1.4c1.4-0.9,2.6-2.2,3.4-3.7h-2.9v-1.4h1.7v-2.3h1.5v2.3
			h0.8l0.8,0.5c-0.3,1-0.7,1.9-1.3,2.7l1.7,1.6L221.9,75z M229.5,76.9v1.5h-7.8v-1.5h1.2v-7.4h1.5v7.4h1.2V66.7h1.5V71h2.1v1.5h-2.1
			v4.4H229.5z"/>
		<path d="M234.7,67.1c-0.3,0.9-0.8,1.8-1.2,2.7v8.9h-1.6v-6.5l-0.8,0.9c-0.2-0.6-0.5-1.1-0.9-1.6c1.3-1.4,2.3-3.1,3-4.9L234.7,67.1
			z M238.8,70.1v1.4h3.4v1.4h-3.4v1.5h3.6v1.4h-3.6v2.9h-1.6v-8.6h-0.5c-0.5,0.9-1,1.8-1.7,2.6c-0.3-0.4-0.7-0.8-1.1-1.1
			c1.2-1.4,2.1-3.1,2.7-4.9l1.5,0.4l-0.6,1.6h5v1.4H238.8z"/>
		<path d="M251.4,75.7c1.3,0.7,2.7,1.2,4.2,1.4c-0.4,0.4-0.8,0.9-1.1,1.4c-1.6-0.4-3.1-1.1-4.3-2.2v2.4h-1.6v-2.3
			c-1.3,1-2.7,1.7-4.3,2.1l-1-1.3c1.4-0.3,2.8-0.8,4.1-1.5h-3.7v-1.3h4.9v-0.5h-3.7v-1.1h3.7v-0.6h-4.4V71h2.5
			c-0.1-0.4-0.3-0.8-0.4-1.1h-2.6v-1.2h1.8c-0.2-0.6-0.5-1.1-0.9-1.6l1.4-0.5c0.4,0.6,0.7,1.2,1,1.8l-0.7,0.3h1.2v-2.2h1.5v2.2h0.9
			v-2.2h1.5v2.2h1.1l-0.4-0.2c0.3-0.6,0.6-1.2,0.8-1.9l1.6,0.4l-1,1.7h1.7v1.2h-2.5l-0.6,1.1h2.6v1.2h-4.5v0.6h3.9v1.1h-3.9v0.5h5
			v1.3L251.4,75.7z M247.9,69.9c0.2,0.3,0.4,0.7,0.5,1h2.2c0.1-0.3,0.3-0.7,0.4-1.1L247.9,69.9z"/>
		<path d="M258.5,74c0,1.6-0.4,3.3-1.2,4.7c-0.3-0.4-0.7-0.7-1.2-0.9c0.8-1.5,1.1-3.2,1-4.9v-3.3h5V74H258.5z M262.4,68.6h-5.8v-1.4
			h5.8V68.6z M258.5,70.9v1.7h2.1v-1.7H258.5z M268.5,72.4h-1.1v6.3h-1.6v-6.3h-1.5c0,2.3-0.8,4.5-2.3,6.3c-0.3-0.5-0.7-0.8-1.2-1.1
			c1.9-1.8,2-4.4,2-6.3v-3.6l1.1,0.2c1.1-0.3,2.2-0.7,3.2-1.2l1.3,1.1c-1.3,0.6-2.7,1.1-4.1,1.4v1.7h4.2V72.4z"/>
		<path d="M278.7,70l-1.3,0.7c-1.2,0.6-2.4,1.2-3.6,1.9c-1.1,0.7-1.8,1.4-1.8,2.3s0.9,1.4,2.7,1.4c1.4,0,2.8-0.2,4.2-0.4v1.8
			c-1.4,0.2-2.7,0.3-4.1,0.3c-2.6,0-4.5-0.7-4.5-2.9c0.1-1.4,0.9-2.7,2.1-3.4c-0.6-1.1-1.2-2.4-1.8-3.8l1.6-0.7
			c0.5,1.2,1,2.4,1.6,3.6l2.8-1.5l1.2-0.8L278.7,70z"/>
		<path d="M291.1,69.3l-0.4,0.9c-0.5,1.2-1.1,2.4-1.8,3.5l1.2,0.9l-1.2,1.5l-1.2-0.9c-1.3,1.4-3,2.5-4.8,3.2l-1.5-1.3
			c1.9-0.5,3.5-1.5,4.9-2.9l-2.5-1.5l1.1-1.2l2.5,1.3c0.6-0.8,1-1.7,1.3-2.7H285c-1,1.3-2.1,2.4-3.4,3.3l-1.4-1.1
			c1.7-1,3.2-2.5,4.1-4.3c0.3-0.4,0.5-0.8,0.6-1.3l1.9,0.5c-0.3,0.4-0.6,0.9-0.8,1.4h2.6l1.2-0.2L291.1,69.3z"/>
		<path d="M299.3,76.4c0,0.6,0.1,1.4,0.1,1.7h-2c0-0.3,0.1-1.1,0.1-1.7v-4.2c-1.5,0.7-3,1.2-4.5,1.7l-0.9-1.6
			c2.1-0.5,4.1-1.2,5.9-2.3c1.3-0.8,2.4-1.8,3.4-2.9l1.4,1.2c-1.1,1.1-2.2,2-3.5,2.8V76.4z"/>
		<path d="M315.2,68.8l-0.5,0.6c-0.8,1.4-1.8,2.6-3.1,3.6l-1.3-1.1c0.9-0.6,1.8-1.5,2.4-2.4h-8.4v-1.7h9.9L315.2,68.8z M309.9,70.5
			c0,3.2,0,5.9-3.6,7.8l-1.5-1.3c0.5-0.1,1-0.4,1.4-0.7c1.6-1.1,1.9-2.5,1.9-4.6c0-0.4,0-0.8-0.1-1.2L309.9,70.5z"/>
		<path d="M319,73.5l-1.6,0.6c-0.3-1-0.7-2-1.2-3l1.6-0.6L319,73.5z M325.6,70.8c-0.1,0.3-0.2,0.6-0.3,0.9c-0.4,1.4-1,2.7-1.8,3.8
			c-1.1,1.5-2.6,2.6-4.3,3.3l-1.4-1.4c1.7-0.5,3.2-1.5,4.3-2.8c0.9-1.3,1.5-2.8,1.7-4.4L325.6,70.8z M321.9,72.7l-1.6,0.5
			c-0.3-1-0.6-2-1-2.9l1.5-0.5L321.9,72.7z"/>
		<path d="M334.9,68.3h0.7V68c0.1-0.8,0.8-1.5,1.6-1.5c0.8,0,1.5,0.7,1.5,1.5c0,0.8-0.7,1.5-1.5,1.6H337v0.3c-0.3,1.7-1,3.3-1.9,4.8
			c-1.4,1.7-3.2,2.9-5.3,3.6l-1.4-1.6c2-0.3,3.8-1.4,5.1-3c0.8-1.1,1.4-2.4,1.5-3.7h-7.6v-1.8h7.6L334.9,68.3z M337.9,68
			c0-0.4-0.3-0.7-0.7-0.7l0,0c-0.4,0-0.7,0.3-0.8,0.7c0,0.4,0.4,0.8,0.8,0.8C337.6,68.7,337.9,68.4,337.9,68z"/>
		<path d="M342.4,67.3c0,0.5-0.1,1.2-0.1,1.7s-0.2,4.3-0.2,5.9s0.8,1.7,1.8,1.7c1.8,0,3.5-1,4.4-2.6l1.2,1.4
			c-1.3,1.8-3.4,2.9-5.6,2.9c-2.1,0-3.5-0.9-3.5-3.1s0.1-5.1,0.1-6.2c0-0.6,0-1.1-0.1-1.7L342.4,67.3z"/>
		<path d="M351.1,68.6l5.5-0.5l3.7-0.2v1.6c-0.8,0-1.7,0-2.5,0.2c-1.6,0.5-2.6,2-2.7,3.6c0,2.1,2,2.9,4.1,3l-0.6,1.8
			c-2.7-0.2-5.2-1.7-5.2-4.5c0-1.5,0.7-3,1.9-3.9c-1.1,0.1-3.8,0.4-5.3,0.7l-0.2-1.8L351.1,68.6z"/>
		<path d="M363.9,69.9c0,0.9,0,1.8,0.1,2.7c0.2,1.8,0.6,3.1,1.4,3.1s1.1-1.5,1.4-2.5l1.3,1.5c-0.9,2.3-1.7,3.1-2.7,3.1
			s-2.7-1.3-3-4.8c-0.2-1.1-0.2-2.3-0.2-3.4c0-0.4,0-0.9-0.1-1.3h2C364,68.8,363.9,69.4,363.9,69.9z M372.9,75.1l-1.7,0.7
			c-0.2-2.1-0.9-5.1-2.3-6.7l1.6-0.5C371.9,70.5,372.7,72.8,372.9,75.1z"/>
		<path d="M383.4,77.6c-0.8-0.7-1.7-1.3-2.6-1.8v0.5c0,1.1-0.8,1.9-2.5,1.9s-3.2-0.7-3.2-2.1s1.2-2.2,3.2-2.2h0.8
			c0-0.4,0-0.7-0.1-1.1h-0.6l-3.1-0.2v-1.5l3.1,0.2h0.6V70h-0.6l-2.8-0.2v-1.5c0.9,0.2,1.9,0.2,2.8,0.2h0.6v-1.4h1.7
			c0,0.2-0.1,0.6-0.1,0.9v0.5l3.1-0.3v1.5l-3.1,0.2v1.3L384,71v1.5l-3.4,0.2c0,0.5,0.1,1,0.1,1.5c1.3,0.4,2.5,1.1,3.6,2L383.4,77.6z
			 M379.1,75.3h-1c-0.9,0-1.4,0.4-1.4,0.8s0.4,0.8,1.3,0.8s1.2-0.2,1.2-0.9C379.2,75.8,379.2,75.5,379.1,75.3z"/>
		<path d="M396.7,70.1H393V72c0.3,0.5,0.5,1.2,0.5,1.8c0,1.6-1,3.8-4.1,4.7l-1.4-1.4c1.2-0.2,2.2-0.7,3.1-1.5h-0.6
			c-1.3-0.1-2.3-1.1-2.2-2.4c0,0,0,0,0,0c0-1.3,1.1-2.4,2.4-2.4c0.1,0,0.1,0,0.2,0h0.5V70l-5.5,0.2v-1.5h5.6v-0.4
			c-0.1-0.4-0.1-0.9-0.2-1.1h1.9c0,0.2-0.1,0.9-0.1,1.1v0.4h3.7L396.7,70.1z M390.9,74.2c0.5,0,1-0.4,0.8-1.5
			c-0.2-0.3-0.5-0.4-0.8-0.4c-0.5-0.1-0.9,0.3-1,0.8c0,0.1,0,0.1,0,0.2c0,0.5,0.4,0.9,0.9,0.9C390.8,74.2,390.9,74.2,390.9,74.2
			L390.9,74.2z"/>
		<path d="M400.4,76.4c0,1.2-0.9,2.1-2.1,2.1l0,0c-1.2,0-2.1-0.9-2.1-2.1c0,0,0,0,0,0c0.1-1.1,1-2,2.1-2.1
			C399.5,74.3,400.4,75.2,400.4,76.4C400.4,76.4,400.4,76.4,400.4,76.4z M399.5,76.4c0-0.6-0.5-1.1-1.1-1.1c0,0-0.1,0-0.1,0
			c-0.6,0-1.1,0.5-1.1,1.1c0,0,0,0,0,0c-0.1,0.6,0.4,1.1,1,1.2c0,0,0.1,0,0.1,0C399,77.6,399.5,77.1,399.5,76.4L399.5,76.4z"/>
	</g>
	<rect x="0.5" y="0.5" class="st0" width="433" height="87.5"/>
	<g>
		<rect x="13.3" y="70.7" class="st1" width="78.2" height="7.9"/>
		<g>
			<path class="st1" d="M43.7,52.1h1.8V53H44c0.4,0.8,1,1.4,1.8,1.8c-0.2,0.2-0.4,0.4-0.5,0.7c-0.3-0.2-0.6-0.4-0.8-0.7
				c-0.3-0.3-0.6-0.7-0.8-1.1v1.6c0,0.3,0,0.5,0.1,0.8h-0.9c0.1-0.3,0.1-0.5,0.1-0.8v-1.8c-0.4,0.7-1,1.4-1.7,1.9l-0.4-0.7
				c0.8-0.5,1.4-1.1,1.8-1.9h-1.3v-0.3c-0.1,0.2-0.2,0.4-0.3,0.6c-0.2-0.3-0.3-0.6-0.4-0.9V55c0,0.3,0,0.6,0.1,0.9h-0.9
				C40,55.6,40,55.3,40,55v-2.4c-0.2,0.6-0.4,1.2-0.7,1.7c-0.1-0.3-0.2-0.5-0.3-0.8c0.4-0.7,0.7-1.4,0.9-2.2h-0.8v-0.8H40V50
				c0-0.2,0-0.5-0.1-0.7h0.9c-0.1,0.2-0.1,0.5-0.1,0.7v0.6h0.6v0.7c0.3-0.5,0.5-1.1,0.6-1.7h0.7c0,0.1-0.1,0.2-0.1,0.4
				c-0.1,0.1-0.1,0.3-0.1,0.4H43V50c0-0.2,0-0.5-0.1-0.7h0.9c-0.1,0.2-0.1,0.5-0.1,0.7v0.5h1.6v0.8h-1.6V52.1z M42.2,51.2
				c-0.2,0.3-0.3,0.5-0.4,0.8l-0.6-0.5c0-0.1,0.1-0.1,0.1-0.2h-0.5c0.1,0.4,0.3,0.8,0.6,1.2V52H43v-0.9L42.2,51.2z"/>
			<path class="st1" d="M52,50.5h0.6v0.8h-1.8c0,0.9,0.1,1.8,0.5,2.7c0.1,0.3,0.2,0.6,0.4,0.7s0.1,0.2,0.2,0.2s0.1-0.4,0.2-1.1
				l0.7,0.4c0,0.5-0.1,0.9-0.4,1.3c-0.1,0.2-0.3,0.3-0.5,0.3c-0.3,0-0.6-0.3-1-0.7c-0.4-0.6-0.6-1.4-0.7-2.1
				c-0.1-0.6-0.2-1.1-0.2-1.7h-3.7v-0.8H50c-0.1-0.2-0.1-0.3-0.1-0.5v-0.6h0.9c-0.1,0.2-0.1,0.4-0.1,0.6v0.5h0.9l-0.7-0.8l0.6-0.3
				l0.7,0.8l-0.6,0.3L52,50.5z M47.3,52.8h-0.8V52h3.2v0.8h-1.2v1.7l1.5-0.4v0.8l-3.3,0.6h-0.3v-0.8l1.4-0.2v-1.7H47.3z"/>
			<path class="st1" d="M54.8,51.7l-1.1,0.6l-0.5-0.8c0.7-0.2,1.3-0.5,1.8-1c0.5-0.3,0.9-0.7,1.2-1.2H57c0.3,0.5,0.7,0.9,1.2,1.2
				c0.6,0.5,1.2,0.8,1.9,1c-0.2,0.2-0.3,0.5-0.4,0.8c-0.5-0.2-0.9-0.4-1.3-0.7v0.6h-3.6V51.7z M54.4,53.5h-0.8v-0.8h6.1v0.8h-3.3
				c-0.2,0.5-0.4,1-0.7,1.4l2.2-0.2l-0.7-0.8l0.7-0.3c0.6,0.6,1.1,1.2,1.6,1.9L58.8,56l-0.4-0.7l-1.3,0.2l-2.4,0.2h-0.9v-0.9h1
				c0.3-0.4,0.6-0.9,0.8-1.4L54.4,53.5z M57.8,51.4h0.3C57.5,51,57,50.6,56.6,50c-0.4,0.6-0.9,1-1.5,1.4H57.8z"/>
			<path class="st1" d="M62.3,55.2c0,0.2,0,0.5,0.1,0.7h-0.9v-2.5L60.7,54c0-0.3-0.2-0.5-0.3-0.8c0.5-0.2,0.9-0.5,1.2-0.9
				c0.3-0.3,0.6-0.7,0.8-1.1h-1.8v-0.8h1v-0.6c0-0.2-0.1-0.3-0.1-0.5h0.9c-0.1,0.2-0.1,0.3-0.1,0.5v0.6H63l0.4,0.4l-0.2,0.3
				c-0.2,0.4-0.4,0.8-0.7,1.2c0.3,0.4,0.7,0.7,1.1,0.9l-0.3,0.7c-0.4-0.2-0.7-0.5-1-0.8V55.2z M65.4,54.8H67v0.9h-4v-0.9h1.6v-2.7
				h-1.3v-0.8h1.3v-1.2c0-0.3,0-0.5-0.1-0.8h0.9v2h1.4v0.8h-1.4V54.8z"/>
			<path class="st1" d="M15.9,58.9c0-0.2-0.1-0.5-0.1-0.7l0.9-0.2c0,0.2,0,0.5,0.1,0.7v0.6l1.5-0.2l0.7-0.2v0.9h-0.6L16.8,60
				l0.3,1.2l1.6-0.3h0.8v0.8h-0.7L17.1,62l0.3,1.4c0.1,0.2,0.1,0.5,0.1,0.7l-0.9,0.2c0-0.2-0.1-0.4-0.1-0.8l-0.3-1.4l-1.7,0.3
				l-0.8,0.2v-0.9h0.8l1.7-0.3L16,60.3l-1.4,0.2h-0.7l-0.2-0.8h0.8l1.3-0.2L15.9,58.9z"/>
			<path class="st1" d="M21.9,59.9c0-0.3-0.1-0.4-0.1-0.6h0.8c0,0.2,0.1,0.3,0.1,0.6v0.5l2.1-0.3l0.5-0.2l0.5,0.5
				c0,0.1-0.1,0.2-0.2,0.3c-0.3,0.8-0.7,1.4-1.4,1.9c-0.1-0.2-0.3-0.4-0.6-0.5c0.5-0.3,0.9-0.8,1.2-1.3h-0.3L22.8,61l0.5,2.7
				l0.2,0.6h-0.9c0-0.2,0-0.4-0.1-0.6L22,61.1h-1.1l-0.2-0.8H22L21.9,59.9z"/>
			<path class="st1" d="M28.3,58.3v3.2h-1c0.1-0.1,0.1-0.4,0.1-0.6v-2.6H28.3z M31.6,58.3c-0.1,0.2-0.1,0.2-0.1,0.6v1
				c0.1,0.7,0,1.5-0.2,2.2c-0.2,0.7-0.7,1.3-1.4,1.6c-0.4,0.3-0.9,0.5-1.4,0.6c-0.1-0.3-0.3-0.6-0.5-0.9c0.6,0,1.1-0.2,1.6-0.5
				c0.7-0.4,1-1.1,1-1.9v-2.7H31.6z"/>
			<path class="st1" d="M36,59.9c-0.1,0.1-0.1,0.1-0.1,0.6c0.1,0.9-0.2,1.8-0.7,2.5c-0.5,0.6-1.1,1-1.8,1.3
				c-0.1-0.3-0.3-0.6-0.6-0.8l1.3-0.6c0.7-0.6,0.9-1.2,0.9-2.6v-0.4L36,59.9z M38.9,59l-0.3,0.5c-0.3,0.5-0.7,1-1.1,1.4
				c-0.3,0.2-0.6,0.4-0.9,0.6L36,60.9l1-0.7l0.7-0.9H33v-0.9h5.4L38.9,59z"/>
			<path class="st1" d="M40.6,63.6h-0.9v-0.9h4.2v-3.1h-4.1v-0.9h5V64h-0.9v-0.4H40.6z"/>
			<path class="st1" d="M46.1,60.7h6.2v1h-6.2V60.7z"/>
			<path class="st1" d="M55.1,60.9L55.1,60.9c-0.3,1-0.7,2-1.3,2.8c-0.2-0.2-0.5-0.4-0.8-0.5c0.6-0.8,1-1.7,1.2-2.7L55.1,60.9z
				 M58.3,59.3h0.4c-0.3-0.1-0.5-0.4-0.6-0.7c0-0.5,0.4-0.9,0.9-0.9h0c0.5,0.1,0.8,0.4,0.8,0.9c0,0.4-0.3,0.6-0.6,0.7v0.9h-2.5v4.3
				h-1c0.1-0.3,0.1-0.5,0.1-0.8v-3.6h-2.5v-0.9h2.5v-0.4c0-0.2,0-0.5-0.1-0.7h1v1.1L58.3,59.3z M58.2,60.7c0.3,1,0.7,1.9,1.3,2.7
				l-0.8,0.5c-0.5-0.8-0.9-1.7-1.2-2.7c0-0.2-0.1-0.2-0.1-0.3L58.2,60.7z M58.5,58.6c0,0.2,0.3,0.4,0.5,0.4c0.2,0,0.4-0.2,0.4-0.4v0
				c0-0.2-0.2-0.5-0.4-0.5C58.7,58.1,58.5,58.3,58.5,58.6z"/>
			<path class="st1" d="M61.8,58.3c-0.1,0.2-0.1,0.5-0.1,0.7v4.1c0.7-0.1,1.3-0.4,1.9-0.8c0.6-0.4,1.2-0.9,1.5-1.6l0.7,0.7
				c-0.4,0.7-1,1.2-1.6,1.7c-0.8,0.4-1.7,0.8-2.6,0.9l-0.5,0.2l-0.4-0.6c0-0.2,0.1-0.5,0.1-0.7V59c0-0.5,0-0.5-0.1-0.7H61.8z"/>
			<path class="st1" d="M66.6,60.7h6.2v1h-6.2V60.7z"/>
			<path class="st1" d="M74.2,60c0.7,0.2,1.3,0.5,1.9,0.9l-0.4,0.8l-1.9-1L74.2,60z M73.9,63.2c0.7,0,1.4-0.2,2.1-0.5
				c0.9-0.3,1.6-0.8,2.1-1.6c0.3-0.5,0.6-1,0.8-1.6l0.7,0.7c-0.2,0.7-0.6,1.3-1,1.8c-1.1,1.1-2.4,1.8-3.9,2h-0.5L73.9,63.2z
				 M74.8,58.2l1.9,0.9l-0.5,0.8l-1.9-1L74.8,58.2z"/>
			<path class="st1" d="M81.4,64h-0.6v-0.7h3.4v-1.1h-3.1v-0.8h3.1v-1h-3.3v-0.8H85v4.6h-0.8V64H81.4z"/>
			<path class="st1" d="M86.6,63c0.7,0,1.4-0.2,2.1-0.5c0.9-0.4,1.6-0.9,2.2-1.7c0.3-0.5,0.5-1,0.7-1.5c0.2,0.3,0.5,0.6,0.8,0.7
				c-0.5,1.2-1.3,2.1-2.3,2.8c-0.8,0.6-1.7,0.9-2.7,1.1h-0.5L86.6,63z M87.2,58.6c0.7,0.4,1.3,0.9,1.9,1.4l-0.6,0.8
				c-0.6-0.6-1.2-1.1-1.9-1.5L87.2,58.6z"/>
		</g>
		<g>
			<path class="st2" d="M37.4,75.6c0.1,0.3,0.1,0.4,0.2,0.5c0.2,0.2,0.4,0.3,0.7,0.3c0.5,0,0.8-0.3,0.8-0.6c0-0.2-0.1-0.4-0.3-0.5
				L38,75.1l-0.8-0.3c-0.2-0.2-0.3-0.5-0.3-0.8c0-0.7,0.5-1.1,1.4-1.1c0.5,0,0.9,0.2,1.2,0.5c0.1,0.1,0.2,0.3,0.2,0.5H39
				c0-0.1,0-0.2-0.1-0.3c-0.2-0.2-0.4-0.3-0.6-0.3c-0.5,0-0.8,0.3-0.8,0.6s0.2,0.3,0.4,0.4l0.7,0.2l0.8,0.3c0.5,0.4,0.5,1.2,0.1,1.7
				c0,0,0,0,0,0c-0.4,0.2-0.8,0.3-1.2,0.3l-1-0.2c-0.2-0.1-0.4-0.3-0.5-0.6c0-0.1,0-0.3-0.1-0.4H37.4z"/>
			<path class="st2" d="M41.1,73v3.9h-0.7V73H41.1z"/>
			<path class="st2" d="M44.3,76.9c0-0.2-0.1-0.3-0.3-0.6l-1.2-1.9l-0.4-0.6c0,0.1,0,0.1,0.1,0.3v2.8h-0.7V73h0.8l0.3,0.5l1.2,1.8
				l0.4,0.7c0-0.2-0.1-0.5-0.1-0.7V73h0.7v3.9H44.3z"/>
			<path class="st2" d="M49.1,75.7C49,76,49,76.2,48.8,76.4c-0.3,0.3-0.8,0.5-1.3,0.5c-0.5,0.1-0.9-0.1-1.3-0.4
				c-0.3-0.5-0.5-1-0.5-1.6c0-0.6,0.2-1.1,0.6-1.5c0.3-0.3,0.7-0.5,1.2-0.5l0.9,0.2c0.2,0.2,0.4,0.3,0.5,0.6l0.2,0.3l-0.7,0.2
				l-0.2-0.4c-0.2-0.2-0.4-0.3-0.7-0.3c-0.7,0-1.1,0.5-1.1,1.4s0.4,1.5,1.1,1.5c0.3,0,0.6-0.2,0.8-0.4c0.1-0.1,0.1-0.2,0.1-0.5
				L49.1,75.7z"/>
			<path class="st2" d="M52.5,76.9h-2.8V73h2.7v0.7h-2v1.1h1.8v0.7h-1.8v1.2h2.1V76.9z"/>
			<path class="st2" d="M55.8,76.9v-3.4h-0.7v-0.7h1.4v4L55.8,76.9z"/>
			<path class="st2" d="M58.8,75.9c0,0.2,0.1,0.2,0.1,0.3l0.6,0.2l0.5-0.2c0.3-0.3,0.5-0.8,0.4-1.2l-0.2,0.3
				c-0.2,0.2-0.5,0.2-0.8,0.2c-0.7,0-1.3-0.6-1.3-1.3c0-0.4,0.2-0.9,0.6-1.1c0.2-0.2,0.5-0.2,0.8-0.2c0.6,0,1.1,0.3,1.3,0.9
				c0.1,0.3,0.2,0.7,0.2,1c0,0.6-0.1,1.2-0.5,1.7c-0.3,0.3-0.7,0.4-1.1,0.4c-0.3,0-0.7-0.1-0.9-0.3c-0.2-0.1-0.4-0.3-0.4-0.5
				L58.8,75.9z M60.3,74.2c0-0.4-0.4-0.8-0.8-0.8s-0.8,0.4-0.8,0.8c0,0.4,0.4,0.8,0.8,0.8C59.9,75,60.3,74.6,60.3,74.2
				C60.3,74.2,60.3,74.2,60.3,74.2z"/>
			<path class="st2" d="M62.2,75.9l0.2,0.3l0.6,0.2l0.5-0.2c0.3-0.3,0.5-0.8,0.4-1.2c-0.1,0.2-0.2,0.2-0.3,0.3s-0.4,0.2-0.8,0.2
				c-0.7,0.1-1.2-0.4-1.3-1.1c0-0.1,0-0.1,0-0.2c0-0.5,0.2-0.9,0.6-1.1c0.3-0.2,0.6-0.2,0.9-0.2c0.6,0,1.1,0.3,1.3,0.9
				c0.1,0.3,0.2,0.7,0.2,1c0,0.6-0.1,1.2-0.5,1.7c-0.3,0.3-0.7,0.4-1.1,0.4c-0.3,0-0.7-0.1-0.9-0.3c-0.2-0.1-0.4-0.3-0.4-0.5
				L62.2,75.9z M63.8,74.2c0-0.4-0.4-0.8-0.8-0.8c0,0,0,0,0,0c-0.4-0.1-0.7,0.2-0.8,0.6c0,0.1,0,0.1,0,0.2c-0.1,0.4,0.2,0.7,0.6,0.8
				c0,0,0.1,0,0.1,0c0.4,0.1,0.8-0.3,0.9-0.7C63.8,74.3,63.8,74.2,63.8,74.2z"/>
			<path class="st2" d="M65.7,75.9l0.2,0.3l0.5,0.2c0.2,0,0.4-0.1,0.6-0.2c0.2-0.4,0.4-0.8,0.4-1.2l-0.3,0.3
				c-0.2,0.2-0.5,0.2-0.8,0.2c-0.7,0.1-1.2-0.4-1.3-1.1c0-0.1,0-0.1,0-0.2c0-0.5,0.2-0.9,0.6-1.1c0.2-0.2,0.5-0.2,0.9-0.2
				c0.6,0,1.1,0.3,1.3,0.9c0.1,0.3,0.2,0.7,0.2,1c0.1,0.6-0.2,1.3-0.6,1.7c-0.2,0.3-0.6,0.5-1,0.4c-0.4,0-0.7-0.1-1-0.3L65,76.1
				L65.7,75.9z M67.3,74.2c0-0.4-0.4-0.8-0.8-0.8c0,0-0.1,0-0.1,0c-0.4,0-0.8,0.4-0.8,0.8v0c-0.1,0.4,0.2,0.7,0.6,0.8
				c0.1,0,0.1,0,0.2,0c0.4,0.1,0.8-0.3,0.9-0.7C67.3,74.3,67.3,74.2,67.3,74.2z"/>
		</g>
		<g>
			<path class="st1" d="M55.2,25.7c1.3-2.4,3.3-4.4,5.7-5.7c1.4-0.7,2.9-1.2,4.5-1.3c1.7-0.1,3.4,0,5.1,0.2c1.8,0.2,3.5,0.5,5.2,0.9
				c1,0.2,1.9,0.6,2.8,1.1c0.7,0.4,0.7,0.9,0,1.2c-0.9,0.5-1.9,1-2.9,1.3l-3.8,0.8H68c-1.8-0.1-3.5-0.1-5.3,0.1
				c-3.1,0.3-4.8,2.3-6.5,4.5l-0.5,0.7c-0.6,0.7-0.8,0.7-1.4,0c-1.6-2.1-3.4-4.1-5.3-6c-1.1-1-2.3-1.8-3.6-2.4
				c-0.8-0.3-1.6-0.5-2.4-0.6l-7.4-0.8l-7.3-0.5h-5.2c-2.3,0-4.5-0.6-6.4-1.8c-0.3-0.1-0.5-0.3-0.7-0.5c-1.6-1.7-1.4-2.5,0.5-3.6
				c2.1-1.1,4.4-1.7,6.7-2l5.4-0.5h7.9c1.8,0,3.6,0.2,5.3,0.5c2.2,0.2,4.4,1.2,6.1,2.6c1.7,1.3,3.1,3,4,4.9c0.8,1.4,1.4,2.9,2.1,4.4
				c0.1,0.4,0.2,0.8,0.4,1.1C54.6,24.8,54.9,25.3,55.2,25.7z"/>
			<g>
				<path class="st1" d="M16.9,35.3c0-4.4,3.5-7,8.1-7c1.8,0,3.6,0.5,5,1.6l-1.2,1.2c-1.1-0.9-2.4-1.3-3.8-1.3
					c-3.4,0-5.7,2.1-5.7,5.4s2.2,5.6,5.7,5.6c1.5,0,3-0.5,4.2-1.5l1.3,1c-1.6,1.3-3.5,2.1-5.6,2C20.3,42.3,16.9,39.7,16.9,35.3z"/>
				<path class="st1" d="M39.8,36.8h-4.9l-1.3,2.9h-1.8l4.6-9.6h1.9l4.7,9.6h-1.9L39.8,36.8z M39.4,35.8l-0.6-1.5
					c-0.5-1.1-1-2.1-1.4-3.2h-0.1c-0.4,1.1-0.9,2.1-1.3,3.2l-0.7,1.5H39.4z"/>
				<path class="st1" d="M54.2,39.7l-4.5-4.1h-2.5v4.1h-1.7v-9.6h4.3c2.7,0,4.7,0.7,4.7,2.7s-1.2,2.4-3.1,2.7l4.7,4.2H54.2z
					 M47.2,34.6h2.3c2.1,0,3.3-0.6,3.3-1.8s-1.2-1.7-3.3-1.7h-2.3V34.6z"/>
				<path class="st1" d="M57.9,30.1h8v1h-6.3v2.4h6.3v1.1h-6.3v4.1h6.3v1h-8V30.1z"/>
				<path class="st1" d="M70,30.1h7.8v1h-6.1v2.4h6.1v1.1h-6.1v4.1h6.4v1H70V30.1z"/>
				<path class="st1" d="M90.2,39.7l-4.5-4.1h-2.5v4.1h-1.7v-9.6h4.3c2.8,0,4.7,0.7,4.7,2.7s-1.2,2.4-3,2.7l4.6,4.2H90.2z
					 M83.2,34.6h2.3c2.2,0,3.3-0.6,3.3-1.8c0-1.3-1.1-1.7-3.3-1.7h-2.3V34.6z"/>
			</g>
		</g>
	</g>
</g>
</svg>
