<svg xmlns="http://www.w3.org/2000/svg" viewBox="0 0 239.9 54.9">
  <defs>
    <style>
      .a {
        fill: #2f43a2;
      }
    </style>
  </defs>
  <title>logo</title>
  <g>
    <g>
      <path class="a" d="M26.4,0h1.2c.2,0,.3,0,.3.2V1.7c0,.3,0,.3.3.3l3,.4a23.7,23.7,0,0,1,3.6.9,18.4,18.4,0,0,1,3.6,1.5,23,23,0,0,1,3.7,2.3l1.6,1.2a30.2,30.2,0,0,1,3.1,3.1,35.5,35.5,0,0,1,2.3,3.1,21.4,21.4,0,0,1,2,4A20.6,20.6,0,0,1,52.3,22a11.6,11.6,0,0,1,.4,1.8,14.7,14.7,0,0,1,.4,3.6c0,.4,0,.5-.4.5H51.4c-.3,0-.3-.1-.3-.3s-.2-2.2-.4-3.3a17.4,17.4,0,0,0-.5-2.2,14.3,14.3,0,0,0-.9-2.7,19.1,19.1,0,0,0-1.6-3.2A25.3,25.3,0,0,0,44.6,12c-.7-.7-1.4-1.5-2.2-2.2L39.1,7.5a15.1,15.1,0,0,0-2.2-1.1l-2.3-1a24.7,24.7,0,0,0-4.7-1.1l-1.7-.2c-.2-.1-.3,0-.3.1s0,.4.2.5H29a16.1,16.1,0,0,1,3.7.7l2.9,1a17.9,17.9,0,0,1,3.9,2l2.4,1.7.9.9,1.4,1.4L46,14.6a28.2,28.2,0,0,1,1.8,2.9,22.6,22.6,0,0,1,1.7,4.3c.3,1,.5,1.9.7,2.9l.3,2.7v.3H48.7c-.3,0-.3,0-.3-.2a2.8,2.8,0,0,0-.1-.9,23,23,0,0,0-1-5.1,20.3,20.3,0,0,0-2-4.2,12.2,12.2,0,0,0-1.2-1.9,17.5,17.5,0,0,0-2.6-2.9,20,20,0,0,0-3.7-2.8l-1.7-.9-1.9-.8a19.6,19.6,0,0,0-5.3-1.3,23.6,23.6,0,0,0-5.3.1,22.3,22.3,0,0,0-4.3,1,13.6,13.6,0,0,0-3,1.3l-1.7.9-3.4,2.8a17,17,0,0,0-3.3,4.2,16.5,16.5,0,0,0-2.1,4.2,25.2,25.2,0,0,0-1,4.6,9.2,9.2,0,0,0-.1,1.6c-.1.2-.1.2-.3.2H2.9c-.3,0-.3,0-.3-.3A7.1,7.1,0,0,1,2.7,26c.1-.8.3-1.7.4-2.5a22.9,22.9,0,0,1,.7-2.8,22.1,22.1,0,0,1,1.6-3.5,19.4,19.4,0,0,1,1.5-2.4,13.3,13.3,0,0,1,1.4-1.9c.6-.7,1.3-1.3,2-2A22.3,22.3,0,0,1,12.7,9a20.8,20.8,0,0,1,3.8-2.2,23.5,23.5,0,0,1,4.2-1.5l2.5-.5h1.7c.2-.1.4-.3.2-.5s-.1-.1-.2-.1H23.6a18.6,18.6,0,0,0-3.4.6,28.6,28.6,0,0,0-4.1,1.5,15.7,15.7,0,0,0-2.5,1.4L11.6,9a21,21,0,0,0-2.7,2.4L7.7,12.8,6.3,14.6l-.9,1.3a21.9,21.9,0,0,0-2,4.4,24.6,24.6,0,0,0-1.1,4.5,19.4,19.4,0,0,0-.2,2.4h0c-.1.4-.1.4-.5.4H.3c-.3,0-.3,0-.3-.3s.1-1.5.2-2.2a21.4,21.4,0,0,1,.6-3.5c.3-1.1.7-2.2,1.1-3.3l.9-2a30.3,30.3,0,0,1,2.4-3.8,21.1,21.1,0,0,1,1.9-2.3A17,17,0,0,1,9.5,8.1l1.9-1.5L14,5.1a14.6,14.6,0,0,1,3.6-1.6l2.8-.9,2.3-.3L24.8,2c.3,0,.4-.1.4-.4V.2l.2-.2h1ZM5,20.9ZM1.6,26.4h0ZM30.5,3.2Z"/>
      <path class="a" d="M28.1,53.5v1.1c0,.2,0,.2-.3.2a8.1,8.1,0,0,1-2.2,0c-.2,0-.2,0-.2-.2V52.5h0a.1.1,0,0,0-.2,0,6.5,6.5,0,0,1-.4,1.3,2.9,2.9,0,0,0-.2.9l-.3.2L23,54.6a22.1,22.1,0,0,1-3.7-.8l-2.8-1a12.9,12.9,0,0,1-3.3-1.7,15.8,15.8,0,0,1-2.4-1.5c-.6-.4-1.2-1-1.8-1.5a12.9,12.9,0,0,1-1.7-1.6L5.6,44.6,4.1,42.4a30.5,30.5,0,0,1-2.1-4l-.7-1.8c-.2-.9-.5-1.8-.7-2.7a21.7,21.7,0,0,1-.4-2.5A14.9,14.9,0,0,1,0,29.3c0-.3,0-.3.3-.3H1.9c.1,0,.1.1.2.2h0a21.7,21.7,0,0,0,1,6.2,25.2,25.2,0,0,0,1.3,3.3A25.4,25.4,0,0,0,6,41.6a13,13,0,0,0,1.8,2.3,18.6,18.6,0,0,0,2.7,2.9L12.2,48a18.1,18.1,0,0,0,2.9,1.9,13,13,0,0,0,3.2,1.4l2.1.7,2.7.5h.2v-.4a.1.1,0,0,0-.1-.1l-.9-.2-1.7-.4a10.4,10.4,0,0,1-2.5-.8L15,49.2l-2.6-1.7-1.7-1.3a18,18,0,0,1-1.9-2c-.6-.6-1.1-1.3-1.7-2a17.5,17.5,0,0,1-1.8-2.9,32,32,0,0,1-1.6-3.9c-.3-1.1-.6-2.1-.8-3.2s-.1-1.4-.2-2.1-.1-.6-.1-.9.1-.2.3-.2H4.5l.2.2v1a25.7,25.7,0,0,0,.8,4,13.4,13.4,0,0,0,.9,2.6,23.8,23.8,0,0,0,2.3,4.1A27.6,27.6,0,0,0,11,43.6l1.7,1.6a.2.2,0,0,1,.2.2c0,.1.1.1.2.1l.5.3,1,.8,1.7,1,1.1.6,2.9,1.1,2.1.5,2.7.3c.2,0,.3,0,.3-.3v-1c0-.1,0-.2.2-.2h2c.4,0,.5.1.5.4v.9c0,.2,0,.2.3.2h1.5l1.6-.3,2.8-.8,2.9-1.4a11.8,11.8,0,0,0,1.9-1.1l1.7-1.3a4.7,4.7,0,0,0,1-1l.9-.9.8-.9h.3a.9.9,0,0,1,.3-.5,34.3,34.3,0,0,0,2.8-4.9,21.9,21.9,0,0,0,1-3.4c.2-.9.3-1.7.4-2.5a6.2,6.2,0,0,0,.1-1.3c0-.4.1-.4.4-.4h1.5a.2.2,0,0,1,.2.2,6.6,6.6,0,0,1-.1,1.4,27,27,0,0,1-.4,2.8,13.8,13.8,0,0,1-.8,2.7,27.7,27.7,0,0,1-1,2.6l-.9,1.7a28.3,28.3,0,0,1-2,2.8,19.3,19.3,0,0,1-3.1,3.3,24.9,24.9,0,0,1-4.3,2.9,25.2,25.2,0,0,1-5.8,2.1l-1.8.4c-.1,0-.3,0-.3.2s.2.3.3.3h.3l2.5-.5,2.5-.8a22,22,0,0,0,3.1-1.5,16.7,16.7,0,0,0,2.8-1.8l2.6-2.3a31.7,31.7,0,0,0,2.8-3.4,26.4,26.4,0,0,0,2-3.7,22.7,22.7,0,0,0,1.7-5l.3-1.8c0-.5.1-.9.1-1.4a2.8,2.8,0,0,0,.1-.9c0-.3,0-.3.3-.3h1.5c.2,0,.2,0,.2.2v1.3a41.7,41.7,0,0,1-.8,4.9,17.5,17.5,0,0,1-1.2,3.2,24.6,24.6,0,0,1-2.8,5,19.5,19.5,0,0,1-3.2,3.8l-1.8,1.6a15.1,15.1,0,0,1-2.6,1.8,17.3,17.3,0,0,1-3,1.6l-1.8.7a16.6,16.6,0,0,1-3.8,1.1l-2.7.4h-.1c-.3,0-.4-.1-.5-.4a12.1,12.1,0,0,0-.5-1.8c0-.1-.1-.2-.1-.3h-.1v1.2ZM10.7,47.8ZM8,40.1H8Z"/>
      <path class="a" d="M28,39.4V43a7.5,7.5,0,0,1,0,1.5c0,.3,0,.3-.3.4H25.6c-.2,0-.2,0-.3-.2V34.3h-.2a8.6,8.6,0,0,0-.7,1l-2,3.4-1.5,2.5c-.5.7-.8,1.4-1.3,2a6.4,6.4,0,0,1-.8,1.4c-.1.2-.2.2-.3.2H16.2c-.1,0-.2-.1-.1-.2l.5-.8,1.5-2.5,1.8-3.2,2.4-3.9c.1-.1.1-.2.1-.4H16.2c-.2,0-.2,0-.2-.2a8.6,8.6,0,0,1-.1-1.6c0-.2.1-.2.3-.2h8.9l.2-.2V29.3c0-.2,0-.2.2-.2h2.2c.2,0,.3,0,.3.2v2.1c0,.3,0,.3.3.3H37c.2,0,.2,0,.2.2s.1,1.1.1,1.6-.1.3-.3.3H30.9c-.1,0-.2.1-.1.2s0,.1.1.2l1.3,2.2c.8,1.2,1.5,2.4,2.2,3.6a23.9,23.9,0,0,0,1.3,2.1l1.5,2.4a.3.3,0,0,0,.1.2c0,.1-.1.1-.1.2h-.1a16.1,16.1,0,0,0-2.2,0c-.2,0-.3-.1-.4-.3L32,40.7a27.5,27.5,0,0,0-1.7-2.9l-2.1-3.6h-.1a.1.1,0,0,0-.1.1v5.2Z"/>
      <path class="a" d="M32.6,16.6H37c.2,0,.2.1.2.3v1.3c0,.4,0,.4-.4.4H16.2c-.3,0-.3,0-.3-.3V16.9c0-.3,0-.3.4-.3H25c.2,0,.2,0,.2-.2s0-.4-.3-.4H16.8c-.2,0-.3,0-.3-.3V14.1l.2-.2H25c.2,0,.2,0,.2-.2s0-.3-.2-.3H16.2c-.2-.1-.1-.4-.1-.6V11.5c0-.2.1-.2.3-.2H25a.2.2,0,0,0,.2-.2v-.9c0-.2,0-.2.3-.2h2.2c.2,0,.2,0,.2.2V11c.1.3.1.3.3.3h8.3c.4,0,.4.1.4.4v1.4c0,.3,0,.3-.3.3H28.2c-.2,0-.3,0-.3.2s.1.3.3.3h8.3v1.7c0,.2-.1.2-.2.2H28.2c-.2.1-.3.1-.3.4s.1.2.3.2h4.4Z"/>
      <path class="a" d="M37.2,25.1V19.4c0-.1,0-.2-.2-.2H16.2c-.3,0-.3,0-.3.2v9.4c0,.3,0,.3.3.3h2.1c.3,0,.3,0,.3-.3V26.9c0-.4,0-.4.4-.4h5.5c.1,0,.2.1.4,0h.4a.6.6,0,0,0,.6,0H34c.5,0,.5,0,.5.4v1.9c0,.2,0,.3.2.3H37c.2,0,.2-.1.2-.3V25.1ZM18.9,21.2H34.4c.1.2,0,.4-.3.4H18.8a.2.2,0,0,1-.2-.2C18.6,21.3,18.6,21.2,18.9,21.2Zm15.3,3.3H18.7c-.1-.1-.1-.2,0-.4H34.2a.3.3,0,1,1,0,.6Z"/>
    </g>
    <g>
      <path class="a" d="M73.2,20.7a3.8,3.8,0,0,0-.1-1.2h3.3a3.8,3.8,0,0,0-.1,1.2h6.9v2.3H76.3v.5h6.1v2H76.3v.6h7.5V28h-18V25.7h7.4v-.6H67.3v-2h5.9v-.5H66.5V20.6h6.7ZM71,34.8v.9a14.8,14.8,0,0,0,.1,2.2H67.9a18.6,18.6,0,0,0,.1-2.7V30.4a12.1,12.1,0,0,0-.1-2H81.8a10.9,10.9,0,0,0-.1,2v5.1c0,1.8-.9,2.4-3.8,2.4H76.3a6.9,6.9,0,0,0-.5-2.4l1.9.2c.9,0,1-.1,1-.6v-.2Zm7.7-4.5H71v.5h7.7ZM71,32.5v.6h7.7v-.6Z"/>
      <path class="a" d="M99.4,25.8a16.3,16.3,0,0,0,7.1,6.6,14.9,14.9,0,0,0-1.8,3,17.2,17.2,0,0,1-4-3.3,16,16,0,0,1-2.3-3,12.3,12.3,0,0,1,.1,1.7v4.4a22.6,22.6,0,0,0,.1,2.7H95.2a21.8,21.8,0,0,0,.1-2.7V30.8a10.9,10.9,0,0,1,.1-1.7,18.4,18.4,0,0,1-6.1,6.4,12.2,12.2,0,0,0-1.7-2.9,17.7,17.7,0,0,0,6.8-6.8H90.8l-2.6.2V22.8l2.6.2h4.5V21.5a9.8,9.8,0,0,0-.1-1.9h3.4a9.8,9.8,0,0,0-.1,1.9V23h4.8l2.5-.2V26l-2.5-.2Z"/>
      <path class="a" d="M117.6,22.3a21.7,21.7,0,0,0-.1-2.6H121a19.7,19.7,0,0,0-.2,2.6v2.9h3.3L127,25v3.3l-2.9-.2h-3.3v6.3h7.5v3.2l-3.2-.2H113.6l-3.2.2V34.3h7.2V28.1h-3l-2.9.2V25l2.9.2h3Z"/>
      <path class="a" d="M144,25.8a15.7,15.7,0,0,0,7.1,6.6,11.4,11.4,0,0,0-1.8,3,17.2,17.2,0,0,1-4-3.3,16,16,0,0,1-2.3-3,12.3,12.3,0,0,1,.1,1.7v4.4a22.6,22.6,0,0,0,.1,2.7h-3.4a21.8,21.8,0,0,0,.1-2.7V30.8a10.9,10.9,0,0,1,.1-1.7,18.4,18.4,0,0,1-6.1,6.4,12.2,12.2,0,0,0-1.7-2.9,17.7,17.7,0,0,0,6.8-6.8h-3.6l-2.6.2V22.8l2.6.2h4.5V21.5a9.8,9.8,0,0,0-.1-1.9h3.4a9.8,9.8,0,0,0-.1,1.9V23h4.7l2.6-.2V26l-2.5-.2Z"/>
      <path class="a" d="M168.3,26.9h4.6v2.9h-3.7a9.6,9.6,0,0,0,2,2.5,8.6,8.6,0,0,0,2.3,1.7,22.2,22.2,0,0,0-1.4,3.1,13,13,0,0,1-3.9-4.5,10.3,10.3,0,0,1,.1,1.7v1.4a18.5,18.5,0,0,0,.1,2.5h-3.1a18.5,18.5,0,0,0,.1-2.5V34.3c0-.5.1-1.1.1-1.8a12.1,12.1,0,0,1-4.1,4.3,9.5,9.5,0,0,0-1.6-2.6v1.3A16.9,16.9,0,0,0,160,38h-3.1a19.3,19.3,0,0,0,.1-2.5V30.9a9.5,9.5,0,0,1-1.5,3.2,15.9,15.9,0,0,0-.9-3.3,15.4,15.4,0,0,0,2.2-5.2h-1.7V22.8H157V21.6c0-.9-.1-1.5-.1-2H160a9.5,9.5,0,0,0-.2,2v1.3h1.3v1.4a13.8,13.8,0,0,0,1.1-4.2l2.7.7c-.1.3-.1.5-.3,1.2a1.8,1.8,0,0,1-.1.5h.9v-.9a10.9,10.9,0,0,0-.1-1.9h3.2a9.2,9.2,0,0,0-.2,1.9v.9h4.1v2.9h-4.1Zm-8.5,7.2a11.5,11.5,0,0,0,2.6-1.9,9.5,9.5,0,0,0,2.1-2.6h-.7l-2.3.2V28.7c-.3.7-.6,1.7-.8,2.3a8.3,8.3,0,0,1-.9-1.6v4.7Zm1.7-7.4h1l-1.4-1.2h-1.2a7.6,7.6,0,0,0,1.6,2.6Zm2.1-1.6a13,13,0,0,1-.8,1.7h2.6V25.1Z"/>
      <path class="a" d="M180.1,29.8H178V27h8.8v2.9h-2.9v3.6l3.6-.8v2.8A65.4,65.4,0,0,1,179,37l-1.3.3-.4-3.1,3.6-.3V29.8Zm13.1-7.3h1.9v3h-4.8a23.7,23.7,0,0,0,1,6,12.2,12.2,0,0,0,1.3,2.8,8.5,8.5,0,0,0,.6-2.9l2.4,1.5a11.5,11.5,0,0,1-1.1,4,2,2,0,0,1-1.7,1.1c-1.1,0-2.4-1.1-3.4-3s-1.8-5.3-2.1-9.5h-10v-3h9.9a15.2,15.2,0,0,0-.2-2.7h3.3a3.7,3.7,0,0,0-.1,1.1v1.6H192a8.3,8.3,0,0,0-1.5-1.7l2.3-1.1a10.1,10.1,0,0,1,1.7,2l-1.5.8Z"/>
      <path class="a" d="M203.3,26.6a22.4,22.4,0,0,1-2.7,1.3,13.2,13.2,0,0,0-1.5-2.9,15.4,15.4,0,0,0,4.5-2.1,11.2,11.2,0,0,0,3.3-3.2h3.2a10.7,10.7,0,0,0,3.3,3,16.2,16.2,0,0,0,4.6,2.2,12,12,0,0,0-1.3,3.1l-2.9-1.4v1.1H203.3Zm-.9,4.8-2.4.2v-3h17.1v3l-2.4-.2h-1.9a45.8,45.8,0,0,1,4.1,5.1l-2.7,1.7-.9-1.5-3.4.4-7.3.6-1.8.2-.3-3.3h2.6a16.2,16.2,0,0,0,1.7-3.2Zm8.9-6.4a17.6,17.6,0,0,1-2.8-2.6,13.5,13.5,0,0,1-2.7,2.6Zm-3,6.4c-.5,1.1-1.2,2.2-1.7,3.1l4.9-.3-1.7-1.8,2.3-1Z"/>
      <path class="a" d="M227.3,35.9a12.2,12.2,0,0,0,.1,2.1h-3.1a13.5,13.5,0,0,0,.1-2.2v-4l-1.7,1.3a14.2,14.2,0,0,0-1.3-3,11,11,0,0,0,3.1-2.2,10.5,10.5,0,0,0,2-2.7H222V22.4h2.4V21a7.6,7.6,0,0,0-.1-1.5h3.1a7.1,7.1,0,0,0-.1,1.5v1.4H229l1.2,1.3-.4,1a13.3,13.3,0,0,1-1.8,3.1,10,10,0,0,0,3.2,2.4,12.8,12.8,0,0,0-1.5,2.8,9.5,9.5,0,0,1-2.4-2Zm8.7-1.4h3.9v3.1h-11V34.4h4V27.4h-3V24.4h3V21.9a15.2,15.2,0,0,0-.2-2.3h3.4a15.5,15.5,0,0,0-.1,2.3v2.6h3.4v3.1H236Z"/>
    </g>
  </g>
</svg>
