<svg xmlns="http://www.w3.org/2000/svg" viewBox="0 0 306.4 79">
  <defs>
    <style>
      .a {
        fill: #e56103;
      }
    </style>
  </defs>
  <title>logo</title>
  <g>
    <path class="a" d="M65.8,4.8c.5.4.8.2,1.2-.1s.7-.4,1.1.2a12.6,12.6,0,0,1-2,2L63.6,8.6l-1.5.9c-.2.1-.3.4-.4.6l.6.3,2.1-.5,1-.4,1.2.3c-.3.3-.4.6-.7.8l-3.3,1.9-3.3,1.9-1.3.9-5.6,4.9c-1,.9-1.8,1.9-2.8,2.7s-2.5,1.5-3.8,2.2l-3.6,2.1a26.1,26.1,0,0,0-2.8,1.7l-3.8,2.4-3.2,1.8L29,35l-4.4,1.9-4.2,1.4c-.5.1-.7.6-.6,1.2s.3,2.2.5,3.3.5,1.9.8,2.9a5.6,5.6,0,0,0,.4,1.2c.6,1.4,1,2.8,1.7,4.1a43.3,43.3,0,0,0,3,4.1v.2c.5.5.8,1.2,1.6,1s.9-.9,1-1.4a14.2,14.2,0,0,1,3.6-5.4,20.3,20.3,0,0,1,4.7-3.6A26.3,26.3,0,0,1,47.1,43a34.4,34.4,0,0,1,9.6.4,10.8,10.8,0,0,1,5.9,3.2,51.5,51.5,0,0,1,4.3,5,11.5,11.5,0,0,1,1.7,4.1,19.5,19.5,0,0,1,.9,5.8c-.3,2.7-.5,5.4-1.8,7.9-.4.8-.7,1.7-1.6,2.1a1.2,1.2,0,0,1-1.5,0A3.7,3.7,0,0,1,63,69.4c-.3-1.1-.7-2.1-.9-3.2s.2-.8.3-1.2a12,12,0,0,0,1.7-7.6,11.3,11.3,0,0,0-4.5-7.8,12.6,12.6,0,0,0-5.2-2.5,11.6,11.6,0,0,0-4.9-.6,52.8,52.8,0,0,0-6.7,1.3,14,14,0,0,0-3.4,1.8l-2.6,1.6A7,7,0,0,0,34.5,54c-.7,1.7-1.5,3.3-2.3,4.9a1.8,1.8,0,0,0,1.6,2.5,32.3,32.3,0,0,1,7.5,2.2,15.8,15.8,0,0,0,4.8.6H49c.7.1,1-.3,1.2-.9.6-3,1.4-6,1.2-9.1a1.3,1.3,0,0,1,.9-1.6,1.6,1.6,0,0,1,2,.8A6,6,0,0,1,55,58c-.4,2-.9,4-1.3,5.9A1.2,1.2,0,0,0,55,65.4h2a1.5,1.5,0,0,1,1.5,1.7c0,.9-.5,1.4-1.5,1.3a4.8,4.8,0,0,0-2.8.8H54c-2.3.3-2.9,2.3-3.9,3.9l-1.4,2.5a3.4,3.4,0,0,1-2.8,1.9,8,8,0,0,0-2.1.5c-2.3.5-4.7,1.4-7.1.5a12,12,0,0,1-5.9-3.5,13.6,13.6,0,0,1-2.7-6.3,13.5,13.5,0,0,1-.2-4c.1-1.6-.9-2.6-1.9-3.6s-2.9-2.8-4.2-4.4a34.5,34.5,0,0,1-4.1-5.9,20.5,20.5,0,0,1-2.1-7.7,24.8,24.8,0,0,0-.3-2.7c-.1-.8-.7-.9-1.3-1a33.8,33.8,0,0,1-4.5-.1A11.1,11.1,0,0,1,2,35.3a10,10,0,0,1-2-5.6,6.2,6.2,0,0,1,2.2-5.3,2.5,2.5,0,0,1,1.6-.6l8.8.3,1.4.4c1.8.7,3-1,3.1-2.3a5.5,5.5,0,0,0-1.6-4,38.6,38.6,0,0,1-3-3.8,10.8,10.8,0,0,1-1.5-5,4.4,4.4,0,0,1,.5-1.5l2-3.4,1.7-2.4c.7-.9,1.9-.7,2.8-1A7.3,7.3,0,0,0,19.9.4L21,0h5.3c1.3,0,2.2,1,3.1,1.8A13.7,13.7,0,0,1,32.9,7c1,2.1,1.7,4.3.7,6.8a9.5,9.5,0,0,1-3.2,4.4,8,8,0,0,1-4.8,2,15.9,15.9,0,0,0-3.7.6c-.8.1-.9.9-1,1.6a4.5,4.5,0,0,1-.1,1.1c0,.8.3,1.2,1.1,1.3a9,9,0,0,0,4.8-.7c1.9-.7,3.8-1.2,5.7-2a44.3,44.3,0,0,0,4.5-2,25.8,25.8,0,0,0,3.2-1.8l3.5-2.1,2.8-1.8L51.3,11l2.6-1.8,5.6-3.6A14.8,14.8,0,0,1,63,3.7a15,15,0,0,0,3.4-1.6C67.3,1.6,68,.9,68.9.3s.7.1,1,.2-.1.7-.3.9a10.9,10.9,0,0,1-1.7,1.3l-.4.3A2.3,2.3,0,0,1,66,4.5Zm-27.6,70a12.1,12.1,0,0,0,7.5-3.5,1.1,1.1,0,0,0,.4-1.1c-.1-.2-.6-.4-.9-.5l-3.8-.8a46,46,0,0,1-8.9-2.8H32c-.6-.1-1,.2-.9.9s.4,2.3.7,3.4A6.6,6.6,0,0,0,38.2,74.8Z"/>
    <g>
      <path class="a" d="M111.8,24.3h-3.9l.4.6v.3L106,27.2h-.3a20,20,0,0,0-1-2.1v1.4l.2,11.3h-4.1l.2-11.2a27.4,27.4,0,0,1-1.5,4,.5.5,0,0,1-.4.3c-.2,0-.3-.1-.5-.3l-1.8-3.1a35,35,0,0,0,4-9.2H97.5l-.2-.2V14.9l.2-.2h3.4V9.2l.2-.2h3.4l.2.2v5.6h2.5l.2.2v3.2a28.5,28.5,0,0,0,2.8-7.2l.2-.2,3.3,1.2v.3a12.1,12.1,0,0,0-.5,1.8h1.2V9.2l.2-.2h3.8v5H125v3.4h-6.4v3.4H126v3.3l-.2.2h-6.7a32.1,32.1,0,0,0,7.4,7.8L124,35.2c-.1.3-.3.4-.4.4l-.4-.2a26.9,26.9,0,0,1-4.6-6.2l.2,8.5h-4.5l.3-8.1a29.2,29.2,0,0,1-6,6.2l-.4.2a.5.5,0,0,1-.4-.3l-2.5-2.5a30.2,30.2,0,0,0,8.5-8.9Zm2.7-6.9H112a24.4,24.4,0,0,1-1.4,2.8q-.1.3-.3.3l-.5-.2L107,18.7c.1-.1.2-.2.2-.3h-2.5v3.4l.7-.5h.3l1.9,2.7v-3h6.9Z"/>
      <path class="a" d="M150.9,14.1a13.9,13.9,0,0,0-2.6-2.8v-.2l2.4-1.9h.3a13.8,13.8,0,0,1,3.1,2.8v.4l-2.2,1.7h3.9l.2.2v3.5h-8.2A34.8,34.8,0,0,0,150,29.2c1.1,2.6,1.9,3.5,2.2,3.5s.7-.6,1.1-3.9L156,31a.8.8,0,0,1,.4.8c-.5,4-2,5.7-4.1,5.7s-3.9-1.2-6-5.8-2.4-7.9-2.8-13.9H127.6V14.2l.2-.2h15.5V9.2h4l.2.3c0,1.6.1,3.2.1,4.6ZM138,30.9l5.9-1v2.8c0,.5-.2.7-.7.9-3.8.9-8.4,1.9-13.8,2.8l-.2-.2-1.5-3.5.2-.3,5.9-.8V24.8h-4.5l-.3-.2V21.4l.2-.2h13.5v3.5H138Z"/>
      <path class="a" d="M178.8,22.3l-.2.2H164.9l-.2-.2V20.5l-3.5,2.3-.8.3-.4-.2-3-3A31.5,31.5,0,0,0,169.6,8.8h.3l4.3,1.1v.3a3.5,3.5,0,0,0-.5.8A35.7,35.7,0,0,0,186.5,19l-2.8,3.3a1.5,1.5,0,0,1-.8.5l-.6-.2-3.5-2.1Zm-7.7,5.9a46.7,46.7,0,0,1-2.7,4.9c2.7-.1,5.4-.4,8.1-.6L174,30.3v-.2l3-1.7h.2a40.6,40.6,0,0,1,7.1,6.6v.2l-3.1,2.6h-.3l-1.5-1.9c-6.6.7-11.8,1.1-18.9,1.6l-.3-.2L159,33.6l.2-.3h4.6a46.6,46.6,0,0,0,2.5-5h-7.6l-.2-.2V24.6l.2-.2h26.1l.2.2v3.5l-.2.2H171.1Zm5.4-9.5a44.8,44.8,0,0,1-5-4.7,34.1,34.1,0,0,1-4.6,4.7h9.6Z"/>
      <path class="a" d="M196.9,23h.3a18.5,18.5,0,0,1,3.7,3.2v.3L198.3,29H198a23.9,23.9,0,0,0-2.1-2.6V37.8h-4.4l.2-7.4V27.5L190.1,29l-.5.2-.4-.2-2-3c3-2.2,6.3-5.6,7.6-8.7h-6.6l-.2-.2V13.6l.2-.2h3.6V9.2l.2-.3h3.7l.2.3v4.3h2.3l1.6,1.6a1.2,1.2,0,0,1,.2.5v.4a30.7,30.7,0,0,1-4,7.2V24Zm13.7-4.4h4.2v3.6l-.2.2h-5.7V32.7h6.8v3.6l-.2.2H197.9l-.2-.2V32.8h6.9V22.3h-5.2l-.2-.2V18.5h5.3V9.5l.2-.2h3.9l.2.2v9.1Z"/>
      <path class="a" d="M229.6,34.3a3.1,3.1,0,0,1-.7-.9,11.3,11.3,0,0,1-5.7,1.9c-2.3,0-3.7-1.8-3.7-4.3,0-4.5,3.2-8.4,7.1-10.5,0-1,.1-1.8.2-2.9a36.2,36.2,0,0,1-4.7.2l-.2-.2V14.1l.2-.2H227c.1-1.2.2-2.3.2-3.5l.2-.2h4.1v.3l-.3,2.8a48.6,48.6,0,0,0,7.2-1.5h.3l.2,3.8v.2a78.2,78.2,0,0,1-8,1.3c0,.5-.1,1.2-.1,2.1A17.3,17.3,0,0,1,234,19l.3-1.2.2-.2,3.7.9.2.2a5.1,5.1,0,0,0-.2.9,8.1,8.1,0,0,1,6.2,7.6c0,5.7-4.2,8.7-9.6,9.7a.6.6,0,0,1-.5-.2l-2.6-3c6.4-1.1,8.2-3.3,8.2-6.7a4.1,4.1,0,0,0-2.7-4.2,21.3,21.3,0,0,1-5,8l.6.7v.3l-2.8,2.5ZM223.4,30a.9.9,0,0,0,1,1,6.5,6.5,0,0,0,2.8-1.3,20.7,20.7,0,0,1-.6-5C224.8,26.2,223.4,28.4,223.4,30Zm9.7-7.7a5.4,5.4,0,0,0-2.5.3,13.4,13.4,0,0,0,.1,4A14,14,0,0,0,233.1,22.3Z"/>
      <path class="a" d="M249.2,35.2c1.6-5.2,3.1-9.8,4.6-14.4l-4.5.6-.2-.2-.7-3.6.2-.2,6.7-.8,2.2-6.5h.3l4,1v.3l-1.7,4.8h1.7c2.5,0,4.9,1.5,4.9,5.9a38.7,38.7,0,0,1-1.4,10.3c-1.1,3.4-3.1,4.1-4.7,4.1a17.2,17.2,0,0,1-3.7-.5c-.2-.1-.3-.1-.3-.6l-.4-4.2a13.2,13.2,0,0,0,3,.6c1,0,1.4-.1,1.9-1.6a38.1,38.1,0,0,0,1-7.8c0-1.8-.2-2.2-1.5-2.2l-2,.2c-2,5.7-3.5,10.3-5.1,16.2h-.4l-3.9-.9Zm17.9-18.1,3.2-2h.3a29,29,0,0,1,5.7,9.5v.3l-3.7,2.2h-.3a29.7,29.7,0,0,0-5.2-9.6Z"/>
      <path class="a" d="M277.9,30.4l7.2-8.5V19.6L281,21.8h-.3l-1.9-3.3v-.3c2.3-1.2,4.4-2.2,6.4-3,0-1.7.1-3.3.2-4.8l.2-.3h3.9l.2.2-.3,4a2,2,0,0,1,1.1,1.7c0,.9-.2,1.5-1.4,3v.3c2.7-2.8,5.7-4.7,8.1-4.7a5.1,5.1,0,0,1,4.7,2.4c1,1.6,1.5,4.6,1.5,7.4a35.5,35.5,0,0,1-.3,4.6,19.9,19.9,0,0,1,3.2,2.9v.3l-2.4,3h-.3a24.4,24.4,0,0,0-2.2-2.3c-1,1.7-2.9,2.5-5.2,2.5s-5.5-1.5-5.5-4.3,2.2-4.6,5.1-4.6a8.7,8.7,0,0,1,3.1.5c.1-2.9.1-5.9-.5-7.2a1.9,1.9,0,0,0-1.9-1.2c-1.1,0-3.9,1.5-7.5,5.2,0,3.2.1,6.6.3,10.5a2.3,2.3,0,0,1-2.3,2.3c-1.2,0-1.9-.7-2.3-2.1a9.4,9.4,0,0,0-2.3-3.5l-1.8,2.2h-.3l-2.5-2.7Zm6.7.4c.2.1.4,0,.4-.6V27.7l-1.8,2.5Zm11.3-.9c-.9,0-1.6.4-1.6,1.1s.6.9,1.7.9,1.9-.4,2.1-1.3A3.8,3.8,0,0,0,295.9,29.9Z"/>
    </g>
    <g>
      <path class="a" d="M102.1,63.8c.3,2,1.2,3.1,3.1,3.1a1.7,1.7,0,0,0,1.8-1.7c0-1.3-.8-1.7-3.5-2.7s-4.8-2.7-4.8-5.4,2.3-5.2,5.8-5.2,5.8,1.8,6.3,5.1l-4,.8c-.1-2.1-1-3.2-2.4-3.2a1.6,1.6,0,0,0-1.8,1.8c0,1.2.8,1.8,3.3,2.7s5.3,2.5,5.3,5.4-2.3,5.4-6.3,5.4S98.5,68,98,64.3Z"/>
      <path class="a" d="M117.9,69.6h-4.2V52.1h4.2Z"/>
      <path class="a" d="M135.5,52.1V69.6h-5.9l-3.7-10.4a24.2,24.2,0,0,1-1-3.6h-.2c.3,2.8.4,6.9.4,9.3v4.7h-3.6V52.1h5.8L131,62.5a24.7,24.7,0,0,1,1.1,3.6h.2a86.9,86.9,0,0,1-.5-8.9V52.1Z"/>
      <path class="a" d="M152.4,64c-.9,4-3.1,5.8-6.7,5.8s-7.5-3-7.5-9,2.8-8.9,7.3-8.9,6.1,1.9,6.7,5.5l-4.2,1c-.2-2.5-1.1-3.6-2.7-3.6s-2.9,2.1-2.9,5.9,1.2,6.2,3,6.2,2.4-1,2.7-3.4Z"/>
      <path class="a" d="M165.5,66.6v3H154.8V52.1h10.5v3h-6.5v4.2h5.9v2.9h-5.9v4.4Z"/>
      <path class="a" d="M184.8,66.2v3.4H172.6V67.2c6.2-6.2,7.8-8.2,7.8-10.7s-.6-1.9-1.6-1.9-2.2,1.1-2.5,3.6l-3.7-1.1a5.8,5.8,0,0,1,6.2-5.2c3.6,0,5.8,1.8,5.8,4.9s-1.7,4.8-6.8,9.4Z"/>
      <path class="a" d="M198.7,60.8c0,6.2-1.7,9-6.1,9s-6.2-2.8-6.2-9,1.8-8.9,6.2-8.9S198.7,54.7,198.7,60.8Zm-4.2,0c0-4.9-.5-6.3-1.9-6.3s-2,1.4-2,6.3.5,6.4,2,6.4S194.5,65.7,194.5,60.8Z"/>
      <path class="a" d="M212.9,60.8c0,6.2-1.8,9-6.2,9s-6.2-2.8-6.2-9,1.8-8.9,6.2-8.9S212.9,54.7,212.9,60.8Zm-4.3,0c0-4.9-.4-6.3-1.9-6.3s-1.9,1.4-1.9,6.3.4,6.4,1.9,6.4S208.6,65.7,208.6,60.8Z"/>
      <path class="a" d="M227,60.8c0,6.2-1.7,9-6.1,9s-6.2-2.8-6.2-9,1.8-8.9,6.2-8.9S227,54.7,227,60.8Zm-4.2,0c0-4.9-.5-6.3-1.9-6.3s-2,1.4-2,6.3.5,6.4,2,6.4S222.8,65.7,222.8,60.8Z"/>
    </g>
  </g>
</svg>
