<svg xmlns="http://www.w3.org/2000/svg" viewBox="0 0 730.5 230.7">
  <defs>
    <style>
      .a {
        fill: #e56103;
      }
    </style>
  </defs>
  <title>maintitle</title>
  <g>
    <g>
      <path class="a" d="M6.3.2H23.8V6.9H13.7V33.1H6.3Z"/>
      <path class="a" d="M73.1,28.2a37.1,37.1,0,0,0,8.7,12.7,30.3,30.3,0,0,0-5.4,5.9,39.3,39.3,0,0,1-6.6-11.1V49.3H62.5V35.8A35.5,35.5,0,0,1,53,47.1a34.1,34.1,0,0,0-5-5.7A31.8,31.8,0,0,0,59.3,28.2H51.7V21.5H62.5v-6h-4a29.2,29.2,0,0,1-2.8,5.6,48.4,48.4,0,0,0-5.8-3.8l.5-.7H45.7V18c1.5,2,5.1,7.7,6,9.2l-4.3,4.9a41.2,41.2,0,0,0-1.7-4.2V49.3H38.4V32.2a45.4,45.4,0,0,1-3.9,8.5A48.1,48.1,0,0,0,31,33c3-3.8,5.6-10.6,7-16.4H32.1V9.7h6.3V.2h7.3V9.7h5.5v5.4A41.1,41.1,0,0,0,54.6,2.8L61.4,4c-.3,1.6-.5,3.2-.9,4.7h2V.2h7.3V8.7h9.5v6.8H69.8v6H80.3v6.7Z"/>
      <path class="a" d="M106.3,37.9l8.9-1.5.5,6.7L91.6,48l-2-7.7,9.2-1.2V28h-7V20.8h22.1V28h-7.6Zm16.7-22c1,13.9,3.7,25.5,6.7,25.5,1,0,1.5-2.8,1.8-9.1a17.8,17.8,0,0,0,6.6,4.4c-1.1,10.4-3.6,12.6-9,12.6-9.2,0-12.9-15.5-14-33.4H89.8V8.5h24.9c0-2.7-.1-5.4-.1-8.1h8.2a73,73,0,0,0-.1,8.1h6.6a41.4,41.4,0,0,0-5-4.4L129.2,0a40.5,40.5,0,0,1,6.5,5.4l-3.6,3.1h4.5v7.4Z"/>
      <path class="a" d="M158,18.6a63.6,63.6,0,0,1-8.4,4.9,29.2,29.2,0,0,0-4.5-6.3c8.8-3.8,16.9-11,20.6-16.9h8A43.6,43.6,0,0,0,195.2,16a37,37,0,0,0-4.8,6.9,59,59,0,0,1-8.4-4.7v4.2H158Zm23,13.9a66.9,66.9,0,0,1,10.9,12.6l-7,4.2c-.5-.9-1.2-1.9-1.9-3L149.8,48l-1-7.4,7.9-.3a66.2,66.2,0,0,0,3-7.8H148.6V25.6h43.1v6.9Zm-2.7-16.9A42.8,42.8,0,0,1,170,7.5a49.5,49.5,0,0,1-7.9,8.1ZM169,32.5c-1.3,2.6-2.6,5.2-3.9,7.6l12.6-.5-4.1-4.2,5.5-2.9Z"/>
      <path class="a" d="M221.5,35.6c-.9-1.3-2.2-2.9-3.6-4.6V49.4h-7.4V32.7a39.2,39.2,0,0,1-5.5,4.1,34.4,34.4,0,0,0-3.5-7.2A35.3,35.3,0,0,0,215,16.5H203.5V9.7h7V.3h7.4V9.7h1.2l1.3-.2,4.2,2.7a55,55,0,0,1-5.8,11c2.5,2,6.2,5.3,7.3,6.3Zm30.4,4.9v7.4H222.3V40.5h11.4V23h-9.2V15.7h9.2V.8h7.7V15.7h9.2V23h-9.2V40.5Z"/>
      <path class="a" d="M297.2,16.2l-.9,2.4c5.8,2,9.8,6.6,9.8,12.7s-4,14.6-16.9,16.5l-4.1-6.4c10.2-1.2,13.3-6.3,13.3-10.4a6.6,6.6,0,0,0-4.2-6.2,39.5,39.5,0,0,1-10.4,14.9c.4,1.2.7,2.4,1.1,3.6l-7.1,2.1-.6-1.7a18.7,18.7,0,0,1-7.5,1.7c-4,0-7.4-2.4-7.4-8.1s5.3-13.5,12.5-17a52.5,52.5,0,0,1,.5-5.7h-.9c-3,0-7-.3-9.5-.4l-.2-7.1a73.1,73.1,0,0,0,10,.8h1.2l.2-2.1c.1-1,.2-2.4.2-3.4l8,.2a27.5,27.5,0,0,0-.8,3c-.1.7-.3,1.4-.4,2.1a80,80,0,0,0,17-2.2v7.1a167.6,167.6,0,0,1-18.1,1.8l-.3,3.7a33.8,33.8,0,0,1,7.2-.8h.3c.2-1.1.3-2.1.4-2.9ZM275.7,36.7a80.6,80.6,0,0,1-1-8.9c-3.1,2.4-5.1,5.7-5.1,7.9s.5,2.2,2,2.2A9,9,0,0,0,275.7,36.7Zm11.6-13.1a23.3,23.3,0,0,0-5.7,1c.1,2.6.2,4.8.5,7A32.5,32.5,0,0,0,287.3,23.6Z"/>
      <path class="a" d="M339.4,3.5c-.4,1.5-.8,3.4-1.1,4.9s-.6,2.8-.9,4.1h3.5c5.9,0,9.8,2.8,9.8,10.4,0,6-.7,14.2-2.9,18.8s-4.7,5-8.9,5a30.9,30.9,0,0,1-6.2-.8l-1.4-8.1a33.8,33.8,0,0,0,6.3,1,3.5,3.5,0,0,0,3.5-1.9c1.2-2.6,1.9-8.4,1.9-13.2s-1.6-4.2-4.8-4.2l-2.4.2c-2,7.9-5.9,20.2-10.2,27.3l-8.1-3.3c4.8-6.6,8.1-16.1,10.1-23.1l-3.3.4-6.3,1-.6-8.3h5.9l5.9-.4a53.9,53.9,0,0,0,1-10.7Zm17.7,4.4c3.1,4.6,7.3,14.5,8.8,19.5L358,31c-1.3-5.9-4.7-15.3-8.4-20Z"/>
      <path class="a" d="M394.9,12.3a26,26,0,0,0-2,2.8c3.8-3.2,8.6-6.1,13.3-6.1,7.5,0,12.2,6,12.2,15.8a64.7,64.7,0,0,1-.5,8,31.7,31.7,0,0,1,5,4.6L419,43.8a38.9,38.9,0,0,0-3.4-3.6c-1.9,3.7-5.1,5.8-10.2,5.8s-10.6-2.8-10.6-8.9,4-8.5,10.8-8.5a19.3,19.3,0,0,1,4.9.6,34.7,34.7,0,0,0,.2-4.7c0-4.9-2.1-8.5-5.9-8.5s-9.5,4.4-13.4,8.8c0,1.5-.1,2.8-.1,4.1,0,3.9,0,8.9.4,13.8.1,1,.3,3.2.4,4.4h-8.5c.1-1.3.2-3.4.2-4.2,0-3.1.1-5.8.2-9.1-2,2.9-4,6-5.4,7.9l-4.9-6.8c2.9-3.6,7.8-9.8,10.8-14.2l.2-2.7-9,1.1-.8-7.9a43.2,43.2,0,0,0,5.1,0l5.2-.6c.1-1.6.1-2.9.1-3.4a28.3,28.3,0,0,0-.2-5l9,.2a73.3,73.3,0,0,0-1.2,7.3Zm14.2,23.4a10.6,10.6,0,0,0-4.2-.9c-1.8,0-3.4.6-3.4,2s1.6,2.3,3.4,2.3S408.1,37.8,409.1,35.7Z"/>
      <path class="a" d="M447.5,49.3H429.9V42.6h10.2V16.5h7.4Z"/>
      <path class="a" d="M475.2,4.4c-.4,1.1-1.1,4.3-1.4,5.2-.6,2.7-2.3,14.6-2.3,19.4v1.2c.6-1.5,1.3-2.5,1.9-4l3.8,3c-1.5,4.6-3.1,9.8-3.7,12.7a11.2,11.2,0,0,0-.3,2.4v2.4l-7,.4a61.6,61.6,0,0,1-2.1-16.4c0-7.8,1.5-17.5,2-21.2a49.3,49.3,0,0,0,.6-5.8Zm30.5,39.4a53.6,53.6,0,0,0-5.5-4.6c-.6,4.8-3.8,7.8-10.5,7.8s-12-3.1-12-8.9,4.7-9.4,11.9-9.4h2.6c-.2-2.7-.4-5.9-.4-9.1h-2.9c-3.1,0-6.1-.1-9.2-.4V12.1a91,91,0,0,0,9.1.4h2.9c0-2.4,0-4.3-.1-5.3a26.8,26.8,0,0,0-.4-3.5h8.9a18.7,18.7,0,0,0-.3,3.4c-.1,1-.1,2.7-.2,4.8a58.8,58.8,0,0,0,7.5-1.1v7.7l-7.5.8c.1,4.7.3,8.4.5,11.4a32.7,32.7,0,0,1,9.8,6.6Zm-13.3-8.7a13.2,13.2,0,0,0-3.4-.4c-2.4,0-4,.9-4,2.5s1.8,2.4,4,2.4,3.4-1.3,3.4-4.1Z"/>
      <path class="a" d="M28.7,90.5c5.4,8.9,13.1,15.3,21.7,18.3a41.2,41.2,0,0,0-4.9,6.9,52.1,52.1,0,0,1-7.8-4.7v28.9H29.8V110.1h6.6A47.5,47.5,0,0,1,24.9,98.2a44.1,44.1,0,0,1-11.6,12.2h6.8v5.9c0,7.4-1.1,17.1-11.1,23.6a26.2,26.2,0,0,0-6.4-5.4c8.8-5.4,9.7-12.6,9.7-18.4v-4.9a59.1,59.1,0,0,1-7.6,4.6,26.9,26.9,0,0,0-4.6-6.2c9.2-4.2,17-12.5,20.4-19.1Z"/>
      <path class="a" d="M75,105.2H57.5V99.3H75Zm-1.4,31.9H65.2v2H59.4v-18H73.6Zm7.8-38.9H75.5V93h5.9V90.7H88V93h5.1V90.7h6.7V93h6v5.2h-6v2.3H97.5c-.4.7-.8,1.5-1.2,2.1h8.1v4.5H95.8v1h7.6v3.5H95.8v1.1h7.6v3.5H95.8v1.1h9.9v4.5H78.6v-10a4.6,4.6,0,0,1-.7.7,55.2,55.2,0,0,0-4.2-3.6v3.4H59.6v-5.6H73.7v1.6a23.6,23.6,0,0,0,6.1-9.2l1.6.4ZM59.6,113.9H73.7v5.5H59.6ZM73.5,97.8H60V92.2H73.5Zm-8.3,29.1v4.4h2.4v-4.4Zm39.8-2.1a22.4,22.4,0,0,1-7.1,7.9,61.6,61.6,0,0,0,8.9,1.2,30.2,30.2,0,0,0-4.2,5.9,52,52,0,0,1-12.5-3A66.7,66.7,0,0,1,76.6,140a27,27,0,0,0-2.9-5.6,66.9,66.9,0,0,0,9.3-1.5,15.5,15.5,0,0,1-3.6-3.1l4.3-1.6H76.1V123H99.5l1.2-.3ZM88,98.2v2.3H85.6a12.1,12.1,0,0,1-.9,2h4.9a33.2,33.2,0,0,0,1.2-3.2l2.3.3V98.2Zm1.3,8.9H85.1v1h4.2Zm0,4.5H85.1v1.1h4.2Zm0,4.6H85.1v1.1h4.2Zm-3,12a22.2,22.2,0,0,0,4.1,2.3,27.3,27.3,0,0,0,3.8-2.3Z"/>
      <path class="a" d="M155.3,103.3a33.2,33.2,0,0,0,6.3-.5v8.3h-9v1.6c0,12.3-3.2,20.5-16,26.1l-6.8-6.3c10.4-3.4,14.6-7.9,14.6-19.6V111H133.5v6.2c0,2.6.2,4.6.3,5.9H125a42.7,42.7,0,0,0,.3-5.9V111h-3.7l-5.8.2v-8.5a30,30,0,0,0,5.8.6h3.7V99c0-2.2-.2-4-.3-5.2h8.9a32.2,32.2,0,0,0-.4,5.2v4.3h10.9V98.4a34.9,34.9,0,0,0-.3-5.1H153a32.9,32.9,0,0,0-.4,5.1v4.9Z"/>
      <path class="a" d="M174.4,110.1c2.1.2,6.4.4,9,.4h27.4c2.4,0,4.9-.3,6.4-.4V120c-1.3,0-4.2-.3-6.4-.3H183.4l-9,.3Z"/>
      <path class="a" d="M243.1,126.3c0,2,1,2.5,3.2,2.9a42.2,42.2,0,0,0,5.5.3c5.4,0,14-.7,18.2-1.9v9.2a160,160,0,0,1-18.7,1,67.9,67.9,0,0,1-8.9-.6c-4.8-.9-7.6-3.7-7.6-8.3v-28a49.7,49.7,0,0,0-.5-6.1h9.2c-.2,1.8-.4,4.6-.4,6.1v8.7a153.4,153.4,0,0,0,16.9-5.5,35.2,35.2,0,0,0,6.3-3l3.3,7.9-6.7,2.7c-5,1.8-12.9,4.3-19.8,6Zm21.4-24.9a71.4,71.4,0,0,0-4-7.1l4.9-2a73.9,73.9,0,0,1,4,7.1Zm7.2-11.6a78.3,78.3,0,0,1,4.1,7L271,98.9a62.3,62.3,0,0,0-4.1-7.1Z"/>
      <path class="a" d="M327.9,99.6a30.7,30.7,0,0,0-2.1,3.8,87.3,87.3,0,0,1-7.8,13.7,143.3,143.3,0,0,1,14.1,14.4l-7.2,6.3a94.8,94.8,0,0,0-12.4-14.2,70.1,70.1,0,0,1-19,14.1l-6.5-6.8c8.4-3,16.6-9.4,21.2-14.5a39.1,39.1,0,0,0,7.2-11.7H299.3c-2.3,0-5.2.3-6.6.4V96.2a51.8,51.8,0,0,0,6.6.4h17.3a22.9,22.9,0,0,0,6.2-.7Z"/>
      <path class="a" d="M366.4,127.3c.1-1.3.2-3.3.3-5.2-3.2,1.9-4.6,3.5-4.6,5.6s1.6,3.1,6.4,3.1a75.5,75.5,0,0,0,14.9-1.6l-.3,8a139.4,139.4,0,0,1-14.8.9c-8.4,0-14.5-2.2-14.5-9s6.1-11,11.8-14a3.6,3.6,0,0,0-2.8-1,12.1,12.1,0,0,0-7.5,3.4,52.9,52.9,0,0,0-4.8,5.8l-6.6-5a47.1,47.1,0,0,0,11-13.2c-2.2,0-5.9-.1-8.6-.3V97.6a69.9,69.9,0,0,0,9.2.6h2.1a29.6,29.6,0,0,0,.8-5.6l8.2.7c-.2,1.1-.6,2.7-1.1,4.6a102.4,102.4,0,0,0,13.8-1.4v7.2c-4.8.6-11,1.1-16.5,1.3a30.7,30.7,0,0,1-2,3.6,25.1,25.1,0,0,1,5.1-.5c3,0,5.5,1.2,6.8,3.6l5.5-2.5,6.6-3,3,7.1-7,2.5-7.1,2.9c0,2.8.1,6.3.2,8.6Z"/>
      <path class="a" d="M412.3,127.3c1.7,3.3,4.8,4.6,9.7,4.8a244.8,244.8,0,0,0,26.7-.6,34.7,34.7,0,0,0-2.4,7.3c-6.8.4-17.8.5-24.4.2s-9.7-1.6-12.8-5.5c-2.2,1.9-4.5,3.7-7.4,5.9l-3.4-7.5c2.1-1.2,4.6-2.6,6.8-4.1V117.7H399v-6.9h13.3ZM408.5,105c-1.7-2.4-5.7-6-8.8-8.4l5.1-4.8c3.2,2.1,7.3,5.3,9.2,7.8Zm14.7,25.5h-7V103.7h9.6l-5.1-2.2,4.6-3.7h-8.4V92.2h23l1.4-.3,4.4,3.5a60.9,60.9,0,0,1-8.6,7l2.7,1.3h6.1v20.6c0,2.9-.5,4.4-2.3,5.4s-4.1,1-7,1a23,23,0,0,0-1.8-5.8H438c.6,0,.8-.2.8-.7v-1h-4.5v7.1h-6.7v-7.1h-4.4Zm0-21.5v1.9h4.4V109Zm4.4,8.9V116h-4.4v1.9Zm-1.5-20.1,4.9,1.9a24.8,24.8,0,0,0,2.6-1.9Zm8.2,11.2v1.9h4.5V109Zm4.5,8.9V116h-4.5v1.9Z"/>
      <path class="a" d="M474.7,93.7a71.9,71.9,0,0,0-.8,7.7c-.3,5.4-.6,16.5-.6,22.1s2.8,6.5,6.3,6.5c8,0,13.3-4.7,17.1-10.4l5.6,6.9a27.2,27.2,0,0,1-22.8,12c-8.9,0-14.5-4.1-14.5-13,0-6.5.5-20.2.5-24.1a38.1,38.1,0,0,0-.8-7.8Z"/>
      <path class="a" d="M520.2,98.5l21.9-1.8,14.9-.9v8a56,56,0,0,0-9.9.6c-5.5,1.2-10.2,7.2-10.2,13.3s7,10.5,15.9,11l-2.9,8.6c-11.4-.8-21.2-7-21.2-18a21,21,0,0,1,6.4-14.9c-4.3.5-13.3,1.5-19.5,2.8l-.8-8.4C517,98.8,519.2,98.6,520.2,98.5Z"/>
      <path class="a" d="M17.7,209l1.7,6.6c-5.5,2.9-11.5,5.8-16.4,8l-3-7.5,6.5-2.5V200.1H.8V193H6.5V182h7v11h4.8v7.1H13.5v10.6ZM40,222.8c2.7,0,3.2-1,3.7-6a20.8,20.8,0,0,0,6.5,2.7c-.9,7.4-3,10-9.4,10H30.6c-7.7,0-9.8-2.2-9.8-10.2V207.5l-2.1.9-2.8-6.6,4.9-2.1V186.4h7.1v10.3l2.8-1.2V181.3h7.1v11.1l2.5-1.1h0l1.2-.7,1.3-.9,5.3,1.9-.3,1.1c0,10-.1,15.4-.3,17.6s-.9,4-2.5,4.8-3.9.9-5.7.9a23.7,23.7,0,0,0-1.5-6.1V218H30.7V203.1l-2.8,1.3v14.9c0,3.1.4,3.5,3.4,3.5Zm-2.2-22.7v9.7h1.9c.5,0,.8-.2.9-1s.1-3.5.1-10.1Z"/>
      <path class="a" d="M74,216.2c-4.5,2.9-9.6,6-13.9,8.4l-2.8-7.5,4.7-2.3V200.6H57.8v-7.1H62V182h7v11.5h3.5v7.1H69v10.6l2.8-1.6Zm31.5-17.6A67.6,67.6,0,0,1,98.9,217c.8,3.9,1.7,6.4,2.6,6.4s.9-1.8,1-6a18.9,18.9,0,0,0,5,4.2c-1,6.9-2.7,8.8-7,8.8-2.8,0-5-2.4-6.6-6.3a33,33,0,0,1-6.4,6,41.2,41.2,0,0,0-5.3-4.7,27.6,27.6,0,0,0,5.1-3.9l-13.9,3.4-1.7-7c4.5-.7,11.2-2,17.7-3.4l.5,4.2,1.8-2.6a159.1,159.1,0,0,1-2.2-21.2H73.2v-6.8H89.3c0-2.3-.1-4.6-.1-6.8h7.2c-.1,2.2-.1,4.5-.1,6.8h3.9a36.8,36.8,0,0,0-3.5-3.3l4.2-3.6a29,29,0,0,1,5.4,4.9l-2.2,2h2v6.8H96.5c.2,3.2.4,6.4.6,9.4.7-2.2,1.3-4.5,1.8-6.8Zm-17.3-1.1v16.3H74.7V197.5Zm-5.7,5.6H80.1v5.1h2.4Z"/>
      <path class="a" d="M134.2,206.2h28v24.1H155v-1.9H141.1v1.9h-6.9V211.2l-2.5,3.5a46.5,46.5,0,0,0-3.2-4v19.8h-7.3v-16a33.7,33.7,0,0,1-4.3,3.4,30.7,30.7,0,0,0-3.4-7.3,33.8,33.8,0,0,0,12.3-13.1H115.5v-6.7h5.7v-9.5h7.3v9.5h1l1.3-.3,4.1,2.7a47.3,47.3,0,0,1-5,10.4l4.3,3.4Zm28.1-23v6.3H133.9v-6.3Zm-2.2,7.7v13.7H136.7V190.9Zm-19,21.3v2.4h3.6v-2.4Zm0,10.3h3.6v-2.4h-3.6Zm12-26h-9.8V199h9.8Zm1.9,15.7h-3.6v2.4H155Zm0,10.3v-2.4h-3.6v2.4Z"/>
      <path class="a" d="M220.5,222.2v7.2H189.3v-7.2h4.2V210.6l-4.1,5.6a49,49,0,0,0-3.4-4.8v19.1h-7.4V214.1a33.3,33.3,0,0,1-4.8,3.8,37.6,37.6,0,0,0-3.3-7.3,35.3,35.3,0,0,0,12.6-13.1H172.4v-6.7h6.2v-9.5H186v9.5h.9l1.2-.3,4.2,2.7a58.5,58.5,0,0,1-5,10.4l6.2,5.8V193.2H201v29h3.1V182h7.7v16.7h7.7v7.1h-7.7v16.4Z"/>
      <path class="a" d="M245,209.5l1.5,6.9-16.2,6.7-2.6-7.7,5.9-1.9V200.6H229v-7.1h4.6V182h6.9v11.5h4.3v7.1h-4.3v10.5Zm30.8-20.8v19.2H246V188.7h4.6a30,30,0,0,0-2.8-5.3l6.5-2.2a28.5,28.5,0,0,1,3.8,7l-1.2.5h7.5l-1.1-.4a43.2,43.2,0,0,0,3.3-7.3l7.8,1.9-4,5.8Zm-27.5,20.7h25.5v21h-7.2v-1.3H255.2v1.3h-6.9Zm4.4-15.3v1.6h4.6v-1.6Zm0,8.4h4.6v-1.7h-4.6Zm2.5,12.7v1.4h11.4v-1.4Zm11.4,8.1v-1.4H255.2v1.4Zm2.1-29.2h-4.6v1.6h4.6Zm0,6.7h-4.6v1.7h4.6Z"/>
      <path class="a" d="M298.1,217.8c1.7,3.2,4.9,4.6,9.7,4.8,6.5.3,19,.1,26.7-.5a31.2,31.2,0,0,0-2.3,7.3c-6.8.3-17.8.4-24.5.1S298,227.9,295,224c-2,1.9-4,3.7-6.7,5.9l-3.4-7.5a62.5,62.5,0,0,0,6-4V208.2h-5.4v-6.9h12.6Zm-4.9-22.4c-1.4-2.4-4.9-6-7.7-8.6l5.8-4.2c2.8,2.3,6.4,5.6,8.1,8.1Zm9.5,5.7-1.8,1.7a51.4,51.4,0,0,0-5.5-6,36.6,36.6,0,0,0,11.2-15.3l7.5,2.1c-.7,1.6-1.4,3.1-2.2,4.7h4.4a45.5,45.5,0,0,0,1.9-6.4l8.3,1.5c-.8,1.6-1.6,3.3-2.5,4.9h8.1v6.3h-9.6v2.1h8.2v6h-8.2v2.1h7.9v6h-7.9v2.4H333v6.2H302.7Zm12.6-6.5h-5.4v2.1h5.4Zm0,8.1h-5.4v2.1h5.4Zm0,8.1h-5.4v2.4h5.4Z"/>
      <path class="a" d="M356.8,185.6c-.4,1.1-1.2,4.3-1.4,5.2-.6,2.7-2.4,13.5-2.4,18.3v1.2c.7-1.5,1.3-2.5,2-4l3.7,3c-1.5,4.7-3.1,10.3-3.7,13.2-.1.7-.3,2-.3,2.4a19.3,19.3,0,0,0,.1,2.3l-7.2.5a67.5,67.5,0,0,1-2-16.9c0-7.8,1.5-16.3,2-20.1.2-1.6.5-3.9.6-5.8Zm12.1,25.6a20.8,20.8,0,0,0-.5,4c0,2.3,2.1,3.2,6.3,3.2a64.6,64.6,0,0,0,13-1.4v8.4a74.3,74.3,0,0,1-13.5,1c-8.9,0-13.4-3.4-13.4-8.8a29.6,29.6,0,0,1,1-7.1Zm17.3-22.5v8a168.9,168.9,0,0,1-22.5,0v-8A120.7,120.7,0,0,0,386.2,188.7Z"/>
      <path class="a" d="M446.6,185c-1.4,6.6-3.8,11.5-7.2,15.4a26.9,26.9,0,0,0,9.1,3.9,25.8,25.8,0,0,0-4.4,6,28.7,28.7,0,0,1-10-5.2,36.6,36.6,0,0,1-7.7,3.7c-.1-.3-.3-.5-.4-.8s-.2,2.2-.4,3.3h17.8s-.1,1.9-.2,2.9c-.8,8.2-1.8,12.2-3.4,13.8a7.6,7.6,0,0,1-5,2.2,56.6,56.6,0,0,1-7.4.1,15.8,15.8,0,0,0-2-6.6l5.6.3a2.4,2.4,0,0,0,1.9-.6c.6-.6,1.3-2.4,1.7-5.8H424.2c-2.3,6.2-7.6,10.6-20.3,13.1a23.6,23.6,0,0,0-3.8-6.5c8.9-1.3,13.3-3.5,15.6-6.6H403.3v-6.3H418c.1-1.2.3-2.6.4-4.1h.1a34.7,34.7,0,0,0-3.6-2.1c-3.4,2.5-7.7,4.2-13,5.4a22.8,22.8,0,0,0-3.1-6,26.2,26.2,0,0,0,9.2-2.8l-1.4-.6-.2.3-6.1-2.6c1-1.7,2.1-3.8,3.2-6.1h-3.8v-6.2h6.8q1.3-2.9,2.4-5.4l6.7,1.4c-.5,1.2-1.1,2.6-1.8,4h5.1l1.2-.2,4.1.9c-.9,5.4-2.4,9.6-4.7,12.8a34.7,34.7,0,0,1,3.6,2.1l-4.1,5.1h6.6a23.9,23.9,0,0,0-3-4.2,26.7,26.7,0,0,0,6.9-3,38.1,38.1,0,0,1-4.3-8.3l6.3-1.5a25.8,25.8,0,0,0,3,5.4,18.2,18.2,0,0,0,3.4-5.5H424.6v-6.3h16.3l1.2-.2Zm-35.8,7.7a27.5,27.5,0,0,1-1.4,3l4,1.6a15.8,15.8,0,0,0,2.6-4.6Z"/>
      <path class="a" d="M489.8,191.8c7.9,2,13.2,8.5,13.2,17.7,0,11.2-8,17.4-18.6,19.1l-4.7-7.2c11.6-1,15.1-6.8,15.1-12.4s-2.5-8.9-6.9-10.4c-1.7,5.6-3.8,11.2-6.6,15.6l2.6,2.8-6.3,4.9-1.3-1.5c-3.6,3.7-6.3,4.9-10.1,4.9s-8.7-3.7-8.7-10.7a23.3,23.3,0,0,1,7.3-16.4l-1.2-3.9a31.6,31.6,0,0,0-2.3-5.6l8.1-2.6q.6,2.8,1.2,5.1a27.6,27.6,0,0,0,.8,2.7,30.3,30.3,0,0,1,10.7-2.8l.3-1.7a27.4,27.4,0,0,0,.4-5.4l8.6.8c-.4,1.5-1,4.4-1.4,5.8Zm-18.1,22.5a64.9,64.9,0,0,1-4.1-8.7,15,15,0,0,0-2.8,8.3c0,2,.8,3.4,2.4,3.4S470.1,216.2,471.7,214.3Zm1.9-13.7a47.9,47.9,0,0,0,2.9,6.7,56.3,56.3,0,0,0,3.8-9.1A19,19,0,0,0,473.6,200.6Z"/>
      <path class="a" d="M520.2,189.1l21.9-1.9,14.9-.9v8a56,56,0,0,0-9.9.6c-5.5,1.3-10.2,7.3-10.2,13.3,0,7.6,7,10.5,15.9,11l-2.9,8.7c-11.4-.9-21.2-7.1-21.2-18a21.1,21.1,0,0,1,6.4-15c-4.3.5-13.3,1.5-19.5,2.9l-.8-8.5Z"/>
      <path class="a" d="M582.2,195.1c0,3.4,0,6.7.3,10.2.6,6.7,1.6,11.4,4.6,11.4s4.2-6.4,4.9-9.9l6.3,7.7c-3.6,9-6.9,12.2-11.4,12.2s-11-5.1-12.5-19.2c-.5-4.8-.6-10.7-.6-13.9a36.9,36.9,0,0,0-.4-5.6h9.5A50,50,0,0,0,582.2,195.1Zm35.2,20.8-8.2,3.1c-.7-7.7-3.2-20.8-9.2-27.3l7.9-2.6C612.9,195,617,208.5,617.4,215.9Z"/>
      <path class="a" d="M666.2,226.2a42.9,42.9,0,0,0-9.1-6.7v1.1c0,4.8-3.9,8-10.7,8-8.6,0-13.1-3.4-13.1-9.1s4.9-9.3,13.1-9.3h2.4v-3.4h-2.5c-2.7,0-8.7-.3-12-.7v-7.3a84.4,84.4,0,0,0,12,1h2.3v-4.2h-2.4a74.5,74.5,0,0,1-10.6-.8v-7a66.5,66.5,0,0,0,10.6,1h2.5v-1.8a25.1,25.1,0,0,0-.3-3.7h8.4c-.2,1.1-.3,2.5-.4,3.7v1.6a107.2,107.2,0,0,0,11.7-1.3l.2,7.1c-3.1.3-7,.7-12,.9v4.3c5.3-.3,9.4-.7,13.3-1.2v7.3c-4.5.4-8.2.8-13.2.9.2,1.6.3,3.3.4,5a39.4,39.4,0,0,1,14,7.6Zm-17-9.4a25.6,25.6,0,0,0-3.9-.3c-2.8,0-4.5,1.1-4.5,2.6s1.7,2.6,4.4,2.6,4-.8,4-3.4Z"/>
      <path class="a" d="M730.4,196.5q-4.6-.3-14.4-.3c.1,2.4.1,5,.1,7.1a13.9,13.9,0,0,1,2,7.4c0,6.6-4.2,15.5-17.1,18.9l-6.5-6.6c4.4-.9,8.7-2.1,11.7-4.5h-.9a9.6,9.6,0,0,1-9.1-9.9c0-6.2,4.9-10,10.9-10h1.3v-2.6c-7.7.1-15.2.4-21.5.7l-.2-7.4,21.6-.3v-.5c-.2-2-.4-4.2-.6-5.2h9c-.2,1-.4,4.2-.5,5.1v.6h14.4Zm-23.5,15.2c1.6,0,3.4-1.2,2.8-5.1a3.3,3.3,0,0,0-2.8-1.3,3.1,3.1,0,0,0-3.3,3.3A3.3,3.3,0,0,0,706.9,211.7Z"/>
    </g>
    <circle class="a" cx="23.4" cy="165.5" r="6"/>
    <circle class="a" cx="81.4" cy="165.5" r="6"/>
    <circle class="a" cx="139.4" cy="165.5" r="6"/>
    <circle class="a" cx="197.4" cy="165.5" r="6"/>
    <circle class="a" cx="255.4" cy="165.5" r="6"/>
    <circle class="a" cx="313.4" cy="165.5" r="6"/>
  </g>
</svg>
