<svg xmlns="http://www.w3.org/2000/svg" xmlns:xlink="http://www.w3.org/1999/xlink" viewBox="0 0 984.3 535.9">
  <defs>
    <style>
      .a {
        fill: none;
      }

      .b, .e {
        fill: #fff;
      }

      .b {
        stroke: gray;
        stroke-miterlimit: 10;
      }

      .c {
        fill: #f0f0f0;
      }

      .d {
        fill: gray;
      }

      .f {
        fill: #e4e4e4;
      }

      .g {
        clip-path: url(#a);
      }

      .h {
        fill: #008030;
      }
    </style>
    <clipPath id="a">
      <circle class="a" cx="836.9" cy="59.1" r="48.9"/>
    </clipPath>
  </defs>
  <title>menu</title>
  <g>
    <rect class="b" x="14.5" y="6.5" width="136" height="181"/>
    <rect class="b" x="11" y="9" width="136" height="181"/>
    <rect class="b" x="7.5" y="11.5" width="136" height="181"/>
    <rect class="b" x="4" y="14" width="136" height="181"/>
    <g>
      <g>
        <rect class="c" x="256.5" y="0.5" width="74" height="170"/>
        <path class="d" d="M331,171H256V0h75Zm-74-1h73V1H257Z"/>
      </g>
      <g>
        <polygon class="e" points="338.5 195.5 248.5 195.5 248.5 33.4 255.5 14.5 332.5 14.5 338.5 33.4 338.5 195.5"/>
        <path class="d" d="M339,196H248V33.2L255.1,14h77.8L339,33.4Zm-90-1h89V33.5L332.1,15H255.8L249,33.5Z"/>
      </g>
      <path class="d" d="M452,196H361V14h91Zm-90-1h89V15H362Z"/>
      <rect class="f" x="66.5" y="14" width="11" height="181"/>
      <polygon class="f" points="151 104 139.9 110 4 110 4 99 139.9 99 151 93 151 104"/>
      <polygon class="d" points="406.5 39 361.4 30 361.6 29 406.5 38 451.4 27.8 451.6 28.8 406.5 39"/>
      <rect class="d" x="248.5" y="33" width="90" height="1"/>
      <polygon class="f" points="66.5 14 72.5 6 81.2 6 77.5 14 66.5 14"/>
      <g>
        <rect class="e" x="559.5" y="11.7" width="115.1" height="176.91"/>
        <path class="d" d="M675.1,189.1H559V11.2H675.1Zm-115.1-1H674.1V12.2H560Z"/>
      </g>
      <g>
        <rect class="e" x="615.6" y="17.3" width="8.6" height="11.38"/>
        <path class="d" d="M624.8,29.2h-9.7V16.8h9.7Zm-8.7-1h7.7V17.8h-7.7Z"/>
      </g>
      <g>
        <rect class="e" x="604.2" y="17.3" width="8.6" height="11.38"/>
        <path class="d" d="M613.3,29.2h-9.6V16.8h9.6Zm-8.6-1h7.6V17.8h-7.6Z"/>
      </g>
      <g>
        <rect class="e" x="592.8" y="17.3" width="8.6" height="11.38"/>
        <path class="d" d="M601.9,29.2h-9.6V16.8h9.6Zm-8.6-1h7.6V17.8h-7.6Z"/>
      </g>
      <g>
        <rect class="e" x="627" y="17.3" width="8.6" height="11.38"/>
        <path class="d" d="M636.2,29.2h-9.7V16.8h9.7Zm-8.7-1h7.7V17.8h-7.7Z"/>
      </g>
      <g>
        <rect class="e" x="638.4" y="17.3" width="8.6" height="11.38"/>
        <path class="d" d="M647.6,29.2H638V16.8h9.6Zm-8.6-1h7.6V17.8H639Z"/>
      </g>
      <g>
        <rect class="e" x="649.9" y="17.3" width="8.6" height="11.38"/>
        <path class="d" d="M659,29.2h-9.6V16.8H659Zm-8.6-1H658V17.8h-7.6Z"/>
      </g>
      <g>
        <rect class="e" x="661.3" y="17.3" width="8.6" height="11.38"/>
        <path class="d" d="M670.4,29.2h-9.6V16.8h9.6Zm-8.6-1h7.6V17.8h-7.6Z"/>
      </g>
      <g>
        <rect class="e" x="297.2" y="37.8" width="6" height="7.83"/>
        <path class="d" d="M303.7,46.1h-7V37.3h7Zm-6-1h5V38.3h-5Z"/>
      </g>
      <g>
        <rect class="e" x="289.4" y="37.8" width="6" height="7.83"/>
        <path class="d" d="M295.8,46.1h-7V37.3h7Zm-6-1h5V38.3h-5Z"/>
      </g>
      <g>
        <rect class="e" x="281.5" y="37.8" width="6" height="7.83"/>
        <path class="d" d="M287.9,46.1H281V37.3h6.9Zm-5.9-1h4.9V38.3H282Z"/>
      </g>
      <g>
        <rect class="e" x="305.1" y="37.8" width="6" height="7.83"/>
        <path class="d" d="M311.5,46.1h-6.9V37.3h6.9Zm-5.9-1h4.9V38.3h-4.9Z"/>
      </g>
      <g>
        <rect class="e" x="312.9" y="37.8" width="6" height="7.83"/>
        <path class="d" d="M319.4,46.1h-7V37.3h7Zm-6-1h5V38.3h-5Z"/>
      </g>
      <g>
        <rect class="e" x="320.8" y="37.8" width="6" height="7.83"/>
        <path class="d" d="M327.2,46.1h-6.9V37.3h6.9Zm-5.9-1h4.9V38.3h-4.9Z"/>
      </g>
      <g>
        <rect class="e" x="328.6" y="37.8" width="6" height="7.83"/>
        <path class="d" d="M335.1,46.1h-7V37.3h7Zm-6-1h5V38.3h-5Z"/>
      </g>
      <g>
        <rect class="e" x="570.4" y="65.6" width="94" height="56.31"/>
        <path class="d" d="M664.9,122.4h-95V65.1h95Zm-94-1h93V66.1h-93Z"/>
      </g>
      <g>
        <line class="e" x1="576.6" y1="78.9" x2="656.9" y2="78.9"/>
        <rect class="d" x="576.6" y="77.4" width="80.3" height="3"/>
      </g>
      <g>
        <line class="e" x1="576.6" y1="92.7" x2="656.9" y2="92.7"/>
        <rect class="d" x="576.6" y="91.2" width="80.3" height="3"/>
      </g>
      <g>
        <line class="e" x1="576.6" y1="106.4" x2="656.9" y2="106.4"/>
        <rect class="d" x="576.6" y="104.9" width="80.3" height="3"/>
      </g>
      <g>
        <g>
          <rect class="e" x="4.7" y="299.7" width="140.7" height="193.54"/>
          <path class="d" d="M145.9,493.7H4.2V299.2H145.9Zm-140.7-1H144.9V300.2H5.2Z"/>
        </g>
        <g>
          <polygon class="e" points="120.7 345.6 131.4 325.2 109.4 333.5 104.2 310.6 89.1 328.8 75.5 309.5 67 331.6 48.4 317.1 46.7 340.7 24.4 332.9 31.8 355.2 8.7 359.5 28.4 371.4 17.7 391.8 39.7 383.5 44.9 406.4 60 388.2 73.6 407.5 82 385.4 100.7 399.9 102.4 376.4 124.7 384.1 117.3 361.8 140.4 357.5 120.7 345.6"/>
          <path class="d" d="M73.7,408.5,60,389,44.7,407.5l-5.4-23.3-22.6,8.5,11.1-21.1L7.3,359.2l23.8-4.4-7.5-22.7L46.3,340,48,316.1l18.8,14.7,8.6-22.3L89.1,328l15.3-18.5,5.4,23.3,22.6-8.5-11.1,21.2,20.5,12.3L118,362.2l7.5,22.7L102.8,377l-1.7,23.9L82.3,386.2ZM60,387.3l13.5,19.1,8.3-21.8,18.5,14.3,1.6-23.2,22,7.6-7.2-21.8,22.3-4.2-19-11.5,10.3-19.6-21.3,8-5.1-22.5-14.8,18L75.6,310.6l-8.3,21.8L48.8,318.1l-1.6,23.2-22-7.6,7.2,21.9-22.3,4.1,19,11.5L18.8,390.8l21.3-8,5.1,22.5Z"/>
        </g>
        <g>
          <line class="e" x1="23.7" y1="436.3" x2="124.4" y2="436.3"/>
          <rect class="d" x="23.7" y="434.8" width="100.8" height="3"/>
        </g>
        <g>
          <line class="e" x1="23.7" y1="453.3" x2="124.4" y2="453.3"/>
          <rect class="d" x="23.7" y="451.8" width="100.8" height="3"/>
        </g>
        <g>
          <line class="e" x1="23.7" y1="470.3" x2="124.4" y2="470.3"/>
          <rect class="d" x="23.7" y="468.8" width="100.8" height="3"/>
        </g>
      </g>
      <g>
        <g>
          <rect class="e" x="281.9" y="331.6" width="128.7" height="77.81"/>
          <path class="d" d="M411.1,409.9H281.4V331.1H411.1Zm-128.7-1H410.1V332.1H282.4Z"/>
        </g>
        <g>
          <g>
            <polygon class="e" points="428.1 461.3 267.7 461.3 281.8 409.4 410.8 409.4 428.1 461.3"/>
            <path class="d" d="M428.8,461.8H266.9l14.5-52.9H411.1Zm-160.3-1H427.3l-16.8-50.9H282.2Z"/>
          </g>
          <g>
            <polygon class="e" points="303.1 426 291.1 426 293.3 415.4 304.8 415.4 303.1 426"/>
            <path class="d" d="M303.6,426.5H290.4l2.5-11.6h12.5Zm-11.9-1h11l1.5-9.6H293.8Z"/>
          </g>
          <g>
            <polygon class="e" points="319.7 426 307.7 426 309.1 415.4 320.6 415.4 319.7 426"/>
            <path class="d" d="M320.2,426.5H307l1.7-11.6h12.5Zm-11.9-1h10.9l.9-9.6H309.6Z"/>
          </g>
          <g>
            <polygon class="e" points="336.3 426 324.2 426 324.9 415.4 336.4 415.4 336.3 426"/>
            <path class="d" d="M336.8,426.5H323.6l.9-11.6H337Zm-12-1h10.9l.2-9.6H325.4Z"/>
          </g>
          <g>
            <polygon class="e" points="352.8 426 340.8 426 340.7 415.4 352.2 415.4 352.8 426"/>
            <path class="d" d="M353.4,426.5H340.2V414.9h12.5Zm-12.1-1h11l-.6-9.6H341.3Z"/>
          </g>
          <g>
            <polygon class="e" points="369.4 426 357.4 426 356.5 415.4 368 415.4 369.4 426"/>
            <path class="d" d="M370,426.5H356.8l-.8-11.6h12.5Zm-12.1-1h10.9l-1.2-9.6H357.1Z"/>
          </g>
          <g>
            <polygon class="e" points="386 426 373.9 426 372.3 415.4 383.8 415.4 386 426"/>
            <path class="d" d="M386.6,426.5H373.4l-1.6-11.6h12.4Zm-12.2-1h10.9l-1.9-9.6H372.9Z"/>
          </g>
          <g>
            <polygon class="e" points="402.5 426 390.5 426 388.1 415.4 399.6 415.4 402.5 426"/>
            <path class="d" d="M403.2,426.5H390l-2.5-11.6H400Zm-12.3-1h11l-2.7-9.6H388.8Z"/>
          </g>
          <g>
            <polygon class="e" points="298.5 455.1 284.9 455.1 287.2 444.4 300.2 444.4 298.5 455.1"/>
            <path class="d" d="M299,455.6H284.2l2.5-11.7h14.2Zm-13.3-1H298l1.5-9.7H287.7Z"/>
          </g>
          <g>
            <polygon class="e" points="392.6 455.1 303.6 455.1 305.1 444.4 390.4 444.4 392.6 455.1"/>
            <path class="d" d="M393.3,455.6H302.9l1.7-11.7h86.3Zm-89-1h87.6l-2-9.7H305.6Z"/>
          </g>
          <g>
            <polygon class="e" points="410.4 455.1 396.9 455.1 394.5 444.4 407.5 444.4 410.4 455.1"/>
            <path class="d" d="M411.2,455.6H396.4l-2.6-11.7H408Zm-13.8-1h12.3l-2.6-9.7H395.2Z"/>
          </g>
          <g>
            <polygon class="e" points="318.7 440.7 288 440.7 290.2 430 319.6 430 318.7 440.7"/>
            <path class="d" d="M319.2,441.2H287.3l2.5-11.7h30.4Zm-30.5-1h29.5l.8-9.7H290.7Z"/>
          </g>
          <g>
            <polygon class="e" points="336 440.7 323.2 440.7 324 430 336.2 430 336 440.7"/>
            <path class="d" d="M336.6,441.2h-14l.8-11.7h13.4Zm-12.8-1h11.7v-9.7H324.5Z"/>
          </g>
          <g>
            <polygon class="e" points="353.7 440.7 340.8 440.7 340.8 430 353.1 430 353.7 440.7"/>
            <path class="d" d="M354.3,441.2h-14V429.5h13.3Zm-12.9-1h11.7l-.6-9.7H341.4Z"/>
          </g>
          <g>
            <polygon class="e" points="371.3 440.7 358.5 440.7 357.7 430 369.9 430 371.3 440.7"/>
            <path class="d" d="M371.9,441.2h-14l-.8-11.7h13.3Zm-12.9-1h11.6l-1.2-9.7H358.2Z"/>
          </g>
          <g>
            <polygon class="e" points="406.5 440.7 375.8 440.7 374.3 430 403.6 430 406.5 440.7"/>
            <path class="d" d="M407.2,441.2H375.3l-1.7-11.7H404Zm-30.9-1h29.5l-2.6-9.7H374.9Z"/>
          </g>
        </g>
        <g>
          <g>
            <line class="e" x1="297.5" y1="345" x2="395.1" y2="345"/>
            <rect class="d" x="297.5" y="344.5" width="97.5" height="1"/>
          </g>
          <g>
            <line class="e" x1="297.5" y1="353" x2="395.1" y2="353"/>
            <rect class="d" x="297.5" y="352.5" width="97.5" height="1"/>
          </g>
          <g>
            <line class="e" x1="297.5" y1="361" x2="395.1" y2="361"/>
            <rect class="d" x="297.5" y="360.5" width="97.5" height="1"/>
          </g>
          <g>
            <rect class="e" x="297.5" y="369.4" width="48.8" height="26.6"/>
            <path class="d" d="M346.8,396.5H297V368.9h49.8Zm-48.8-1h47.8V369.9H298Z"/>
          </g>
          <g>
            <line class="e" x1="352.5" y1="370.3" x2="393.7" y2="370.3"/>
            <rect class="d" x="352.5" y="369.8" width="41.2" height="1"/>
          </g>
          <g>
            <line class="e" x1="352.5" y1="377.8" x2="393.7" y2="377.8"/>
            <rect class="d" x="352.5" y="377.3" width="41.2" height="1"/>
          </g>
          <g>
            <line class="e" x1="352.5" y1="385.4" x2="393.7" y2="385.4"/>
            <rect class="d" x="352.5" y="384.9" width="41.2" height="1"/>
          </g>
          <g>
            <line class="e" x1="352.5" y1="392.9" x2="393.7" y2="392.9"/>
            <rect class="d" x="352.5" y="392.4" width="41.2" height="1"/>
          </g>
        </g>
      </g>
      <g>
        <g>
          <rect class="e" x="612.3" y="349.5" width="71.8" height="45.89"/>
          <path class="d" d="M684.6,395.9H611.8V349h72.8Zm-71.8-1h70.8V350H612.8Z"/>
        </g>
        <g>
          <path class="e" d="M519.5,418.1v24.3h7.4a13.9,13.9,0,0,1,13.6-11.2A13.7,13.7,0,0,1,554,442.4h53.3V383.5h-8l-.3,34.6Z"/>
          <path class="d" d="M607.8,442.9H553.6v-.4a13.3,13.3,0,0,0-26.1,0v.4H519V417.6h79.5l.4-34.6h8.9Zm-53.4-1h52.4V384h-7l-.3,34.6H520v23.3h6.5a14.4,14.4,0,0,1,14-11.2A14.2,14.2,0,0,1,554.4,441.9Z"/>
        </g>
        <g>
          <path class="e" d="M640.2,388.9H607.3v53.5h10.1a13.7,13.7,0,0,1,13.5-11.2,13.9,13.9,0,0,1,13.6,11.2h10.7V419.9Z"/>
          <path class="d" d="M655.7,442.9H644.1v-.4a13.3,13.3,0,0,0-26.1,0v.4h-11V388.4h33.8l15.1,31.5Zm-10.8-1h9.8V420l-14.8-30.6H607.8v52.5H617a14.3,14.3,0,0,1,27.9,0Z"/>
        </g>
        <g>
          <circle class="e" cx="540.5" cy="445" r="11.3"/>
          <path class="d" d="M540.5,436.7a8.3,8.3,0,1,1-8.3,8.3,8.3,8.3,0,0,1,8.3-8.3m0-3A11.3,11.3,0,1,0,551.8,445a11.3,11.3,0,0,0-11.3-11.3Z"/>
        </g>
        <g>
          <circle class="e" cx="630.9" cy="445" r="11.3"/>
          <path class="d" d="M630.9,436.7a8.3,8.3,0,1,1-8.3,8.3,8.3,8.3,0,0,1,8.3-8.3m0-3a11.3,11.3,0,1,0,0,22.6,11.3,11.3,0,1,0,0-22.6Z"/>
        </g>
        <g>
          <polygon class="e" points="612.6 394.5 612.6 419.1 647.2 419.1 636.3 394.8 612.6 394.5"/>
          <path class="d" d="M648,419.6H612.1V394l24.5.3Zm-34.9-1h33.4l-10.6-23.3-22.8-.3Z"/>
        </g>
        <g>
          <rect class="e" x="525.2" y="398.1" width="21.6" height="20.29"/>
          <path class="d" d="M547.3,418.9H524.7V397.6h22.6Zm-21.6-1h20.6V398.6H525.7Z"/>
        </g>
        <g>
          <rect class="e" x="546.8" y="398.1" width="21.6" height="20.29"/>
          <path class="d" d="M568.9,418.9H546.3V397.6h22.6Zm-21.6-1h20.6V398.6H547.3Z"/>
        </g>
        <g>
          <rect class="e" x="568.4" y="398.1" width="21.6" height="20.29"/>
          <path class="d" d="M590.5,418.9H567.9V397.6h22.6Zm-21.6-1h20.6V398.6H568.9Z"/>
        </g>
        <g>
          <rect class="e" x="525.2" y="377.5" width="21.6" height="20.29"/>
          <path class="d" d="M547.3,398.3H524.7V377h22.6Zm-21.6-1h20.6V378H525.7Z"/>
        </g>
        <g>
          <rect class="e" x="546.8" y="377.5" width="21.6" height="20.29"/>
          <path class="d" d="M568.9,398.3H546.3V377h22.6Zm-21.6-1h20.6V378H547.3Z"/>
        </g>
        <g>
          <rect class="e" x="568.4" y="377.5" width="21.6" height="20.29"/>
          <path class="d" d="M590.5,398.3H567.9V377h22.6Zm-21.6-1h20.6V378H568.9Z"/>
        </g>
        <g>
          <rect class="e" x="603.3" y="336.5" width="87.8" height="12.97"/>
          <path class="d" d="M691.6,350H602.8V336h88.8Zm-87.8-1h86.8V337H603.8Z"/>
        </g>
        <path class="d" d="M663.3,358.8v4.8H633.1v-4.8Zm0,10v4.8H650.8V391h-5.2V373.6H633.1v-4.8Z"/>
      </g>
      <path class="d" d="M33,26.4v2.9H15.1V26.4Zm0,6v2.8H25.6V45.6H22.5V35.2H15.1V32.4Z"/>
      <g class="g">
        <g>
          <path class="e" d="M735.8,70.9c25,0,25,16,49.9,16s25-16,49.9-16,24.9,16,49.9,16,24.9-16,49.9-16"/>
          <path class="d" d="M885.5,87.4c-12.6,0-19-4.1-25.2-8.1s-12.4-7.9-24.7-7.9-18.3,3.8-24.7,7.9-12.6,8.1-25.2,8.1-19-4.1-25.2-8.1-12.3-7.9-24.7-7.9v-1c12.7,0,19.1,4.1,25.2,8.1s12.4,7.9,24.7,7.9,18.3-3.8,24.7-7.9,12.6-8.1,25.2-8.1,19,4.1,25.2,8.1,12.4,7.9,24.7,7.9,18.3-3.8,24.6-7.9,12.6-8.1,25.3-8.1v1c-12.4,0-18.4,3.8-24.7,7.9S898.1,87.4,885.5,87.4Z"/>
        </g>
        <g>
          <path class="e" d="M735.8,40.8c25,0,25,16,49.9,16s25-16,49.9-16,24.9,16,49.9,16,24.9-16,49.9-16"/>
          <path class="d" d="M885.5,57.3c-12.6,0-19-4.1-25.2-8.1s-12.4-7.9-24.7-7.9-18.3,3.8-24.7,7.9-12.6,8.1-25.2,8.1-19-4.1-25.2-8.1-12.3-7.9-24.7-7.9v-1c12.7,0,19.1,4.1,25.2,8.1s12.4,7.9,24.7,7.9,18.3-3.8,24.7-7.9,12.6-8.1,25.2-8.1,19,4.1,25.2,8.1,12.4,7.9,24.7,7.9,18.3-3.8,24.6-7.9,12.6-8.1,25.3-8.1v1c-12.4,0-18.4,3.8-24.7,7.9S898.1,57.3,885.5,57.3Z"/>
        </g>
      </g>
      <path class="d" d="M836.9,108.6a49.4,49.4,0,1,1,49.4-49.4A49.4,49.4,0,0,1,836.9,108.6Zm0-97.7a48.4,48.4,0,1,0,48.4,48.3A48.4,48.4,0,0,0,836.9,10.9Z"/>
      <g>
        <polygon class="e" points="859.9 90.7 814.5 169.2 905.2 169.2 859.9 90.7"/>
        <path class="d" d="M906.1,169.7H813.6l.5-.7,45.8-79.3Zm-90.7-1h89l-44.5-77Z"/>
      </g>
      <g>
        <rect class="e" x="872.8" y="66.6" width="84.8" height="59.86" rx="11.6"/>
        <path class="d" d="M946.1,126.9H884.4a12.1,12.1,0,0,1-12.1-12.1V78.1a12.1,12.1,0,0,1,12.1-12h61.7a12,12,0,0,1,12,12v36.7A12.1,12.1,0,0,1,946.1,126.9ZM884.4,67.1a11.1,11.1,0,0,0-11.1,11v36.7a11.1,11.1,0,0,0,11.1,11.1h61.7a11.1,11.1,0,0,0,11-11.1V78.1a11,11,0,0,0-11-11Z"/>
      </g>
      <g>
        <g>
          <line class="e" x1="884.6" y1="79.5" x2="945.8" y2="79.5"/>
          <rect class="d" x="884.6" y="78" width="61.2" height="3"/>
        </g>
        <g>
          <line class="e" x1="884.6" y1="90.8" x2="945.8" y2="90.8"/>
          <rect class="d" x="884.6" y="89.3" width="61.2" height="3"/>
        </g>
        <g>
          <line class="e" x1="884.6" y1="102.1" x2="945.8" y2="102.1"/>
          <rect class="d" x="884.6" y="100.6" width="61.2" height="3"/>
        </g>
        <g>
          <line class="e" x1="884.6" y1="113.4" x2="945.8" y2="113.4"/>
          <rect class="d" x="884.6" y="111.9" width="61.2" height="3"/>
        </g>
      </g>
      <g>
        <polygon class="e" points="873.2 134.3 876.6 128 869.7 130.5 868.1 123.4 863.4 129.1 859.1 123.1 856.5 130 850.7 125.4 850.2 132.8 843.2 130.4 845.5 137.3 838.3 138.6 844.4 142.4 841.1 148.7 848 146.1 849.6 153.3 854.3 147.6 858.5 153.6 861.2 146.7 867 151.3 867.5 143.9 874.5 146.3 872.2 139.4 879.4 138 873.2 134.3"/>
        <path class="d" d="M858.7,154.7l-4.4-6.3-5,6-1.7-7.6-7.6,2.9,3.8-7.2-6.9-4.1,7.9-1.5-2.4-7.4,7.3,2.6.5-7.6,6.1,4.6L859,122l4.4,6.3,4.9-6,1.8,7.6,7.5-2.9-3.7,7.1,6.9,4.2-8,1.5,2.5,7.3-7.3-2.5-.6,7.6-6-4.7Zm-4.4-7.9,4.1,5.8,2.5-6.7,5.7,4.4.5-7.1,6.6,2.3-2.2-6.5,6.5-1.2-5.4-3.3,2.9-5.6-6.2,2.3-1.5-6.7-4.5,5.4-4-5.8-2.6,6.7-5.6-4.4-.5,7.1-6.6-2.3,2.1,6.5-6.4,1.2,5.4,3.3-3,5.6,6.2-2.3,1.5,6.7Z"/>
      </g>
      <g>
        <line class="e" x1="832.3" y1="159.3" x2="890.1" y2="159.3"/>
        <rect class="d" x="832.3" y="157.8" width="57.9" height="3"/>
      </g>
      <g>
        <g>
          <rect class="e" x="818.9" y="364.5" width="133.7" height="79.81"/>
          <path class="d" d="M953.1,444.9H818.4V364H953.1Zm-133.7-1H952.1V365H819.4Z"/>
        </g>
        <g>
          <rect class="e" x="815.9" y="361.5" width="133.7" height="79.81"/>
          <path class="d" d="M950.1,441.9H815.4V361H950.1Zm-133.7-1H949.1V362H816.4Z"/>
        </g>
        <g>
          <rect class="e" x="813" y="358.6" width="133.7" height="79.81"/>
          <path class="d" d="M947.1,438.9H812.5V358.1H947.1Zm-133.6-1H946.1V359.1H813.5Z"/>
        </g>
        <g>
          <rect class="e" x="810" y="355.6" width="133.7" height="79.81"/>
          <path class="d" d="M944.1,435.9H809.5V355.1H944.1Zm-133.6-1H943.1V356.1H810.5Z"/>
        </g>
        <g>
          <rect class="e" x="807" y="352.6" width="133.7" height="79.81"/>
          <path class="d" d="M941.2,432.9H806.5V352.1H941.2Zm-133.7-1H940.2V353.1H807.5Z"/>
        </g>
        <g>
          <rect class="e" x="803.9" y="348.5" width="133.7" height="79.81"/>
          <path class="d" d="M938.1,428.8H803.4V348H938.1Zm-133.7-1H937.1V349H804.4Z"/>
        </g>
        <g>
          <line class="e" x1="815.7" y1="420.6" x2="929.6" y2="420.6"/>
          <rect class="d" x="815.7" y="420.1" width="114" height="1"/>
        </g>
        <g>
          <line class="e" x1="856" y1="386.9" x2="919.4" y2="386.9"/>
          <rect class="d" x="856" y="383.4" width="63.4" height="7"/>
        </g>
        <g>
          <rect class="e" x="813.9" y="377.6" width="29.7" height="30.15" rx="10.5"/>
          <path class="d" d="M833.1,408.2h-8.7a11,11,0,0,1-11-11v-9.1a11,11,0,0,1,11-11h8.7a11,11,0,0,1,11,11v9.1A11,11,0,0,1,833.1,408.2Zm-8.7-30.1a10,10,0,0,0-10,10v9.1a10,10,0,0,0,10,10h8.7a10,10,0,0,0,10-10v-9.1a10,10,0,0,0-10-10Z"/>
        </g>
        <g>
          <circle class="e" cx="828.9" cy="369.3" r="11.4"/>
          <path class="d" d="M828.9,381.2a11.9,11.9,0,1,1,11.9-11.9A11.9,11.9,0,0,1,828.9,381.2Zm0-22.8a10.9,10.9,0,1,0,10.9,10.9A10.9,10.9,0,0,0,828.9,358.4Z"/>
        </g>
        <g>
          <line class="e" x1="856.5" y1="374.9" x2="872.4" y2="374.9"/>
          <rect class="d" x="856.5" y="374.4" width="16" height="1"/>
        </g>
      </g>
      <path class="d" d="M24,48.6A14.6,14.6,0,1,1,38.7,34,14.6,14.6,0,0,1,24,48.6Zm0-28.2A13.6,13.6,0,1,0,37.7,34,13.6,13.6,0,0,0,24,20.4Z"/>
      <g>
        <path class="h" d="M31,228.3l2.9.6a19.4,19.4,0,0,0-.5,2,45.8,45.8,0,0,1-1.7,5.9,26.8,26.8,0,0,1-2.9,5.6L26,241.3a23.3,23.3,0,0,0,3.1-5.5A30.6,30.6,0,0,0,31,228.3Zm5,.6,2.6-.8a64.2,64.2,0,0,1,2.9,6.4c.7,1.8,1.7,4.9,2.3,6.9l-2.9.9a69.5,69.5,0,0,0-2.1-6.9A50.6,50.6,0,0,0,36,228.9Zm6.2,0-1.5.7a14.8,14.8,0,0,0-1.6-2.7l1.6-.7A18.2,18.2,0,0,1,42.2,228.9Zm2.4-.9-1.6.7a23.4,23.4,0,0,0-1.5-2.7l1.5-.7Z"/>
        <path class="h" d="M45.8,241.2a9.7,9.7,0,0,0,3.4-4.7c.5-1.7.5-5.4.5-7.8a4.7,4.7,0,0,0-.2-1.8h2.9c0,.1-.1,1-.1,1.8a44.9,44.9,0,0,1-.6,8.4,11.3,11.3,0,0,1-3.5,5.7Zm9.1.3a6.1,6.1,0,0,0,.2-1.5V228.6a7.9,7.9,0,0,0-.2-1.7h3a4.1,4.1,0,0,0-.2,1.7v10.3a12.7,12.7,0,0,0,4.9-4.2l1.5,2.2a23.1,23.1,0,0,1-6.7,5.4l-.8.5Z"/>
        <path class="h" d="M82.4,229.7a5.9,5.9,0,0,0-.6,1.4,21.3,21.3,0,0,1-3.5,6.6,17.9,17.9,0,0,1-7.9,5.5l-2.3-2.1a16,16,0,0,0,7.9-4.8,14.7,14.7,0,0,0,2.8-5.4H73.2a24.8,24.8,0,0,1-4.9,4.8L66.1,234a17.5,17.5,0,0,0,6.1-6.3,10.2,10.2,0,0,0,.9-2.1l2.9,1a11.6,11.6,0,0,0-1.2,2h3.9a4.7,4.7,0,0,0,1.7-.3Z"/>
        <path class="h" d="M97.9,225.5a23.4,23.4,0,0,0,5.9,7,8,8,0,0,0-2,2.1l-1.3-1.3v.2c-.2,5.9-.4,8.2-1.1,9.1a2.6,2.6,0,0,1-1.8.9h-3a4,4,0,0,0-.8-2.3h2.6a1,1,0,0,0,.8-.3c.4-.4.6-2.2.8-6.3H94.1c-.5,3.8-1.7,7.2-6.8,9.1a6.9,6.9,0,0,0-1.6-2.2c4.5-1.4,5.5-4,5.9-6.9H88.3v-1.4l-1.6,1.5a17.5,17.5,0,0,0-2-1.9,17.2,17.2,0,0,0,5.8-7.4l2.5.7a21.8,21.8,0,0,1-3.9,6.2H99.7a35.3,35.3,0,0,1-4.1-6Z"/>
        <path class="h" d="M109.7,226.7a8.8,8.8,0,0,0-.5,1.5c-.5,2.2-1.2,6.3-.7,8.7.3-.6.6-1.5,1-2.2l1.2.7a35.6,35.6,0,0,0-1.3,4.8,3.7,3.7,0,0,0-.2.9,2.2,2.2,0,0,1,.1.8l-2.2.3a22.5,22.5,0,0,1-1.1-6.4,60,60,0,0,1,.6-7.7,11.1,11.1,0,0,0,.2-1.7Zm12.4,5.6-2.8.3v.8c0,4.6-.4,7.4-4.3,9.9l-2.2-1.8A6.6,6.6,0,0,0,115,240c1.5-1.6,1.9-3.3,1.9-6.6v-.7h-5.2v-2.5a13.7,13.7,0,0,0,2.9.2h2.2a17.8,17.8,0,0,0-.1-2.6,6.8,6.8,0,0,0-.2-1.4h2.9a6.6,6.6,0,0,0-.1,1.4,15.6,15.6,0,0,0-.1,2.5l3-.4Z"/>
      </g>
      <g>
        <path class="h" d="M295.7,239.4v2.2l-9.4,1.3-.3-2.3,3.8-.4v-2.3h-3.1v-2.1h3.1v-1.7h2.3v1.7h3v2.1h-3v2Zm-.3-5.8h-9v-2.1h3.5v-1.9H287v-2.1h2.9v-2.2h2.3v2.2H295v2.1h-2.8v1.9h3.2Zm9-1.7h-1.7v9c0,1.2-.2,1.9-1,2.2a7.3,7.3,0,0,1-3.4.5,6.5,6.5,0,0,0-.9-2.3h2.5c.4,0,.5-.1.5-.4v-9h-4.6v-2.3h4.6v-4.2h2.3v4.2h1.7Zm-6.7,6.5-1.7-4.5,1.9-.7c.7,1.4,1.5,3.2,1.9,4.3Z"/>
        <path class="h" d="M316.6,226.4c0,3.7.5,10.9,7.7,15.1a19.9,19.9,0,0,0-1.9,2.1,17.1,17.1,0,0,1-7.2-9.7c-1.5,4.4-3.8,7.7-7.3,9.7a12.9,12.9,0,0,0-2.1-1.9c4.1-2.1,6.4-5.9,7.5-11.1l1.2.3-.3-2.2h-4.5v-2.3Z"/>
        <path class="h" d="M334.7,231.9a2.6,2.6,0,0,1,0,5.1,2.6,2.6,0,0,1,0-5.1Z"/>
        <path class="h" d="M354.8,239.4v2.2l-9.3,1.3-.3-2.3,3.7-.4v-2.3h-3v-2.1h3v-1.7h2.3v1.7h3.1v2.1h-3.1v2Zm-.3-5.8h-9v-2.1h3.4v-1.9H346v-2.1h2.9v-2.2h2.3v2.2h2.9v2.1h-2.9v1.9h3.3Zm9-1.7h-1.7v9c0,1.2-.3,1.9-1,2.2a8.1,8.1,0,0,1-3.5.5,6.3,6.3,0,0,0-.8-2.3H359c.3,0,.5-.1.5-.4v-9h-4.7v-2.3h4.7v-4.2h2.3v4.2h1.7Zm-6.8,6.5c-.3-1.1-1.1-3-1.7-4.5l2-.7a44.9,44.9,0,0,1,1.8,4.3Z"/>
        <path class="h" d="M373.4,226.4a12.4,12.4,0,0,0-.4,1.6c-.1.6-.3,1.3-.4,2.1h1.6c2.1,0,3.6.9,3.6,3.7a19.6,19.6,0,0,1-1.1,7.1,3.2,3.2,0,0,1-3.2,1.8,9.3,9.3,0,0,1-2.4-.3l-.4-2.6a7.9,7.9,0,0,0,2.4.5,1.4,1.4,0,0,0,1.4-.9,13.4,13.4,0,0,0,.8-5.3c0-1.6-.6-1.8-1.9-1.8h-1.3c-.8,2.9-2.2,7.5-4,10.4l-2.5-1a29.8,29.8,0,0,0,3.9-9.1l-1.7.2-2.1.3-.2-2.7H370a21.8,21.8,0,0,0,.5-4.2Zm6.7,1.9a33.8,33.8,0,0,1,3.4,7.2l-2.5,1.2a22.9,22.9,0,0,0-3.3-7.5Z"/>
        <path class="h" d="M394.8,228c-1,1.4-2.4,4.1-3.4,5.9a3.7,3.7,0,0,1,2.2-.6,2.2,2.2,0,0,1,2.4,2.5c.1.9,0,2.5.1,3.3a1.1,1.1,0,0,0,1.3,1c1.6,0,2.7-2.2,3.3-4.6l2.1,1.7c-1,3.4-2.9,5.6-5.9,5.6a2.9,2.9,0,0,1-3.2-2.7c-.1-1,0-2.6-.1-3.4s-.4-1.1-1.1-1.1-2.5,1.3-3.2,2.9-1.1,3.3-1.4,4.3l-2.8-.9a144.9,144.9,0,0,1,6.6-13.9c.2-.5.6-1.2.9-2l2.8,1.1Z"/>
      </g>
      <g>
        <path class="h" d="M583.5,232.1l1.4.5c-1,5.9-3.8,9.3-8,11.1a9.1,9.1,0,0,0-1.3-1.9,11.4,11.4,0,0,0,4.4-3.1,18.8,18.8,0,0,0-2-2l-1.1,1-1.7-1.6a12.1,12.1,0,0,0,4.4-6.3l2.2.6a13.4,13.4,0,0,1-.7,1.8h2.4Zm-5.1-.9h-2.3V227h7.2v-1.7h2.4V227H593v4h-2.4v-1.9H578.4Zm1.6,3-.7,1a10.4,10.4,0,0,1,2,1.5,9.3,9.3,0,0,0,1-2.5Zm10.6,7.1c.7,0,.8-.4.9-2.4l2.1.9c-.3,2.8-.9,3.6-2.8,3.6h-2.7c-2.2,0-2.9-.6-2.9-3.1v-8.9h7.1v.8c-.1,3.5-.1,5-.5,5.5a2.1,2.1,0,0,1-1.2.7h-1.9a4.6,4.6,0,0,0-.5-2.1h1.2l.5-.2a10.8,10.8,0,0,0,.2-2.8h-2.6v6.8c0,.9.1,1,.9,1Z"/>
        <path class="h" d="M612,243.6h-2.4v-.8h-6.7v.8h-2.3V238a34.9,34.9,0,0,1-4.4,2,8.4,8.4,0,0,0-1.3-2.1,21.7,21.7,0,0,0,6.8-3.4,20.6,20.6,0,0,0-3-2.8,8.6,8.6,0,0,1-2.2,1.5,9,9,0,0,0-1.6-1.8,15.6,15.6,0,0,0,6.5-6.2l2.7.4c-.3.6-.7,1.1-1,1.6h4.8l1.7.8a19.4,19.4,0,0,1-4.6,6.9h7Zm-10.5-14.4-1,1c1,.8,2.3,1.8,3.1,2.6a15.9,15.9,0,0,0,2.8-3.6Zm8.1,11.5v-3.8h-6.7v3.8Z"/>
        <path class="h" d="M631.9,232.5a3.6,3.6,0,0,0-.4.9,14.9,14.9,0,0,1-2.9,5.4,14.7,14.7,0,0,1-7.1,4.3l-1.9-2.3a13.6,13.6,0,0,0,6.8-3.4,7.6,7.6,0,0,0,2-3.4H616.6v-2.6h13.5Zm-13.4-5.7h11.7v2.6H618.5Z"/>
        <path class="h" d="M636.1,234.8c.9-.9,2.4-2.8,3.8-4.4s2.2-1.5,3.8-.2a50.3,50.3,0,0,1,4,4l4.9,5.3-2.1,2.3-4.3-5.2a34.7,34.7,0,0,0-3.6-3.8c-.7-.6-1-.6-1.6.1l-3,4-1.2,1.8-2.3-2.4Zm13.5-3.4-1.8.8A24.3,24.3,0,0,0,646,229l1.7-.7A32.1,32.1,0,0,1,649.6,231.4Zm2.7-1.1-1.8.8a22.9,22.9,0,0,0-1.8-3.1l1.6-.8A32.8,32.8,0,0,1,652.3,230.3Z"/>
        <path class="h" d="M654.2,241.2a9.1,9.1,0,0,0,3.4-4.7c.5-1.7.5-5.4.5-7.8a9.2,9.2,0,0,0-.1-1.8h2.9a5.7,5.7,0,0,0-.2,1.8c0,2.3,0,6.5-.6,8.4a11.3,11.3,0,0,1-3.5,5.7Zm9.1.3a6.1,6.1,0,0,0,.2-1.5V228.6a4.1,4.1,0,0,0-.2-1.7h3a7.9,7.9,0,0,0-.2,1.7v10.3a12.7,12.7,0,0,0,4.9-4.2l1.5,2.2a23.1,23.1,0,0,1-6.7,5.4l-.8.5Z"/>
      </g>
      <g>
        <path class="h" d="M14.9,522.6h1.8V525H9.9A10,10,0,0,1,4.8,533l-2.5-1.7a7.8,7.8,0,0,0,5-6.4H0v-2.5H7.4v-2.8l-5.3.3-.6-2.3a55.6,55.6,0,0,0,6.7-.3,23.1,23.1,0,0,0,4.9-1.2l1.7,2.1-1.6.4a23.6,23.6,0,0,1-3.3.7v3.1Z"/>
        <path class="h" d="M35.9,522.5l-.3.8a15.4,15.4,0,0,1-2.9,5.5,14.5,14.5,0,0,1-7.1,4.2l-1.9-2.2a13.6,13.6,0,0,0,6.8-3.4,7.6,7.6,0,0,0,2-3.4H20.7v-2.6H32.8l1.4-.2Zm-13.4-5.7H34.3v2.5H22.5Z"/>
        <path class="h" d="M45.4,523.6l-1.5,2.2a47.3,47.3,0,0,0-4.4-2.8l1.4-2.2C42.2,521.5,44.4,522.9,45.4,523.6Zm1.6,4.5a20,20,0,0,0,7.6-7.4l1.5,2.7a23.1,23.1,0,0,1-7.8,7,21.6,21.6,0,0,1-6.6,2.5l-1.4-2.6A25,25,0,0,0,47,528.1Zm1.4-9-1.5,2.2a47.3,47.3,0,0,0-4.4-2.8l1.4-2.2C45.2,517,47.4,518.4,48.4,519.1Z"/>
        <path class="h" d="M67.4,521.9a2.5,2.5,0,1,1-2.6,2.5A2.5,2.5,0,0,1,67.4,521.9Z"/>
        <path class="h" d="M94.4,520.3a6.5,6.5,0,0,0-.2,1.1c0,2.1-.3,7.6-1.1,9.6a2.5,2.5,0,0,1-2.6,1.5H87.3l-.3-2.7,2.7.3a1.1,1.1,0,0,0,1.2-.7c.5-1.2.8-5.2.8-7.3H87.2c-.7,5.2-2.5,8.3-6.1,10.8l-2.3-1.9a9.1,9.1,0,0,0,2.6-1.9c1.9-1.8,2.8-4,3.3-7H79.5v-2.6h5.4v-1.7a11.5,11.5,0,0,0-.1-1.8h2.9a10.9,10.9,0,0,0-.1,1.8,10.3,10.3,0,0,0-.1,1.7h5.2Z"/>
        <path class="h" d="M114.6,519.3c-.2.4-.5.9-.7,1.4a20.9,20.9,0,0,1-2.7,5.4l1.9,1.3-1.8,2.3-1.8-1.4a19.1,19.1,0,0,1-7.3,4.9l-2.3-2a16.7,16.7,0,0,0,7.4-4.4,32.3,32.3,0,0,0-3.7-2.2l1.7-1.9,3.7,2.1a17.4,17.4,0,0,0,2-4.2h-5.6a22.5,22.5,0,0,1-5.2,5L98.1,524a17.4,17.4,0,0,0,6.2-6.5,10.2,10.2,0,0,0,.9-2.1l2.9.9a17.3,17.3,0,0,0-1.2,2h4l1.7-.2Z"/>
        <path class="h" d="M133.9,529.5v2.7h-2.7v-1h-9.5v1H119a17.9,17.9,0,0,0,.1-2.7V517.9h14.8v11.6Zm-12.2-9v8.2h9.5v-8.2Z"/>
        <path class="h" d="M151.7,519.1l1.7,1c-.2.4-.5.9-.7,1.4a17.9,17.9,0,0,1-11.4,12.2l-2.3-2.1a16.2,16.2,0,0,0,8-4.9,15.5,15.5,0,0,0,2.8-5.4h-5.6a20.8,20.8,0,0,1-5,4.8l-2.2-1.7a16.4,16.4,0,0,0,6.2-6.3,12.1,12.1,0,0,0,.9-2l2.9.9-1.3,2h3.9l1.7-.2h.2c-.4-.7-1-1.8-1.5-2.5l1.6-.6a24,24,0,0,1,1.6,2.7Zm2.2-4.2a19.1,19.1,0,0,1,1.6,2.7l-1.6.6a18.2,18.2,0,0,0-1.5-2.7Z"/>
      </g>
      <g>
        <path class="h" d="M280.2,517.3h4c4.4,0,7.2,2.3,7.2,7.3s-2.8,7.3-7,7.3h-4.2Zm3.8,12.3c2.7,0,4.4-1.5,4.4-5s-1.7-4.9-4.4-4.9h-.9v9.9Z"/>
        <path class="h" d="M297.2,519.8h-4.1v-2.5h11.1v2.5h-4.1v12.1h-2.9Z"/>
        <path class="h" d="M306.6,517.3h4.7c3.3,0,5.8,1.2,5.8,4.6s-2.5,4.8-5.7,4.8h-1.9v5.2h-2.9Zm4.6,7.1c2,0,3-.8,3-2.5s-1.1-2.3-3.1-2.3h-1.6v4.8Z"/>
        <path class="h" d="M319.6,525.7a19.3,19.3,0,0,1,2.9-10.2l1.8.8a19.3,19.3,0,0,0-2.4,9.4,19.6,19.6,0,0,0,2.4,9.4l-1.8.8A19.6,19.6,0,0,1,319.6,525.7Z"/>
        <path class="h" d="M347.4,517.8v15.8h-2.5v-1h-9.4v1h-2.4V517.8h5.1c.2-.9.4-1.8.5-2.6l2.8.3-.9,2.3ZM335.5,520v2h9.4v-2Zm0,4.2v2h9.4v-2Zm9.4,6.2v-2h-9.4v2Z"/>
        <path class="h" d="M357.9,528.3a15.6,15.6,0,0,0-1.8-2.1v7.4h-2.3v-6.8a19.9,19.9,0,0,1-2.4,1.9,11.3,11.3,0,0,0-1.1-2.2,15.3,15.3,0,0,0,5.5-5.5H351v-2.1h2.8v-3.7h2.3v3.7h1.3l1.4.8a17.6,17.6,0,0,1-2.4,4.2l2.9,2.5Zm11.3,2.5V533H358v-2.2h4.6v-7.2h-3.8v-2.3h3.8v-5.9H365v5.9h3.7v2.3H365v7.2Z"/>
        <path class="h" d="M387.7,528.7a34.7,34.7,0,0,1-3.3,1.8,15.6,15.6,0,0,0,4.3,1.3,6.4,6.4,0,0,0-1.3,1.9c-4.1-.8-6.5-2.7-8-5.8l-2.3,1.4V531l3.9-.5v1.8l-7.9,1.1-.3-1.9,1.9-.2v-1.1l-3.2.8a19.2,19.2,0,0,0-1.3-1.7,21.8,21.8,0,0,0,6.1-1.6h-5.7v-1.9h7.6v-1h-.8a5,5,0,0,0-.5-1.3h1c.2,0,.3-.1.3-.2v-.8h-1.7v2.8h-1.9v-2.8h-1.5v2.4h-1.8V521h3.3v-.7h-4.1v-1.5h1.2l-1.2-.7a7.3,7.3,0,0,0,1.5-2.9l1.8.5a3,3,0,0,1-.4.8h1.2v-1.3h1.9v1.3h3.3V518h-3.3v.8h3.8v1.5h-3.8v.7h3.5v2.3c0,.7-.1,1.1-.6,1.3l-.9.2h2v1h7.7v1.9h-1.9Zm-13-9.9V518h-1.9l-.5.8Zm8.6,3.8h-2V516h2Zm-1.8,5.1a7,7,0,0,0,1.3,1.7,22.9,22.9,0,0,0,2.8-1.7Zm6.1-4.5c0,1-.2,1.5-.9,1.8a8.1,8.1,0,0,1-3,.3,6.7,6.7,0,0,0-.7-1.8h2.1c.3,0,.4-.1.4-.3v-7.8h2.1Z"/>
        <path class="h" d="M394.8,529c.8,1.4,2.3,1.9,4.3,2s6.8,0,9.4-.2a9.5,9.5,0,0,0-.7,2.4h-8.7c-2.4-.1-4-.6-5.3-2.1l-2.8,2.3-1.2-2.4c.9-.5,1.8-1.2,2.7-1.8V525h-2.2v-2.1h4.5Zm-1.4-8.8a18.1,18.1,0,0,0-3.1-3.1l1.7-1.4a13.8,13.8,0,0,1,3.3,3Zm3.5.9a7.8,7.8,0,0,0-2-1.1,9.4,9.4,0,0,0,2.8-4.6l2.2.5-.6,1.5h1.4v-2.2H403v2.2h4.3v2H403v1.7h5.1V523H395.4v-1.9Zm1.3-1.7a7.6,7.6,0,0,1-1.3,1.7h3.8v-1.7ZM397,529.9v-5.8h9.9v5.8Zm2.3-1.9h5.2v-2h-5.2Z"/>
        <path class="h" d="M415,535.1a19.6,19.6,0,0,0,2.4-9.4,19.3,19.3,0,0,0-2.4-9.4l1.7-.8a18.5,18.5,0,0,1,3,10.2,18.8,18.8,0,0,1-3,10.2Z"/>
      </g>
      <g>
        <path class="h" d="M571.1,529.1c.8,1.4,2.2,1.9,4.2,2s7,0,9.7-.2a15.5,15.5,0,0,0-.7,2.3c-2.4.1-6.6.2-9,.1s-3.9-.7-5.1-2.2l-2.6,2.3-1.1-2.3a18.8,18.8,0,0,0,2.4-1.8V525h-2.2v-2.1h4.4Zm-1.3-8.8a17.6,17.6,0,0,0-3-3.2l1.8-1.4a22.7,22.7,0,0,1,3.1,3.1Zm7.2,9.1h-5.1v-1.7H577v-.8h-4v-5.7h4v-.7h-4.4v-1.6H577v-1.1h2.3v1.1h4.5v1.6h-4.5v.7h4.2v5.7h-4.2v.8h5.4v1.7h-5.4v1.3H577Zm-2.9-10.9h-2v-2.7h12.4v2.7h-2.2v-1h-8.2Zm.9,4.9h2v-.8h-2Zm2,2.1v-.7h-2v.7Zm2.3-2.9v.8h2.1v-.8Zm2.1,2.2h-2.1v.7h2.1Z"/>
        <path class="h" d="M604,524.4a16.8,16.8,0,0,1-1.9,5.6,9.5,9.5,0,0,0,2.8,2,4.8,4.8,0,0,0-1.3,1.6,7.6,7.6,0,0,1-2.7-2,6.9,6.9,0,0,1-2.5,2,4.8,4.8,0,0,0-1.1-1.5,1.4,1.4,0,0,1-.6,1.2,4.7,4.7,0,0,1-2.3.3,6.1,6.1,0,0,0-.5-1.8h1.5c.2,0,.3,0,.3-.3v-6l-2.2.2c-.1,2.6-.4,5.8-1.7,8a7.6,7.6,0,0,0-1.4-1.1c1.1-1.9,1.3-4.5,1.4-6.7h-1v-.6l-.7.3v5.6a2.1,2.1,0,0,1-.7,1.9,5.2,5.2,0,0,1-2.4.4,7.6,7.6,0,0,0-.6-2h1.4a.3.3,0,0,0,.3-.3v-4.8l-1.4.5-.6-2.1,2-.7v-3.1h-1.7V519h1.7v-3.8h2V519h1.1v2.1h-1.1v2.4l.9-.4.2.9h.6v-6.2h1.6a23.8,23.8,0,0,0,.5-2.6l2.2.5-.9,2.1h2.2v5.7h.6v1.8h-.6v6.2c0,.2,0,.3-.1.4a6.3,6.3,0,0,0,2.4-1.9,19.4,19.4,0,0,1-1.5-3.6l1.7-.4a14.7,14.7,0,0,0,1,2.2,14.3,14.3,0,0,0,.8-2.2h-3.5v-1.9h4.6Zm-8.3-.8v-4h-2.2v4.2Zm-1.1-3.5a20.8,20.8,0,0,1,1,2.4l-1.1.7c-.2-.7-.6-1.8-.9-2.6Zm.5,10.6H594v-4.5h1.1Zm5-11.9c0,1.5-.2,3.6-1.3,4.9a7.6,7.6,0,0,0-1.4-1.1,6.4,6.4,0,0,0,1-3.9V516h4.3v5.7h.5c.1,0,.1-.1.2-.4v-1.6a5.4,5.4,0,0,0,1.3.7,10.3,10.3,0,0,1-.2,2,1.8,1.8,0,0,1-.5.7l-.8.2h-.8a1.8,1.8,0,0,1-1-.4c-.3-.3-.4-.7-.4-1.8v-3.4h-.9Z"/>
        <path class="h" d="M618.7,524.1v2.2h4.2v2.2h-4.2v2.1c0,.7.1.8.6.8h1.5c.5,0,.6-.4.7-2.2a5.6,5.6,0,0,0,2.1.9c-.2,2.6-.8,3.4-2.5,3.4h-2.2c-2.1,0-2.7-.7-2.7-2.9v-2.1h-2.5c-.5,2-1.8,4-5.4,5.2a12.5,12.5,0,0,0-1.5-1.9c2.7-.8,3.9-2,4.4-3.3h-3.9v-2.2h4.2v-2.2h-1.7v-.7a14,14,0,0,1-2.6,1.6,22,22,0,0,0-1.4-1.8,12.7,12.7,0,0,0,3.3-2l-2-1.7,1.5-1.2,1.9,1.5a9.4,9.4,0,0,0,1.2-1.8h-4v-2h5.6l1.5.7a14.2,14.2,0,0,1-3.2,5.3h7.1a17.4,17.4,0,0,1-3.5-6.1l2.1-.6a8.8,8.8,0,0,0,1,2.2,14.5,14.5,0,0,0,1.7-1.9l1.8,1.3-2.5,2.1.8,1,2.3-2.1,1.7,1.2-2.6,2.1a11.4,11.4,0,0,0,3,1.8,15.6,15.6,0,0,0-1.6,2,13.8,13.8,0,0,1-2.4-1.4v.6Zm-2.5,0h-2.4v2.2h2.4Z"/>
        <path class="h" d="M630.4,529c.9,1.4,2.3,1.9,4.4,2s6.7,0,9.3-.2a16.8,16.8,0,0,0-.7,2.4h-8.7c-2.4-.1-4-.6-5.3-2.1-.8.7-1.7,1.5-2.8,2.3l-1.1-2.4,2.7-1.8V525h-2.3v-2.1h4.5Zm-1.3-8.8a15.8,15.8,0,0,0-3.2-3.1l1.7-1.4a12.1,12.1,0,0,1,3.3,3Zm9.9,4.6a6.9,6.9,0,0,0,4.8,3.7,9.5,9.5,0,0,0-1.5,2,8,8,0,0,1-4.7-4.1,9.4,9.4,0,0,1-4.8,4,6.1,6.1,0,0,0-1.6-1.6c3-1.2,4.2-2.6,4.6-4h-4.6v-2.2h4.9v-1.8h-4.2v-2.1h2a11.6,11.6,0,0,0-1.5-2.6l2-.9a11.7,11.7,0,0,1,1.7,3l-1,.5h4.4l-1-.4a22.5,22.5,0,0,0,1.6-3.1l2.4.8a31.5,31.5,0,0,1-1.9,2.7h2.5v2.1h-4.7v1.8h5.3v2.2Z"/>
      </g>
      <g>
        <path class="h" d="M814.2,533.6h-2.4v-.8h-6.7v.8h-2.4V528a20.8,20.8,0,0,1-4.3,1.9,9.6,9.6,0,0,0-1.4-2.1,19.4,19.4,0,0,0,6.9-3.4l-3-2.7a17,17,0,0,1-2.2,1.5,6.9,6.9,0,0,0-1.6-1.8,15.2,15.2,0,0,0,6.5-6.3l2.6.5c-.2.5-.6,1-.9,1.6h4.4l.4-.2,1.6.9a19.2,19.2,0,0,1-4.5,6.9h7Zm-10.6-14.4-.9,1c1,.8,2.3,1.8,3.1,2.6a19.3,19.3,0,0,0,2.8-3.6Zm8.2,11.5v-3.8h-6.7v3.8Z"/>
        <path class="h" d="M823.4,517.4h3.9v2h-3.9v1.5h3.7v3.7c0,.9-.1,1.4-.6,1.7a4.9,4.9,0,0,1-2.2.3,9.5,9.5,0,0,0-.5-1.8h1.1c.1,0,.2,0,.2-.2v-1.7h-1.7v3.8l3.9,2.4-1.2,2c-.6-.6-1.7-1.4-2.7-2.2v4.7h-2.2v-4.8a16.4,16.4,0,0,1-3.4,3.9,9.1,9.1,0,0,0-1.1-2.2,13.3,13.3,0,0,0,4.5-5.2v-2.4h-1.5v3.5h-2v-5.5h3.5v-1.5h-4v-2h4v-2h2.2Zm7,11h-2.2V517.3h2.2Zm4.2-12.8v15.2c0,1.3-.3,2-1,2.3a8.6,8.6,0,0,1-3.6.5,11.3,11.3,0,0,0-.8-2.4h2.6c.4,0,.5-.2.5-.5V515.6Z"/>
        <path class="h" d="M845.5,517.2a30.5,30.5,0,0,1-5.3,2v2.6H845v2.3h-4.8V528H845v2.2h-4.8v1.6h-2.4v-15l1.3.5a23.8,23.8,0,0,0,4.5-2.1Zm8.8,10.9a2.4,2.4,0,0,1-1,2.3,6.4,6.4,0,0,1-3.1.5,10.4,10.4,0,0,0-.8-2.5h2.1c.3,0,.4-.1.4-.3v-9.2h-3.5v14.7h-2.3v-17h8.2Z"/>
        <path class="h" d="M867,529.5c0,.8-.1,1.3-.5,1.6a3.2,3.2,0,0,1-1.8.4,5.5,5.5,0,0,0-.6-1.8h.9c.2,0,.2-.1.2-.2v-3.9h-1.1v8h-2v-8h-1v5.9h-1.7v-5.4a19.5,19.5,0,0,1-1.6,7.1l-1.7-1.3c1.2-2.6,1.3-6.4,1.3-9.2v-6.4h9.5V522h-2.8v1.6H867Zm-7.5-11.2v1.6h5.2v-1.6Zm2.6,5.3V522h-2.6v1.6Zm8,4.9h-2.2V517.1h2.2Zm3.9-12.9v15.2c0,1.3-.2,1.9-.9,2.3a7.9,7.9,0,0,1-3.4.5,10.9,10.9,0,0,0-.7-2.4h2.4c.3-.1.4-.1.4-.5V515.6Z"/>
        <path class="h" d="M885.2,521.9a2.5,2.5,0,1,1-2.6,2.5A2.5,2.5,0,0,1,885.2,521.9Z"/>
        <path class="h" d="M909.8,528.7a6.8,6.8,0,0,0,4.5,3,6.7,6.7,0,0,0-1.4,1.9,7.1,7.1,0,0,1-4.6-3.6c-.9,1.4-2.4,2.6-5.2,3.6a5.5,5.5,0,0,0-1.3-1.8c2.7-.8,4-1.9,4.7-3.1h-4.1v-2.1h4.7v-1.9h-1.8a14,14,0,0,1-1.3,1.8l-1.2-.9h0l-2.3.7v4.8c0,1.1-.2,1.7-.8,2.1a7.7,7.7,0,0,1-3,.4,18,18,0,0,0-.6-2.2h1.8c.2-.1.3-.1.3-.4v-4.2l-2.2.6-.6-2.3,2.8-.6v-3.5h-2.4v-2.2h2.4v-3.7h2.3v3.7h1.9v2.2h-1.9V524l2-.5.2,1.2a9.5,9.5,0,0,0,2-3.7h-2l-.2-2.1h1.7a20,20,0,0,0,1.5-3.8l2.4.6c-.4,1-1,2.1-1.5,3.1h3.6l-1.2-1.4,1.7-1a21.6,21.6,0,0,1,3.5,4.2l-1.9,1.2c-.1-.3-.4-.7-.6-1.1l-6.4.3,1.6.3a5.8,5.8,0,0,1-.5,1.4h6.8v2h-4v1.9h4.7v2.1Z"/>
        <path class="h" d="M922.2,525.7l-2.1.6v4.9c0,1.1-.2,1.6-.9,2a5.7,5.7,0,0,1-2.9.4,8.6,8.6,0,0,0-.7-2.1h1.8c.3,0,.4-.1.4-.3v-4.3l-2.1.6-.6-2.3,2.7-.5v-3.6h-2.3v-2.2h2.3v-3.7h2.3v3.7h1.8v2.2h-1.8v3l1.8-.5Zm9.6-1.5,1.5.6c-1.6,5.3-5.4,7.7-10.4,8.8a9.3,9.3,0,0,0-1.1-1.9,15.5,15.5,0,0,0,5-1.7,16.4,16.4,0,0,0-2.5-1.9l-1.6.9a7,7,0,0,0-1.3-1.7,10.6,10.6,0,0,0,5.2-4.7l1.4.2a20.4,20.4,0,0,0-2.5-3.8,22.6,22.6,0,0,0,2.2-3.8l2.2.5c-.6,1.2-1.4,2.2-2,3.2a34.2,34.2,0,0,1,2.3,3.4l-1.8.6h.4a5.7,5.7,0,0,1-.8,1.3h3.8Zm-7.5-1A22.7,22.7,0,0,0,922,519a37.8,37.8,0,0,0,2.1-3.8l2.1.5a25.9,25.9,0,0,1-1.9,3.3,17,17,0,0,1,2.1,3.5Zm2.2,3-.5.6,2.5,1.8a6.3,6.3,0,0,0,1.8-2.4Zm5.3-3a18,18,0,0,0-2.7-4.2,27.5,27.5,0,0,0,2.3-3.8l2.2.5q-1.1,1.8-2.1,3.3a16.5,16.5,0,0,1,2.4,3.4Z"/>
        <path class="h" d="M948.2,523c1,3.7,2.8,6.9,5.5,8.6a6.7,6.7,0,0,0-1.7,2,14.7,14.7,0,0,1-4.8-7.1,14.5,14.5,0,0,1-4.5,7.1l-1.6-1.3v1.3h-2.3v-6.4l-2.6,2.3-1.2-2c.9-.7,2.4-1.8,3.8-3.1v-2.8l-1.6,1a24.7,24.7,0,0,0-2.1-3.8l1.8-1.1a24,24,0,0,1,1.9,2.9v-5.4h2.3v16.6a12.8,12.8,0,0,0,4.4-8.8h-3.9v-2.3h4v-5.4h2.3v5.4h5.2V523Zm2.7-2.9a33.5,33.5,0,0,0-2-3.5l1.7-.9a18.9,18.9,0,0,1,2.2,3.3Z"/>
      </g>
      <g>
        <path class="h" d="M775.9,233.6l-1.4,2.2c-1.2-.8-3.2-2.1-4.5-2.8l1.4-2.2C772.7,231.5,774.9,232.9,775.9,233.6Zm1.6,4.5a21.1,21.1,0,0,0,7.7-7.4l1.5,2.7a23.3,23.3,0,0,1-14.4,9.5l-1.5-2.6A21.1,21.1,0,0,0,777.5,238.1Zm1.4-9-1.4,2.2c-1.1-.7-3.2-2.1-4.5-2.8l1.4-2.2Z"/>
        <path class="h" d="M789.9,232.8h16v3.1h-16Z"/>
        <path class="h" d="M808.5,241.2a9.1,9.1,0,0,0,3.4-4.7c.5-1.7.5-5.4.5-7.8a9.2,9.2,0,0,0-.1-1.8h2.9a5.7,5.7,0,0,0-.2,1.8c0,2.3,0,6.5-.6,8.4a11.3,11.3,0,0,1-3.5,5.7Zm9.1.3a6.1,6.1,0,0,0,.2-1.5V228.6a4.1,4.1,0,0,0-.2-1.7h3a7.9,7.9,0,0,0-.2,1.7v10.3a12.7,12.7,0,0,0,4.9-4.2l1.5,2.2a23.1,23.1,0,0,1-6.7,5.4l-.8.5Z"/>
        <path class="h" d="M837.3,231.9a2.6,2.6,0,0,1,0,5.1,2.6,2.6,0,1,1,0-5.1Z"/>
        <path class="h" d="M863.5,228.6l-.7,1.2a23.7,23.7,0,0,1-3.1,5.4,47.3,47.3,0,0,1,5.5,5.6l-2.2,2a42,42,0,0,0-5-5.6,26.8,26.8,0,0,1-7.4,5.6l-2-2.2a23.3,23.3,0,0,0,8.1-5.6,14.6,14.6,0,0,0,2.9-4.8h-9v-2.8h9.3l2-.2Z"/>
        <path class="h" d="M883.3,232H885v2.5h-6.5a10.9,10.9,0,0,1-1.3,5,9,9,0,0,1-3.9,3.8l-2.3-1.7a7.7,7.7,0,0,0,3.6-2.8,8.6,8.6,0,0,0,1.2-4.3h-7.3v-2.5h14.8Zm-10.4-2.7h-2.1v-2.6l2.1.2h7.9l2.1-.2v2.6h-10Z"/>
        <path class="h" d="M893.7,235.7l-2.4.9a35.2,35.2,0,0,0-1.8-4.5l2.4-.8C892.3,232.3,893.3,234.6,893.7,235.7Zm10-4.1c-.2.7-.4,1.1-.5,1.5a15.3,15.3,0,0,1-2.7,5.8,15,15,0,0,1-6.6,4.8l-2-2.1a12.4,12.4,0,0,0,6.5-4.1,13.6,13.6,0,0,0,2.5-6.7Zm-5.7,2.9-2.3.9a38.9,38.9,0,0,0-1.6-4.4l2.3-.8A37.5,37.5,0,0,1,898,234.5Z"/>
        <path class="h" d="M923.3,230.4c0,.3-.1.8-.1,1-.1,2.1-.3,7.6-1.2,9.6a2.3,2.3,0,0,1-2.5,1.5h-3.3l-.3-2.7,2.8.3a1,1,0,0,0,1.1-.7c.6-1.2.8-5.2.8-7.3h-4.4c-.7,5.2-2.6,8.3-6.1,10.8l-2.3-1.8a15.1,15.1,0,0,0,2.6-2,11.4,11.4,0,0,0,3.2-7h-5.2v-2.6l2.6.2h2.8a10.9,10.9,0,0,0,.1-1.8,12.4,12.4,0,0,0-.2-1.8h2.9c0,.5-.1,1.3-.1,1.8a10.9,10.9,0,0,1-.1,1.8h3.7l1.5-.2Z"/>
        <path class="h" d="M927.7,232.8h16v3.1h-16Z"/>
        <path class="h" d="M953,231.5h4.3v2.1H953V235h3.8v5c0,.9-.1,1.5-.7,1.8a4.7,4.7,0,0,1-2.3.4,6.5,6.5,0,0,0-.5-2h1.2c.2,0,.2,0,.2-.2v-2.9H953v6.5h-2.2v-6.5h-1.6v5h-2.1V235h3.7v-1.4h-4.5v-2.1h1.5l-1.8-.8a13.9,13.9,0,0,0,1.8-5.1l2.2.5a12.1,12.1,0,0,1-.5,1.8h1.3v-2.5H953v2.5h3.5V230H953Zm-2.2,0V230h-2l-.7,1.5Zm9.6,6.4h-2.2v-11h2.2Zm3.6-12.3v15.3c0,1.2-.3,1.9-1,2.2a7.6,7.6,0,0,1-3.4.5,10.9,10.9,0,0,0-.7-2.4h2.4c.3,0,.4-.1.4-.5V225.6Z"/>
        <path class="h" d="M972.5,226a30.5,30.5,0,0,1-1.9,4.1v13.5h-2.4v-9.8l-1.2,1.4a14.9,14.9,0,0,0-1.3-2.5,21,21,0,0,0,4.5-7.4Zm6.2,4.7v2.1h5.1v2.1h-5.1v2.2h5.4v2.2h-5.4v4.3h-2.4V230.7h-.7a22.9,22.9,0,0,1-2.6,3.8,13.7,13.7,0,0,0-1.8-1.6,20.1,20.1,0,0,0,4.2-7.5l2.2.6a25,25,0,0,1-.9,2.5h7.6v2.2Z"/>
      </g>
    </g>
  </g>
</svg>
