<?xml version="1.0" encoding="utf-8"?>
<!-- Generator: Adobe Illustrator 23.0.2, SVG Export Plug-In . SVG Version: 6.00 Build 0)  -->
<svg version="1.1" id="レイヤー_1" xmlns="http://www.w3.org/2000/svg" xmlns:xlink="http://www.w3.org/1999/xlink" x="0px"
	 y="0px" width="984.3px" height="535.9px" viewBox="0 0 984.3 535.9" style="enable-background:new 0 0 984.3 535.9;"
	 xml:space="preserve">
<style type="text/css">
	.st0{fill:#FFFFFF;stroke:#808080;stroke-miterlimit:10;}
	.st1{fill:#F0F0F0;}
	.st2{fill:#808080;}
	.st3{fill:#FFFFFF;}
	.st4{fill:#E4E4E4;}
	.st5{fill:none;}
	.st6{clip-path:url(#SVGID_2_);}
	.st7{fill:#363636;}
</style>
<title>menu</title>
<g>
	<rect x="14.5" y="6.5" class="st0" width="136" height="181"/>
	<rect x="11" y="9" class="st0" width="136" height="181"/>
	<rect x="7.5" y="11.5" class="st0" width="136" height="181"/>
	<rect x="4" y="14" class="st0" width="136" height="181"/>
	<g>
		<g>
			<rect x="256.5" y="0.5" class="st1" width="74" height="170"/>
			<path class="st2" d="M331,171h-75V0h75V171z M257,170h73V1h-73V170z"/>
		</g>
		<g>
			<polygon class="st3" points="338.5,195.5 248.5,195.5 248.5,33.4 255.5,14.5 332.5,14.5 338.5,33.4 			"/>
			<path class="st2" d="M339,196h-91V33.2l7.1-19.2h77.8l6.1,19.4L339,196L339,196z M249,195h89V33.5L332.1,15h-76.3L249,33.5V195z"
				/>
		</g>
		<path class="st2" d="M452,196h-91V14h91V196z M362,195h89V15h-89V195z"/>
		<rect x="66.5" y="14" class="st4" width="11" height="181"/>
		<polygon class="st4" points="151,104 139.9,110 4,110 4,99 139.9,99 151,93 		"/>
		<polygon class="st2" points="406.5,39 361.4,30 361.6,29 406.5,38 451.4,27.8 451.6,28.8 		"/>
		<rect x="248.5" y="33" class="st2" width="90" height="1"/>
		<polygon class="st4" points="66.5,14 72.5,6 81.2,6 77.5,14 		"/>
		<g>
			<rect x="559.5" y="11.7" class="st3" width="115.1" height="176.9"/>
			<path class="st2" d="M675.1,189.1H559V11.2h116.1V189.1z M560,188.1h114.1V12.2H560V188.1z"/>
		</g>
		<g>
			<rect x="615.6" y="17.3" class="st3" width="8.6" height="11.4"/>
			<path class="st2" d="M624.8,29.2h-9.7V16.8h9.7V29.2z M616.1,28.2h7.7V17.8h-7.7V28.2z"/>
		</g>
		<g>
			<rect x="604.2" y="17.3" class="st3" width="8.6" height="11.4"/>
			<path class="st2" d="M613.3,29.2h-9.6V16.8h9.6V29.2z M604.7,28.2h7.6V17.8h-7.6V28.2z"/>
		</g>
		<g>
			<rect x="592.8" y="17.3" class="st3" width="8.6" height="11.4"/>
			<path class="st2" d="M601.9,29.2h-9.6V16.8h9.6V29.2z M593.3,28.2h7.6V17.8h-7.6V28.2z"/>
		</g>
		<g>
			<rect x="627" y="17.3" class="st3" width="8.6" height="11.4"/>
			<path class="st2" d="M636.2,29.2h-9.7V16.8h9.7V29.2z M627.5,28.2h7.7V17.8h-7.7V28.2z"/>
		</g>
		<g>
			<rect x="638.4" y="17.3" class="st3" width="8.6" height="11.4"/>
			<path class="st2" d="M647.6,29.2H638V16.8h9.6V29.2z M639,28.2h7.6V17.8H639V28.2z"/>
		</g>
		<g>
			<rect x="649.9" y="17.3" class="st3" width="8.6" height="11.4"/>
			<path class="st2" d="M659,29.2h-9.6V16.8h9.6V29.2z M650.4,28.2h7.6V17.8h-7.6V28.2z"/>
		</g>
		<g>
			<rect x="661.3" y="17.3" class="st3" width="8.6" height="11.4"/>
			<path class="st2" d="M670.4,29.2h-9.6V16.8h9.6V29.2z M661.8,28.2h7.6V17.8h-7.6V28.2z"/>
		</g>
		<g>
			<rect x="297.2" y="37.8" class="st3" width="6" height="7.8"/>
			<path class="st2" d="M303.7,46.1h-7v-8.8h7V46.1z M297.7,45.1h5v-6.8h-5V45.1z"/>
		</g>
		<g>
			<rect x="289.4" y="37.8" class="st3" width="6" height="7.8"/>
			<path class="st2" d="M295.8,46.1h-7v-8.8h7V46.1z M289.8,45.1h5v-6.8h-5V45.1z"/>
		</g>
		<g>
			<rect x="281.5" y="37.8" class="st3" width="6" height="7.8"/>
			<path class="st2" d="M287.9,46.1H281v-8.8h6.9V46.1z M282,45.1h4.9v-6.8H282V45.1z"/>
		</g>
		<g>
			<rect x="305.1" y="37.8" class="st3" width="6" height="7.8"/>
			<path class="st2" d="M311.5,46.1h-6.9v-8.8h6.9V46.1z M305.6,45.1h4.9v-6.8h-4.9V45.1z"/>
		</g>
		<g>
			<rect x="312.9" y="37.8" class="st3" width="6" height="7.8"/>
			<path class="st2" d="M319.4,46.1h-7v-8.8h7V46.1z M313.4,45.1h5v-6.8h-5V45.1z"/>
		</g>
		<g>
			<rect x="320.8" y="37.8" class="st3" width="6" height="7.8"/>
			<path class="st2" d="M327.2,46.1h-6.9v-8.8h6.9V46.1z M321.3,45.1h4.9v-6.8h-4.9V45.1z"/>
		</g>
		<g>
			<rect x="328.6" y="37.8" class="st3" width="6" height="7.8"/>
			<path class="st2" d="M335.1,46.1h-7v-8.8h7V46.1z M329.1,45.1h5v-6.8h-5V45.1z"/>
		</g>
		<g>
			<rect x="570.4" y="65.6" class="st3" width="94" height="56.3"/>
			<path class="st2" d="M664.9,122.4h-95V65.1h95V122.4z M570.9,121.4h93V66.1h-93V121.4z"/>
		</g>
		<g>
			<line class="st5" x1="576.6" y1="78.9" x2="656.9" y2="78.9"/>
			<rect x="576.6" y="77.4" class="st2" width="80.3" height="3"/>
		</g>
		<g>
			<line class="st5" x1="576.6" y1="92.7" x2="656.9" y2="92.7"/>
			<rect x="576.6" y="91.2" class="st2" width="80.3" height="3"/>
		</g>
		<g>
			<line class="st5" x1="576.6" y1="106.4" x2="656.9" y2="106.4"/>
			<rect x="576.6" y="104.9" class="st2" width="80.3" height="3"/>
		</g>
		<g>
			<g>
				<rect x="4.7" y="299.7" class="st3" width="140.7" height="193.5"/>
				<path class="st2" d="M145.9,493.7H4.2V299.2h141.7V493.7z M5.2,492.7h139.7V300.2H5.2V492.7z"/>
			</g>
			<g>
				<polygon class="st3" points="120.7,345.6 131.4,325.2 109.4,333.5 104.2,310.6 89.1,328.8 75.5,309.5 67,331.6 48.4,317.1 
					46.7,340.7 24.4,332.9 31.8,355.2 8.7,359.5 28.4,371.4 17.7,391.8 39.7,383.5 44.9,406.4 60,388.2 73.6,407.5 82,385.4 
					100.7,399.9 102.4,376.4 124.7,384.1 117.3,361.8 140.4,357.5 				"/>
				<path class="st2" d="M73.7,408.5L60,389l-15.3,18.5l-5.4-23.3l-22.6,8.5l11.1-21.1L7.3,359.2l23.8-4.4l-7.5-22.7l22.7,7.9
					l1.7-23.9l18.8,14.7l8.6-22.3L89.1,328l15.3-18.5l5.4,23.3l22.6-8.5l-11.1,21.2l20.5,12.3l-23.8,4.4l7.5,22.7l-22.7-7.9
					l-1.7,23.9l-18.8-14.7L73.7,408.5z M60,387.3l13.5,19.1l8.3-21.8l18.5,14.3l1.6-23.2l22,7.6l-7.2-21.8l22.3-4.2l-19-11.5
					l10.3-19.6l-21.3,8l-5.1-22.5l-14.8,18l-13.5-19.1l-8.3,21.8l-18.5-14.3l-1.6,23.2l-22-7.6l7.2,21.9l-22.3,4.1l19,11.5
					l-10.3,19.6l21.3-8l5.1,22.5L60,387.3z"/>
			</g>
			<g>
				<line class="st5" x1="23.7" y1="436.3" x2="124.4" y2="436.3"/>
				<rect x="23.7" y="434.8" class="st2" width="100.8" height="3"/>
			</g>
			<g>
				<line class="st5" x1="23.7" y1="453.3" x2="124.4" y2="453.3"/>
				<rect x="23.7" y="451.8" class="st2" width="100.8" height="3"/>
			</g>
			<g>
				<line class="st5" x1="23.7" y1="470.3" x2="124.4" y2="470.3"/>
				<rect x="23.7" y="468.8" class="st2" width="100.8" height="3"/>
			</g>
		</g>
		<g>
			<g>
				<rect x="281.9" y="331.6" class="st3" width="128.7" height="77.8"/>
				<path class="st2" d="M411.1,409.9H281.4v-78.8h129.7L411.1,409.9L411.1,409.9z M282.4,408.9h127.7v-76.8H282.4V408.9z"/>
			</g>
			<g>
				<g>
					<polygon class="st3" points="428.1,461.3 267.7,461.3 281.8,409.4 410.8,409.4 					"/>
					<path class="st2" d="M428.8,461.8H266.9l14.5-52.9h129.7L428.8,461.8z M268.5,460.8h158.8l-16.8-50.9H282.2L268.5,460.8z"/>
				</g>
				<g>
					<polygon class="st3" points="303.1,426 291.1,426 293.3,415.4 304.8,415.4 					"/>
					<path class="st2" d="M303.6,426.5h-13.2l2.5-11.6h12.5L303.6,426.5z M291.7,425.5h11l1.5-9.6h-10.4L291.7,425.5z"/>
				</g>
				<g>
					<polygon class="st3" points="319.7,426 307.7,426 309.1,415.4 320.6,415.4 					"/>
					<path class="st2" d="M320.2,426.5H307l1.7-11.6h12.5L320.2,426.5z M308.3,425.5h10.9l0.9-9.6h-10.5L308.3,425.5z"/>
				</g>
				<g>
					<polygon class="st3" points="336.3,426 324.2,426 324.9,415.4 336.4,415.4 					"/>
					<path class="st2" d="M336.8,426.5h-13.2l0.9-11.6H337L336.8,426.5z M324.8,425.5h10.9l0.2-9.6h-10.5L324.8,425.5z"/>
				</g>
				<g>
					<polygon class="st3" points="352.8,426 340.8,426 340.7,415.4 352.2,415.4 					"/>
					<path class="st2" d="M353.4,426.5h-13.2v-11.6h12.5L353.4,426.5z M341.3,425.5h11l-0.6-9.6h-10.4V425.5z"/>
				</g>
				<g>
					<polygon class="st3" points="369.4,426 357.4,426 356.5,415.4 368,415.4 					"/>
					<path class="st2" d="M370,426.5h-13.2l-0.8-11.6h12.5L370,426.5z M357.9,425.5h10.9l-1.2-9.6h-10.5L357.9,425.5z"/>
				</g>
				<g>
					<polygon class="st3" points="386,426 373.9,426 372.3,415.4 383.8,415.4 					"/>
					<path class="st2" d="M386.6,426.5h-13.2l-1.6-11.6h12.4L386.6,426.5z M374.4,425.5h10.9l-1.9-9.6h-10.5L374.4,425.5z"/>
				</g>
				<g>
					<polygon class="st3" points="402.5,426 390.5,426 388.1,415.4 399.6,415.4 					"/>
					<path class="st2" d="M403.2,426.5H390l-2.5-11.6H400L403.2,426.5z M390.9,425.5h11l-2.7-9.6h-10.4L390.9,425.5z"/>
				</g>
				<g>
					<polygon class="st3" points="298.5,455.1 284.9,455.1 287.2,444.4 300.2,444.4 					"/>
					<path class="st2" d="M299,455.6h-14.8l2.5-11.7h14.2L299,455.6z M285.7,454.6H298l1.5-9.7h-11.8L285.7,454.6z"/>
				</g>
				<g>
					<polygon class="st3" points="392.6,455.1 303.6,455.1 305.1,444.4 390.4,444.4 					"/>
					<path class="st2" d="M393.3,455.6h-90.4l1.7-11.7h86.3L393.3,455.6z M304.3,454.6h87.6l-2-9.7h-84.3L304.3,454.6z"/>
				</g>
				<g>
					<polygon class="st3" points="410.4,455.1 396.9,455.1 394.5,444.4 407.5,444.4 					"/>
					<path class="st2" d="M411.2,455.6h-14.8l-2.6-11.7H408L411.2,455.6z M397.4,454.6h12.3l-2.6-9.7h-11.9L397.4,454.6z"/>
				</g>
				<g>
					<polygon class="st3" points="318.7,440.7 288,440.7 290.2,430 319.6,430 					"/>
					<path class="st2" d="M319.2,441.2h-31.9l2.5-11.7h30.4L319.2,441.2z M288.7,440.2h29.5l0.8-9.7h-28.3L288.7,440.2z"/>
				</g>
				<g>
					<polygon class="st3" points="336,440.7 323.2,440.7 324,430 336.2,430 					"/>
					<path class="st2" d="M336.6,441.2h-14l0.8-11.7h13.4L336.6,441.2z M323.8,440.2h11.7v-9.7h-11L323.8,440.2z"/>
				</g>
				<g>
					<polygon class="st3" points="353.7,440.7 340.8,440.7 340.8,430 353.1,430 					"/>
					<path class="st2" d="M354.3,441.2h-14v-11.7h13.3L354.3,441.2z M341.4,440.2h11.7l-0.6-9.7h-11.1V440.2z"/>
				</g>
				<g>
					<polygon class="st3" points="371.3,440.7 358.5,440.7 357.7,430 369.9,430 					"/>
					<path class="st2" d="M371.9,441.2h-14l-0.8-11.7h13.3L371.9,441.2z M359,440.2h11.6l-1.2-9.7h-11.2L359,440.2z"/>
				</g>
				<g>
					<polygon class="st3" points="406.5,440.7 375.8,440.7 374.3,430 403.6,430 					"/>
					<path class="st2" d="M407.2,441.2h-31.9l-1.7-11.7H404L407.2,441.2z M376.3,440.2h29.5l-2.6-9.7h-28.3L376.3,440.2z"/>
				</g>
			</g>
			<g>
				<g>
					<line class="st5" x1="297.5" y1="345" x2="395.1" y2="345"/>
					<rect x="297.5" y="344.5" class="st2" width="97.5" height="1"/>
				</g>
				<g>
					<line class="st5" x1="297.5" y1="353" x2="395.1" y2="353"/>
					<rect x="297.5" y="352.5" class="st2" width="97.5" height="1"/>
				</g>
				<g>
					<line class="st5" x1="297.5" y1="361" x2="395.1" y2="361"/>
					<rect x="297.5" y="360.5" class="st2" width="97.5" height="1"/>
				</g>
				<g>
					<rect x="297.5" y="369.4" class="st3" width="48.8" height="26.6"/>
					<path class="st2" d="M346.8,396.5H297v-27.6h49.8V396.5z M298,395.5h47.8v-25.6H298V395.5z"/>
				</g>
				<g>
					<line class="st5" x1="352.5" y1="370.3" x2="393.7" y2="370.3"/>
					<rect x="352.5" y="369.8" class="st2" width="41.2" height="1"/>
				</g>
				<g>
					<line class="st5" x1="352.5" y1="377.8" x2="393.7" y2="377.8"/>
					<rect x="352.5" y="377.3" class="st2" width="41.2" height="1"/>
				</g>
				<g>
					<line class="st5" x1="352.5" y1="385.4" x2="393.7" y2="385.4"/>
					<rect x="352.5" y="384.9" class="st2" width="41.2" height="1"/>
				</g>
				<g>
					<line class="st5" x1="352.5" y1="392.9" x2="393.7" y2="392.9"/>
					<rect x="352.5" y="392.4" class="st2" width="41.2" height="1"/>
				</g>
			</g>
		</g>
		<g>
			<g>
				<rect x="612.3" y="349.5" class="st3" width="71.8" height="45.9"/>
				<path class="st2" d="M684.6,395.9h-72.8V349h72.8V395.9z M612.8,394.9h70.8V350h-70.8V394.9z"/>
			</g>
			<g>
				<path class="st3" d="M519.5,418.1v24.3h7.4c1.3-6.5,7-11.2,13.6-11.2s12.3,4.7,13.5,11.2h53.3v-58.9h-8l-0.3,34.6H519.5z"/>
				<path class="st2" d="M607.8,442.9h-54.2v-0.4c-1.4-7.2-8.4-11.9-15.6-10.5c-5.3,1-9.4,5.2-10.5,10.5v0.4H519v-25.3h79.5
					l0.4-34.6h8.9L607.8,442.9z M554.4,441.9h52.4V384h-7l-0.3,34.6H520v23.3h6.5c1.5-6.5,7.3-11.2,14-11.2
					C547.2,430.7,553,435.4,554.4,441.9L554.4,441.9z"/>
			</g>
			<g>
				<path class="st3" d="M640.2,388.9h-32.9v53.5h10.1c1.2-6.5,6.9-11.2,13.5-11.2s12.3,4.7,13.6,11.2h10.7v-22.5L640.2,388.9z"/>
				<path class="st2" d="M655.7,442.9h-11.6v-0.4c-1.4-7.2-8.4-11.9-15.6-10.5c-5.3,1-9.4,5.2-10.5,10.5v0.4h-11v-54.5h33.8
					l15.1,31.5L655.7,442.9z M644.9,441.9h9.8V420l-14.8-30.6h-32.1v52.5h9.2c1.7-7.7,9.4-12.5,17.1-10.8
					C639.5,432.3,643.7,436.5,644.9,441.9z"/>
			</g>
			<g>
				<circle class="st3" cx="540.5" cy="445" r="11.3"/>
				<path class="st2" d="M540.5,436.7c4.6,0,8.3,3.7,8.3,8.3c0,4.6-3.7,8.3-8.3,8.3s-8.3-3.7-8.3-8.3l0,0
					C532.2,440.4,535.9,436.7,540.5,436.7 M540.5,433.7c-6.2,0-11.3,5.1-11.3,11.3c0,6.2,5.1,11.3,11.3,11.3s11.3-5.1,11.3-11.3l0,0
					C551.8,438.8,546.7,433.7,540.5,433.7z"/>
			</g>
			<g>
				<circle class="st3" cx="630.9" cy="445" r="11.3"/>
				<path class="st2" d="M630.9,436.7c4.6,0,8.3,3.7,8.3,8.3c0,4.6-3.7,8.3-8.3,8.3s-8.3-3.7-8.3-8.3l0,0
					C622.6,440.4,626.3,436.7,630.9,436.7 M630.9,433.7c-6.2,0-11.3,5.1-11.3,11.3c0,6.2,5.1,11.3,11.3,11.3s11.3-5.1,11.3-11.3
					C642.2,438.8,637.1,433.7,630.9,433.7L630.9,433.7z"/>
			</g>
			<g>
				<polygon class="st3" points="612.6,394.5 612.6,419.1 647.2,419.1 636.3,394.8 				"/>
				<path class="st2" d="M648,419.6h-35.9V394l24.5,0.3L648,419.6z M613.1,418.6h33.4l-10.6-23.3l-22.8-0.3L613.1,418.6z"/>
			</g>
			<g>
				<rect x="525.2" y="398.1" class="st3" width="21.6" height="20.3"/>
				<path class="st2" d="M547.3,418.9h-22.6v-21.3h22.6V418.9z M525.7,417.9h20.6v-19.3h-20.6V417.9z"/>
			</g>
			<g>
				<rect x="546.8" y="398.1" class="st3" width="21.6" height="20.3"/>
				<path class="st2" d="M568.9,418.9h-22.6v-21.3h22.6V418.9z M547.3,417.9h20.6v-19.3h-20.6V417.9z"/>
			</g>
			<g>
				<rect x="568.4" y="398.1" class="st3" width="21.6" height="20.3"/>
				<path class="st2" d="M590.5,418.9h-22.6v-21.3h22.6V418.9z M568.9,417.9h20.6v-19.3h-20.6V417.9z"/>
			</g>
			<g>
				<rect x="525.2" y="377.5" class="st3" width="21.6" height="20.3"/>
				<path class="st2" d="M547.3,398.3h-22.6V377h22.6V398.3z M525.7,397.3h20.6V378h-20.6V397.3z"/>
			</g>
			<g>
				<rect x="546.8" y="377.5" class="st3" width="21.6" height="20.3"/>
				<path class="st2" d="M568.9,398.3h-22.6V377h22.6V398.3z M547.3,397.3h20.6V378h-20.6V397.3z"/>
			</g>
			<g>
				<rect x="568.4" y="377.5" class="st3" width="21.6" height="20.3"/>
				<path class="st2" d="M590.5,398.3h-22.6V377h22.6V398.3z M568.9,397.3h20.6V378h-20.6V397.3z"/>
			</g>
			<g>
				<rect x="603.3" y="336.5" class="st3" width="87.8" height="13"/>
				<path class="st2" d="M691.6,350h-88.8v-14h88.8V350z M603.8,349h86.8v-12h-86.8V349z"/>
			</g>
			<path class="st2" d="M663.3,358.8v4.8h-30.2v-4.8H663.3z M663.3,368.8v4.8h-12.5V391h-5.2v-17.4h-12.5v-4.8L663.3,368.8z"/>
		</g>
		<path class="st2" d="M33,26.4v2.9H15.1v-2.9H33z M33,32.4v2.8h-7.4v10.4h-3.1V35.2h-7.4v-2.8H33z"/>
		<g>
			<g>
				<defs>
					<circle id="SVGID_1_" cx="836.9" cy="59.1" r="48.9"/>
				</defs>
				<clipPath id="SVGID_2_">
					<use xlink:href="#SVGID_1_"  style="overflow:visible;"/>
				</clipPath>
				<g class="st6">
					<g>
						<path class="st3" d="M735.8,70.9c25,0,25,16,49.9,16s25-16,49.9-16s24.9,16,49.9,16s24.9-16,49.9-16"/>
						<path class="st2" d="M885.5,87.4c-12.6,0-19-4.1-25.2-8.1s-12.4-7.9-24.7-7.9s-18.3,3.8-24.7,7.9s-12.6,8.1-25.2,8.1
							s-19-4.1-25.2-8.1s-12.3-7.9-24.7-7.9v-1c12.7,0,19.1,4.1,25.2,8.1s12.4,7.9,24.7,7.9s18.3-3.8,24.7-7.9s12.6-8.1,25.2-8.1
							s19,4.1,25.2,8.1s12.4,7.9,24.7,7.9s18.3-3.8,24.6-7.9s12.6-8.1,25.3-8.1v1c-12.4,0-18.4,3.8-24.7,7.9S898.1,87.4,885.5,87.4z
							"/>
					</g>
					<g>
						<path class="st3" d="M735.8,40.8c25,0,25,16,49.9,16s25-16,49.9-16s24.9,16,49.9,16s24.9-16,49.9-16"/>
						<path class="st2" d="M885.5,57.3c-12.6,0-19-4.1-25.2-8.1s-12.4-7.9-24.7-7.9s-18.3,3.8-24.7,7.9s-12.6,8.1-25.2,8.1
							s-19-4.1-25.2-8.1s-12.3-7.9-24.7-7.9v-1c12.7,0,19.1,4.1,25.2,8.1s12.4,7.9,24.7,7.9s18.3-3.8,24.7-7.9s12.6-8.1,25.2-8.1
							s19,4.1,25.2,8.1s12.4,7.9,24.7,7.9s18.3-3.8,24.6-7.9s12.6-8.1,25.3-8.1v1c-12.4,0-18.4,3.8-24.7,7.9S898.1,57.3,885.5,57.3z
							"/>
					</g>
				</g>
			</g>
		</g>
		<path class="st2" d="M836.9,108.6c-27.3,0-49.4-22.1-49.4-49.4s22.1-49.4,49.4-49.4c27.3,0,49.4,22.1,49.4,49.4
			S864.2,108.6,836.9,108.6L836.9,108.6z M836.9,10.9c-26.7,0-48.4,21.7-48.4,48.4s21.7,48.4,48.4,48.4s48.4-21.7,48.4-48.4v-0.1
			C885.2,32.5,863.6,10.9,836.9,10.9z"/>
		<g>
			<polygon class="st3" points="859.9,90.7 814.5,169.2 905.2,169.2 			"/>
			<path class="st2" d="M906.1,169.7h-92.5l0.5-0.7l45.8-79.3L906.1,169.7z M815.4,168.7h89l-44.5-77L815.4,168.7z"/>
		</g>
		<g>
			<path class="st3" d="M884.4,66.6H946c6.4,0,11.6,5.2,11.6,11.6v36.7c0,6.4-5.2,11.6-11.6,11.6h-61.6c-6.4,0-11.6-5.2-11.6-11.6
				V78.2C872.8,71.8,878,66.6,884.4,66.6z"/>
			<path class="st2" d="M946.1,126.9h-61.7c-6.7,0-12.1-5.4-12.1-12.1V78.1c0.1-6.6,5.5-12,12.1-12h61.7c6.6,0,12,5.4,12,12v36.7
				C958.1,121.4,952.7,126.8,946.1,126.9z M884.4,67.1c-6.1,0-11,4.9-11.1,11v36.7c0,6.1,5,11.1,11.1,11.1h61.7
				c6.1-0.1,11-5,11-11.1V78.1c0-6.1-4.9-11-11-11H884.4z"/>
		</g>
		<g>
			<g>
				<line class="st5" x1="884.6" y1="79.5" x2="945.8" y2="79.5"/>
				<rect x="884.6" y="78" class="st2" width="61.2" height="3"/>
			</g>
			<g>
				<line class="st5" x1="884.6" y1="90.8" x2="945.8" y2="90.8"/>
				<rect x="884.6" y="89.3" class="st2" width="61.2" height="3"/>
			</g>
			<g>
				<line class="st5" x1="884.6" y1="102.1" x2="945.8" y2="102.1"/>
				<rect x="884.6" y="100.6" class="st2" width="61.2" height="3"/>
			</g>
			<g>
				<line class="st5" x1="884.6" y1="113.4" x2="945.8" y2="113.4"/>
				<rect x="884.6" y="111.9" class="st2" width="61.2" height="3"/>
			</g>
		</g>
		<g>
			<polygon class="st3" points="873.2,134.3 876.6,128 869.7,130.5 868.1,123.4 863.4,129.1 859.1,123.1 856.5,130 850.7,125.4 
				850.2,132.8 843.2,130.4 845.5,137.3 838.3,138.6 844.4,142.4 841.1,148.7 848,146.1 849.6,153.3 854.3,147.6 858.5,153.6 
				861.2,146.7 867,151.3 867.5,143.9 874.5,146.3 872.2,139.4 879.4,138 			"/>
			<path class="st2" d="M858.7,154.7l-4.4-6.3l-5,6l-1.7-7.6l-7.6,2.9l3.8-7.2l-6.9-4.1l7.9-1.5l-2.4-7.4l7.3,2.6l0.5-7.6l6.1,4.6
				l2.7-7.1l4.4,6.3l4.9-6l1.8,7.6l7.5-2.9l-3.7,7.1l6.9,4.2l-8,1.5l2.5,7.3l-7.3-2.5l-0.6,7.6l-6-4.7L858.7,154.7z M854.3,146.8
				l4.1,5.8l2.5-6.7l5.7,4.4l0.5-7.1l6.6,2.3l-2.2-6.5l6.5-1.2l-5.4-3.3l2.9-5.6l-6.2,2.3l-1.5-6.7l-4.5,5.4l-4-5.8l-2.6,6.7
				l-5.6-4.4l-0.5,7.1l-6.6-2.3l2.1,6.5l-6.4,1.2l5.4,3.3l-3,5.6l6.2-2.3l1.5,6.7L854.3,146.8z"/>
		</g>
		<g>
			<line class="st5" x1="832.3" y1="159.3" x2="890.1" y2="159.3"/>
			<rect x="832.3" y="157.8" class="st2" width="57.9" height="3"/>
		</g>
		<g>
			<g>
				<rect x="818.9" y="364.5" class="st3" width="133.7" height="79.8"/>
				<path class="st2" d="M953.1,444.9H818.4V364h134.7L953.1,444.9L953.1,444.9z M819.4,443.9h132.7V365H819.4V443.9z"/>
			</g>
			<g>
				<rect x="815.9" y="361.5" class="st3" width="133.7" height="79.8"/>
				<path class="st2" d="M950.1,441.9H815.4V361h134.7L950.1,441.9L950.1,441.9z M816.4,440.9h132.7V362H816.4V440.9z"/>
			</g>
			<g>
				<rect x="813" y="358.6" class="st3" width="133.7" height="79.8"/>
				<path class="st2" d="M947.1,438.9H812.5v-80.8h134.6V438.9z M813.5,437.9h132.6v-78.8H813.5V437.9z"/>
			</g>
			<g>
				<rect x="810" y="355.6" class="st3" width="133.7" height="79.8"/>
				<path class="st2" d="M944.1,435.9H809.5v-80.8h134.6V435.9z M810.5,434.9h132.6v-78.8H810.5V434.9z"/>
			</g>
			<g>
				<rect x="807" y="352.6" class="st3" width="133.7" height="79.8"/>
				<path class="st2" d="M941.2,432.9H806.5v-80.8h134.7V432.9z M807.5,431.9h132.7v-78.8H807.5V431.9z"/>
			</g>
			<g>
				<rect x="803.9" y="348.5" class="st3" width="133.7" height="79.8"/>
				<path class="st2" d="M938.1,428.8H803.4V348h134.7L938.1,428.8L938.1,428.8z M804.4,427.8h132.7V349H804.4V427.8z"/>
			</g>
			<g>
				<line class="st5" x1="815.7" y1="420.6" x2="929.6" y2="420.6"/>
				<rect x="815.7" y="420.1" class="st2" width="114" height="1"/>
			</g>
			<g>
				<line class="st5" x1="856" y1="386.9" x2="919.4" y2="386.9"/>
				<rect x="856" y="383.4" class="st2" width="63.4" height="7"/>
			</g>
			<g>
				<path class="st3" d="M824.4,377.6h8.7c5.8,0,10.5,4.7,10.5,10.5v9.1c0,5.8-4.7,10.5-10.5,10.5h-8.7c-5.8,0-10.5-4.7-10.5-10.5
					v-9.1C813.9,382.3,818.6,377.6,824.4,377.6z"/>
				<path class="st2" d="M833.1,408.2h-8.7c-6.1,0-11-4.9-11-11l0,0v-9.1c0-6.1,4.9-11,11-11h8.7c6.1,0,11,4.9,11,11v9.1
					C844.1,403.3,839.2,408.2,833.1,408.2L833.1,408.2z M824.4,378.1c-5.5,0-10,4.5-10,10v9.1c0,5.5,4.5,10,10,10h8.7
					c5.5,0,10-4.5,10-10v-9.1c0-5.5-4.5-10-10-10H824.4z"/>
			</g>
			<g>
				<circle class="st3" cx="828.9" cy="369.3" r="11.4"/>
				<path class="st2" d="M828.9,381.2c-6.6,0-11.9-5.3-11.9-11.9s5.3-11.9,11.9-11.9c6.6,0,11.9,5.3,11.9,11.9
					S835.5,381.2,828.9,381.2L828.9,381.2z M828.9,358.4c-6,0-10.9,4.9-10.9,10.9s4.9,10.9,10.9,10.9s10.9-4.9,10.9-10.9
					S834.9,358.4,828.9,358.4L828.9,358.4L828.9,358.4z"/>
			</g>
			<g>
				<line class="st5" x1="856.5" y1="374.9" x2="872.4" y2="374.9"/>
				<rect x="856.5" y="374.4" class="st2" width="16" height="1"/>
			</g>
		</g>
		<path class="st2" d="M24,48.6C15.9,48.5,9.4,42,9.5,33.9s6.6-14.6,14.7-14.5c8,0.1,14.5,6.6,14.5,14.6c0,8.1-6.5,14.6-14.6,14.6
			H24z M24,20.4c-7.5,0.1-13.6,6.2-13.5,13.7s6.2,13.6,13.7,13.5S37.7,41.5,37.7,34s-6.1-13.6-13.6-13.6H24z"/>
		<g>
			<path class="st7" d="M31,228.3l2.9,0.6c-0.2,0.7-0.4,1.3-0.5,2c-0.4,2-1,4-1.7,5.9c-0.7,2-1.7,3.9-2.9,5.6l-2.8-1.1
				c1.3-1.7,2.3-3.5,3.1-5.5C30,233.4,30.7,230.9,31,228.3z M36,228.9l2.6-0.8c1.1,2.1,2.1,4.2,2.9,6.4c0.7,1.8,1.7,4.9,2.3,6.9
				l-2.9,0.9c-0.6-2.3-1.3-4.6-2.1-6.9C38,233.2,37.1,231,36,228.9L36,228.9z M42.2,228.9l-1.5,0.7c-0.4-1-1-1.9-1.6-2.7l1.6-0.7
				C41.3,227.1,41.8,228,42.2,228.9L42.2,228.9z M44.6,228l-1.6,0.7c-0.4-0.9-0.9-1.8-1.5-2.7l1.5-0.7L44.6,228z"/>
			<path class="st7" d="M45.8,241.2c1.6-1.2,2.8-2.8,3.4-4.7c0.5-1.7,0.5-5.4,0.5-7.8c0.1-0.6,0-1.2-0.2-1.8h2.9
				c0,0.1-0.1,1-0.1,1.8c0.1,2.8-0.1,5.6-0.6,8.4c-0.6,2.2-1.8,4.2-3.5,5.7L45.8,241.2z M54.9,241.5c0.1-0.5,0.2-1,0.2-1.5v-11.4
				c0-0.6-0.1-1.1-0.2-1.7h3c-0.2,0.5-0.3,1.1-0.2,1.7v10.3c2-1,3.7-2.4,4.9-4.2l1.5,2.2c-1.9,2.2-4.1,4-6.7,5.4l-0.8,0.5
				L54.9,241.5z"/>
			<path class="st7" d="M82.4,229.7c-0.3,0.4-0.5,0.9-0.6,1.4c-0.8,2.4-2,4.6-3.5,6.6c-2.1,2.5-4.8,4.4-7.9,5.5l-2.3-2.1
				c3-0.8,5.8-2.5,7.9-4.8c1.3-1.6,2.3-3.4,2.8-5.4h-5.6c-1.4,1.8-3.1,3.4-4.9,4.8l-2.2-1.7c2.5-1.5,4.6-3.7,6.1-6.3
				c0.4-0.7,0.7-1.4,0.9-2.1l2.9,1c-0.5,0.6-0.9,1.3-1.2,2h3.9c0.6,0,1.2-0.1,1.7-0.3L82.4,229.7z"/>
			<path class="st7" d="M97.9,225.5c1.5,2.7,3.5,5.1,5.9,7c-0.8,0.6-1.5,1.3-2,2.1l-1.3-1.3v0.2c-0.2,5.9-0.4,8.2-1.1,9.1
				c-0.5,0.5-1.1,0.9-1.8,0.9h-3c0-0.8-0.3-1.6-0.8-2.3h2.6c0.3,0,0.6-0.1,0.8-0.3c0.4-0.4,0.6-2.2,0.8-6.3h-3.9
				c-0.5,3.8-1.7,7.2-6.8,9.1c-0.4-0.8-0.9-1.6-1.6-2.2c4.5-1.4,5.5-4,5.9-6.9h-3.3v-1.4l-1.6,1.5c-0.6-0.7-1.3-1.3-2-1.9
				c2.6-1.9,4.6-4.4,5.8-7.4l2.5,0.7c-0.9,2.3-2.3,4.4-3.9,6.2h10.6c-1.6-1.9-2.9-3.9-4.1-6L97.9,225.5z"/>
			<path class="st7" d="M109.7,226.7c-0.2,0.5-0.4,1-0.5,1.5c-0.5,2.2-1.2,6.3-0.7,8.7c0.3-0.6,0.6-1.5,1-2.2l1.2,0.7
				c-0.5,1.6-1,3.2-1.3,4.8c-0.1,0.3-0.2,0.6-0.2,0.9c0.1,0.3,0.1,0.5,0.1,0.8l-2.2,0.3c-0.7-2.1-1-4.2-1.1-6.4
				c0-2.6,0.2-5.1,0.6-7.7c0.1-0.6,0.2-1.1,0.2-1.7L109.7,226.7z M122.1,232.3l-2.8,0.3v0.8c0,4.6-0.4,7.4-4.3,9.9l-2.2-1.8
				c0.8-0.3,1.6-0.9,2.2-1.5c1.5-1.6,1.9-3.3,1.9-6.6v-0.7h-5.2v-2.5c1,0.2,1.9,0.2,2.9,0.2h2.2c0-0.9,0-1.7-0.1-2.6
				c0-0.5-0.1-0.9-0.2-1.4h2.9c-0.1,0.5-0.1,0.9-0.1,1.4c-0.1,0.8-0.1,1.7-0.1,2.5l3-0.4L122.1,232.3z"/>
		</g>
		<g>
			<path class="st7" d="M295.7,239.4v2.2l-9.4,1.3l-0.3-2.3l3.8-0.4v-2.3h-3.1v-2.1h3.1v-1.7h2.3v1.7h3v2.1h-3v2L295.7,239.4z
				 M295.4,233.6h-9v-2.1h3.5v-1.9H287v-2.1h2.9v-2.2h2.3v2.2h2.8v2.1h-2.8v1.9h3.2V233.6z M304.4,231.9h-1.7v9c0,1.2-0.2,1.9-1,2.2
				c-1.1,0.4-2.2,0.6-3.4,0.5c-0.2-0.8-0.5-1.6-0.9-2.3h2.5c0.4,0,0.5-0.1,0.5-0.4v-9h-4.6v-2.3h4.6v-4.2h2.3v4.2h1.7V231.9z
				 M297.7,238.4l-1.7-4.5l1.9-0.7c0.7,1.4,1.5,3.2,1.9,4.3L297.7,238.4z"/>
			<path class="st7" d="M316.6,226.4c0,3.7,0.5,10.9,7.7,15.1c-0.7,0.7-1.3,1.4-1.9,2.1c-3.5-2.2-6.1-5.7-7.2-9.7
				c-1.5,4.4-3.8,7.7-7.3,9.7c-0.6-0.7-1.3-1.3-2.1-1.9c4.1-2.1,6.4-5.9,7.5-11.1l1.2,0.3l-0.3-2.2h-4.5v-2.3L316.6,226.4z"/>
			<path class="st7" d="M334.7,231.9c1.4,0.3,2.3,1.6,2,3.1c-0.2,1-1,1.8-2,2c-1.4-0.3-2.3-1.6-2-3.1
				C332.9,232.9,333.7,232.1,334.7,231.9z"/>
			<path class="st7" d="M354.8,239.4v2.2l-9.3,1.3l-0.3-2.3l3.7-0.4v-2.3h-3v-2.1h3v-1.7h2.3v1.7h3.1v2.1h-3.1v2L354.8,239.4z
				 M354.5,233.6h-9v-2.1h3.4v-1.9H346v-2.1h2.9v-2.2h2.3v2.2h2.9v2.1h-2.9v1.9h3.3L354.5,233.6z M363.5,231.9h-1.7v9
				c0,1.2-0.3,1.9-1,2.2c-1.1,0.4-2.3,0.6-3.5,0.5c-0.1-0.8-0.4-1.6-0.8-2.3h2.5c0.3,0,0.5-0.1,0.5-0.4v-9h-4.7v-2.3h4.7v-4.2h2.3
				v4.2h1.7V231.9z M356.7,238.4c-0.3-1.1-1.1-3-1.7-4.5l2-0.7c0.7,1.4,1.3,2.8,1.8,4.3L356.7,238.4z"/>
			<path class="st7" d="M373.4,226.4c-0.2,0.5-0.3,1.1-0.4,1.6c-0.1,0.6-0.3,1.3-0.4,2.1h1.6c2.1,0,3.6,0.9,3.6,3.7
				c0.1,2.4-0.3,4.8-1.1,7.1c-0.6,1.2-1.9,1.9-3.2,1.8c-0.8,0-1.6-0.1-2.4-0.3l-0.4-2.6c0.8,0.3,1.6,0.5,2.4,0.5
				c0.6,0,1.2-0.3,1.4-0.9c0.6-1.7,0.9-3.5,0.8-5.3c0-1.6-0.6-1.8-1.9-1.8h-1.3c-0.8,2.9-2.2,7.5-4,10.4l-2.5-1
				c1.8-2.8,3.1-5.9,3.9-9.1l-1.7,0.2l-2.1,0.3l-0.2-2.7h4.5c0.3-1.4,0.5-2.8,0.5-4.2L373.4,226.4z M380.1,228.3
				c1.4,2.3,2.6,4.7,3.4,7.2l-2.5,1.2c-0.6-2.7-1.8-5.2-3.3-7.5L380.1,228.3z"/>
			<path class="st7" d="M394.8,228c-1,1.4-2.4,4.1-3.4,5.9c0.7-0.4,1.4-0.6,2.2-0.6c1.2-0.1,2.3,0.8,2.4,2c0,0.2,0,0.4,0,0.5
				c0.1,0.9,0,2.5,0.1,3.3c0,0.6,0.6,1.1,1.2,1h0.1c1.6,0,2.7-2.2,3.3-4.6l2.1,1.7c-1,3.4-2.9,5.6-5.9,5.6c-1.6,0.2-3-1-3.2-2.6
				v-0.1c-0.1-1,0-2.6-0.1-3.4s-0.4-1.1-1.1-1.1s-2.5,1.3-3.2,2.9s-1.1,3.3-1.4,4.3l-2.8-0.9c2-4.7,4.2-9.4,6.6-13.9
				c0.2-0.5,0.6-1.2,0.9-2l2.8,1.1L394.8,228z"/>
		</g>
		<g>
			<path class="st7" d="M583.5,232.1l1.4,0.5c-1,5.9-3.8,9.3-8,11.1c-0.4-0.7-0.8-1.3-1.3-1.9c1.7-0.7,3.2-1.7,4.4-3.1
				c-0.6-0.7-1.3-1.4-2-2l-1.1,1l-1.7-1.6c2.1-1.6,3.7-3.8,4.4-6.3l2.2,0.6c-0.2,0.6-0.4,1.2-0.7,1.8h2.4L583.5,232.1z M578.4,231.2
				h-2.3V227h7.2v-1.7h2.4v1.7h7.3v4h-2.4v-1.9h-12.2V231.2z M580,234.2l-0.7,1c0.7,0.4,1.4,0.9,2,1.5c0.5-0.8,0.8-1.6,1-2.5H580z
				 M590.6,241.3c0.7,0,0.8-0.4,0.9-2.4l2.1,0.9c-0.3,2.8-0.9,3.6-2.8,3.6h-2.7c-2.2,0-2.9-0.6-2.9-3.1v-8.9h7.1v0.8
				c-0.1,3.5-0.1,5-0.5,5.5c-0.3,0.4-0.7,0.6-1.2,0.7h-1.9c0-0.7-0.2-1.4-0.5-2.1h1.2l0.5-0.2c0.2-0.9,0.3-1.9,0.2-2.8h-2.6v6.8
				c0,0.9,0.1,1,0.9,1L590.6,241.3z"/>
			<path class="st7" d="M612,243.6h-2.4v-0.8h-6.7v0.8h-2.3V238c-1.4,0.8-2.9,1.4-4.4,2c-0.3-0.8-0.8-1.5-1.3-2.1
				c2.4-0.7,4.8-1.9,6.8-3.4c-0.9-1-1.9-2-3-2.8c-0.7,0.6-1.4,1.1-2.2,1.5c-0.5-0.7-1-1.3-1.6-1.8c2.7-1.4,5-3.5,6.5-6.2l2.7,0.4
				c-0.3,0.6-0.7,1.1-1,1.6h4.8l1.7,0.8c-1,2.6-2.6,5-4.6,6.9h7V243.6z M601.5,229.2l-1,1c1,0.8,2.3,1.8,3.1,2.6
				c1.1-1.1,2-2.3,2.8-3.6H601.5z M609.6,240.7v-3.8h-6.7v3.8H609.6z"/>
			<path class="st7" d="M631.9,232.5c-0.2,0.3-0.3,0.6-0.4,0.9c-0.6,2-1.6,3.8-2.9,5.4c-1.9,2.1-4.4,3.6-7.1,4.3l-1.9-2.3
				c2.5-0.5,4.9-1.6,6.8-3.4c1-0.9,1.6-2.1,2-3.4h-11.8v-2.6h13.5L631.9,232.5z M618.5,226.8h11.7v2.6h-11.7V226.8z"/>
			<path class="st7" d="M636.1,234.8c0.9-0.9,2.4-2.8,3.8-4.4s2.2-1.5,3.8-0.2c1.4,1.3,2.7,2.6,4,4l4.9,5.3l-2.1,2.3l-4.3-5.2
				c-1.1-1.4-2.3-2.6-3.6-3.8c-0.7-0.6-1-0.6-1.6,0.1l-3,4l-1.2,1.8l-2.3-2.4L636.1,234.8z M649.6,231.4l-1.8,0.8
				c-0.5-1.1-1.1-2.2-1.8-3.2l1.7-0.7C648.4,229.3,649,230.3,649.6,231.4L649.6,231.4z M652.3,230.3l-1.8,0.8
				c-0.5-1.1-1.1-2.1-1.8-3.1l1.6-0.8C651,228.2,651.7,229.2,652.3,230.3z"/>
			<path class="st7" d="M654.2,241.2c1.6-1.2,2.8-2.8,3.4-4.7c0.5-1.7,0.5-5.4,0.5-7.8c0-0.6,0-1.2-0.1-1.8h2.9
				c-0.2,0.6-0.2,1.2-0.2,1.8c0,2.3,0,6.5-0.6,8.4c-0.6,2.2-1.8,4.2-3.5,5.7L654.2,241.2z M663.3,241.5c0.1-0.5,0.2-1,0.2-1.5v-11.4
				c0.1-0.6,0-1.2-0.2-1.7h3c-0.1,0.6-0.2,1.1-0.2,1.7v10.3c2-1,3.7-2.4,4.9-4.2l1.5,2.2c-1.9,2.2-4.1,4-6.7,5.4l-0.8,0.5
				L663.3,241.5z"/>
		</g>
		<g>
			<path class="st7" d="M14.9,522.6h1.8v2.4H9.9c-0.2,3.4-2.2,6.4-5.1,8l-2.5-1.7c2.7-1,4.7-3.5,5-6.4H0v-2.5h7.4v-2.8l-5.3,0.3
				l-0.6-2.3c2.2,0,4.5-0.1,6.7-0.3c1.7-0.2,3.3-0.6,4.9-1.2l1.7,2.1l-1.6,0.4c-1.1,0.3-2.2,0.5-3.3,0.7v3.1L14.9,522.6z"/>
			<path class="st7" d="M35.9,522.5l-0.3,0.8c-0.6,2-1.6,3.9-2.9,5.5c-1.9,2.1-4.4,3.5-7.1,4.2l-1.9-2.2c2.5-0.5,4.9-1.6,6.8-3.4
				c1-0.9,1.6-2.1,2-3.4H20.7v-2.6h12.1l1.4-0.2L35.9,522.5z M22.5,516.8h11.8v2.5H22.5V516.8z"/>
			<path class="st7" d="M45.4,523.6l-1.5,2.2c-1.4-1-2.9-1.9-4.4-2.8l1.4-2.2C42.2,521.5,44.4,522.9,45.4,523.6z M47,528.1
				c3.2-1.7,5.8-4.3,7.6-7.4l1.5,2.7c-2,2.9-4.7,5.3-7.8,7c-2,1.2-4.3,2-6.6,2.5l-1.4-2.6C42.6,529.9,44.9,529.1,47,528.1z
				 M48.4,519.1l-1.5,2.2c-1.4-1-2.9-1.9-4.4-2.8l1.4-2.2C45.2,517,47.4,518.4,48.4,519.1z"/>
			<path class="st7" d="M67.4,521.9c1.4,0.1,2.5,1.2,2.4,2.6c-0.1,1.4-1.2,2.5-2.6,2.4c-1.3-0.1-2.4-1.2-2.4-2.5
				C64.8,523,65.9,521.9,67.4,521.9L67.4,521.9z"/>
			<path class="st7" d="M94.4,520.3c-0.1,0.4-0.2,0.7-0.2,1.1c0,2.1-0.3,7.6-1.1,9.6c-0.4,1-1.5,1.6-2.6,1.5h-3.2l-0.3-2.7l2.7,0.3
				c0.5,0.1,1-0.2,1.2-0.7c0.5-1.2,0.8-5.2,0.8-7.3h-4.5c-0.7,5.2-2.5,8.3-6.1,10.8l-2.3-1.9c1-0.5,1.9-1.1,2.6-1.9
				c1.9-1.8,2.8-4,3.3-7h-5.2v-2.6h5.4v-1.7c0-0.6,0-1.2-0.1-1.8h2.9c-0.1,0.6-0.1,1.2-0.1,1.8c-0.1,0.6-0.1,1.1-0.1,1.7h5.2
				L94.4,520.3z"/>
			<path class="st7" d="M114.6,519.3c-0.2,0.4-0.5,0.9-0.7,1.4c-0.6,1.9-1.5,3.7-2.7,5.4l1.9,1.3l-1.8,2.3l-1.8-1.4
				c-2,2.2-4.5,3.9-7.3,4.9l-2.3-2c2.8-0.8,5.4-2.3,7.4-4.4c-1.2-0.8-2.4-1.5-3.7-2.2l1.7-1.9l3.7,2.1c0.9-1.3,1.5-2.7,2-4.2h-5.6
				c-1.5,1.9-3.2,3.6-5.2,5l-2.1-1.6c2.6-1.6,4.7-3.8,6.2-6.5c0.4-0.7,0.7-1.4,0.9-2.1l2.9,0.9c-0.4,0.6-0.8,1.3-1.2,2h4l1.7-0.2
				L114.6,519.3z"/>
			<path class="st7" d="M133.9,529.5v2.7h-2.7v-1h-9.5v1H119c0.1-0.9,0.1-1.8,0.1-2.7v-11.6h14.8V529.5z M121.7,520.5v8.2h9.5v-8.2
				H121.7z"/>
			<path class="st7" d="M151.7,519.1l1.7,1c-0.2,0.4-0.5,0.9-0.7,1.4c-1.6,5.7-5.8,10.3-11.4,12.2l-2.3-2.1c3.1-0.8,5.9-2.5,8-4.9
				c1.3-1.6,2.2-3.4,2.8-5.4h-5.6c-1.4,1.9-3.1,3.5-5,4.8l-2.2-1.7c2.6-1.5,4.7-3.7,6.2-6.3c0.4-0.6,0.7-1.3,0.9-2l2.9,0.9l-1.3,2
				h3.9l1.7-0.2h0.2c-0.4-0.7-1-1.8-1.5-2.5l1.6-0.6c0.6,0.9,1.1,1.8,1.6,2.7L151.7,519.1z M153.9,514.9c0.6,0.9,1.1,1.8,1.6,2.7
				l-1.6,0.6c-0.4-0.9-0.9-1.8-1.5-2.7L153.9,514.9z"/>
		</g>
		<g>
			<path class="st7" d="M280.2,517.3h4c4.4,0,7.2,2.3,7.2,7.3s-2.8,7.3-7,7.3h-4.2V517.3z M284,529.6c2.7,0,4.4-1.5,4.4-5
				s-1.7-4.9-4.4-4.9h-0.9v9.9H284z"/>
			<path class="st7" d="M297.2,519.8h-4.1v-2.5h11.1v2.5h-4.1v12.1h-2.9V519.8z"/>
			<path class="st7" d="M306.6,517.3h4.7c3.3,0,5.8,1.2,5.8,4.6s-2.5,4.8-5.7,4.8h-1.9v5.2h-2.9V517.3z M311.2,524.4
				c2,0,3-0.8,3-2.5s-1.1-2.3-3.1-2.3h-1.6v4.8H311.2z"/>
			<path class="st7" d="M319.6,525.7c0-3.6,1-7.1,2.9-10.2l1.8,0.8c-1.6,2.9-2.4,6.1-2.4,9.4c0,3.3,0.8,6.5,2.4,9.4l-1.8,0.8
				C320.6,532.8,319.6,529.3,319.6,525.7z"/>
			<path class="st7" d="M347.4,517.8v15.8h-2.5v-1h-9.4v1h-2.4v-15.8h5.1c0.2-0.9,0.4-1.8,0.5-2.6l2.8,0.3l-0.9,2.3H347.4z
				 M335.5,520v2h9.4v-2H335.5z M335.5,524.2v2h9.4v-2H335.5z M344.9,530.4v-2h-9.4v2H344.9z"/>
			<path class="st7" d="M357.9,528.3c-0.5-0.8-1.1-1.5-1.8-2.1v7.4h-2.3v-6.8c-0.8,0.7-1.6,1.3-2.4,1.9c-0.3-0.8-0.7-1.5-1.1-2.2
				c2.3-1.3,4.2-3.2,5.5-5.5H351v-2.1h2.8v-3.7h2.3v3.7h1.3l1.4,0.8c-0.6,1.5-1.4,2.9-2.4,4.2l2.9,2.5L357.9,528.3z M369.2,530.8
				v2.2H358v-2.2h4.6v-7.2h-3.8v-2.3h3.8v-5.9h2.4v5.9h3.7v2.3H365v7.2H369.2z"/>
			<path class="st7" d="M387.7,528.7c-1.1,0.7-2.2,1.3-3.3,1.8c1.4,0.6,2.8,1.1,4.3,1.3c-0.5,0.5-1,1.2-1.3,1.9
				c-4.1-0.8-6.5-2.7-8-5.8l-2.3,1.4v1.7l3.9-0.5v1.8l-7.9,1.1l-0.3-1.9l1.9-0.2v-1.1l-3.2,0.8c-0.4-0.6-0.8-1.2-1.3-1.7
				c2.1-0.2,4.2-0.8,6.1-1.6h-5.7v-1.9h7.6v-1h-0.8c-0.1-0.5-0.3-0.9-0.5-1.3h1c0.2,0,0.3-0.1,0.3-0.2v-0.8h-1.7v2.8h-1.9v-2.8h-1.5
				v2.4h-1.8V521h3.3v-0.7h-4.1v-1.5h1.2l-1.2-0.7c0.7-0.8,1.2-1.8,1.5-2.9l1.8,0.5c-0.1,0.3-0.2,0.6-0.4,0.8h1.2v-1.3h1.9v1.3h3.3
				v1.5h-3.3v0.8h3.8v1.5h-3.8v0.7h3.5v2.3c0,0.7-0.1,1.1-0.6,1.3l-0.9,0.2h2v1h7.7v1.9h-1.9L387.7,528.7z M374.7,518.8V518h-1.9
				l-0.5,0.8H374.7z M383.3,522.6h-2V516h2V522.6z M381.5,527.7c0.3,0.6,0.8,1.2,1.3,1.7c1-0.5,1.9-1.1,2.8-1.7H381.5z M387.6,523.2
				c0,1-0.2,1.5-0.9,1.8c-1,0.3-2,0.4-3,0.3c-0.1-0.6-0.4-1.2-0.7-1.8h2.1c0.3,0,0.4-0.1,0.4-0.3v-7.8h2.1V523.2z"/>
			<path class="st7" d="M394.8,529c0.8,1.4,2.3,1.9,4.3,2s6.8,0,9.4-0.2c-0.3,0.8-0.6,1.6-0.7,2.4h-8.7c-2.4-0.1-4-0.6-5.3-2.1
				l-2.8,2.3l-1.2-2.4c0.9-0.5,1.8-1.2,2.7-1.8V525h-2.2v-2.1h4.5L394.8,529z M393.4,520.2c-0.9-1.2-1.9-2.2-3.1-3.1l1.7-1.4
				c1.3,0.8,2.4,1.8,3.3,3L393.4,520.2z M396.9,521.1c-0.6-0.5-1.3-0.8-2-1.1c1.4-1.2,2.3-2.8,2.8-4.6l2.2,0.5l-0.6,1.5h1.4v-2.2
				h2.3v2.2h4.3v2H403v1.7h5.1v1.9h-12.7v-1.9L396.9,521.1z M398.2,519.4c-0.4,0.6-0.8,1.2-1.3,1.7h3.8v-1.7H398.2z M397,529.9v-5.8
				h9.9v5.8H397z M399.3,528h5.2v-2h-5.2V528z"/>
			<path class="st7" d="M415,535.1c1.6-2.9,2.4-6.1,2.4-9.4c0-3.3-0.8-6.5-2.4-9.4l1.7-0.8c2,3,3,6.6,3,10.2c0,3.6-1,7.2-3,10.2
				L415,535.1z"/>
		</g>
		<g>
			<path class="st7" d="M571.1,529.1c0.8,1.4,2.2,1.9,4.2,2s7,0,9.7-0.2c-0.3,0.7-0.5,1.5-0.7,2.3c-2.4,0.1-6.6,0.2-9,0.1
				s-3.9-0.7-5.1-2.2l-2.6,2.3l-1.1-2.3c0.8-0.5,1.6-1.1,2.4-1.8V525h-2.2v-2.1h4.4L571.1,529.1z M569.8,520.3
				c-0.9-1.2-1.9-2.3-3-3.2l1.8-1.4c1.1,0.9,2.2,2,3.1,3.1L569.8,520.3z M577,529.4h-5.1v-1.7h5.1v-0.8h-4v-5.7h4v-0.7h-4.4v-1.6
				h4.4v-1.1h2.3v1.1h4.5v1.6h-4.5v0.7h4.2v5.7h-4.2v0.8h5.4v1.7h-5.4v1.3H577V529.4z M574.1,518.5h-2v-2.7h12.4v2.7h-2.2v-1h-8.2
				V518.5z M575,523.4h2v-0.8h-2V523.4z M577,525.5v-0.7h-2v0.7H577z M579.3,522.6v0.8h2.1v-0.8H579.3z M581.4,524.8h-2.1v0.7h2.1
				V524.8z"/>
			<path class="st7" d="M604,524.4c-0.3,2-0.9,3.9-1.9,5.6c0.8,0.8,1.8,1.5,2.8,2c-0.5,0.4-1,1-1.3,1.6c-1-0.5-2-1.1-2.7-2
				c-0.7,0.9-1.5,1.5-2.5,2c-0.3-0.6-0.6-1.1-1.1-1.5c0,0.5-0.2,0.9-0.6,1.2c-0.7,0.3-1.5,0.4-2.3,0.3c-0.1-0.6-0.2-1.2-0.5-1.8h1.5
				c0.2,0,0.3,0,0.3-0.3v-6l-2.2,0.2c-0.1,2.6-0.4,5.8-1.7,8c-0.4-0.4-0.9-0.8-1.4-1.1c1.1-1.9,1.3-4.5,1.4-6.7h-1v-0.6l-0.7,0.3
				v5.6c0.1,0.7-0.2,1.4-0.7,1.9c-0.8,0.3-1.6,0.5-2.4,0.4c-0.1-0.7-0.3-1.4-0.6-2h1.4c0.2,0,0.3-0.1,0.3-0.3v-4.8l-1.4,0.5
				l-0.6-2.1l2-0.7V521h-1.7v-2h1.7v-3.8h2v3.8h1.1v2.1h-1.1v2.4l0.9-0.4l0.2,0.9h0.6v-6.2h1.6c0.2-0.9,0.4-1.7,0.5-2.6l2.2,0.5
				l-0.9,2.1h2.2v5.7h0.6v1.8h-0.6v6.2c0,0.2,0,0.3-0.1,0.4c0.9-0.4,1.8-1.1,2.4-1.9c-0.6-1.1-1.1-2.4-1.5-3.6l1.7-0.4
				c0.3,0.8,0.6,1.5,1,2.2c0.3-0.7,0.6-1.4,0.8-2.2h-3.5v-1.9h4.6L604,524.4z M595.7,523.6v-4h-2.2v4.2L595.7,523.6z M594.6,520.1
				c0.4,0.8,0.7,1.6,1,2.4l-1.1,0.7c-0.2-0.7-0.6-1.8-0.9-2.6L594.6,520.1z M595.1,530.7H594v-4.5h1.1V530.7z M600.1,518.8
				c0,1.5-0.2,3.6-1.3,4.9c-0.4-0.4-0.9-0.8-1.4-1.1c0.7-1.2,1.1-2.5,1-3.9V516h4.3v5.7h0.5c0.1,0,0.1-0.1,0.2-0.4v-1.6
				c0.4,0.3,0.8,0.5,1.3,0.7c0,0.7-0.1,1.3-0.2,2c-0.1,0.3-0.3,0.5-0.5,0.7l-0.8,0.2h-0.8c-0.4,0-0.7-0.2-1-0.4
				c-0.3-0.3-0.4-0.7-0.4-1.8v-3.4h-0.9L600.1,518.8z"/>
			<path class="st7" d="M618.7,524.1v2.2h4.2v2.2h-4.2v2.1c0,0.7,0.1,0.8,0.6,0.8h1.5c0.5,0,0.6-0.4,0.7-2.2
				c0.6,0.4,1.3,0.7,2.1,0.9c-0.2,2.6-0.8,3.4-2.5,3.4h-2.2c-2.1,0-2.7-0.7-2.7-2.9v-2.1h-2.5c-0.5,2-1.8,4-5.4,5.2
				c-0.4-0.7-0.9-1.3-1.5-1.9c2.7-0.8,3.9-2,4.4-3.3h-3.9v-2.2h4.2v-2.2h-1.7v-0.7c-0.8,0.6-1.7,1.2-2.6,1.6
				c-0.4-0.6-0.9-1.2-1.4-1.8c1.2-0.5,2.3-1.2,3.3-2l-2-1.7l1.5-1.2l1.9,1.5c0.5-0.6,0.9-1.2,1.2-1.8h-4v-2h5.6l1.5,0.7
				c-0.7,2-1.8,3.8-3.2,5.3h7.1c-1.6-1.8-2.8-3.8-3.5-6.1l2.1-0.6c0.2,0.8,0.6,1.5,1,2.2c0.6-0.6,1.2-1.2,1.7-1.9l1.8,1.3l-2.5,2.1
				l0.8,1l2.3-2.1l1.7,1.2l-2.6,2.1c0.9,0.8,1.9,1.4,3,1.8c-0.6,0.6-1.1,1.3-1.6,2c-0.8-0.4-1.6-0.9-2.4-1.4v0.6L618.7,524.1z
				 M616.2,524.1h-2.4v2.2h2.4V524.1z"/>
			<path class="st7" d="M630.4,529c0.9,1.4,2.3,1.9,4.4,2s6.7,0,9.3-0.2c-0.3,0.8-0.5,1.6-0.7,2.4h-8.7c-2.4-0.1-4-0.6-5.3-2.1
				c-0.8,0.7-1.7,1.5-2.8,2.3l-1.1-2.4l2.7-1.8V525h-2.3v-2.1h4.5L630.4,529z M629.1,520.2c-0.9-1.2-2-2.2-3.2-3.1l1.7-1.4
				c1.3,0.8,2.4,1.8,3.3,3L629.1,520.2z M639,524.8c0.9,1.9,2.7,3.3,4.8,3.7c-0.6,0.6-1.1,1.3-1.5,2c-2.1-0.7-3.8-2.2-4.7-4.1
				c-1.1,1.8-2.8,3.3-4.8,4c-0.4-0.6-1-1.2-1.6-1.6c3-1.2,4.2-2.6,4.6-4h-4.6v-2.2h4.9v-1.8h-4.2v-2.1h2c-0.4-0.9-0.9-1.8-1.5-2.6
				l2-0.9c0.7,0.9,1.3,1.9,1.7,3l-1,0.5h4.4l-1-0.4c0.6-1,1.1-2,1.6-3.1l2.4,0.8c-0.6,0.9-1.2,1.8-1.9,2.7h2.5v2.1h-4.7v1.8h5.3v2.2
				L639,524.8z"/>
		</g>
		<g>
			<path class="st7" d="M814.2,533.6h-2.4v-0.8h-6.7v0.8h-2.4V528c-1.4,0.8-2.8,1.4-4.3,1.9c-0.4-0.8-0.8-1.5-1.4-2.1
				c2.5-0.7,4.9-1.8,6.9-3.4l-3-2.7c-0.7,0.6-1.4,1.1-2.2,1.5c-0.4-0.7-1-1.3-1.6-1.8c2.8-1.4,5-3.6,6.5-6.3l2.6,0.5
				c-0.2,0.5-0.6,1-0.9,1.6h4.4l0.4-0.2l1.6,0.9c-1,2.6-2.5,5-4.5,6.9h7L814.2,533.6z M803.6,519.2l-0.9,1c1,0.8,2.3,1.8,3.1,2.6
				c1.1-1.1,2-2.3,2.8-3.6H803.6z M811.8,530.7v-3.8h-6.7v3.8H811.8z"/>
			<path class="st7" d="M823.4,517.4h3.9v2h-3.9v1.5h3.7v3.7c0,0.9-0.1,1.4-0.6,1.7c-0.7,0.3-1.5,0.4-2.2,0.3
				c-0.1-0.6-0.3-1.2-0.5-1.8h1.1c0.1,0,0.2,0,0.2-0.2v-1.7h-1.7v3.8l3.9,2.4l-1.2,2c-0.6-0.6-1.7-1.4-2.7-2.2v4.7h-2.2v-4.8
				c-0.9,1.5-2.1,2.8-3.4,3.9c-0.3-0.8-0.6-1.5-1.1-2.2c1.9-1.3,3.5-3.1,4.5-5.2v-2.4h-1.5v3.5h-2v-5.5h3.5v-1.5h-4v-2h4v-2h2.2
				V517.4z M830.4,528.4h-2.2v-11.1h2.2V528.4z M834.6,515.6v15.2c0,1.3-0.3,2-1,2.3c-1.2,0.4-2.4,0.6-3.6,0.5
				c-0.2-0.8-0.4-1.6-0.8-2.4h2.6c0.4,0,0.5-0.2,0.5-0.5v-15.1H834.6z"/>
			<path class="st7" d="M845.5,517.2c-1.7,0.8-3.5,1.5-5.3,2v2.6h4.8v2.3h-4.8v3.9h4.8v2.2h-4.8v1.6h-2.4v-15l1.3,0.5
				c1.6-0.5,3.1-1.2,4.5-2.1L845.5,517.2z M854.3,528.1c0.1,0.9-0.3,1.8-1,2.3c-1,0.4-2,0.6-3.1,0.5c-0.2-0.9-0.4-1.7-0.8-2.5h2.1
				c0.3,0,0.4-0.1,0.4-0.3v-9.2h-3.5v14.7h-2.3v-17h8.2L854.3,528.1z"/>
			<path class="st7" d="M867,529.5c0,0.8-0.1,1.3-0.5,1.6c-0.5,0.3-1.2,0.4-1.8,0.4c-0.1-0.6-0.3-1.2-0.6-1.8h0.9
				c0.2,0,0.2-0.1,0.2-0.2v-3.9h-1.1v8h-2v-8h-1v5.9h-1.7v-5.4c-0.1,2.4-0.6,4.9-1.6,7.1l-1.7-1.3c1.2-2.6,1.3-6.4,1.3-9.2v-6.4h9.5
				v5.7h-2.8v1.6h2.9L867,529.5L867,529.5z M859.5,518.3v1.6h5.2v-1.6H859.5z M862.1,523.6V522h-2.6v1.6H862.1z M870.1,528.5h-2.2
				v-11.4h2.2V528.5z M874,515.6v15.2c0,1.3-0.2,1.9-0.9,2.3c-1.1,0.4-2.2,0.6-3.4,0.5c-0.1-0.8-0.4-1.6-0.7-2.4h2.4
				c0.3-0.1,0.4-0.1,0.4-0.5v-15.1H874z"/>
			<path class="st7" d="M885.2,521.9c1.4,0.1,2.5,1.2,2.4,2.6c-0.1,1.4-1.2,2.5-2.6,2.4c-1.3-0.1-2.4-1.2-2.4-2.5
				C882.6,523,883.7,521.9,885.2,521.9C885.1,521.9,885.2,521.9,885.2,521.9z"/>
			<path class="st7" d="M909.8,528.7c1,1.6,2.6,2.7,4.5,3c-0.6,0.5-1,1.2-1.4,1.9c-2-0.5-3.7-1.8-4.6-3.6c-0.9,1.4-2.4,2.6-5.2,3.6
				c-0.3-0.7-0.7-1.3-1.3-1.8c2.7-0.8,4-1.9,4.7-3.1h-4.1v-2.1h4.7v-1.9h-1.8c-0.4,0.6-0.8,1.2-1.3,1.8l-1.2-0.9l0,0l-2.3,0.7v4.8
				c0,1.1-0.2,1.7-0.8,2.1c-1,0.3-2,0.5-3,0.4c-0.2-0.7-0.4-1.5-0.6-2.2h1.8c0.2-0.1,0.3-0.1,0.3-0.4v-4.2l-2.2,0.6l-0.6-2.3
				l2.8-0.6V521h-2.4v-2.2h2.4v-3.7h2.3v3.7h1.9v2.2h-1.9v3l2-0.5l0.2,1.2c0.9-1.1,1.6-2.3,2-3.7h-2l-0.2-2.1h1.7
				c0.6-1.2,1.1-2.5,1.5-3.8l2.4,0.6c-0.4,1-1,2.1-1.5,3.1h3.6l-1.2-1.4l1.7-1c1.3,1.2,2.5,2.7,3.5,4.2l-1.9,1.2
				c-0.1-0.3-0.4-0.7-0.6-1.1l-6.4,0.3l1.6,0.3c-0.1,0.5-0.3,1-0.5,1.4h6.8v2h-4v1.9h4.7v2.1H909.8z"/>
			<path class="st7" d="M922.2,525.7l-2.1,0.6v4.9c0,1.1-0.2,1.6-0.9,2c-0.9,0.4-1.9,0.5-2.9,0.4c-0.1-0.7-0.4-1.4-0.7-2.1h1.8
				c0.3,0,0.4-0.1,0.4-0.3v-4.3l-2.1,0.6l-0.6-2.3l2.7-0.5v-3.6h-2.3v-2.2h2.3v-3.7h2.3v3.7h1.8v2.2h-1.8v3l1.8-0.5L922.2,525.7z
				 M931.8,524.2l1.5,0.6c-1.6,5.3-5.4,7.7-10.4,8.8c-0.3-0.7-0.7-1.3-1.1-1.9c1.8-0.3,3.4-0.9,5-1.7c-0.8-0.7-1.6-1.3-2.5-1.9
				l-1.6,0.9c-0.3-0.6-0.8-1.2-1.3-1.7c2.2-0.9,4-2.6,5.2-4.7l1.4,0.2c-0.7-1.4-1.5-2.6-2.5-3.8c0.9-1.2,1.6-2.5,2.2-3.8l2.2,0.5
				c-0.6,1.2-1.4,2.2-2,3.2c0.8,1.1,1.6,2.2,2.3,3.4l-1.8,0.6h0.4c-0.2,0.5-0.5,0.9-0.8,1.3L931.8,524.2L931.8,524.2z M924.3,523.2
				c-0.6-1.5-1.4-2.9-2.3-4.2c0.8-1.2,1.5-2.5,2.1-3.8l2.1,0.5c-0.6,1.1-1.2,2.2-1.9,3.3c0.8,1.1,1.5,2.3,2.1,3.5L924.3,523.2z
				 M926.5,526.2l-0.5,0.6l2.5,1.8c0.8-0.6,1.4-1.5,1.8-2.4L926.5,526.2z M931.8,523.2c-0.7-1.5-1.6-2.9-2.7-4.2
				c0.9-1.2,1.6-2.5,2.3-3.8l2.2,0.5c-0.7,1.2-1.4,2.3-2.1,3.3c0.9,1,1.7,2.2,2.4,3.4L931.8,523.2z"/>
			<path class="st7" d="M948.2,523c1,3.7,2.8,6.9,5.5,8.6c-0.7,0.5-1.3,1.2-1.7,2c-2.3-1.8-3.9-4.3-4.8-7.1
				c-0.8,2.8-2.3,5.2-4.5,7.1l-1.6-1.3v1.3h-2.3v-6.4l-2.6,2.3l-1.2-2c0.9-0.7,2.4-1.8,3.8-3.1v-2.8l-1.6,1
				c-0.6-1.3-1.3-2.6-2.1-3.8l1.8-1.1c0.7,0.9,1.3,1.9,1.9,2.9v-5.4h2.3v16.6c2.6-2.2,4.2-5.4,4.4-8.8h-3.9v-2.3h4v-5.4h2.3v5.4h5.2
				v2.3H948.2z M950.9,520.1c-0.6-1.2-1.3-2.4-2-3.5l1.7-0.9c0.8,1,1.6,2.1,2.2,3.3L950.9,520.1z"/>
		</g>
		<g>
			<path class="st7" d="M775.9,233.6l-1.4,2.2c-1.2-0.8-3.2-2.1-4.5-2.8l1.4-2.2C772.7,231.5,774.9,232.9,775.9,233.6z M777.5,238.1
				c3.2-1.8,5.8-4.3,7.7-7.4l1.5,2.7c-3.4,4.9-8.6,8.3-14.4,9.5l-1.5-2.6C773.1,239.9,775.4,239.2,777.5,238.1z M778.9,229.1
				l-1.4,2.2c-1.1-0.7-3.2-2.1-4.5-2.8l1.4-2.2L778.9,229.1z"/>
			<path class="st7" d="M789.9,232.8h16v3.1h-16V232.8z"/>
			<path class="st7" d="M808.5,241.2c1.6-1.2,2.8-2.8,3.4-4.7c0.5-1.7,0.5-5.4,0.5-7.8c0-0.6,0-1.2-0.1-1.8h2.9
				c-0.2,0.6-0.2,1.2-0.2,1.8c0,2.3,0,6.5-0.6,8.4c-0.6,2.2-1.8,4.2-3.5,5.7L808.5,241.2z M817.6,241.5c0.1-0.5,0.2-1,0.2-1.5v-11.4
				c0.1-0.6,0-1.2-0.2-1.7h3c-0.1,0.6-0.2,1.1-0.2,1.7v10.3c2-1,3.7-2.4,4.9-4.2l1.5,2.2c-1.9,2.2-4.1,4-6.7,5.4l-0.8,0.5
				L817.6,241.5z"/>
			<path class="st7" d="M837.3,231.9c1.4,0.3,2.3,1.6,2,3.1c-0.2,1-1,1.8-2,2c-1.4,0.3-2.8-0.6-3.1-2s0.6-2.8,2-3.1
				C836.6,231.8,837,231.8,837.3,231.9z"/>
			<path class="st7" d="M863.5,228.6l-0.7,1.2c-0.8,1.9-1.8,3.7-3.1,5.4c2,1.7,3.8,3.6,5.5,5.6l-2.2,2c-1.5-2-3.2-3.9-5-5.6
				c-2.1,2.3-4.6,4.2-7.4,5.6l-2-2.2c3.1-1.3,5.8-3.2,8.1-5.6c1.3-1.4,2.3-3,2.9-4.8h-9v-2.8h9.3l2-0.2L863.5,228.6z"/>
			<path class="st7" d="M883.3,232h1.7v2.5h-6.5c0,1.7-0.5,3.5-1.3,5c-0.9,1.6-2.2,3-3.9,3.8l-2.3-1.7c1.5-0.5,2.7-1.5,3.6-2.8
				c0.8-1.3,1.2-2.8,1.2-4.3h-7.3V232H883.3z M872.9,229.3h-2.1v-2.6l2.1,0.2h7.9l2.1-0.2v2.6H872.9z"/>
			<path class="st7" d="M893.7,235.7l-2.4,0.9c-0.5-1.5-1.1-3-1.8-4.5l2.4-0.8C892.3,232.3,893.3,234.6,893.7,235.7z M903.7,231.6
				c-0.2,0.7-0.4,1.1-0.5,1.5c-0.5,2.1-1.4,4.1-2.7,5.8c-1.7,2.2-4,3.8-6.6,4.8l-2-2.1c2.5-0.6,4.8-2.1,6.5-4.1
				c1.4-2,2.3-4.3,2.5-6.7L903.7,231.6z M898,234.5l-2.3,0.9c-0.4-1.5-1-3-1.6-4.4l2.3-0.8C897,231.6,897.6,233,898,234.5L898,234.5
				z"/>
			<path class="st7" d="M923.3,230.4c0,0.3-0.1,0.8-0.1,1c-0.1,2.1-0.3,7.6-1.2,9.6c-0.4,1-1.4,1.7-2.5,1.5h-3.3l-0.3-2.7l2.8,0.3
				c0.5,0.1,1-0.2,1.1-0.7c0.6-1.2,0.8-5.2,0.8-7.3h-4.4c-0.7,5.2-2.6,8.3-6.1,10.8l-2.3-1.8c0.9-0.6,1.8-1.2,2.6-2
				c1.8-1.9,3-4.4,3.2-7h-5.2v-2.6l2.6,0.2h2.8c0.1-0.6,0.1-1.2,0.1-1.8s-0.1-1.2-0.2-1.8h2.9c0,0.5-0.1,1.3-0.1,1.8
				c0,0.6,0,1.2-0.1,1.8h3.7l1.5-0.2L923.3,230.4z"/>
			<path class="st7" d="M927.7,232.8h16v3.1h-16V232.8z"/>
			<path class="st7" d="M953,231.5h4.3v2.1H953v1.4h3.8v5c0,0.9-0.1,1.5-0.7,1.8c-0.7,0.3-1.5,0.5-2.3,0.4c-0.1-0.7-0.2-1.4-0.5-2
				h1.2c0.2,0,0.2,0,0.2-0.2v-2.9H953v6.5h-2.2v-6.5h-1.6v5h-2.1V235h3.7v-1.4h-4.5v-2.1h1.5l-1.8-0.8c0.9-1.6,1.5-3.3,1.8-5.1
				l2.2,0.5c-0.1,0.6-0.3,1.2-0.5,1.8h1.3v-2.5h2.2v2.5h3.5v2.1H953V231.5z M950.8,231.5V230h-2l-0.7,1.5H950.8z M960.4,237.9h-2.2
				v-11h2.2V237.9z M964,225.6v15.3c0,1.2-0.3,1.9-1,2.2c-1.1,0.4-2.2,0.6-3.4,0.5c-0.1-0.8-0.4-1.6-0.7-2.4h2.4
				c0.3,0,0.4-0.1,0.4-0.5v-15.1H964z"/>
			<path class="st7" d="M972.5,226c-0.5,1.4-1.2,2.8-1.9,4.1v13.5h-2.4v-9.8l-1.2,1.4c-0.4-0.9-0.8-1.7-1.3-2.5
				c2-2.1,3.5-4.6,4.5-7.4L972.5,226z M978.7,230.7v2.1h5.1v2.1h-5.1v2.2h5.4v2.2h-5.4v4.3h-2.4v-12.9h-0.7
				c-0.7,1.4-1.6,2.6-2.6,3.8c-0.6-0.6-1.2-1.1-1.8-1.6c1.9-2.2,3.4-4.7,4.2-7.5l2.2,0.6c-0.3,0.8-0.6,1.7-0.9,2.5h7.6v2.2
				L978.7,230.7L978.7,230.7z"/>
		</g>
	</g>
</g>
</svg>
