<svg xmlns="http://www.w3.org/2000/svg" viewBox="0 0 143.7 123.5">
  <defs>
    <style>
      .a {
        fill: #008030;
      }

      .b {
        isolation: isolate;
      }

      .c {
        fill: #fff;
      }
    </style>
  </defs>
  <title>footlogo</title>
  <g>
    <rect class="a" y="109" width="142.1" height="14.43"/>
    <g class="b">
      <path class="a" d="M55.3,75.2h3.3v1.4H55.8A8.9,8.9,0,0,0,59,79.8a3.8,3.8,0,0,0-.9,1.4l-1.5-1.4a11.3,11.3,0,0,1-1.3-2v2.9a6.2,6.2,0,0,0,.1,1.5H53.9c0-.4.1-.9.1-1.5V77.8a8.5,8.5,0,0,1-3.1,3.4,4.1,4.1,0,0,0-.8-1.2,8.3,8.3,0,0,0,3.3-3.4H51.2v-.5a2.9,2.9,0,0,0-.6,1.1,11.9,11.9,0,0,1-.8-1.6c0,.4.1,1.1.1,1.7v4.9H48.4a7.1,7.1,0,0,0,.1-1.6V77.8a10.4,10.4,0,0,1,.1-1.6,11.9,11.9,0,0,1-1.4,3,3,3,0,0,0-.6-1.4,10.7,10.7,0,0,0,1.8-4H47V72.5h1.5V71.5a4.2,4.2,0,0,0-.1-1.3h1.5v2.4H51v1.3a10.1,10.1,0,0,0,1-3.1l1.3.3c-.1.1-.1.3-.2.7l-.2.6H54v-.9c0-.5-.1-.9-.1-1.2h1.5a4.1,4.1,0,0,0-.1,1.2v.9h2.9v1.5H55.3Zm-2.8-1.6L51.8,75l-1.1-.8.2-.3h-1a10,10,0,0,0,1.3,2.1v-.7H54V73.6Z"/>
      <path class="a" d="M70.3,72.4h1.2v1.4H68.1a13.9,13.9,0,0,0,.9,5,3.6,3.6,0,0,0,.8,1.3l.3.3c.2,0,.3-.7.5-2a3.7,3.7,0,0,0,1.2.7,6.9,6.9,0,0,1-.7,2.5,1.4,1.4,0,0,1-.9.5,3,3,0,0,1-1.8-1.2,11.6,11.6,0,0,1-1.4-4,16.6,16.6,0,0,1-.3-3.1H60V72.4h6.6v-1a3.1,3.1,0,0,0-.1-1h1.6c0,.3-.1.6-.1,1a4.1,4.1,0,0,0,.1,1h1.5l-1.2-1.5,1.1-.5,1.3,1.4-1.1.6Zm-8.5,4.2H60.4V75.3h5.8v1.4H64v3l2.7-.6v1.3l-6,1.2h-.5L60,80.1l2.6-.3V76.6Z"/>
      <path class="a" d="M75.4,74.4a8.2,8.2,0,0,1-2,1.2l-.8-1.4a10.4,10.4,0,0,0,3.3-1.8,7,7,0,0,0,2-2.2h1.6a7.7,7.7,0,0,0,2.2,2.2A15.2,15.2,0,0,0,85,74.2a4.6,4.6,0,0,0-.7,1.4,9.7,9.7,0,0,1-2.2-1.2v1H75.4Zm-.7,3.4H73.2V76.4H84.3v1.5H78.4A20.1,20.1,0,0,1,77,80.3l4.1-.3-1.3-1.4L81,78a19.3,19.3,0,0,1,3,3.5l-1.2.8c-.4-.7-.6-.8-.8-1.2l-2.3.3-4.4.4-1.7.2-.2-1.6h1.9a13.4,13.4,0,0,0,1.4-2.6ZM80.9,74h.6a11.4,11.4,0,0,1-2.8-2.5A9.4,9.4,0,0,1,76,74h4.9Z"/>
      <path class="a" d="M89.1,80.9a4.9,4.9,0,0,0,.1,1.3H87.6a5.3,5.3,0,0,0,.1-1.4V77.6l-1.4,1.1a6.1,6.1,0,0,0-.7-1.4,9.2,9.2,0,0,0,2.2-1.7,9,9,0,0,0,1.4-2H86V72.2h1.7V71.1a2.8,2.8,0,0,0-.1-.9h1.6c0,.3-.1.5-.1,1v1h1.3l.6.7c-.1.2-.2.3-.2.5a11.6,11.6,0,0,1-1.3,2.2,8.2,8.2,0,0,0,2,1.7,5.4,5.4,0,0,0-.7,1.3,12.2,12.2,0,0,1-1.7-1.5Zm5.5-.6h3.1v1.6H90.3V80.2h2.9V75.2H91V73.8h2.2V71.5a5.7,5.7,0,0,0-.1-1.3h1.6c0,.5-.1.8-.1,1.3v2.3h2.7v1.4H94.6Z"/>
      <path class="a" d="M4.8,87.6a8.6,8.6,0,0,0-.3-1.3l1.7-.2a7.4,7.4,0,0,0,.2,1.2l.2,1.1L9.3,88l1.3-.3.2,1.6H9.6l-2.8.5L7.2,92l3.1-.5,1.3-.3.3,1.6H10.6l-3.1.5L8,95.9a3.7,3.7,0,0,0,.3,1.4l-1.8.3a7.6,7.6,0,0,0-.1-1.4l-.5-2.5-3.2.5a4.2,4.2,0,0,0-1.3.3l-.3-1.6,1.4-.2,3.2-.5-.4-2.1-2.5.4-1.4.3-.2-1.6L2.6,89,5,88.7Z"/>
      <path class="a" d="M15.7,89.4a2,2,0,0,0-.3-1l1.6-.2a4.6,4.6,0,0,0,.1,1l.2,1,3.9-.7.9-.2.9.8-.4.7a6.8,6.8,0,0,1-2.5,3.3,4.7,4.7,0,0,0-1.2-.9,6.9,6.9,0,0,0,2.2-2.3h-.5l-3.1.5,1,4.8a7.5,7.5,0,0,0,.2,1.1l-1.6.2a3.8,3.8,0,0,0-.1-1l-.9-4.9-1.1.2-1.2.3-.2-1.5h1.2l1.1-.2Z"/>
      <path class="a" d="M27.3,86.5v5.9H25.6V86.5Zm5.9,0v2.9a12,12,0,0,1-.4,4,4.6,4.6,0,0,1-2.5,3,9.4,9.4,0,0,1-2.6,1,3.5,3.5,0,0,0-.9-1.5,6.1,6.1,0,0,0,2.8-1.1,3.4,3.4,0,0,0,1.8-3.3,12.2,12.2,0,0,0,.1-2.2V87.7a3.8,3.8,0,0,0-.1-1.2Z"/>
      <path class="a" d="M41.2,89.4a5.8,5.8,0,0,1-.1,1,7.6,7.6,0,0,1-1.2,4.7,8.1,8.1,0,0,1-3.4,2.3,4.9,4.9,0,0,0-1-1.5,5.7,5.7,0,0,0,2.2-1.1c1.4-1,1.8-2.2,1.8-4.6a1.9,1.9,0,0,0-.1-.8Zm5.3-1.6c-.2.2-.2.2-.5.9a10.4,10.4,0,0,1-2.1,2.6l-1.5,1.1a3.4,3.4,0,0,0-1.2-1.2A5.7,5.7,0,0,0,43.1,90a5.5,5.5,0,0,0,1.3-1.7H35.8V86.8h9.8Z"/>
      <path class="a" d="M49.6,96.1H48V94.5h7.6V88.9H48.2V87.3h9.1a3.4,3.4,0,0,0-.1,1.1v7.1c0,.7.1,1,.1,1.4H55.6v-.8Z"/>
      <path class="a" d="M59.7,90.8H70.9v1.8H59.7Z"/>
      <path class="a" d="M75.9,91.2v.4a13.2,13.2,0,0,1-2.2,5.1,4.6,4.6,0,0,0-1.5-.9,10.4,10.4,0,0,0,2.2-5Zm5.9-2.8h.8A1.4,1.4,0,0,1,81.5,87a1.5,1.5,0,0,1,3,0,1.5,1.5,0,0,1-1,1.4v1.5H78.9v7.7H77.2V89.9H72.7V88.3h4.5v-2h1.7v2Zm-.1,2.4a13.6,13.6,0,0,0,2.3,5,7.5,7.5,0,0,0-1.5.9,18.5,18.5,0,0,1-2.1-4.9l-.2-.6Zm.5-3.8a.7.7,0,0,0,.8.8.8.8,0,0,0,.9-.8.9.9,0,0,0-.9-.9A.8.8,0,0,0,82.2,87Z"/>
      <path class="a" d="M88.1,86.5a4.5,4.5,0,0,0-.1,1.3v7.4a8.3,8.3,0,0,0,3.5-1.4,7.8,7.8,0,0,0,2.7-3,5.5,5.5,0,0,0,1.2,1.4,10.4,10.4,0,0,1-2.9,3A11.3,11.3,0,0,1,87.8,97l-.8.2-.9-1a4.1,4.1,0,0,0,.2-1.4V86.5Z"/>
      <path class="a" d="M96.9,90.8h11.2v1.8H96.9Z"/>
      <path class="a" d="M110.8,89.5a27.1,27.1,0,0,1,3.4,1.8l-.8,1.5a13.1,13.1,0,0,0-3.5-1.9Zm-.6,5.9a11.7,11.7,0,0,0,3.7-.9,7.8,7.8,0,0,0,3.8-2.8,11.4,11.4,0,0,0,1.5-2.9,5.3,5.3,0,0,0,1.4,1.1,10.3,10.3,0,0,1-2,3.3,11.6,11.6,0,0,1-7.1,3.7l-.9.2Zm1.6-9a18,18,0,0,1,3.4,1.7l-.8,1.4a14.6,14.6,0,0,0-3.5-1.8Z"/>
      <path class="a" d="M123.9,96.9h-1.2V95.5h6.2V93.7h-5.7V92.3h5.7V90.6h-6.1V89.2h7.5v8.3h-1.5v-.6Z"/>
      <path class="a" d="M133.3,95.2a13.4,13.4,0,0,0,3.8-1A8.2,8.2,0,0,0,141,91a9,9,0,0,0,1.3-2.6,5.8,5.8,0,0,0,1.4,1.3,11.2,11.2,0,0,1-4.1,5.1,13.4,13.4,0,0,1-5,1.9l-.8.3Zm1.1-8.1a15,15,0,0,1,3.3,2.5L136.6,91a11.5,11.5,0,0,0-3.3-2.6Z"/>
    </g>
    <g class="b">
      <path class="c" d="M43.9,118.1a.8.8,0,0,0,.3.7,1.4,1.4,0,0,0,1.3.6c.8,0,1.4-.4,1.4-1.1a.8.8,0,0,0-.5-.8c-.2-.2-.3-.2-1.5-.5a3.8,3.8,0,0,1-1.4-.5,1.8,1.8,0,0,1-.6-1.4c0-1.3,1-2.1,2.5-2.1a2.5,2.5,0,0,1,2.2.9A2.8,2.8,0,0,1,48,115H46.8a1.6,1.6,0,0,0-.3-.6,1.3,1.3,0,0,0-1.1-.5c-.8,0-1.3.4-1.3,1s.2.6.6.8l1.2.3,1.5.6a1.7,1.7,0,0,1,.7,1.5,2.3,2.3,0,0,1-.5,1.5,2.9,2.9,0,0,1-2.2.7,3.2,3.2,0,0,1-1.8-.5,1.6,1.6,0,0,1-.8-1,6.4,6.4,0,0,1-.2-.7Z"/>
      <path class="c" d="M50.6,113.2a3.4,3.4,0,0,0-.1,1.1v4.8a4.5,4.5,0,0,0,.1,1.2H49.2a4.5,4.5,0,0,0,.1-1.2v-4.8a3.4,3.4,0,0,0-.1-1.1Z"/>
      <path class="c" d="M56.4,120.3l-.5-1-2.3-3.5a4.4,4.4,0,0,1-.6-1v4.1c0,.6.1,1,.1,1.4H51.8a5.3,5.3,0,0,0,.1-1.4v-4.6a3.7,3.7,0,0,0-.1-1.1h1.4a4.4,4.4,0,0,0,.5.9l2.3,3.4.7,1.1a4.5,4.5,0,0,1-.1-1.2v-3a4.1,4.1,0,0,0-.1-1.2h1.3v7.1Z"/>
      <path class="c" d="M65.1,118.1a2.3,2.3,0,0,1-.6,1.3,3,3,0,0,1-2.4,1,3.2,3.2,0,0,1-2.3-.9,3.8,3.8,0,0,1-.9-2.7,3.9,3.9,0,0,1,1-2.9,2.8,2.8,0,0,1,2.2-.9,2.9,2.9,0,0,1,1.7.5,2.2,2.2,0,0,1,1,.9,3.6,3.6,0,0,0,.3.7l-1.3.3a1.5,1.5,0,0,0-.4-.8,1.7,1.7,0,0,0-1.3-.5c-1.2,0-2,1-2,2.6s.8,2.6,2,2.6a1.8,1.8,0,0,0,1.5-.6,3.4,3.4,0,0,0,.3-.8Z"/>
      <path class="c" d="M71.2,120.3H66.1a4.5,4.5,0,0,0,.1-1.2v-4.8a3.7,3.7,0,0,0-.1-1.1h5v1.2H67.4v1.9h3.3v1.2H67.4v2.1h3.8Z"/>
      <path class="c" d="M77.2,120.3c0-.4.1-.7.1-1.2v-4.9H75.9v-1.2h2.6v7.2Z"/>
      <path class="c" d="M82.6,118.5l.3.5a1.2,1.2,0,0,0,1,.4,1.1,1.1,0,0,0,1-.4c.5-.4.7-1,.7-2.1a.7.7,0,0,1-.4.5,2.4,2.4,0,0,1-1.5.4,2.2,2.2,0,0,1-2.4-2.3,2.5,2.5,0,0,1,1.1-2.1A2.9,2.9,0,0,1,84,113a2.5,2.5,0,0,1,2.4,1.8,4.5,4.5,0,0,1,.3,1.8,5.2,5.2,0,0,1-.9,3.1,2.5,2.5,0,0,1-1.9.7,2.2,2.2,0,0,1-1.7-.6c-.4-.2-.5-.4-.8-.9Zm2.8-3.1a1.4,1.4,0,0,0-1.5-1.4,1.4,1.4,0,0,0-1.4,1.4,1.3,1.3,0,0,0,1.4,1.5A1.5,1.5,0,0,0,85.4,115.4Z"/>
      <path class="c" d="M89,118.5c.1.3.1.4.2.5a1.4,1.4,0,0,0,1.1.4,1.3,1.3,0,0,0,1-.4,3.2,3.2,0,0,0,.7-2.1l-.5.5a2.3,2.3,0,0,1-1.4.4,2.3,2.3,0,0,1-2.5-2.3,2.4,2.4,0,0,1,1.2-2.1,2.4,2.4,0,0,1,1.5-.4,2.6,2.6,0,0,1,2.5,1.8,8.2,8.2,0,0,1,.2,1.8,4.6,4.6,0,0,1-.9,3.1,2.5,2.5,0,0,1-1.9.7,2.2,2.2,0,0,1-1.7-.6,2.4,2.4,0,0,1-.8-.9Zm2.8-3.1a1.5,1.5,0,0,0-1.5-1.4,1.5,1.5,0,0,0-.1,2.9A1.6,1.6,0,0,0,91.8,115.4Z"/>
      <path class="c" d="M95.3,118.5a1.1,1.1,0,0,0,.3.5,1.1,1.1,0,0,0,1,.4,1.3,1.3,0,0,0,1-.4,3.2,3.2,0,0,0,.7-2.1l-.5.5a2.1,2.1,0,0,1-1.4.4,2.2,2.2,0,0,1-2.4-2.3,2.5,2.5,0,0,1,1.1-2.1,2.4,2.4,0,0,1,1.5-.4,2.6,2.6,0,0,1,2.5,1.8,4.7,4.7,0,0,1,.2,1.8,4.6,4.6,0,0,1-.9,3.1,2.8,2.8,0,0,1-3.6.1,1.7,1.7,0,0,1-.7-.9Zm2.8-3.1a1.5,1.5,0,0,0-3,0,1.4,1.4,0,0,0,1.5,1.5A1.5,1.5,0,0,0,98.1,115.4Z"/>
    </g>
    <g class="b">
      <path class="a" d="M76.2,27.3A23.3,23.3,0,0,1,86.5,17a19.5,19.5,0,0,1,8.2-2.4,57.8,57.8,0,0,1,9.3.3,76.9,76.9,0,0,1,9.4,1.6,21,21,0,0,1,5.2,2.1c1.2.7,1.1,1.6-.1,2.2a26.2,26.2,0,0,1-5.2,2.2,40.6,40.6,0,0,1-6.9,1.6c-2.3.2-4.7.1-7,.1a61.6,61.6,0,0,0-9.6.2c-5.6.6-8.7,4.2-11.8,8.1l-1,1.4c-.9,1.3-1.4,1.3-2.4-.1a91.1,91.1,0,0,0-9.7-10.9,22.3,22.3,0,0,0-6.5-4.5A15.8,15.8,0,0,0,54,17.8L40.5,16.5,27.4,15.4H17.8A24.2,24.2,0,0,1,6.1,12.1,6.3,6.3,0,0,1,4.9,11c-2.8-3-2.5-4.4.9-6.4s8-3,12.3-3.6S24.6.2,27.9.1H42.2c3.2.1,6.4.5,9.6.9A23.4,23.4,0,0,1,63,5.8a26.7,26.7,0,0,1,7.1,8.9,85,85,0,0,1,3.8,8.1c.3.6.5,1.3.8,1.9A27.1,27.1,0,0,0,76.2,27.3Z"/>
      <g>
        <path class="a" d="M6.5,44.7C6.5,36.8,12.9,32,21.3,32a14.1,14.1,0,0,1,9.1,3l-2.2,2a10.7,10.7,0,0,0-6.8-2.3c-6.4,0-10.5,3.8-10.5,9.9s4,10.1,10.3,10.1A11.6,11.6,0,0,0,28.9,52l2.4,1.9A15.4,15.4,0,0,1,21,57.4C12.8,57.4,6.5,52.7,6.5,44.7Z"/>
        <path class="a" d="M48.3,47.4H39.2l-2.4,5.4H33.7l8.4-17.6h3.4l8.4,17.6H50.6Zm-.8-1.8L46.3,43c-.9-2-1.7-3.9-2.5-6h-.1c-.8,2.1-1.6,4-2.5,6L40,45.6Z"/>
        <path class="a" d="M74.3,52.8l-8.2-7.5H61.7v7.5H58.5V35.2h7.8c5,0,8.6,1.3,8.6,5s-2.2,4.3-5.6,4.9l8.5,7.7ZM61.7,43.5h4.1c3.9,0,6-1.1,6-3.3s-2.1-3.2-6-3.2H61.7Z"/>
        <path class="a" d="M81,35.2H95.6v1.9H84.2v4.4H95.6v1.9H84.2v7.5H95.7v1.9H81Z"/>
        <path class="a" d="M103.1,35.2h14.2v1.9H106.2v4.4h11.1v1.9H106.2v7.5h11.5v1.9H103.1Z"/>
        <path class="a" d="M139.8,52.8l-8.2-7.5h-4.5v7.5H124V35.2h7.8c5,0,8.6,1.3,8.6,5s-2.2,4.3-5.6,4.9l8.5,7.7Zm-12.7-9.3h4.2c3.9,0,6-1.1,6-3.3s-2.1-3.2-6-3.2h-4.2Z"/>
      </g>
    </g>
  </g>
</svg>
