<?xml version="1.0" encoding="utf-8"?>
<!-- Generator: Adobe Illustrator 23.0.2, SVG Export Plug-In . SVG Version: 6.00 Build 0)  -->
<svg version="1.1" id="レイヤー_1" xmlns="http://www.w3.org/2000/svg" xmlns:xlink="http://www.w3.org/1999/xlink" x="0px"
	 y="0px" width="143.7px" height="123.5px" viewBox="0 0 143.7 123.5" style="enable-background:new 0 0 143.7 123.5;"
	 xml:space="preserve">
<style type="text/css">
	.st0{fill:#3D3D3D;}
	.st1{fill:#FFFFFF;}
	.st2{fill:#008030;}
</style>
<title>footlogo</title>
<g>
	<rect y="109" class="st0" width="143.1" height="14.4"/>
	<g>
		<path class="st0" d="M55.3,75.2h3.3v1.4h-2.8c0.8,1.3,1.9,2.4,3.2,3.2c-0.4,0.4-0.7,0.9-0.9,1.4l-1.5-1.4c-0.5-0.6-0.9-1.3-1.3-2
			v2.9c0,0.5,0,1,0.1,1.5h-1.5c0-0.4,0.1-0.9,0.1-1.5v-2.9c-0.7,1.4-1.8,2.6-3.1,3.4c-0.2-0.4-0.5-0.9-0.8-1.2
			c1.4-0.8,2.6-2,3.3-3.4h-2.2v-0.5c-0.3,0.3-0.5,0.7-0.6,1.1c-0.3-0.5-0.6-1-0.8-1.6c0,0.4,0.1,1.1,0.1,1.7v4.9h-1.5
			c0.1-0.5,0.1-1.1,0.1-1.6v-2.8c0-0.5,0-1.1,0.1-1.6c-0.3,1.1-0.8,2.1-1.4,3c-0.1-0.5-0.3-1-0.6-1.4c0.9-1.2,1.5-2.6,1.8-4H47v-1.3
			h1.5v-1c0-0.4,0-0.9-0.1-1.3h1.5v2.4H51v1.3c0.5-1,0.8-2,1-3.1l1.3,0.3c-0.1,0.1-0.1,0.3-0.2,0.7l-0.2,0.6H54v-0.9
			c0-0.5-0.1-0.9-0.1-1.2h1.5c-0.1,0.4-0.1,0.8-0.1,1.2v0.9h2.9v1.5h-2.9V75.2z M52.5,73.6L51.8,75l-1.1-0.8l0.2-0.3h-1
			c0.3,0.8,0.8,1.5,1.3,2.1v-0.7H54v-1.7H52.5z"/>
		<path class="st0" d="M70.3,72.4h1.2v1.4h-3.4c0,1.7,0.3,3.4,0.9,5c0.2,0.5,0.4,0.9,0.8,1.3l0.3,0.3c0.2,0,0.3-0.7,0.5-2
			c0.4,0.3,0.8,0.5,1.2,0.7c-0.1,0.9-0.3,1.7-0.7,2.5c-0.2,0.3-0.5,0.5-0.9,0.5c-0.7-0.2-1.4-0.6-1.8-1.2c-0.7-1.2-1.2-2.6-1.4-4
			c-0.2-1-0.3-2.1-0.3-3.1H60v-1.4h6.6v-1c0-0.3,0-0.7-0.1-1h1.6c0,0.3-0.1,0.6-0.1,1c0,0.3,0,0.7,0.1,1h1.5l-1.2-1.5l1.1-0.5
			l1.3,1.4l-1.1,0.6H70.3z M61.8,76.6h-1.4v-1.3h5.8v1.4H64v3l2.7-0.6v1.3l-6,1.2h-0.5L60,80.1l2.6-0.3v-3.2H61.8z"/>
		<path class="st0" d="M75.4,74.4c-0.6,0.5-1.3,0.9-2,1.2l-0.8-1.4c1.2-0.4,2.3-1,3.3-1.8c0.8-0.6,1.5-1.3,2-2.2h1.6
			c0.6,0.9,1.3,1.6,2.2,2.2c1,0.7,2.1,1.3,3.3,1.8c-0.3,0.4-0.5,0.9-0.7,1.4c-0.8-0.3-1.5-0.7-2.2-1.2v1h-6.7V74.4z M74.7,77.8h-1.5
			v-1.4h11.1v1.5h-5.9c-0.4,0.8-0.9,1.6-1.4,2.4l4.1-0.3l-1.3-1.4L81,78c1.1,1,2.1,2.2,3,3.5l-1.2,0.8c-0.4-0.7-0.6-0.8-0.8-1.2
			l-2.3,0.3l-4.4,0.4L73.6,82l-0.2-1.6h1.9c0.6-0.8,1-1.7,1.4-2.6L74.7,77.8z M80.9,74h0.6c-1.1-0.7-2-1.5-2.8-2.5
			c-0.7,1-1.6,1.9-2.7,2.5H80.9z"/>
		<path class="st0" d="M89.1,80.9c0,0.4,0,0.9,0.1,1.3h-1.6c0.1-0.5,0.1-0.9,0.1-1.4v-3.2l-1.4,1.1c-0.2-0.5-0.4-1-0.7-1.4
			c0.8-0.5,1.6-1,2.2-1.7c0.6-0.6,1-1.3,1.4-2H86v-1.4h1.7v-1.1c0-0.3,0-0.6-0.1-0.9h1.6c0,0.3-0.1,0.5-0.1,1v1h1.3l0.6,0.7
			c-0.1,0.2-0.2,0.3-0.2,0.5c-0.4,0.8-0.8,1.5-1.3,2.2c0.6,0.7,1.2,1.2,2,1.7c-0.3,0.4-0.5,0.8-0.7,1.3c-0.6-0.4-1.2-0.9-1.7-1.5
			L89.1,80.9z M94.6,80.3h3.1v1.6h-7.4v-1.7h2.9v-5H91v-1.4h2.2v-2.3c0-0.4,0-0.9-0.1-1.3h1.6c0,0.5-0.1,0.8-0.1,1.3v2.3h2.7v1.4
			h-2.7V80.3z"/>
		<path class="st0" d="M4.8,87.6c-0.1-0.4-0.2-0.9-0.3-1.3l1.7-0.2c0,0.4,0.1,0.8,0.2,1.2l0.2,1.1L9.3,88l1.3-0.3l0.2,1.6H9.6
			l-2.8,0.5L7.2,92l3.1-0.5l1.3-0.3l0.3,1.6h-1.3l-3.1,0.5L8,95.9c0,0.5,0.1,1,0.3,1.4l-1.8,0.3c0-0.5,0-0.9-0.1-1.4l-0.5-2.5
			l-3.2,0.5c-0.4,0-0.9,0.1-1.3,0.3l-0.3-1.6l1.4-0.2l3.2-0.5l-0.4-2.1l-2.5,0.4l-1.4,0.3l-0.2-1.6L2.6,89L5,88.7L4.8,87.6z"/>
		<path class="st0" d="M15.7,89.4c0-0.4-0.1-0.7-0.3-1l1.6-0.2c0,0.3,0,0.7,0.1,1l0.2,1l3.9-0.7l0.9-0.2l0.9,0.8l-0.4,0.7
			c-0.5,1.3-1.3,2.5-2.5,3.3c-0.3-0.4-0.8-0.7-1.2-0.9c0.9-0.6,1.7-1.4,2.2-2.3h-0.5l-3.1,0.5l1,4.8c0,0.4,0.1,0.7,0.2,1.1l-1.6,0.2
			c0-0.3,0-0.7-0.1-1l-0.9-4.9L15,91.8l-1.2,0.3l-0.2-1.5h1.2l1.1-0.2L15.7,89.4z"/>
		<path class="st0" d="M27.3,86.5v5.9h-1.7v-5.9H27.3z M33.2,86.5v2.9c0.1,1.3,0,2.7-0.4,4c-0.3,1.3-1.3,2.4-2.5,3
			c-0.8,0.5-1.7,0.8-2.6,1c-0.2-0.6-0.5-1.1-0.9-1.5c1-0.1,2-0.5,2.8-1.1c1.2-0.6,1.9-1.9,1.8-3.3c0.1-0.7,0.1-1.5,0.1-2.2v-1.6
			c0-0.4,0-0.8-0.1-1.2H33.2z"/>
		<path class="st0" d="M41.2,89.4c0,0.3,0,0.7-0.1,1c0.1,1.7-0.3,3.3-1.2,4.7c-0.9,1-2.1,1.8-3.4,2.3c-0.2-0.6-0.6-1.1-1-1.5
			c0.8-0.2,1.6-0.6,2.2-1.1c1.4-1,1.8-2.2,1.8-4.6c0-0.3,0-0.5-0.1-0.8H41.2z M46.5,87.8C46.3,88,46.3,88,46,88.7
			c-0.6,1-1.3,1.9-2.1,2.6l-1.5,1.1c-0.3-0.5-0.7-0.9-1.2-1.2c0.7-0.3,1.4-0.7,1.9-1.2c0.5-0.5,1-1.1,1.3-1.7h-8.6v-1.5h9.8
			L46.5,87.8z"/>
		<path class="st0" d="M49.6,96.1H48v-1.6h7.6v-5.6h-7.4v-1.6h9.1c-0.1,0.4-0.1,0.7-0.1,1.1v7.1c0,0.7,0.1,1,0.1,1.4h-1.7v-0.8H49.6
			z"/>
		<path class="st0" d="M59.7,90.8h11.2v1.8H59.7V90.8z"/>
		<path class="st0" d="M75.9,91.2v0.4c-0.4,1.8-1.1,3.6-2.2,5.1c-0.4-0.4-0.9-0.7-1.5-0.9c1.2-1.4,1.9-3.2,2.2-5L75.9,91.2z
			 M81.8,88.4h0.8c-0.7-0.1-1.1-0.7-1.1-1.4c0-0.8,0.7-1.5,1.5-1.5s1.5,0.7,1.5,1.5c0,0.6-0.4,1.2-1,1.4v1.5h-4.6v7.7h-1.7v-7.7
			h-4.5v-1.6h4.5v-2h1.7v2L81.8,88.4z M81.7,90.8c0.4,1.8,1.2,3.5,2.3,5c-0.5,0.2-1,0.5-1.5,0.9c-0.9-1.5-1.6-3.2-2.1-4.9l-0.2-0.6
			L81.7,90.8z M82.2,87c-0.1,0.4,0.2,0.7,0.6,0.8c0.1,0,0.1,0,0.2,0c0.4,0.1,0.8-0.3,0.9-0.7c0,0,0-0.1,0-0.1c0-0.5-0.4-0.9-0.9-0.9
			l0,0c-0.4,0-0.8,0.4-0.8,0.8C82.2,86.9,82.2,87,82.2,87z"/>
		<path class="st0" d="M88.1,86.5C88,86.9,88,87.4,88,87.8v7.4c1.3-0.2,2.5-0.7,3.5-1.4c1.1-0.7,2.1-1.8,2.7-3
			c0.3,0.5,0.7,1,1.2,1.4c-0.8,1.2-1.7,2.2-2.9,3c-1.4,0.9-3,1.6-4.7,1.8L87,97.2l-0.9-1c0.1-0.5,0.2-0.9,0.2-1.4v-8.3H88.1z"/>
		<path class="st0" d="M96.9,90.8h11.2v1.8H96.9V90.8z"/>
		<path class="st0" d="M110.8,89.5c1.2,0.5,2.3,1.1,3.4,1.8l-0.8,1.5c-1.1-0.8-2.2-1.4-3.5-1.9L110.8,89.5z M110.2,95.4
			c1.3-0.1,2.5-0.4,3.7-0.9c1.5-0.5,2.9-1.5,3.8-2.8c0.6-0.9,1.1-1.9,1.5-2.9c0.4,0.4,0.9,0.8,1.4,1.1c-0.5,1.2-1.1,2.3-2,3.3
			c-1.9,2-4.4,3.3-7.1,3.7l-0.9,0.2L110.2,95.4z M111.8,86.4c1.2,0.4,2.3,1,3.4,1.7l-0.8,1.4c-1.1-0.8-2.3-1.4-3.5-1.8L111.8,86.4z"
			/>
		<path class="st0" d="M123.9,96.9h-1.2v-1.4h6.2v-1.8h-5.7v-1.4h5.7v-1.7h-6.1v-1.4h7.5v8.3h-1.5v-0.6H123.9z"/>
		<path class="st0" d="M133.3,95.2c1.3-0.1,2.6-0.5,3.8-1c1.6-0.6,3-1.8,3.9-3.2c0.6-0.8,1-1.7,1.3-2.6c0.4,0.5,0.9,0.9,1.4,1.3
			c-0.8,2.1-2.3,3.8-4.1,5.1c-1.5,1-3.2,1.6-5,1.9l-0.8,0.3L133.3,95.2z M134.4,87.1c1.2,0.7,2.3,1.5,3.3,2.5l-1.1,1.4
			c-0.9-1.1-2-1.9-3.3-2.6L134.4,87.1z"/>
	</g>
	<g>
		<path class="st1" d="M43.9,118.1c0,0.3,0.1,0.5,0.3,0.7c0.3,0.4,0.8,0.7,1.3,0.6c0.8,0,1.4-0.4,1.4-1.1c0-0.3-0.2-0.7-0.5-0.8
			c-0.2-0.2-0.3-0.2-1.5-0.5c-0.5-0.1-1-0.2-1.4-0.5c-0.4-0.4-0.6-0.9-0.6-1.4c0-1.3,1-2.1,2.5-2.1c0.8-0.1,1.7,0.2,2.2,0.9
			c0.2,0.3,0.3,0.7,0.4,1.1h-1.2c-0.1-0.2-0.2-0.4-0.3-0.6c-0.3-0.3-0.7-0.5-1.1-0.5c-0.8,0-1.3,0.4-1.3,1s0.2,0.6,0.6,0.8l1.2,0.3
			l1.5,0.6c0.5,0.3,0.7,0.9,0.7,1.5c0,0.5-0.2,1.1-0.5,1.5c-0.6,0.5-1.4,0.8-2.2,0.7c-0.6,0-1.3-0.2-1.8-0.5c-0.4-0.2-0.7-0.6-0.8-1
			c-0.1-0.2-0.1-0.5-0.2-0.7L43.9,118.1z"/>
		<path class="st1" d="M50.6,113.2c-0.1,0.4-0.1,0.7-0.1,1.1v4.8c0,0.4,0,0.8,0.1,1.2h-1.4c0.1-0.4,0.1-0.8,0.1-1.2v-4.8
			c0-0.4,0-0.7-0.1-1.1H50.6z"/>
		<path class="st1" d="M56.4,120.3l-0.5-1l-2.3-3.5c-0.2-0.3-0.4-0.6-0.6-1v4.1c0,0.6,0.1,1,0.1,1.4h-1.3c0.1-0.5,0.1-0.9,0.1-1.4
			v-4.6c0-0.4,0-0.7-0.1-1.1h1.4c0.1,0.3,0.3,0.6,0.5,0.9l2.3,3.4l0.7,1.1c-0.1-0.4-0.1-0.8-0.1-1.2v-3c0-0.4,0-0.8-0.1-1.2h1.3v7.1
			L56.4,120.3z"/>
		<path class="st1" d="M65.1,118.1c-0.1,0.5-0.3,0.9-0.6,1.3c-0.6,0.7-1.5,1-2.4,1c-0.9,0-1.7-0.3-2.3-0.9c-0.6-0.7-1-1.7-0.9-2.7
			c-0.1-1.1,0.3-2.1,1-2.9c0.6-0.6,1.4-0.9,2.2-0.9c0.6,0,1.2,0.2,1.7,0.5c0.4,0.2,0.8,0.5,1,0.9c0.1,0.2,0.2,0.5,0.3,0.7l-1.3,0.3
			c0-0.3-0.2-0.6-0.4-0.8c-0.3-0.3-0.8-0.5-1.3-0.5c-1.2,0-2,1-2,2.6s0.8,2.6,2,2.6c0.6,0,1.1-0.2,1.5-0.6c0.1-0.3,0.2-0.5,0.3-0.8
			L65.1,118.1z"/>
		<path class="st1" d="M71.2,120.3h-5.1c0.1-0.4,0.1-0.8,0.1-1.2v-4.8c0-0.4,0-0.7-0.1-1.1h5v1.2h-3.7v1.9h3.3v1.2h-3.3v2.1h3.8
			L71.2,120.3z"/>
		<path class="st1" d="M77.2,120.3c0-0.4,0.1-0.7,0.1-1.2v-4.9h-1.4V113h2.6v7.2L77.2,120.3z"/>
		<path class="st1" d="M82.6,118.5l0.3,0.5c0.3,0.3,0.6,0.4,1,0.4c0.4,0.1,0.8-0.1,1-0.4c0.5-0.4,0.7-1,0.7-2.1
			c0,0.2-0.2,0.4-0.4,0.5c-0.4,0.3-1,0.4-1.5,0.4c-1.2,0.1-2.3-0.8-2.4-2c0-0.1,0-0.2,0-0.3c0-0.8,0.4-1.6,1.1-2.1
			c0.5-0.3,1-0.4,1.6-0.4c1.1,0,2.1,0.7,2.4,1.8c0.2,0.6,0.3,1.2,0.3,1.8c0,1.1-0.3,2.2-0.9,3.1c-0.5,0.5-1.2,0.7-1.9,0.7
			c-0.6,0.1-1.2-0.2-1.7-0.6c-0.4-0.2-0.5-0.4-0.8-0.9L82.6,118.5z M85.4,115.4c0-0.8-0.6-1.4-1.4-1.4c0,0-0.1,0-0.1,0
			c-0.8,0-1.4,0.6-1.4,1.4l0,0c-0.1,0.7,0.4,1.4,1.1,1.5c0.1,0,0.2,0,0.3,0C84.7,116.9,85.4,116.2,85.4,115.4L85.4,115.4z"/>
		<path class="st1" d="M89,118.5c0.1,0.3,0.1,0.4,0.2,0.5c0.3,0.3,0.7,0.4,1.1,0.4c0.4,0,0.7-0.1,1-0.4c0.5-0.6,0.7-1.3,0.7-2.1
			l-0.5,0.5c-0.4,0.3-0.9,0.4-1.4,0.4c-1.3,0.1-2.4-0.8-2.5-2.1c0-0.1,0-0.1,0-0.2c0-0.9,0.5-1.7,1.2-2.1c0.4-0.3,1-0.4,1.5-0.4
			c1.1,0,2.2,0.7,2.5,1.8c0.1,0.6,0.2,1.2,0.2,1.8c0.1,1.1-0.2,2.2-0.9,3.1c-0.5,0.5-1.2,0.7-1.9,0.7c-0.6,0.1-1.2-0.2-1.7-0.6
			c-0.3-0.2-0.6-0.5-0.8-0.9L89,118.5z M91.8,115.4c-0.1-0.8-0.7-1.4-1.5-1.4c-0.8,0.2-1.3,1-1.1,1.8c0.1,0.5,0.5,1,1,1.1
			C91,116.9,91.7,116.2,91.8,115.4z"/>
		<path class="st1" d="M95.3,118.5c0.1,0.2,0.2,0.4,0.3,0.5c0.2,0.3,0.6,0.5,1,0.4c0.4,0,0.7-0.1,1-0.4c0.5-0.6,0.7-1.3,0.7-2.1
			l-0.5,0.5c-0.4,0.3-0.9,0.4-1.4,0.4c-1.2,0.1-2.3-0.8-2.4-2c0-0.1,0-0.2,0-0.3c0-0.8,0.4-1.6,1.1-2.1c0.4-0.3,1-0.4,1.5-0.4
			c1.1,0,2.2,0.7,2.5,1.8c0.2,0.6,0.3,1.2,0.2,1.8c0.1,1.1-0.2,2.2-0.9,3.1c-1,0.9-2.5,0.9-3.6,0.1c-0.3-0.2-0.6-0.5-0.7-0.9
			L95.3,118.5z M98.1,115.4c0-0.8-0.7-1.5-1.5-1.5s-1.5,0.7-1.5,1.5c-0.1,0.8,0.5,1.4,1.3,1.5c0.1,0,0.1,0,0.2,0
			C97.4,116.9,98.1,116.2,98.1,115.4z"/>
	</g>
	<g>
		<path class="st2" d="M76.2,27.3c2.2-4.4,5.9-8.1,10.3-10.3c2.5-1.4,5.3-2.2,8.2-2.4c3.1-0.2,6.2,0,9.3,0.3
			c3.2,0.3,6.3,0.9,9.4,1.6c1.8,0.5,3.6,1.2,5.2,2.1c1.2,0.7,1.1,1.6-0.1,2.2c-1.6,0.9-3.4,1.7-5.2,2.2c-2.2,0.7-4.6,1.3-6.9,1.6
			c-2.3,0.2-4.7,0.1-7,0.1c-3.2-0.2-6.4-0.1-9.6,0.2c-5.6,0.6-8.7,4.2-11.8,8.1l-1,1.4c-0.9,1.3-1.4,1.3-2.4-0.1
			c-2.9-3.9-6.2-7.5-9.7-10.9c-1.9-1.9-4.1-3.4-6.5-4.5C57,18.3,55.5,18,54,17.8l-13.5-1.3l-13.1-1.1h-9.6
			c-4.1-0.1-8.1-1.2-11.7-3.3c-0.4-0.3-0.8-0.7-1.2-1.1C2.1,8,2.4,6.6,5.8,4.6s8-3,12.3-3.6s6.5-0.8,9.8-0.9h14.3
			c3.2,0.1,6.4,0.5,9.6,0.9c4.1,0.6,8,2.2,11.2,4.8c3,2.4,5.4,5.5,7.1,8.9c1.4,2.6,2.7,5.3,3.8,8.1c0.3,0.6,0.5,1.3,0.8,1.9
			C75.2,25.6,75.7,26.5,76.2,27.3z"/>
		<g>
			<path class="st2" d="M6.5,44.7c0-7.9,6.4-12.7,14.8-12.7c3.3-0.1,6.5,1,9.1,3l-2.2,2c-1.9-1.5-4.3-2.3-6.8-2.3
				c-6.4,0-10.5,3.8-10.5,9.9s4,10.1,10.3,10.1c2.8,0.1,5.5-0.9,7.7-2.7l2.4,1.9c-2.9,2.4-6.6,3.6-10.3,3.5
				C12.8,57.4,6.5,52.7,6.5,44.7z"/>
			<path class="st2" d="M48.3,47.4h-9.1l-2.4,5.4h-3.1l8.4-17.6h3.4l8.4,17.6h-3.3L48.3,47.4z M47.5,45.6L46.3,43
				c-0.9-2-1.7-3.9-2.5-6h-0.1c-0.8,2.1-1.6,4-2.5,6L40,45.6L47.5,45.6z"/>
			<path class="st2" d="M74.3,52.8l-8.2-7.5h-4.4v7.5h-3.2V35.2h7.8c5,0,8.6,1.3,8.6,5s-2.2,4.3-5.6,4.9l8.5,7.7L74.3,52.8z
				 M61.7,43.5h4.1c3.9,0,6-1.1,6-3.3s-2.1-3.2-6-3.2h-4.1V43.5z"/>
			<path class="st2" d="M81,35.2h14.6v1.9H84.2v4.4h11.4v1.9H84.2v7.5h11.5v1.9H81V35.2z"/>
			<path class="st2" d="M103.1,35.2h14.2v1.9h-11.1v4.4h11.1v1.9h-11.1v7.5h11.5v1.9h-14.6V35.2z"/>
			<path class="st2" d="M139.8,52.8l-8.2-7.5h-4.5v7.5H124V35.2h7.8c5,0,8.6,1.3,8.6,5s-2.2,4.3-5.6,4.9l8.5,7.7L139.8,52.8z
				 M127.1,43.5h4.2c3.9,0,6-1.1,6-3.3s-2.1-3.2-6-3.2h-4.2V43.5z"/>
		</g>
	</g>
</g>
</svg>
