<?xml version="1.0" encoding="utf-8"?>
<!-- Generator: Adobe Illustrator 23.0.2, SVG Export Plug-In . SVG Version: 6.00 Build 0)  -->
<svg version="1.1" id="レイヤー_1" xmlns="http://www.w3.org/2000/svg" xmlns:xlink="http://www.w3.org/1999/xlink" x="0px"
	 y="0px" width="53.2px" height="54.9px" viewBox="0 0 53.2 54.9" style="enable-background:new 0 0 53.2 54.9;"
	 xml:space="preserve">
<style type="text/css">
	.st0{fill:#2F43A2;}
</style>
<title>logo</title>
<g>
	<path class="st0" d="M26.4,0h1.2c0.2,0,0.3,0,0.3,0.2v1.5c0,0.3,0,0.3,0.3,0.3l3,0.4c1.2,0.2,2.4,0.5,3.6,0.9
		c1.2,0.4,2.5,0.9,3.6,1.5c1.3,0.6,2.5,1.4,3.7,2.3l1.6,1.2c1.1,1,2.1,2,3.1,3.1c0.8,1,1.6,2,2.3,3.1c0.8,1.3,1.5,2.6,2,4
		c0.5,1.1,0.9,2.3,1.2,3.5c0.2,0.6,0.3,1.2,0.4,1.8c0.3,1.2,0.4,2.4,0.4,3.6c0,0.4,0,0.5-0.4,0.5h-1.3c-0.3,0-0.3-0.1-0.3-0.3
		s-0.2-2.2-0.4-3.3c-0.1-0.7-0.3-1.5-0.5-2.2c-0.2-0.9-0.5-1.8-0.9-2.7c-0.4-1.1-1-2.2-1.6-3.2c-0.9-1.5-1.9-2.9-3.1-4.2
		c-0.7-0.7-1.4-1.5-2.2-2.2l-3.3-2.3c-0.7-0.4-1.4-0.8-2.2-1.1l-2.3-1c-1.5-0.5-3.1-0.9-4.7-1.1l-1.7-0.2c-0.2-0.1-0.3,0-0.3,0.1
		s0,0.4,0.2,0.5H29c1.3,0.1,2.5,0.3,3.7,0.7l2.9,1c1.4,0.5,2.7,1.2,3.9,2l2.4,1.7l0.9,0.9l1.4,1.4l1.8,2.2c0.7,0.9,1.3,1.9,1.8,2.9
		c0.7,1.4,1.3,2.8,1.7,4.3c0.3,1,0.5,1.9,0.7,2.9l0.3,2.7v0.3h-1.8c-0.3,0-0.3,0-0.3-0.2c0-0.3,0-0.6-0.1-0.9
		c-0.1-1.7-0.5-3.4-1-5.1c-0.5-1.5-1.2-2.9-2-4.2c-0.3-0.7-0.7-1.3-1.2-1.9c-0.8-1.1-1.6-2-2.6-2.9c-1.1-1.1-2.4-2-3.7-2.8l-1.7-0.9
		L34.2,8c-1.7-0.7-3.5-1.1-5.3-1.3c-1.8-0.2-3.5-0.1-5.3,0.1c-1.5,0.2-2.9,0.5-4.3,1c-1,0.3-2.1,0.7-3,1.3L14.6,10l-3.4,2.8
		C9.9,14,8.8,15.4,7.9,17c-0.9,1.3-1.6,2.7-2.1,4.2c-0.5,1.5-0.8,3-1,4.6c-0.1,0.5-0.1,1.1-0.1,1.6c-0.1,0.2-0.1,0.2-0.3,0.2H2.9
		c-0.3,0-0.3,0-0.3-0.3c0-0.4,0-0.9,0.1-1.3c0.1-0.8,0.3-1.7,0.4-2.5c0.2-0.9,0.4-1.9,0.7-2.8c0.4-1.2,1-2.4,1.6-3.5
		c0.4-0.8,0.9-1.6,1.5-2.4c0.4-0.7,0.9-1.3,1.4-1.9c0.6-0.7,1.3-1.3,2-2c0.8-0.7,1.6-1.3,2.4-1.9c1.2-0.9,2.5-1.6,3.8-2.2
		c1.3-0.6,2.8-1.1,4.2-1.5l2.5-0.5h1.7c0.2-0.1,0.4-0.3,0.2-0.5S25,4.2,24.9,4.2h-1.3c-1.1,0.1-2.3,0.3-3.4,0.6
		c-1.4,0.4-2.8,0.9-4.1,1.5c-0.9,0.4-1.7,0.9-2.5,1.4l-2,1.3c-1,0.7-1.9,1.5-2.7,2.4l-1.2,1.4l-1.4,1.8l-0.9,1.3
		c-0.8,1.4-1.5,2.9-2,4.4c-0.5,1.5-0.9,3-1.1,4.5c-0.1,0.8-0.2,1.6-0.2,2.4l0,0C2,27.6,2,27.6,1.6,27.6H0.3c-0.3,0-0.3,0-0.3-0.3
		s0.1-1.5,0.2-2.2c0.1-1.2,0.3-2.4,0.6-3.5c0.3-1.1,0.7-2.2,1.1-3.3l0.9-2c0.7-1.3,1.5-2.6,2.4-3.8c0.6-0.8,1.2-1.6,1.9-2.3
		c0.7-0.8,1.5-1.5,2.4-2.1l1.9-1.5L14,5.1c1.1-0.7,2.3-1.2,3.6-1.6l2.8-0.9l2.3-0.3L24.8,2c0.3,0,0.4-0.1,0.4-0.4V0.2L25.4,0H26.4z
		 M1.6,26.4L1.6,26.4z"/>
	<path class="st0" d="M28.1,53.5v1.1c0,0.2,0,0.2-0.3,0.2c-0.7,0.1-1.5,0.1-2.2,0c-0.2,0-0.2,0-0.2-0.2v-2.1l0,0
		c0-0.1,0-0.1-0.1-0.1s-0.1,0-0.1,0.1c-0.1,0.4-0.2,0.9-0.4,1.3c-0.1,0.3-0.2,0.6-0.2,0.9l-0.3,0.2L23,54.6
		c-1.3-0.2-2.5-0.4-3.7-0.8l-2.8-1c-1.2-0.4-2.3-1-3.3-1.7c-0.8-0.4-1.6-0.9-2.4-1.5c-0.6-0.4-1.2-1-1.8-1.5c-0.6-0.5-1.2-1-1.7-1.6
		l-1.7-1.9l-1.5-2.2c-0.8-1.3-1.5-2.6-2.1-4l-0.7-1.8c-0.2-0.9-0.5-1.8-0.7-2.7c-0.2-0.8-0.3-1.7-0.4-2.5C0.1,30.7,0,30,0,29.3
		C0,29,0,29,0.3,29h1.6C2,29,2,29.1,2.1,29.2l0,0c0,2.1,0.4,4.2,1,6.2c0.4,1.1,0.8,2.2,1.3,3.3c0.5,1,1,2,1.6,2.9
		c0.5,0.8,1.1,1.6,1.8,2.3c0.8,1.1,1.7,2,2.7,2.9l1.7,1.2c0.9,0.7,1.9,1.4,2.9,1.9c1,0.6,2.1,1.1,3.2,1.4l2.1,0.7l2.7,0.5h0.2v-0.4
		c0-0.1,0-0.1-0.1-0.1l-0.9-0.2l-1.7-0.4c-0.9-0.2-1.7-0.4-2.5-0.8L15,49.2l-2.6-1.7l-1.7-1.3c-0.7-0.6-1.3-1.3-1.9-2
		c-0.6-0.6-1.1-1.3-1.7-2c-0.7-0.9-1.3-1.9-1.8-2.9c-0.6-1.3-1.2-2.6-1.6-3.9c-0.3-1.1-0.6-2.1-0.8-3.2s-0.1-1.4-0.2-2.1
		s-0.1-0.6-0.1-0.9S2.7,29,2.9,29h1.6l0.2,0.2v1c0.2,1.4,0.4,2.7,0.8,4C5.7,35.1,6,36,6.4,36.8c0.6,1.4,1.4,2.8,2.3,4.1
		c0.7,0.9,1.5,1.9,2.3,2.7l1.7,1.6c0.1,0,0.2,0.1,0.2,0.2l0,0c0,0.1,0.1,0.1,0.2,0.1l0.5,0.3l1,0.8l1.7,1l1.1,0.6l2.9,1.1l2.1,0.5
		l2.7,0.3c0.2,0,0.3,0,0.3-0.3v-1c0-0.1,0-0.2,0.2-0.2h2c0.4,0,0.5,0.1,0.5,0.4v0.9c0,0.2,0,0.2,0.3,0.2h1.5l1.6-0.3l2.8-0.8
		l2.9-1.4c0.7-0.3,1.3-0.7,1.9-1.1l1.7-1.3c0.4-0.3,0.7-0.6,1-1l0.9-0.9l0.8-0.9h0.3c0-0.2,0.1-0.4,0.3-0.5c1.1-1.6,2-3.2,2.8-4.9
		c0.4-1.1,0.8-2.2,1-3.4c0.2-0.9,0.3-1.7,0.4-2.5c0.1-0.4,0.1-0.9,0.1-1.3c0-0.4,0.1-0.4,0.4-0.4h1.5c0.1,0,0.2,0.1,0.2,0.2v0
		c0,0.5,0,0.9-0.1,1.4c-0.1,0.9-0.2,1.9-0.4,2.8c-0.2,0.9-0.4,1.8-0.8,2.7c-0.3,0.9-0.6,1.8-1,2.6l-0.9,1.7c-0.6,1-1.3,1.9-2,2.8
		c-0.9,1.2-1.9,2.3-3.1,3.3c-1.3,1.1-2.8,2.1-4.3,2.9c-1.8,0.9-3.8,1.6-5.8,2.1l-1.8,0.4c-0.1,0-0.3,0-0.3,0.2s0.2,0.3,0.3,0.3h0.3
		l2.5-0.5l2.5-0.8c1.1-0.4,2.1-0.9,3.1-1.5c1-0.5,1.9-1.1,2.8-1.8l2.6-2.3c1-1.1,1.9-2.2,2.8-3.4c0.8-1.2,1.4-2.4,2-3.7
		c0.8-1.6,1.3-3.3,1.7-5l0.3-1.8c0-0.5,0.1-0.9,0.1-1.4c0.1-0.3,0.1-0.6,0.1-0.9c0-0.3,0-0.3,0.3-0.3h1.5c0.2,0,0.2,0,0.2,0.2v1.3
		c-0.2,1.6-0.4,3.3-0.8,4.9C52,36.9,51.6,38,51.1,39c-0.7,1.8-1.7,3.4-2.8,5c-0.9,1.4-2,2.7-3.2,3.8l-1.8,1.6
		c-0.8,0.7-1.7,1.3-2.6,1.8c-0.9,0.6-1.9,1.2-3,1.6l-1.8,0.7c-1.2,0.5-2.5,0.9-3.8,1.1L29.4,55h-0.1c-0.3,0-0.4-0.1-0.5-0.4
		c-0.1-0.6-0.3-1.2-0.5-1.8c0-0.1-0.1-0.2-0.1-0.3h-0.1v1.2V53.5z M8,40.1L8,40.1z"/>
	<path class="st0" d="M28,39.4V43c0.1,0.5,0.1,1,0,1.5c0,0.3,0,0.3-0.3,0.4h-2.1c-0.2,0-0.2,0-0.3-0.2V34.3h-0.2
		c-0.3,0.3-0.5,0.7-0.7,1l-2,3.4l-1.5,2.5c-0.5,0.7-0.8,1.4-1.3,2c-0.2,0.5-0.5,1-0.8,1.4c-0.1,0.2-0.2,0.2-0.3,0.2h-2.3
		c-0.1,0-0.2-0.1-0.1-0.2l0.5-0.8l1.5-2.5l1.8-3.2l2.4-3.9c0.1-0.1,0.1-0.2,0.1-0.4h-6.2c-0.2,0-0.2,0-0.2-0.2
		c-0.1-0.5-0.1-1.1-0.1-1.6c0-0.2,0.1-0.2,0.3-0.2h8.9l0.2-0.2v-2.3c0-0.2,0-0.2,0.2-0.2h2.2c0.2,0,0.3,0,0.3,0.2v2.1
		c0,0.3,0,0.3,0.3,0.3H37c0.2,0,0.2,0,0.2,0.2c0,0.2,0.1,1.1,0.1,1.6s-0.1,0.3-0.3,0.3h-6.1c-0.1,0-0.2,0.1-0.1,0.2s0,0.1,0.1,0.2
		l1.3,2.2c0.8,1.2,1.5,2.4,2.2,3.6c0.4,0.7,0.8,1.4,1.3,2.1l1.5,2.4c0,0.1,0,0.1,0.1,0.2c0,0.1-0.1,0.1-0.1,0.2h-0.1
		c-0.7-0.1-1.5-0.1-2.2,0c-0.2,0-0.3-0.1-0.4-0.3L32,40.7c-0.5-1-1.1-2-1.7-2.9l-2.1-3.6h-0.1c-0.1,0-0.1,0-0.1,0.1L28,39.4L28,39.4
		z"/>
	<path class="st0" d="M32.6,16.6H37c0.2,0,0.2,0.1,0.2,0.3v1.3c0,0.4,0,0.4-0.4,0.4H16.2c-0.3,0-0.3,0-0.3-0.3v-1.4
		c0-0.3,0-0.3,0.4-0.3H25c0.2,0,0.2,0,0.2-0.2s0-0.4-0.3-0.4h-8.1c-0.2,0-0.3,0-0.3-0.3v-1.6l0.2-0.2H25c0.2,0,0.2,0,0.2-0.2
		s0-0.3-0.2-0.3h-8.8c-0.2-0.1-0.1-0.4-0.1-0.6v-1.3c0-0.2,0.1-0.2,0.3-0.2H25c0.1,0,0.2-0.1,0.2-0.2c0,0,0,0,0,0v-0.9
		c0-0.2,0-0.2,0.3-0.2h2.2c0.2,0,0.2,0,0.2,0.2V11c0.1,0.3,0.1,0.3,0.3,0.3h8.3c0.4,0,0.4,0.1,0.4,0.4v1.4c0,0.3,0,0.3-0.3,0.3h-8.4
		c-0.2,0-0.3,0-0.3,0.2s0.1,0.3,0.3,0.3h8.3v1.7c0,0.2-0.1,0.2-0.2,0.2h-8.1c-0.2,0.1-0.3,0.1-0.3,0.4s0.1,0.2,0.3,0.2h4.4
		L32.6,16.6z"/>
	<path class="st0" d="M37.2,25.1v-5.7c0-0.1,0-0.2-0.2-0.2H16.2c-0.3,0-0.3,0-0.3,0.2v9.4c0,0.3,0,0.3,0.3,0.3h2.1
		c0.3,0,0.3,0,0.3-0.3v-1.9c0-0.4,0-0.4,0.4-0.4h5.5c0.1,0,0.2,0.1,0.4,0h0.4c0.2,0.1,0.4,0.1,0.6,0H34c0.5,0,0.5,0,0.5,0.4v1.9
		c0,0.2,0,0.3,0.2,0.3H37c0.2,0,0.2-0.1,0.2-0.3V25.1z M18.9,21.2h15.5c0.1,0.2,0,0.4-0.3,0.4H18.8c-0.1,0-0.2-0.1-0.2-0.2v0
		C18.6,21.3,18.6,21.2,18.9,21.2z M34.2,24.5H18.7c-0.1-0.1-0.1-0.2,0-0.4h15.5c0.2,0,0.3,0.1,0.3,0.3c0,0.2-0.1,0.3-0.3,0.3V24.5z"
		/>
</g>
</svg>
