<svg xmlns="http://www.w3.org/2000/svg" viewBox="0 0 423.6 437.3">
  <defs>
    <style>
      .a {
        fill: #efefef;
      }
    </style>
  </defs>
  <title>graylogo</title>
  <g>
    <path class="a" d="M210.6,0c3.2.1,6.4.2,9.6.5s1.9.2,1.9,2.1c.1,3.6.2,7.2.1,10.7s.5,2.5,2.6,2.7c7.8,1,15.7,2,23.6,3.2a159,159,0,0,1,28.7,7.3c9.8,3.3,19.7,6.6,28.8,11.6s20.6,11.3,29.9,18.6c4,3.2,8.4,6,12.3,9.4a197.9,197.9,0,0,1,24.7,24.6,219.3,219.3,0,0,1,34.9,56.5,202.4,202.4,0,0,1,9.6,28.1,138.6,138.6,0,0,1,3.2,14.2,185.2,185.2,0,0,1,3.1,28.8c.1,3.7.1,3.8-3.5,3.8H409.7c-2.1,0-2.3-.3-2.4-2.4a210.5,210.5,0,0,0-2.9-26.1c-1-5.7-2.4-11.4-3.8-17.1a182.3,182.3,0,0,0-7.5-21.9c-3.4-8.9-8-17.1-12.7-25.3a177.7,177.7,0,0,0-24.9-33.5c-5.7-6.1-11.3-12.1-17.8-17.4a184.7,184.7,0,0,0-26.2-18.5A146.2,146.2,0,0,0,294.4,51c-6.2-2.8-12.5-5.4-18.9-7.7a192.5,192.5,0,0,0-36.8-9.2c-4.7-.7-9.4-1.2-14.1-1.7-1.7-.2-2.2.1-2.3,1.2s.4,3.4,2.1,3.6l6.5.7A163.3,163.3,0,0,1,261,43.7a211.2,211.2,0,0,1,23.2,7.9,188.9,188.9,0,0,1,30.9,16.1A173.4,173.4,0,0,1,334,81.6c2.5,2.2,4.7,4.8,7.3,6.8,4.3,3.2,7.8,7.2,11.3,11.2,4.8,5.5,9.5,11.2,13.9,17.1a185.9,185.9,0,0,1,14.2,22.9A172,172,0,0,1,394.9,174a140,140,0,0,1,5.1,22.9c1,7.2,1.6,14.5,2.3,21.7a14.7,14.7,0,0,1,0,2.1,1.3,1.3,0,0,1-1.4,1.2H388.1c-1.9,0-2.1-.3-2.3-2.3s-.2-4.3-.4-6.5a175.2,175.2,0,0,0-8.3-41.2,170.2,170.2,0,0,0-15.6-33.5c-2.9-5-6.4-9.8-9.8-14.6a145.1,145.1,0,0,0-20.8-23.4A171.4,171.4,0,0,0,301.1,78c-4.3-2.5-8.9-4.8-13.5-6.9s-9.9-4.5-14.9-6.4a161.6,161.6,0,0,0-42.2-10.2,173.6,173.6,0,0,0-42,.3,185.5,185.5,0,0,0-34.7,7.8,150.9,150.9,0,0,0-24,10.6,145.2,145.2,0,0,0-13.2,7.6,211,211,0,0,0-27.1,21.9A171.7,171.7,0,0,0,62.7,136a167.4,167.4,0,0,0-16.4,33.8,173.8,173.8,0,0,0-8.3,37c-.5,4.1-.5,8.3-.9,12.4-.1,1.8-.2,1.9-2,2H23c-2-.1-2.2-.3-2.1-2.4.2-3.8.2-7.6.7-11.3.9-6.9,2-13.7,3.2-20.5a140.1,140.1,0,0,1,5.9-22A152.5,152.5,0,0,1,43,136.9c3.8-6.4,7.4-13,11.6-19.2a180.8,180.8,0,0,1,11.7-14.5A198.9,198.9,0,0,1,81.9,87a184.8,184.8,0,0,1,19.7-15.6,217,217,0,0,1,29.9-17.3,185.9,185.9,0,0,1,33.8-11.9A119.8,119.8,0,0,1,185,38.6l13.4-1.4a2.7,2.7,0,0,0,2-4.1,2.6,2.6,0,0,0-2.1-.7c-3.5.2-6.9.6-10.3,1a205.4,205.4,0,0,0-26.9,5,179.5,179.5,0,0,0-32.4,11.8c-6.9,3.4-13.9,6.8-20.3,11L92.6,71.9A152.1,152.1,0,0,0,70.9,91.1c-3.4,3.4-6.6,7.1-9.7,10.8s-7.7,9.4-11.3,14.3c-2.4,3.3-4.5,6.8-6.5,10.2a199.6,199.6,0,0,0-16.3,35.1,183.7,183.7,0,0,0-9,36.5c-.9,6.1-1.1,12.4-1.6,18.6a6.1,6.1,0,0,0-.1,1.4c-.1,3.2-.2,3.2-3.4,3.2H2.6c-2.5,0-2.7-.2-2.6-2.8.4-5.8,1-11.5,1.4-17.2.6-9.5,2.8-18.7,5-27.9a186.2,186.2,0,0,1,8.8-26.1c2.3-5.5,4.7-11,7.4-16.4a180.6,180.6,0,0,1,18.5-30.3c4.8-6.3,9.9-12.5,15.2-18.3A144.3,144.3,0,0,1,75.5,64.7c5.1-4,10.3-8.2,15.7-11.8s13.3-8.3,20-12.2a153.9,153.9,0,0,1,29-13c7.3-2.4,14.7-4.8,22.1-6.6s12.3-2.2,18.4-3.1,11.5-1.3,17.2-2c2.4-.3,2.7-.5,2.8-3s-.1-6.2-.1-9.3a9.1,9.1,0,0,1,.1-1.7A1.7,1.7,0,0,1,202.6.1h8ZM40.1,166.5h0ZM12.7,210.2c-.1-.1-.2-.4-.3-.4s-.4.1-.5.2l.5.6ZM243.3,25.6v.2h.2Z"/>
    <path class="a" d="M224,426.4c0,2.9,0,5.8-.1,8.6s-.1,2.3-2.1,2.3H204.5c-1.7,0-2-.4-2.1-2.1-.1-5.4-.2-10.8-.2-16.2a4,4,0,0,0,0-1.1l-.5-.7c-.3.2-.7.3-.7.6-1.1,3.5-2.1,7-3.1,10.6s-1.4,4.4-2,6.6-1.1,1.6-2.3,1.5c-3.4-.4-6.9-.6-10.3-1.1a198.7,198.7,0,0,1-29.7-6.4c-7.4-2.3-14.6-5-21.8-7.7A176.9,176.9,0,0,1,105,407.8c-6.4-3.8-12.6-7.8-18.5-12.1s-10.2-7.9-15.1-12.1-9.2-8.1-13.4-12.5-8.9-10.3-13-15.6S36.4,344,32.6,338a178.2,178.2,0,0,1-16.3-31.6c-1.9-4.9-4.1-9.8-5.7-14.8-2.2-6.9-4.2-13.9-5.8-21S2.4,257,1.3,250.2A112.1,112.1,0,0,1,.1,233.8c0-2.3.1-2.5,2.3-2.5H14.8a1.5,1.5,0,0,1,1.6,1.5v1a199.3,199.3,0,0,0,8.7,49.6,182.5,182.5,0,0,0,10,26.1,238.1,238.1,0,0,0,12.4,22c4.2,6.7,9.3,12.8,14.4,18.9a169.3,169.3,0,0,0,22.2,22.6c4.1,3.5,8.5,6.7,12.8,10a165.3,165.3,0,0,0,23.6,15,145.5,145.5,0,0,0,25.2,11.2c5.7,1.8,11.3,4,17.1,5.6a149.8,149.8,0,0,0,21,4.1c.6.1,1.6-.1,1.7-.5a8.7,8.7,0,0,0,.6-3.2c0-.3-.9-.7-1.5-.8l-7.1-1.3q-6.7-1.3-13.5-3a187.8,187.8,0,0,1-19.7-6.2A163.7,163.7,0,0,1,119.7,392c-7.2-4.2-14.2-8.7-21-13.4-4.6-3.2-8.8-7.1-13.1-10.6a136.1,136.1,0,0,1-15.7-15.6c-4.6-5.1-8.8-10.6-13.1-16.1a127.8,127.8,0,0,1-14.2-22.8A222.5,222.5,0,0,1,29.5,282a205.9,205.9,0,0,1-6.2-25.5c-.9-5.3-1.2-10.7-1.7-16.1-.3-2.4-.5-4.8-.6-7.3s.3-1.8,1.8-1.8c4.3-.1,8.5,0,12.8,0,1,0,1.4.6,1.5,1.5.2,2.8.4,5.5.7,8.3a201.5,201.5,0,0,0,5.7,31.6,146,146,0,0,0,7.4,20.4,179.1,179.1,0,0,0,18.6,32.7,160.6,160.6,0,0,0,18,21.4c4.5,4.5,9.3,8.7,13.9,13,.5.5,1.3,1.1,1.5,1.8s.6.8,1.3,1a24.2,24.2,0,0,1,4,2.5l8.5,5.9c4.1,3,8.7,5.3,13,7.8a67.3,67.3,0,0,0,9.1,5c7.6,3,15,6.5,23,8.5,5.6,1.4,11.3,3.1,17,4.2s14,1.8,20.9,2.6c2.3.3,2.5,0,2.5-2.1s0-5.6,0-8.3.4-1.8,1.6-1.7h13.5c1,0,2-.2,3.1-.1,2.9.1,3.2.6,3.3,3.5s0,4.4.1,6.6.4,2.1,2.4,2c4-.3,8-.6,12-1.2s8.8-1.7,13.2-2.4c7.6-1.3,14.6-4.1,21.8-6.5A134.2,134.2,0,0,0,296.4,379a130.3,130.3,0,0,0,15.7-9.4c4.4-3.3,8.7-6.7,13.2-10s5.2-5.1,7.9-7.6,5.1-5,7.5-7.6,4.2-4.9,6.4-7.3c.2-.3.7-.3,1.1-.6s.9-.5.9-.8c.2-1.9,1.5-3,2.5-4.4a178.5,178.5,0,0,0,22-39,153,153,0,0,0,8.3-27c1.4-6.7,2.3-13.4,3.2-20.1.4-3.5.5-6.9.8-10.4s.5-2.9,3.1-2.9h11.8c1.4.2,1.8.6,1.8,2-.2,3.5-.2,7.1-.7,10.7-1,7.4-1.9,14.8-3.3,22.2a151.1,151.1,0,0,1-6.1,21.6,188.9,188.9,0,0,1-8.5,20.8c-2.2,4.5-4.8,8.9-7.2,13.3a145.3,145.3,0,0,1-15.4,22.6,193.4,193.4,0,0,1-25,26.2,189.1,189.1,0,0,1-34.3,23.1,186.6,186.6,0,0,1-46.3,17c-4.8,1.1-9.7,2-14.5,3-.9.2-1.9.3-1.8,1.6s.9,2.6,2.1,2.7h2.1a149.7,149.7,0,0,0,19.9-4.2c6.8-2,13.5-4,20.1-6.5a190.7,190.7,0,0,0,24.7-11.5,177.5,177.5,0,0,0,22.5-14.7,195.6,195.6,0,0,0,20.5-18c8.3-8.4,15.4-17.7,22.2-27.3s11.8-19.2,16.6-29.4a174.5,174.5,0,0,0,13.2-40.3c1-4.6,1.5-9.3,2.1-14s.9-7.5,1.3-11.3c.3-2.3.3-4.6.5-6.9s.2-2.6,2.8-2.6h11.4c1.7,0,2.1.2,2.1,2s.1,6.4-.2,9.6a234.6,234.6,0,0,1-6.8,39.2,224.1,224.1,0,0,1-9.1,26.1,203,203,0,0,1-22.1,39.4c-7.7,10.9-16,21.4-25.8,30.6-4.7,4.3-9.5,8.4-14.4,12.4a151,151,0,0,1-20.8,14.8c-7.7,4.5-15.3,9.1-23.5,12.6-4.8,2.1-9.8,3.9-14.8,5.8a183.8,183.8,0,0,1-29.8,8.5c-7.4,1.5-14.9,2.4-22.3,3.5h-.7c-2.4.1-2.6,0-3.3-2.4-1.4-4.9-2.8-9.8-4.3-14.6a19.8,19.8,0,0,0-.8-2.6c-.1-.2-.4-.4-.5-.3s-.4.3-.4.5v9.3Zm-138.7-45v-.3h-.5c.1.1.2.2.2.3ZM64,319.5l-.5-.2s-.2.1-.2.2l.3.4Z"/>
    <path class="a" d="M223.6,314.1V355c0,2.4-.2,2.6-2.5,2.6H204.5c-2.2,0-2.4-.3-2.4-2.4-.1-6.6-.1-13.1-.2-19.7s-.2-15.2-.2-22.8c-.1-12.5-.1-25.1-.2-37.6a6.5,6.5,0,0,0,0-1.4,4.6,4.6,0,0,0-.7-1.4,7.3,7.3,0,0,0-.9.8l-5.1,8.3c-5.4,9.1-10.9,18.2-16.4,27.2l-12.1,19.7c-3.3,5.5-6.4,11-9.7,16.4l-6.9,11.2a2.7,2.7,0,0,1-2.4,1.5h-18c-1.1-.1-1.5-.7-1-1.6l3.7-6.3c4.1-6.8,8.2-13.6,12.2-20.5s9.8-16.9,14.8-25.3c6.2-10.5,12.6-20.9,18.9-31.4a9.9,9.9,0,0,0,.9-2.4,7.2,7.2,0,0,0-2.5-.7H139.6l-10.3-.2c-1.8-.1-2-.2-2-2-.2-4.3-.3-8.5-.3-12.8,0-1.4.3-1.7,1.9-1.7h70.9a1.6,1.6,0,0,0,1.6-1.5c.1-1.4.1-2.8.1-4.2V233.8c0-1.8.2-2.1,2-2.1h17.6c1.4,0,1.9.7,1.9,1.9.1,3.3.1,6.7.2,10s0,4.6.1,6.9.2,2.1,2.3,2.1h14.5l29.4.2H295c1.8,0,1.8,0,1.9,1.6,0,4.3.1,8.5.1,12.8,0,1.8-.1,2-1.9,2.1H246.7c-1.4,0-1.7.4-1.2,1.7l.6,1.2,10.8,18.1,17.4,28.7,9.9,16.2c4.1,6.5,8.1,13.1,12.2,19.7a5.1,5.1,0,0,1,.7,1.5c.1.3-.2.8-.5,1H277.9a3.3,3.3,0,0,1-3.1-1.6c-6.4-10.7-13-21.3-19.4-31.9-4.6-7.6-9-15.3-13.6-22.9-5.6-9.5-11.2-19-16.9-28.5l-.4-.6-.5-.2a.7.7,0,0,0-.5.4c-.1,1-.1,2.1-.1,3.1,0,12.3.1,24.7.1,37v1.7Z"/>
    <path class="a" d="M260,132.4h13.8l21,.3c1.9,0,1.8.1,1.8,1.9-.1,3.6-.1,7.1,0,10.7s0,3.3-2.9,3.3h-20c-9.5-.1-19,0-28.4-.2s-18.9-.6-28.3-.6c-7.2,0-14.3.5-21.5.6H129.1c-2.1-.1-2.3-.4-2.4-2.5,0-3.7-.1-7.4,0-11.1s.3-2.7,2.9-2.7h69.5c1.7,0,1.9-.3,1.9-1.7s-.4-2.8-2.8-2.8h-64c-2.2-.1-2.5-.3-2.6-2.3V112.5c0-1,.4-1.4,1.5-1.4l7.6-.2,33.8.3H199c1.6-.2,1.9-.6,1.9-2.2s-.3-2.1-2-2.2l-10.3-.3H134.3c-1.7,0-3.7.3-5-.5s-.6-2.9-.7-4.5c-.2-3.2-.2-6.4-.2-9.6,0-1.5.5-1.9,2.2-1.9h68.5c1.2,0,1.6-.6,1.6-1.8s.1-4.4.2-6.5.4-2.3,2.3-2.3h17.6c1.3,0,1.8.4,1.8,1.8s0,4.4.1,6.5S223,90,225,90h40.5c6.1.1,12.1-.1,18.2-.1l7.6.2c2.5,0,2.9.3,2.9,2.7s.1,7.6.1,11.4c0,2.3-.2,2.4-2.3,2.4H224.9c-1.8,0-2.1.2-2.1,1.8s.2,2.5,1.9,2.6l10,.2h55.4a1.3,1.3,0,0,1,1.2,1.4c0,4.5-.1,9-.1,13.5,0,1.4-.9,1.6-2,1.6h-64c-2.2.1-2.6.5-2.4,2.7s.3,1.7,1.9,1.7H260Z"/>
    <path class="a" d="M296.8,199.9V164.6c0-3.3-.2-6.7-.2-10,0-1.1-.4-1.5-1.4-1.5H211.9v-.2h-83c-1.9,0-2,.1-2.1,1.9s0,2.5,0,3.8c0,14.9,0,29.7.1,44.6v26.6c0,2.1.2,2.3,2.1,2.4h16.9c2.6,0,2.7-.2,2.7-2.8,0-4.9-.1-9.7-.1-14.6-.1-3.1-.1-3.1,3.2-3.1h43.2a7.4,7.4,0,0,0,3.3-.3h3.4a13.6,13.6,0,0,0,4.9.4c8.6,0,17.1-.2,25.6-.1l39,.2c3.8.1,3.7,0,3.7,3.8s0,9.9.1,14.9c.1,1.7.3,1.9,2.1,1.9h18c1.6,0,1.7-.1,1.8-1.8V199.9ZM150.9,169.4h83.3l26.6.2h7.9l4.5.2a1.4,1.4,0,0,1,1.1.7,2.4,2.4,0,0,1-2.2,3.7l-14.4-.2H150.2c-1.1,0-1.6-.6-1.7-1.7S148.6,169.4,150.9,169.4Zm121.8,25.7H211.2v-.4H150.5c-.6,0-1.7-.3-1.8-.6a11.5,11.5,0,0,1,.2-3.2c0-.3,1-.4,1.5-.4H213l28.3-.2,21,.4h10.4c1.8,0,2.1.4,2.1,2S274.4,195.1,272.7,195.1Z"/>
  </g>
</svg>
