<svg xmlns="http://www.w3.org/2000/svg" viewBox="0 0 71.3 73.6">
  <defs>
    <style>
      .a {
        fill: #fff;
      }
    </style>
  </defs>
  <title>whitelogo</title>
  <g>
    <path class="a" d="M35.4,0H37c.3,0,.4,0,.4.3V2.2c0,.4.1.5.4.5l4,.5a42.1,42.1,0,0,1,4.8,1.2,41.9,41.9,0,0,1,4.9,2,51.9,51.9,0,0,1,5,3.1l2.1,1.6a32.6,32.6,0,0,1,4.1,4.2,32.5,32.5,0,0,1,3.1,4.2,33.5,33.5,0,0,1,2.8,5.3,37.1,37.1,0,0,1,1.6,4.7,20.5,20.5,0,0,1,.5,2.4,39.3,39.3,0,0,1,.6,4.8c0,.6,0,.7-.6.7H68.9c-.3,0-.4-.1-.4-.4a31.2,31.2,0,0,0-.5-4.4,24.7,24.7,0,0,0-.6-2.9A23.2,23.2,0,0,0,66.1,26,34.2,34.2,0,0,0,64,21.7a32.8,32.8,0,0,0-4.2-5.6,41.1,41.1,0,0,0-3-2.9,34.7,34.7,0,0,0-4.4-3.1,15.9,15.9,0,0,0-2.9-1.5L46.3,7.3a42.1,42.1,0,0,0-6.1-1.6l-2.4-.3c-.3,0-.4.1-.4.3a.5.5,0,0,0,.3.6h1.1a21.9,21.9,0,0,1,5.1,1,29.7,29.7,0,0,1,3.9,1.3A25.7,25.7,0,0,1,53,11.4l3.2,2.3,1.2,1.2a16.2,16.2,0,0,1,1.9,1.8l2.4,2.9A30.7,30.7,0,0,1,64,23.5a24.5,24.5,0,0,1,2.4,5.8,23.4,23.4,0,0,1,.9,3.8c.2,1.2.2,2.5.4,3.7v.3c0,.2-.1.2-.3.2H65.3c-.3,0-.4,0-.4-.3a3.7,3.7,0,0,0-.1-1.1,24.2,24.2,0,0,0-1.4-7,23.7,23.7,0,0,0-2.6-5.6c-.5-.8-1.1-1.6-1.6-2.5a32.5,32.5,0,0,0-3.5-3.9,36.6,36.6,0,0,0-5-3.8L48.4,12l-2.5-1.1a25.4,25.4,0,0,0-7.1-1.7,28.1,28.1,0,0,0-7.1,0,37.5,37.5,0,0,0-5.8,1.3,30,30,0,0,0-4.1,1.8l-2.2,1.3a31.6,31.6,0,0,0-4.5,3.7,27.5,27.5,0,0,0-4.6,5.6,29.7,29.7,0,0,0-2.7,5.7,26.5,26.5,0,0,0-1.4,6.2c-.1.7-.1,1.4-.2,2.1s0,.3-.3.3h-2c-.4,0-.4,0-.4-.4s.1-1.3.1-1.9l.6-3.4a15.6,15.6,0,0,1,1-3.7,25.5,25.5,0,0,1,2-4.8c.7-1.1,1.3-2.2,2-3.2a23.1,23.1,0,0,1,2-2.4,22.7,22.7,0,0,1,2.6-2.8A29.1,29.1,0,0,1,17.1,12a36,36,0,0,1,5-2.9,29.7,29.7,0,0,1,5.7-2,19.1,19.1,0,0,1,3.3-.6l2.3-.2c.3-.1.5-.5.3-.7l-.3-.2-1.8.2a35.8,35.8,0,0,0-4.5.9,31.3,31.3,0,0,0-5.4,1.9,39,39,0,0,0-3.5,1.9l-2.6,1.8a28.3,28.3,0,0,0-3.7,3.2l-1.6,1.8a23.5,23.5,0,0,0-1.9,2.5,9.9,9.9,0,0,0-1.1,1.7,31.5,31.5,0,0,0-2.7,5.9A32.2,32.2,0,0,0,3,33.3c-.1,1-.1,2.1-.2,3.1v.3c-.1.5-.1.5-.6.5H.4c-.4,0-.4,0-.4-.5a26.4,26.4,0,0,0,.2-2.9,26,26,0,0,1,.9-4.7,25.4,25.4,0,0,1,1.5-4.4L3.8,22a33,33,0,0,1,3.1-5.1,38.8,38.8,0,0,1,2.6-3.1,22.1,22.1,0,0,1,3.2-2.9l2.6-2,3.4-2.1a23.3,23.3,0,0,1,4.9-2.1l3.7-1.2L30.4,3l2.9-.3c.4-.1.4-.1.5-.5s-.1-1.1-.1-1.6.1-.2.1-.3a.3.3,0,0,1,.3-.3h1.3ZM6.7,28h0ZM2.1,35.4h0ZM40.9,4.3Z"/>
    <path class="a" d="M37.7,71.7v1.5c0,.3-.1.4-.4.4H34.4c-.3,0-.3-.1-.3-.4a24.4,24.4,0,0,1-.1-2.7v-.2h-.2c-.2.6-.3,1.2-.5,1.8L33,73.2c-.1.2-.2.2-.4.2l-1.8-.2a44.2,44.2,0,0,1-5-1l-3.6-1.3a23.8,23.8,0,0,1-4.5-2.3l-3.2-2L12,64.5a14.5,14.5,0,0,1-2.2-2.1,27.5,27.5,0,0,1-2.2-2.6,26.4,26.4,0,0,1-2.1-2.9,34.5,34.5,0,0,1-2.8-5.4l-.9-2.4c-.4-1.2-.7-2.4-1-3.6L.2,42.1A24.6,24.6,0,0,1,0,39.3c0-.4,0-.4.4-.4H2.5l.3.2v.2a34.3,34.3,0,0,0,1.4,8.4A32,32,0,0,0,5.9,52,27.1,27.1,0,0,0,8,55.7a26.7,26.7,0,0,0,2.4,3.2,33.4,33.4,0,0,0,3.7,3.8l2.2,1.7a20.6,20.6,0,0,0,4,2.5,20,20,0,0,0,4.2,1.9l2.9,1,3.5.7h.3a1.3,1.3,0,0,0,.1-.6h-.2l-1.2-.2L27.6,69l-3.3-1.1a23,23,0,0,1-4.2-2l-3.5-2.2-2.2-1.8a21.3,21.3,0,0,1-2.6-2.6L9.6,56.6a15.8,15.8,0,0,1-2.4-3.9A24.7,24.7,0,0,1,5,47.4a30.1,30.1,0,0,1-1.1-4.3c-.1-.8-.2-1.8-.3-2.7s-.1-.8-.1-1.2a.3.3,0,0,1,.3-.3H6c.2,0,.2.1.2.3s.1.9.2,1.4a25.6,25.6,0,0,0,.9,5.3,23.7,23.7,0,0,0,1.3,3.4,26.9,26.9,0,0,0,3.1,5.5,26,26,0,0,0,3,3.6l2.4,2.2c0,.1.2.2.2.3s.1.1.2.2l.7.4a7.1,7.1,0,0,1,1.4,1l2.2,1.3a8,8,0,0,0,1.6.8c1.2.5,2.5,1.1,3.8,1.5l2.9.7,3.5.4c.4.1.4,0,.4-.4V65.4c0-.1.1-.2.3-.2h2.8c.5,0,.5.1.5.6a4.5,4.5,0,0,0,.1,1.1c0,.3,0,.3.3.3l2.1-.2,2.2-.4a21.5,21.5,0,0,0,3.6-1.1,28.3,28.3,0,0,0,4-1.7,22.6,22.6,0,0,0,2.6-1.6l2.2-1.7A15.9,15.9,0,0,0,56,59.2a8,8,0,0,0,1.3-1.3l1.1-1.2h.3a3.5,3.5,0,0,1,.5-.8,27.6,27.6,0,0,0,3.6-6.5,24.4,24.4,0,0,0,1.4-4.6,34.3,34.3,0,0,0,.6-3.4,9.1,9.1,0,0,0,.1-1.7c0-.5.1-.5.5-.5h2c.3.1.3.1.3.4a10.9,10.9,0,0,1-.1,1.8c-.2,1.2-.3,2.5-.6,3.7a16.1,16.1,0,0,1-1,3.6A36.5,36.5,0,0,1,64.6,52l-1.2,2.3a23.3,23.3,0,0,1-2.6,3.8,43.7,43.7,0,0,1-4.2,4.4,32.7,32.7,0,0,1-5.8,3.9A30.3,30.3,0,0,1,43,69.2l-2.4.5c-.2.1-.3.1-.3.3s.1.4.3.4H41a17.6,17.6,0,0,0,3.3-.7,19.3,19.3,0,0,0,3.4-1.1,38.9,38.9,0,0,0,4.2-1.9,31.1,31.1,0,0,0,3.8-2.5,31.7,31.7,0,0,0,3.4-3,42.2,42.2,0,0,0,3.8-4.6,29.1,29.1,0,0,0,2.7-4.9,28.7,28.7,0,0,0,2.3-6.8l.3-2.4a11.1,11.1,0,0,0,.2-1.9,4.5,4.5,0,0,0,.1-1.1c0-.5,0-.5.5-.5h1.9c.3,0,.3.1.4.4a9.2,9.2,0,0,1-.1,1.6,37.9,37.9,0,0,1-1.1,6.6A38.9,38.9,0,0,1,68.5,52a30.8,30.8,0,0,1-3.7,6.6,35.2,35.2,0,0,1-4.3,5.1,22.5,22.5,0,0,1-2.4,2.1,28,28,0,0,1-3.5,2.5,30.5,30.5,0,0,1-4,2.1l-2.5,1a28.5,28.5,0,0,1-5,1.4c-1.2.3-2.5.4-3.7.6h-.1c-.5,0-.5,0-.6-.4a21.7,21.7,0,0,1-.7-2.4l-.2-.5h-.1v1.5ZM14.4,64.2h0ZM10.8,53.8h0Z"/>
    <path class="a" d="M37.6,52.8v6.9c0,.4,0,.4-.4.5H34.4c-.4,0-.4,0-.4-.4V56.4c0-1.2-.1-2.5-.1-3.8V46a.3.3,0,0,1-.1-.2h-.2c-.3.5-.5,1-.8,1.4s-1.9,3.1-2.8,4.6-1.4,2.2-2,3.3L26.3,58l-1.1,1.9a.5.5,0,0,1-.4.2h-3c-.2,0-.3-.1-.2-.3l.6-1,2.1-3.5,2.4-4.2c1.1-1.8,2.2-3.5,3.2-5.3.1-.1.1-.3.2-.4H21.7c-.3,0-.3,0-.3-.3V42.8c0-.3,0-.3.3-.3H33.6a.3.3,0,0,0,.3-.3V39.3c0-.3,0-.3.3-.3h3a.3.3,0,0,1,.3.3V41a3.7,3.7,0,0,0,.1,1.1c0,.4,0,.4.4.4H49.6c.3,0,.3,0,.3.2s.1,1.5.1,2.2-.1.3-.4.3H41.5c-.2,0-.3.1-.2.3a.3.3,0,0,0,.1.2l1.8,3.1c1,1.6,2,3.2,2.9,4.8s1.2,1.8,1.7,2.7l2.1,3.3c0,.1.1.2.1.3a.3.3,0,0,0-.1.2h-.2c-1,0-2-.1-3,0s-.3-.1-.5-.3c-1.1-1.8-2.2-3.6-3.2-5.4s-1.6-2.5-2.3-3.8l-2.9-4.8h-.2v7Z"/>
    <path class="a" d="M43.7,22.3h5.9c.3,0,.3,0,.3.3v1.8c0,.5,0,.6-.5.6H21.7c-.3-.1-.4-.1-.4-.5V22.7c0-.5.1-.5.5-.5H33.5c.3-.1.3-.1.3-.3s0-.5-.5-.5H22.6c-.4,0-.5-.1-.5-.4V18.9c0-.1.1-.2.3-.2H33.5c.2-.1.3-.1.3-.4s-.1-.3-.3-.3H21.7c-.2-.1,0-.5-.1-.7V15.4c0-.2.1-.3.4-.3H33.5a.3.3,0,0,0,.3-.3V13.7c0-.3.1-.3.4-.3h2.9c.3,0,.4,0,.3.3a4.5,4.5,0,0,0,.1,1.1c0,.3,0,.3.4.3H49c.4,0,.5,0,.5.4v2c0,.3,0,.4-.4.4H37.8c-.3,0-.3,0-.3.3s0,.4.3.4h11c.1.1.2.1.2.3v2.2c0,.3-.2.3-.4.3H37.9c-.4,0-.4.1-.4.5s0,.3.3.3h5.9Z"/>
    <path class="a" d="M49.9,33.6V26c0-.2-.1-.2-.2-.2h-28c-.3,0-.4,0-.4.3v8.2c0,1.5,0,3,.1,4.5s0,.4.3.4h2.8c.5,0,.5,0,.5-.4V36.1c0-.5,0-.5.5-.5H45.6c.6,0,.6,0,.6.7v2.5c.1.3.1.3.4.3h3c.3,0,.3,0,.3-.3V33.6ZM25.4,28.5H46c0,.1.1.1.1.2a.4.4,0,0,1-.3.6H25.3a.3.3,0,0,1-.3-.3C25,28.6,25,28.5,25.4,28.5Zm20.5,4.3H25.3c-.1,0-.3,0-.3-.1v-.5H45.9c.3,0,.3.1.3.3S46.2,32.8,45.9,32.8Z"/>
  </g>
</svg>
