<svg xmlns="http://www.w3.org/2000/svg" viewBox="0 0 669.8 157">
  <defs>
    <style>
      .a {
        opacity: 0.5;
      }

      .b {
        fill: #e4e4e4;
      }

      .c {
        fill: #006837;
      }

      .d {
        opacity: 0.28;
      }

      .e {
        fill: none;
        stroke: #006837;
        stroke-miterlimit: 10;
      }
    </style>
  </defs>
  <title>cont1_h</title>
  <g>
    <g class="a">
      <path class="b" d="M87.4,59.5l7.7-9.2c4.7,4.4,11.1,7.4,16.9,7.4s10.7-3,10.7-7.6-4.1-6.5-10.1-9.1l-8.9-3.7C97,34.5,90.2,29,90.2,19.3S99.7,0,113.3,0a29.7,29.7,0,0,1,20.9,8.6L127.4,17a20.7,20.7,0,0,0-14.1-5.5c-5.9,0-9.7,2.6-9.7,7s4.8,6.5,10.5,8.7l8.7,3.7c8.2,3.4,13.5,8.5,13.5,18.2s-9.1,20.2-24.6,20.2A35.2,35.2,0,0,1,87.4,59.5Z"/>
      <path class="b" d="M148.1,1.3h13.3V68H148.1Z"/>
      <path class="b" d="M177.9,1.3h13.6l19.4,35.5,6.6,14.4h.5c-.7-6.9-1.7-15.8-1.7-23.3V1.3h12.6V68H215.4L196.1,32.3l-6.8-14.4h-.4c.6,7.3,1.6,15.7,1.6,23.3V68H177.9Z"/>
      <path class="b" d="M242.1,34.9c0-22,14.1-34.9,31-34.9a27.3,27.3,0,0,1,19.6,8.6L285.6,17c-3.3-3.2-7.2-5.5-12.2-5.5-10.1,0-17.7,8.6-17.7,23s6.9,23.2,17.4,23.2c5.7,0,10.2-2.7,13.8-6.6l7,8.3a27,27,0,0,1-21.2,9.9C255.8,69.3,242.1,57.2,242.1,34.9Z"/>
      <path class="b" d="M304.7,1.3h40.9V12.4H318V27.8h23.5V39H318V56.8h28.6V68H304.7Z"/>
      <path class="b" d="M359.3,57.3h14.4V15.1H361.6V6.9c6.7-1.3,11.3-3,15.5-5.6h9.8v56h12.6V68H359.3Z"/>
      <path class="b" d="M416.7,53.8a15.3,15.3,0,0,0,10.6,4.6c7.4,0,13.7-5.6,14.2-22.4-3.4,4.5-9.1,7.3-13.7,7.3-11.1,0-19.1-6.9-19.1-21S418.2,0,429.7,0s24,9.9,24,33.1c0,25.3-12.4,36.2-25.6,36.2a24.7,24.7,0,0,1-18.3-7.6Zm24.6-27.1C440.2,14.5,435.6,10,429.9,10s-9,4.1-9,12.3,3.7,11.5,9.4,11.5C433.9,33.8,438.1,31.8,441.3,26.7Z"/>
      <path class="b" d="M469.8,53.8a15.5,15.5,0,0,0,10.6,4.6c7.5,0,13.7-5.6,14.2-22.4-3.4,4.5-9.1,7.3-13.7,7.3-11.1,0-19.1-6.9-19.1-21S471.4,0,482.8,0s24,9.9,24,33.1c0,25.3-12.3,36.2-25.6,36.2a24.9,24.9,0,0,1-18.3-7.6Zm24.7-27.1C493.3,14.5,488.7,10,483,10s-9,4.1-9,12.3,3.7,11.5,9.5,11.5C487.1,33.8,491.2,31.8,494.5,26.7Z"/>
      <path class="b" d="M523,53.8a15,15,0,0,0,10.5,4.6c7.5,0,13.7-5.6,14.3-22.4-3.5,4.5-9.1,7.3-13.7,7.3-11.1,0-19.2-6.9-19.2-21S524.5,0,536,0s23.9,9.9,23.9,33.1c0,25.3-12.3,36.2-25.6,36.2A24.9,24.9,0,0,1,516,61.7Zm24.6-27.1C546.4,14.5,541.8,10,536.1,10s-9,4.1-9,12.3,3.7,11.5,9.5,11.5C540.2,33.8,544.3,31.8,547.6,26.7Z"/>
    </g>
    <g>
      <g>
        <path class="c" d="M19.4,133.1h26v22.1H39.8v-1.9H24.7v1.9H19.4V137.1l-2.3,3.2a41.2,41.2,0,0,0-3.7-4.5v19.5H7.6V139.1a35.8,35.8,0,0,1-4.9,4A23.5,23.5,0,0,0,0,137.6a36.7,36.7,0,0,0,12.4-13.7H1.8v-5.2H7.6v-9h5.8v9h2l1-.3,3.2,2.1a46.8,46.8,0,0,1-5,10c1.3,1,3.4,2.9,4.8,4.1Zm26.2-21.5v4.9H19.1v-4.9Zm-2.3,7v12.3H21.8V118.6ZM24.7,137.7v3.2h4.9v-3.2Zm0,10.9h4.9v-3.3H24.7ZM37.9,123h-11v3.5h11Zm1.9,14.7h-5v3.2h5Zm0,10.9v-3.3h-5v3.3Z"/>
        <path class="c" d="M67,141.6a63.1,63.1,0,0,0-4.2-5.4v19.1H57.1V138.7a34.8,34.8,0,0,1-5.4,4.4,28.1,28.1,0,0,0-2.7-5.5,36.1,36.1,0,0,0,12.8-13.7h-11v-5.2h6.3v-9h5.7v9h2l1-.3,3.2,2.1a42.9,42.9,0,0,1-5.1,10c2.2,1.9,5.7,5.3,6.7,6.2Zm28.7,7.2v5.6H66.4v-5.6h4.4V120.9h5.7v27.9h4.2V110.3h6v16.2h8V132h-8v16.8Z"/>
        <path class="c" d="M136.9,122.6l-4.8,2.6a134.5,134.5,0,0,0-13.6,7.2c-4,2.6-6.7,5.4-6.7,8.8s3.4,5.3,10.1,5.3a86.9,86.9,0,0,0,15.8-1.7v7a105.7,105.7,0,0,1-15.5,1.1c-9.7,0-17-2.7-17-11,0-5.4,3.4-9.3,8.1-12.8-2.3-4.1-4.6-9.3-6.8-14.4l6.1-2.5a115.1,115.1,0,0,0,6,13.4c4-2.3,8.2-4.4,10.5-5.7a29.2,29.2,0,0,0,4.5-3Z"/>
        <path class="c" d="M185.8,122.6a52.1,52.1,0,0,1-4.8,2.6,134.3,134.3,0,0,0-13.5,7.2c-4.1,2.6-6.7,5.4-6.7,8.8s3.3,5.3,10,5.3a88,88,0,0,0,15.9-1.7v7a106.1,106.1,0,0,1-15.6,1.1c-9.6,0-16.9-2.7-16.9-11,0-5.4,3.4-9.3,8-12.8-2.2-4.1-4.6-9.3-6.8-14.4l6.1-2.5a133.8,133.8,0,0,0,6.1,13.4c4-2.3,8.2-4.4,10.5-5.7a27.9,27.9,0,0,0,4.4-3Z"/>
        <path class="c" d="M233.9,129.6c3.2,4.1,4.7,7.5,4.7,11.6,0,7.3-6.6,12.6-17.2,12.6-7.6,0-13-3.3-13-11.4,0-1.2.1-2.9.3-4.9a54.2,54.2,0,0,1-9.3-1.6l.4-5.9a40,40,0,0,0,9.5,1.9l.9-6.6a55.9,55.9,0,0,1-9.7-1.7l.4-5.6a46,46,0,0,0,9.9,1.8c.2-1.5.3-2.8.4-3.9a29.8,29.8,0,0,0,.1-4.3l6.8.4c-.4,1.8-.6,3-.8,4.3s-.3,2.1-.6,3.7c3.5-.1,6.6-.3,8.9-.6l-.2,5.8a85.7,85.7,0,0,1-9.4.4c-.3,2.2-.6,4.5-.8,6.6h.3a80.2,80.2,0,0,0,9.7-.6v5.8a78.1,78.1,0,0,1-8.6.5h-1.9c-.1,1.4-.2,2.6-.2,3.5,0,3.9,2.4,6.2,7.2,6.2,6.8,0,10.5-3.1,10.5-7.1s-1.9-6.5-5-9.4Z"/>
        <path class="c" d="M258.6,113.7a40.1,40.1,0,0,0-1.2,4.3c-.7,3.3-2.3,13-2.3,17.8a16.7,16.7,0,0,0,.2,3.1c.6-1.7,1.4-3.3,2.1-4.9l3,2.4c-1.3,4.1-2.9,9.3-3.4,11.9a10.3,10.3,0,0,0-.3,2.2,13.4,13.4,0,0,0,.1,2l-5.6.4a60.4,60.4,0,0,1-1.9-15.8c0-7.3,1.5-15.5,2-19.2a37.1,37.1,0,0,0,.5-4.8Zm11.3,24a19.9,19.9,0,0,0-.5,4c0,2.2,1.8,3.5,6.7,3.5a55.6,55.6,0,0,0,12.2-1.3v6.5a65.2,65.2,0,0,1-12.5,1c-8.4,0-12.4-3-12.4-8a29.9,29.9,0,0,1,.9-6.3Zm17-20.8v6.3a144.4,144.4,0,0,1-20.8,0v-6.3A104.2,104.2,0,0,0,286.9,116.9Z"/>
        <path class="c" d="M339.3,116.6c-1,10.7-3.3,19.1-7,25.7a27.7,27.7,0,0,0,8.8,7.9,23.2,23.2,0,0,0-4,4.8,31.7,31.7,0,0,1-8.4-7.5A34.6,34.6,0,0,1,320,155a25.2,25.2,0,0,0-3.2-4.3v4.6h-5.7v-7.8l-15.8,2.6-1.2-5.9,4.5-.5v-26h-3.3v-5.4h24.6v3.5h15.6Zm-35.1,1.1v4.7h6.9v-4.7Zm0,14.8h6.9v-4.9h-6.9Zm0,10.5,6.9-.9v-4.4h-6.9Zm12.6,7a28.2,28.2,0,0,0,8.4-7.8,69.1,69.1,0,0,1-6.6-19.4l5.6-1.1a57.8,57.8,0,0,0,4.5,14.4,54.8,54.8,0,0,0,4.2-14.5H318.5v-3.9h-1.7Z"/>
        <path class="c" d="M359.8,111.9a80.4,80.4,0,0,0-2,10c2.3-3.7,6.6-7.8,12-7.8s12,6.6,12,17.3c0,13.7-8.4,20.3-21.2,22.6l-3.7-5.6c10.8-1.7,18.3-5.2,18.3-17,0-7.4-2.5-11.6-6.5-11.6-5.7,0-10.7,8.6-11,15a34.7,34.7,0,0,0,.3,5.1l-6,.4a53.8,53.8,0,0,1-.6-8.1,123,123,0,0,1,1.3-15.5,32.5,32.5,0,0,0,.4-5.1Z"/>
        <path class="c" d="M399.3,139.1a45.7,45.7,0,0,1-3,12.6,44.9,44.9,0,0,0-4.4-2.1c1.4-2.9,2.2-7.2,2.6-11.4Zm6-3.8v20.1h-5.2V135.7l-7.2.4-.5-5,3.6-.2c.8-.9,1.5-2,2.3-3a40.5,40.5,0,0,0-5.9-6.7l2.7-4.1,1.2,1.1a59.9,59.9,0,0,0,3.6-8.5l5.1,1.8c-1.7,3.3-3.7,7.1-5.5,9.9.6.6,1.2,1.4,1.7,2a60.6,60.6,0,0,0,4.5-8l5,2c-2.8,4.3-6.2,9.3-9.4,13.3l5-.2-1.7-3.4,4.1-1.8a43,43,0,0,1,4.5,10.4l-4.4,2c-.2-.8-.4-1.7-.7-2.6Zm4.4,2.7a56.2,56.2,0,0,1,3.2,9.2l-4.6,1.6a53.1,53.1,0,0,0-2.9-9.5Zm28.8,10.8V154H409.8v-5.2h4.5V112.1h20.9v36.7ZM420,117.3v6.8h9.3v-6.8Zm9.3,12H420v7h9.3ZM420,148.8h9.3v-7.3H420Z"/>
        <path class="c" d="M483.9,144.6a46.2,46.2,0,0,0-4.1-3.4c-2.2,5.5-5.9,9.7-12.3,13.1l-5.2-4.2c7.3-3.1,10.7-7.8,12.3-12.2a33,33,0,0,0-11.3-3.9c-1.9,4.2-4,9-5.7,11.6s-4.2,4.3-7.5,4.3-7.5-2.9-7.5-7.8c0-7.5,6.9-13.3,16.6-13.7,1.4-3.2,2.7-6.5,3.9-8.8l-8.3.4-4,.4-.2-6.2,4,.2c2.7,0,7.9-.2,10.2-.4a10.7,10.7,0,0,0,3.3-.8l3.8,3.1a9.4,9.4,0,0,0-1.6,2,93,93,0,0,0-4.7,10.4,46.7,46.7,0,0,1,10.4,3.1c0-.6.1-1.1.1-1.6a31.2,31.2,0,0,0,0-5.3l6.4.7a77.3,77.3,0,0,1-1,9c2,1.2,3.8,2.3,5.2,3.3Zm-27.2-10.7c-5.4.9-8.3,4.2-8.3,7.2,0,1.4.8,2.3,1.8,2.3s1.7-.4,2.5-1.7A55.4,55.4,0,0,0,456.7,133.9Z"/>
        <path class="c" d="M503.3,146.9c9.8-8.8,15.6-15.6,15.6-21.2,0-3.7-2-5.9-5.4-5.9s-4.8,1.8-6.7,3.8l-3.9-4c3.4-3.5,6.6-5.4,11.5-5.4,6.9,0,11.4,4.4,11.4,11.1s-5.4,13.6-12,20.1c1.8-.2,4.2-.4,5.9-.4h7.9v6.1H503.3Z"/>
        <path class="c" d="M532.2,132.8c0-12.5,4.8-18.6,12.2-18.6s12.3,6.1,12.3,18.6-4.9,19-12.3,19S532.2,145.3,532.2,132.8Zm17.7,0c0-10.1-2.4-13.1-5.5-13.1s-5.4,3-5.4,13.1,2.3,13.3,5.4,13.3S549.9,143,549.9,132.8Z"/>
        <path class="c" d="M598.5,139.5V149c0,3-.6,4.4-2.7,5.4s-4.6,1-8.2,1a19.7,19.7,0,0,0-2.4-5.6h6c.8-.1,1.1-.3,1.1-1v-9.4h-16V134h16v-4.5h-9.6v-3.3a51.7,51.7,0,0,1-6.8,3.9,30.1,30.1,0,0,0-3.5-4.7c8.1-3.7,16-10.3,19.8-15.7h5.9a48.8,48.8,0,0,0,20.8,15.1,26.6,26.6,0,0,0-3.8,5.2,52.7,52.7,0,0,1-7.2-4.1v3.6h-9.4V134h16.9v5.5Zm-10.1,3.7A46.2,46.2,0,0,1,577,153.9a34.7,34.7,0,0,0-4.5-4,31.8,31.8,0,0,0,10.4-8.7Zm17.2-18.9a48.9,48.9,0,0,1-10.2-9.2,52.4,52.4,0,0,1-9.9,9.2Zm1,16.6a82.6,82.6,0,0,1,11,9.4l-5.1,3.5c-2.2-2.8-6.9-6.9-10.6-9.9Z"/>
        <path class="c" d="M667,144.9H650.2v10.5h-6V144.9H622.1v-5.6h7.8V126.5h14.3v-5.9H633.7a43.1,43.1,0,0,1-6.7,8.9,49.9,49.9,0,0,0-5-3.7c4.4-3.8,8.2-10,10.3-16.3l5.9,1.5a33.3,33.3,0,0,1-1.6,4h27.7v5.6H650.2v5.9h12.9v5.4H650.2v7.4H667Zm-22.8-5.6v-7.4h-8.5v7.4Z"/>
      </g>
      <g class="d">
        <path class="e" d="M21.7,134.2h26v22.1H42.1v-1.8H27v1.9H21.7V138.3l-2.3,3.1a53.6,53.6,0,0,0-3.7-4.5v19.6H9.9V140.2A30.5,30.5,0,0,1,5,144.3a20.1,20.1,0,0,0-2.7-5.5,35.8,35.8,0,0,0,12.4-13.7H4.1v-5.3H9.9v-9h5.8v9h2l1-.2,3.2,2a47.5,47.5,0,0,1-5,10.1l4.8,4Zm26.2-21.4v4.9H21.4v-4.9Zm-2.3,7V132H24.1V119.8ZM27,138.9v3.2h4.9v-3.2Zm0,10.9h4.9v-3.3H27Zm13.2-25.7h-11v3.6h11Zm1.9,14.8h-5v3.2h5Zm0,10.9v-3.3h-5v3.3Z"/>
        <path class="e" d="M69.3,142.7a63.5,63.5,0,0,0-4.2-5.3v19.1H59.4V139.9a41.7,41.7,0,0,1-5.4,4.4,21.7,21.7,0,0,0-2.7-5.5,37.9,37.9,0,0,0,12.9-13.7H53.1v-5.3h6.3v-9h5.7v9h2l1-.2,3.3,2.1a55.4,55.4,0,0,1-5.1,10c2.1,1.8,5.6,5.2,6.6,6.2ZM98,149.9v5.7H68.7v-5.7h4.4V122.1h5.7v27.8h4.3V111.4H89v16.3h8v5.5H89v16.7Z"/>
        <path class="e" d="M139.2,123.7l-4.8,2.6a144.8,144.8,0,0,0-13.5,7.2c-4.1,2.7-6.8,5.5-6.8,8.8s3.4,5.4,10.1,5.4a78.7,78.7,0,0,0,15.8-1.8v7a94.2,94.2,0,0,1-15.6,1.2c-9.7,0-17-2.7-17-11,0-5.4,3.4-9.4,8.1-12.8-2.3-4.2-4.6-9.3-6.8-14.4l6.1-2.5a100.1,100.1,0,0,0,6.1,13.4c3.9-2.3,8.1-4.5,10.4-5.8a29.3,29.3,0,0,0,4.5-2.9Z"/>
        <path class="e" d="M188.1,123.7a52.1,52.1,0,0,1-4.8,2.6c-3,1.5-9.1,4.4-13.5,7.2s-6.7,5.5-6.7,8.8,3.3,5.4,10,5.4a79.7,79.7,0,0,0,15.9-1.8v7a92.4,92.4,0,0,1-15.6,1.2c-9.6,0-16.9-2.7-16.9-11,0-5.4,3.4-9.4,8-12.8-2.2-4.2-4.6-9.3-6.8-14.4l6.1-2.5a133.8,133.8,0,0,0,6.1,13.4l10.5-5.8a35.2,35.2,0,0,0,4.5-2.9Z"/>
        <path class="e" d="M236.2,130.7c3.2,4.2,4.7,7.6,4.7,11.7,0,7.3-6.5,12.6-17.2,12.6-7.6,0-13-3.4-13-11.4,0-1.2.2-2.9.3-4.9a66,66,0,0,1-9.3-1.6l.4-5.9a40,40,0,0,0,9.5,1.9l.9-6.6a84.6,84.6,0,0,1-9.7-1.7l.4-5.7a37.1,37.1,0,0,0,9.9,1.8c.2-1.4.3-2.7.4-3.8a29.8,29.8,0,0,0,.1-4.3l6.8.4c-.4,1.7-.6,3-.8,4.3s-.3,2.1-.6,3.6a71.6,71.6,0,0,0,8.9-.5l-.2,5.7a82,82,0,0,1-9.4.5c-.3,2.1-.6,4.4-.8,6.6h.3c3,0,6.6-.3,9.8-.6l-.2,5.8c-2.7.2-5.6.4-8.6.4h-1.9c-.1,1.4-.2,2.7-.2,3.5,0,4,2.4,6.2,7.2,6.2,6.8,0,10.5-3.1,10.5-7.1s-1.9-6.4-5-9.4Z"/>
        <path class="e" d="M260.9,114.9a40.1,40.1,0,0,0-1.2,4.3c-.7,3.2-2.3,12.9-2.3,17.8a16.7,16.7,0,0,0,.2,3.1l2.1-4.9,3.1,2.3a115.4,115.4,0,0,0-3.5,11.9,10.4,10.4,0,0,0-.3,2.3,14.8,14.8,0,0,0,.1,2l-5.6.4a61.3,61.3,0,0,1-1.9-15.9c0-7.3,1.5-15.4,2-19.2a33.9,33.9,0,0,0,.5-4.7Zm11.4,23.9a16.2,16.2,0,0,0-.6,4.1c0,2.1,1.8,3.4,6.7,3.4a54.9,54.9,0,0,0,12.2-1.3v6.6a65.2,65.2,0,0,1-12.5,1c-8.4,0-12.4-3.1-12.4-8a29,29,0,0,1,.9-6.3Zm16.9-20.7v6.2a120.4,120.4,0,0,1-20.8,0v-6.2A104.2,104.2,0,0,0,289.2,118.1Z"/>
        <path class="e" d="M341.6,117.8c-1,10.6-3.3,19.1-7,25.6a27.3,27.3,0,0,0,8.9,8,17.4,17.4,0,0,0-4.1,4.8,35.6,35.6,0,0,1-8.4-7.5,36.8,36.8,0,0,1-8.7,7.5,25.2,25.2,0,0,0-3.2-4.3v4.6h-5.7v-7.8l-15.8,2.5-1.2-5.8,4.5-.5v-26h-3.3v-5.4h24.6V117h14.6l1-.2Zm-35.1,1.1v4.6h6.9v-4.6Zm0,14.8h6.9v-4.9h-6.9Zm0,10.5,6.9-.9v-4.4h-6.9Zm12.6,6.9a25.8,25.8,0,0,0,8.4-7.8,71.2,71.2,0,0,1-6.6-19.4l5.6-1.1a63.1,63.1,0,0,0,4.5,14.5,54.5,54.5,0,0,0,4.2-14.6H320.8v-3.8h-1.7Z"/>
        <path class="e" d="M362.1,113.1a76.9,76.9,0,0,0-2,10c2.3-3.7,6.6-7.8,12-7.8s12,6.6,12,17.2c0,13.8-8.4,20.3-21.2,22.7l-3.7-5.7c10.8-1.6,18.3-5.1,18.3-16.9,0-7.5-2.5-11.7-6.5-11.7-5.7,0-10.7,8.7-11,15a35.9,35.9,0,0,0,.3,5.2l-6,.4a54.9,54.9,0,0,1-.6-8.1,107.5,107.5,0,0,1,1.4-15.5,50.8,50.8,0,0,0,.3-5.1Z"/>
        <path class="e" d="M401.6,140.2c-.5,4.6-1.5,9.5-3,12.7a19.9,19.9,0,0,0-4.4-2.1c1.4-2.9,2.2-7.3,2.6-11.4Zm6-3.8v20.1h-5.1V136.8l-7.3.5-.5-5.1h3.6a35.5,35.5,0,0,0,2.3-3.1,45,45,0,0,0-5.9-6.7l2.8-4,1.1,1a55.4,55.4,0,0,0,3.6-8.5l5.2,1.8c-1.8,3.4-3.8,7.2-5.6,9.9a15.7,15.7,0,0,1,1.7,2.1,61.3,61.3,0,0,0,4.5-8.1l5,2.1c-2.8,4.3-6.2,9.3-9.4,13.3l5-.2-1.7-3.4,4.1-1.8c1.9,3.3,3.9,7.5,4.5,10.3l-4.4,2.1c-.2-.8-.4-1.7-.7-2.7Zm4.4,2.7a59.7,59.7,0,0,1,3.2,9.2l-4.6,1.6a52.2,52.2,0,0,0-2.9-9.4Zm28.8,10.8v5.3H412.1v-5.3h4.6V113.2h20.8v36.7Zm-18.5-31.5v6.9h9.3v-6.9Zm9.3,12h-9.3v7h9.3Zm-9.3,19.5h9.3v-7.2h-9.3Z"/>
        <path class="e" d="M486.2,145.7c-1.2-1.1-2.7-2.3-4.1-3.4-2.2,5.5-5.9,9.8-12.3,13.2l-5.2-4.2c7.3-3.2,10.7-7.8,12.3-12.2a33.1,33.1,0,0,0-11.3-4c-1.8,4.2-3.9,9-5.7,11.7s-4.2,4.3-7.5,4.3-7.4-3-7.4-7.9c0-7.5,6.8-13.2,16.5-13.7,1.4-3.1,2.7-6.4,3.9-8.7l-8.3.3-4,.5-.2-6.3a28.2,28.2,0,0,0,4,.2c2.7,0,7.9-.2,10.2-.4a14.7,14.7,0,0,0,3.3-.7l3.8,3a23.5,23.5,0,0,0-1.6,2.1c-1.3,2-3,6.2-4.7,10.4a38.1,38.1,0,0,1,10.4,3.1,9.7,9.7,0,0,0,.1-1.7,31.2,31.2,0,0,0,0-5.3l6.4.8a79.8,79.8,0,0,1-1,9c2,1.1,3.8,2.3,5.2,3.2ZM459,135.1c-5.4.8-8.3,4.1-8.3,7.1,0,1.4.8,2.3,1.8,2.3a2.8,2.8,0,0,0,2.5-1.6A55.4,55.4,0,0,0,459,135.1Z"/>
        <path class="e" d="M505.6,148.1c9.8-8.8,15.6-15.6,15.6-21.2,0-3.7-2-5.9-5.4-5.9s-4.8,1.7-6.7,3.7l-3.9-3.9c3.4-3.5,6.6-5.5,11.5-5.5,6.9,0,11.4,4.4,11.4,11.2s-5.4,13.6-12,20.1c1.8-.2,4.2-.4,5.9-.4h7.9v6H505.6Z"/>
        <path class="e" d="M534.5,134c0-12.6,4.9-18.7,12.3-18.7S559,121.5,559,134s-4.9,18.9-12.2,18.9S534.5,146.5,534.5,134Zm17.7,0c0-10.2-2.4-13.1-5.4-13.1s-5.5,2.9-5.5,13.1,2.3,13.3,5.5,13.3S552.2,144.2,552.2,134Z"/>
        <path class="e" d="M600.8,140.6v9.6c0,2.9-.6,4.4-2.7,5.3s-4.6,1-8.2,1a21,21,0,0,0-2.4-5.6h6c.8,0,1.1-.2,1.1-.9v-9.5h-16v-5.5h16v-4.4H585v-3.3c-2.2,1.4-4.5,2.7-6.8,3.9a29.2,29.2,0,0,0-3.5-4.8c8.1-3.6,16-10.2,19.8-15.6h5.9A50.6,50.6,0,0,0,621.2,126a31.4,31.4,0,0,0-3.8,5.2,60.7,60.7,0,0,1-7.2-4.2v3.7h-9.4v4.4h16.9v5.5Zm-10.1,3.8A45.7,45.7,0,0,1,579.3,155a56.6,56.6,0,0,0-4.4-4,31,31,0,0,0,10.3-8.6Zm17.2-19a48.7,48.7,0,0,1-10.2-9.1,49.3,49.3,0,0,1-9.9,9.1Zm1,16.6c3.7,2.7,8.7,6.8,11,9.5l-5.1,3.4c-2.1-2.7-6.9-6.9-10.6-9.9Z"/>
        <path class="e" d="M669.3,146.1H652.5v10.4h-6V146.1h-22v-5.6h7.7V127.7h14.3v-5.9H636a42.9,42.9,0,0,1-6.6,8.9c-1.2-1-3.7-2.9-5.1-3.8,4.4-3.7,8.2-10,10.3-16.3l5.9,1.5a27.8,27.8,0,0,1-1.6,4h27.7v5.7H652.5v5.9h12.9V133H652.5v7.5h16.8Zm-22.8-5.6V133H638v7.5Z"/>
      </g>
    </g>
  </g>
</svg>
