<svg xmlns="http://www.w3.org/2000/svg" viewBox="0 0 981.39 108.29"><defs><style>.cls-1{fill:#4d4d4d;}.cls-2{fill:#e56103;}</style></defs><title>footmessage</title><g id="レイヤー_2" data-name="レイヤー 2"><g id="レイヤー_1-2" data-name="レイヤー 1"><path class="cls-1" d="M2,18.09h9.26v2H4.19V37.05H2Z"/><path class="cls-1" d="M24.06,34.12c-.41-1-1.44-2.9-2.29-4.45V45.12H19.63V30.81A32.74,32.74,0,0,1,16,39.19a11.19,11.19,0,0,0-1.2-2.11c1.9-2.43,3.75-7.06,4.63-11h-4V24h4.19V18.35h2.14V24h3.72V26H21.77v1c.79,1.08,3.11,4.72,3.61,5.6Zm12-1.14a23.3,23.3,0,0,0,6.3,8.79,7.67,7.67,0,0,0-1.58,1.68,27.73,27.73,0,0,1-6-9.12V45.12H32.65V34.59a25.21,25.21,0,0,1-7.13,9.09A7.92,7.92,0,0,0,24,42a22.38,22.38,0,0,0,7.38-9H25.7V31h7V25.83H29a18.7,18.7,0,0,1-1.9,4.31,8.14,8.14,0,0,0-1.79-1.09c1.55-2.28,2.49-5.77,3-9.32l2,.35c-.21,1.29-.47,2.55-.76,3.75h3.08V18.38h2.14v5.45H40.5v2H34.79V31h6.74v2Z"/><path class="cls-1" d="M63.59,26c.73,9.84,3,17,5.92,17,.79,0,1.15-1.62,1.32-5.51a6.34,6.34,0,0,0,1.94,1.2c-.38,5.07-1.21,6.56-3.43,6.56-4.75,0-7.18-8.41-8-19.22H46.24V23.81h15c-.09-1.73-.12-3.52-.15-5.31h2.29c0,1.82,0,3.58.12,5.31h8.67V26Zm-9,14.48c2.05-.44,4.16-.85,6.28-1.32L61.07,41c-5,1.17-10.32,2.41-14,3.23l-.67-2.15,6.12-1.23v-8.5H47.27V30.28H60.1v2.11H54.62Zm14.81-17a25.22,25.22,0,0,0-4.17-3.66l1.47-1.2A25.19,25.19,0,0,1,71,22.08Z"/><path class="cls-1" d="M90.82,18.41a31.52,31.52,0,0,0,12.78,10,11.39,11.39,0,0,0-1.41,1.93c-4.51-2.2-9.64-6.1-12.37-9.88C87.44,24,82.7,28,77.71,30.49a6.69,6.69,0,0,0-1.26-1.73c5-2.4,9.88-6.63,12.14-10.35ZM78,33h24.09v2H88.32c-1,2.17-2.28,4.69-3.45,6.74,3.63-.11,7.76-.26,11.87-.44a45.29,45.29,0,0,0-3.87-3.95l1.84-1A39.1,39.1,0,0,1,101.6,44l-2,1.2a17.94,17.94,0,0,0-1.35-2c-7.18.35-14.77.67-19.79.85L78.21,42c1.26,0,2.73-.06,4.31-.12A55.52,55.52,0,0,0,85.69,35H78Zm18.84-5.57v2H83v-2Z"/><path class="cls-1" d="M118.22,36.7c-.77-.85-2.38-2.49-3.7-3.72V45.12h-2.14V33.77a29,29,0,0,1-4.48,3.64,9.7,9.7,0,0,0-1.15-2,25.36,25.36,0,0,0,9.18-9.61h-8.15v-2h4.6V18.38h2.14v5.45h2.55l.38-.08,1.23.82A27.3,27.3,0,0,1,114.9,31c1.35,1.08,3.93,3.34,4.66,4Zm16.15,5.45v2.14H118V42.15h7.42V30h-6.28V27.88h6.28V18.59h2.17v9.29h6.24V30h-6.24V42.15Z"/><path class="cls-1" d="M157.46,28.5c3.63,1,5.8,3.66,5.8,6.85,0,4.17-2.75,7.8-9.5,8.86l-1.26-2c5.22-.55,8.44-3.25,8.44-7a5.12,5.12,0,0,0-4.16-4.93,23.41,23.41,0,0,1-6.42,9.38c.24.82.47,1.61.71,2.35l-2.14.64c-.15-.5-.33-1-.47-1.61a9.69,9.69,0,0,1-4.87,1.58c-2,0-3.46-1.17-3.46-3.66,0-3.72,3.26-7.56,7.24-9.38.06-1.47.21-2.93.33-4.28-.62,0-1.21,0-1.76,0-1.26,0-3.52-.12-4.69-.18l-.06-2.2a45.67,45.67,0,0,0,4.78.36c.64,0,1.29,0,1.93,0,.09-.85.18-1.61.24-2.23.05-.47.08-1,.08-1.38l2.47.06a10.36,10.36,0,0,0-.36,1.29c-.11.62-.23,1.35-.35,2.2A61.56,61.56,0,0,0,160.15,22l0,2.2a100,100,0,0,1-10.46,1.05c-.12,1.11-.21,2.35-.29,3.58a17.23,17.23,0,0,1,4.86-.77c.35,0,.7,0,1.06,0l.08-.26a10.24,10.24,0,0,0,.3-1.67l2.34.59c-.17.38-.41,1.17-.58,1.61Zm-10.17,3.31c-2.82,1.61-5,4.48-5,6.83,0,1.17.56,1.76,1.64,1.76a7.33,7.33,0,0,0,4-1.53,34.92,34.92,0,0,1-.67-6.56Zm7-1.82a14.43,14.43,0,0,0-4.92.91V32a29.75,29.75,0,0,0,.5,5.28A19.84,19.84,0,0,0,154.73,30Z"/><path class="cls-1" d="M180.46,20.11c-.12.53-.23,1.15-.35,1.7-.15.85-.41,2.55-.73,4.11,1.34-.09,2.55-.18,3.25-.18,2.58,0,4.72,1,4.72,4.92,0,3.46-.5,8-1.7,10.47-.91,1.93-2.35,2.43-4.25,2.43a17,17,0,0,1-3.4-.44l-.38-2.46a14.25,14.25,0,0,0,3.54.64,2.43,2.43,0,0,0,2.55-1.49c.91-2,1.35-5.72,1.35-8.88,0-2.64-1.2-3.11-3.05-3.11-.7,0-1.84.09-3.1.21-1.06,4.16-3,10.67-6.1,15.59l-2.4-1c3-3.95,5.12-10.52,6.09-14.39-1.49.15-2.9.29-3.66.38l-2.61.35L170,26.44a24.48,24.48,0,0,0,2.57,0c1,0,2.67-.17,4.43-.32a34.14,34.14,0,0,0,.73-6.3Zm10,3.08a51.11,51.11,0,0,1,5.31,10.38l-2.29,1.08c-.85-3-3.13-8.09-5.18-10.52Z"/><path class="cls-1" d="M210.06,25.12c-.35.53-.85,1.32-1.29,2,0,.47-.09.93-.12,1.43,2.46-2.2,6.07-4.77,9.23-4.77,3.93,0,6,3.51,6,8.32a26,26,0,0,1-.38,4.84,21.14,21.14,0,0,1,3.23,2.84l-1.23,1.9a25.22,25.22,0,0,0-2.58-2.52,5.53,5.53,0,0,1-5.63,3.87c-2.79,0-5.13-1.2-5.13-4.13,0-2.31,2.08-4,5-4a10.46,10.46,0,0,1,4.22.87,28.57,28.57,0,0,0,.24-4.07c0-3.64-1.79-5.86-4.2-5.86-2.69,0-6.45,2.78-9,5.51-.09,1.32-.12,2.61-.12,3.72,0,2.64,0,4.4.12,7,0,.49.08,1.23.14,1.76h-2.55c0-.41.09-1.27.09-1.74,0-2.78,0-4.22.09-7.44,0-.29,0-.67,0-1.11-1.41,2.14-3.32,4.92-4.72,6.86l-1.47-2c1.61-2,5-6.53,6.42-8.82.06-.94.12-1.88.18-2.79-1.32.15-3.84.5-5.66.74l-.23-2.41c.64,0,1.2,0,1.9,0,.94-.06,2.64-.24,4.13-.5.09-1.35.15-2.41.15-2.73a10.77,10.77,0,0,0-.12-2.17l2.79.09c-.15.7-.38,2.34-.59,4.37l.15-.06ZM221,37.88a8.27,8.27,0,0,0-4-1.06c-1.49,0-2.81.85-2.81,2,0,1.5,1.32,2.14,3,2.14C219.17,41,220.32,39.78,221,37.88Z"/><path class="cls-1" d="M239.39,45.41h-9.26v-2h7.09V26.44h2.17Z"/><path class="cls-1" d="M252.81,20.58a15.19,15.19,0,0,0-.5,2,72.14,72.14,0,0,0-1.43,11.7,26.34,26.34,0,0,0,.26,4c.47-1.32,1.14-3.05,1.64-4.22l1.23,1a66.3,66.3,0,0,0-2,6.42,4.85,4.85,0,0,0-.14,1.29c0,.3.05.71.08,1l-2.08.18a35.46,35.46,0,0,1-1.11-9.21A90.59,90.59,0,0,1,250,22.43a12.57,12.57,0,0,0,.2-2.05Zm18.88,21.13a22.28,22.28,0,0,0-4.37-3.31v.53c0,2.4-1.11,4.75-5,4.75s-6-1.61-6-4.19,2.17-4.43,6-4.43a12.67,12.67,0,0,1,2.7.27c-.09-2.23-.27-5-.29-7.42-.94,0-1.85.06-2.79.06-1.64,0-3.16-.09-4.86-.18V25.56a44.25,44.25,0,0,0,4.92.27c.91,0,1.82,0,2.73-.06V22.16a11.48,11.48,0,0,0-.15-1.75h2.67a15.89,15.89,0,0,0-.18,1.72c0,.8-.06,2.14-.09,3.49a36.46,36.46,0,0,0,5-.67v2.28c-1.59.27-3.29.44-5,.56,0,2.9.24,5.81.35,8.24A19.69,19.69,0,0,1,273,39.81ZM265,37.41a8.91,8.91,0,0,0-3-.47c-2.17,0-3.67,1-3.67,2.31s1.41,2.26,3.49,2.26c2.46,0,3.17-1.2,3.17-3.14C265,38.11,265,37.76,265,37.41Z"/><path class="cls-1" d="M278.54,31.66a6.58,6.58,0,0,0-1.35-1.76A30.56,30.56,0,0,0,289.3,18.35h2.26a31.3,31.3,0,0,0,12.72,11.17,8.79,8.79,0,0,0-1.44,1.94c-4.66-2.47-9.67-6.77-12.28-10.91C288.27,24.48,283.55,28.91,278.54,31.66Zm8-2.93V32.8c0,4.14-.64,8.91-6.47,12.34a8.65,8.65,0,0,0-1.73-1.55c5.48-3.08,6-7.24,6-10.81V28.73Zm10.41-.12V45.09h-2.26V28.61Z"/><path class="cls-1" d="M317.43,25H308V23.22h9.41Zm-.76,18.41H311v1.37h-1.76V35h7.48Zm-7.45-16.24h7.45v1.73h-7.45Zm0,3.86h7.45V32.8h-7.45Zm7.39-9.9H309.4V19.38h7.21ZM311,36.76v4.9h3.9v-4.9Zm8.91-8.68a14,14,0,0,1-1.64,1.76,11.74,11.74,0,0,0-1.46-1.14A16,16,0,0,0,321,22.93l1.11.26V21.84h-4.25V20.2h4.25V18.35H324V20.2h4.39V18.35h2V20.2h4.1v1.64h-4.1v1.61H328.6c-.32.65-.65,1.29-1,1.85h6.16v1.52h-6.07V28.2h5.36v1.29h-5.36V30.9h5.36v1.29h-5.36v1.46h6.74v1.5h-14.6ZM333.38,37a12.79,12.79,0,0,1-4.93,4.8A28.71,28.71,0,0,0,335,43.39a8.47,8.47,0,0,0-1.26,1.73,27.93,27.93,0,0,1-7.42-2.23,33.81,33.81,0,0,1-8.5,2.28,6.64,6.64,0,0,0-.94-1.7,33.55,33.55,0,0,0,7.45-1.64,13.65,13.65,0,0,1-3.69-3.25l1.17-.5h-3.52V36.41h13.43l.38-.09ZM324,21.84v1.61h-1.29c-.3.62-.62,1.24-1,1.85h3.87a18.59,18.59,0,0,0,1-2.29l1.78.41V21.84Zm1.75,5h-3.95V28.2h3.95Zm0,2.67h-3.95V30.9h3.95Zm0,2.7h-3.95v1.46h3.95Zm-3.19,5.89a11.83,11.83,0,0,0,3.87,2.84,12.4,12.4,0,0,0,3.9-2.84Z"/><path class="cls-1" d="M361.89,26.15a20.12,20.12,0,0,0,2.67-.15v2.47c-.3,0-1.38-.09-2.67-.09h-3.22v1c0,7.83-1.67,11.85-8.39,14.84l-2-1.85c5.33-2,8-4.57,8-12.78V28.38H348v4.75c0,1.08.09,2.37.11,2.66H345.5c0-.29.12-1.55.12-2.66V28.38h-3.13c-1.29,0-2.61.09-3,.12V26a23.84,23.84,0,0,0,3,.2h3.13V22.4c0-.94-.09-1.85-.12-2.14h2.61A18.31,18.31,0,0,0,348,22.4v3.75h8.35V22.49a16.08,16.08,0,0,0-.15-2.41h2.64a22.83,22.83,0,0,0-.14,2.41v3.66Z"/><path class="cls-1" d="M371.32,30.2c.88.05,2.43.14,4.08.14h16.06c1.46,0,2.52-.09,3.16-.14v2.87c-.58,0-1.81-.15-3.13-.15H375.4c-1.62,0-3.17.06-4.08.15Z"/><path class="cls-1" d="M407.13,38.75c0,1.5.62,1.88,2.06,2.17a27.11,27.11,0,0,0,3.87.24,47.61,47.61,0,0,0,10-.94v2.67a82.25,82.25,0,0,1-10.14.61,30.21,30.21,0,0,1-4.69-.29c-2.26-.41-3.52-1.44-3.52-3.81V23.28a12.53,12.53,0,0,0-.18-2.38h2.73a19.2,19.2,0,0,0-.15,2.38V29.9a79.74,79.74,0,0,0,11.14-3.57A19,19,0,0,0,420.85,25l1,2.34c-.82.35-1.88.82-2.76,1.15a114.35,114.35,0,0,1-12,3.81Zm14.13-14.09a32.76,32.76,0,0,0-2.37-4.08l1.55-.64a42,42,0,0,1,2.41,4Zm2.41-5.93a44.4,44.4,0,0,1,2.46,4l-1.58.73a31.16,31.16,0,0,0-2.44-4Z"/><path class="cls-1" d="M453.32,23.28a9.11,9.11,0,0,0-.73,1.29,37.3,37.3,0,0,1-4.92,8.59,83,83,0,0,1,8.55,8.73l-2.05,1.79A67.53,67.53,0,0,0,446.11,35a37,37,0,0,1-11.43,8.56l-1.88-2a33.59,33.59,0,0,0,12.08-8.71,26.19,26.19,0,0,0,4.87-8.15H438.31c-1,0-2.63.12-3,.15V22.19c.41.06,2.09.21,3,.21h11.32a7.64,7.64,0,0,0,2.2-.27Z"/><path class="cls-1" d="M475.74,38.93c.09-1.11.12-3,.12-4.51-2.7,1.46-4.58,3-4.58,4.86,0,2.29,2.26,2.61,5.25,2.61a51,51,0,0,0,7.91-.7l-.05,2.37a73.3,73.3,0,0,1-7.95.47c-4.16,0-7.5-.88-7.5-4.43s3.46-5.59,6.83-7.35a2.45,2.45,0,0,0-2.61-1.79,7.7,7.7,0,0,0-5,2.14c-.82.79-1.64,1.87-2.64,3l-2-1.5a30.72,30.72,0,0,0,6.68-8.85H469c-1.23,0-3.2-.06-4.78-.18V22.93c1.55.17,3.58.29,4.89.29.62,0,1.24,0,1.91,0a15.81,15.81,0,0,0,.73-3.61l2.41.21c-.21.82-.47,2-.88,3.34a78.54,78.54,0,0,0,8.88-.88l0,2.17a90.27,90.27,0,0,1-9.62.82,20.75,20.75,0,0,1-2.6,4.46,8.14,8.14,0,0,1,4-1.09,3.65,3.65,0,0,1,3.84,2.64c2-.94,3.75-1.64,5.28-2.34.88-.38,1.58-.74,2.4-1.15l.94,2.2c-.73.21-1.79.62-2.55.91-1.64.64-3.72,1.5-5.92,2.52,0,1.67.06,4.13.09,5.54Z"/><path class="cls-1" d="M499.06,39.25c1.41,2.2,3.93,3.17,7.36,3.29,3.2.14,9.88.05,13.37-.18a10.74,10.74,0,0,0-.68,2.14c-3.25.15-9.46.21-12.69.06-3.84-.15-6.48-1.17-8.27-3.49-1.49,1.29-3,2.55-4.71,3.78l-1.06-2.11A50,50,0,0,0,497,39.43V31.9h-4.22V29.84h6.33Zm-1-14a22.37,22.37,0,0,0-4.87-4.86L494.76,19a22.08,22.08,0,0,1,4.95,4.72Zm6,15.51h-2.06V25.68h8.36a60.24,60.24,0,0,0-5.57-2.43L506.25,22c1.26.44,2.69,1,4.07,1.61a22.91,22.91,0,0,0,4-2.32H502.11V19.58h14.31l.41-.11,1.35,1a26.15,26.15,0,0,1-5.93,4c.85.41,1.62.82,2.26,1.17h3.69v12.9c0,1.05-.23,1.58-1,1.9a12.64,12.64,0,0,1-4,.33,7,7,0,0,0-.61-1.79c1.37.06,2.63,0,3,0s.49-.12.49-.5V35.88H511v4.75h-2V35.88h-4.92Zm0-13.4v2.58h4.92V27.35Zm4.92,6.86V31.54h-4.92v2.67Zm7.06-6.86H511v2.58h5.1Zm0,6.86V31.54H511v2.67Z"/><path class="cls-1" d="M532.21,20.14a28.76,28.76,0,0,0-.29,2.9c-.12,3.29-.36,10.15-.36,14.48,0,3.2,2.06,4.31,4.75,4.31,5.34,0,8.36-3,10.44-6l1.61,2a14.48,14.48,0,0,1-12.11,6.39c-4.16,0-7-1.76-7-6.48,0-4.31.29-11.64.29-14.72a15.42,15.42,0,0,0-.26-2.93Z"/><path class="cls-1" d="M558.14,23.28c1.91-.18,7.39-.74,12.72-1.17,3.17-.27,5.9-.41,7.83-.5V24a24.22,24.22,0,0,0-5.69.47,10.12,10.12,0,0,0-6.62,9.15c0,5.68,5.28,7.47,10,7.65l-.85,2.43c-5.36-.2-11.49-3.08-11.49-9.56a11.71,11.71,0,0,1,5.4-9.79c-2.55.3-10.47,1.06-13.6,1.7l-.27-2.58C556.68,23.39,557.59,23.34,558.14,23.28Z"/><path class="cls-2" d="M594.16,33.54l1,3.75c-3.11,1.61-6.51,3.25-9.29,4.54l-1.7-4.28c1-.35,2.28-.85,3.69-1.37V28.5H584.6v-4h3.23V18.27h4v6.21h2.72v4h-2.72v6Zm12.66,7.82c1.53,0,1.82-.58,2.08-3.4a12.15,12.15,0,0,0,3.7,1.53c-.5,4.22-1.73,5.65-5.37,5.65h-5.74c-4.37,0-5.57-1.23-5.57-5.77V32.69l-1.17.52-1.59-3.75,2.76-1.17V20.73h4v5.83l1.59-.67V17.83h4v6.33l1.47-.62h0l.67-.44.77-.5,3,1.06-.15.67c0,5.66-.06,8.71-.15,9.94A2.8,2.8,0,0,1,609.61,37a7.19,7.19,0,0,1-3.23.52,12.9,12.9,0,0,0-.85-3.46v4.61h-4V30.22l-1.59.71v8.44c0,1.79.21,2,1.94,2ZM605.53,28.5V34c.38,0,.85,0,1.09,0s.44-.09.5-.53,0-2,0-5.75Z"/><path class="cls-2" d="M624.61,37.64c-2.58,1.64-5.45,3.37-7.92,4.75l-1.58-4.28c.76-.32,1.67-.76,2.67-1.29V28.76H615.4v-4h2.38V18.27h4v6.47h2v4h-2v6l1.61-.88Zm17.85-10a37.6,37.6,0,0,1-3.78,10.41c.47,2.23,1,3.61,1.49,3.61.3,0,.53-1,.59-3.38a10.1,10.1,0,0,0,2.81,2.35c-.55,4-1.55,5-4,5-1.59,0-2.79-1.35-3.7-3.55a19.52,19.52,0,0,1-3.63,3.41,20.7,20.7,0,0,0-3-2.67,17,17,0,0,0,2.87-2.26c-2.75.7-5.54,1.41-7.85,2l-1-4c2.55-.41,6.36-1.17,10-1.94l.27,2.35c.35-.47.7-.94,1-1.44a85.14,85.14,0,0,1-1.23-12h-9.23V21.7h9.11c0-1.29,0-2.58,0-3.84h4c0,1.26,0,2.55,0,3.84h2.2a19.93,19.93,0,0,0-2-1.85l2.37-2.05a17.73,17.73,0,0,1,3,2.78l-1.23,1.12h1.11v3.84h-5.42c.09,1.84.2,3.63.35,5.33a39.06,39.06,0,0,0,1-3.87ZM632.67,27v9.26H625V27Zm-3.25,3.19h-1.35v2.85h1.35Z"/><path class="cls-2" d="M657.23,32h15.88V45.61H669v-1h-7.89v1h-3.89V34.8l-1.44,2c-.44-.64-1.09-1.46-1.76-2.26V45.7h-4.16V36.64a20.24,20.24,0,0,1-2.43,1.94,17,17,0,0,0-1.94-4.11,19.09,19.09,0,0,0,7-7.44h-5.84V23.22h3.26V17.86H654v5.36h.56l.7-.15,2.35,1.5a30.31,30.31,0,0,1-2.82,5.92c.68.5,1.64,1.29,2.41,1.93Zm15.94-13v3.55H657.05V18.94Zm-1.29,4.34V31H658.66V23.28ZM661.12,35.35V36.7h2.06V35.35Zm0,5.84h2.06V39.81h-2.06ZM668,26.44h-5.54v1.44H668ZM669,35.35h-2V36.7h2Zm0,5.84V39.81h-2v1.38Z"/><path class="cls-2" d="M704.67,41v4.11H687V41h2.4V34.47l-2.31,3.14a33.12,33.12,0,0,0-2-2.73V45.7h-4.16V36.44a23.57,23.57,0,0,1-2.72,2.14,18.74,18.74,0,0,0-1.91-4.11A19.63,19.63,0,0,0,683.45,27h-6.07V23.22h3.55V17.86h4.16v5.36h.53l.7-.15,2.35,1.53a29.59,29.59,0,0,1-2.84,5.89c1.11,1,2.75,2.52,3.54,3.28V24.6h4.22V41h1.79V18.27h4.34V27.7h4.4v4.05h-4.4V41Z"/><path class="cls-2" d="M717.1,33.83l.84,3.9c-3.07,1.32-6.44,2.7-9.2,3.78l-1.47-4.34c.94-.26,2.09-.61,3.32-1.05V28.76H708v-4h2.61V18.27h3.95v6.47H717v4h-2.44v6ZM734.51,22v10.9H717.65V22h2.61a21.41,21.41,0,0,0-1.58-3l3.63-1.23a15.89,15.89,0,0,1,2.2,4l-.67.24h4.25l-.68-.21a22.32,22.32,0,0,0,1.91-4.13l4.4,1.05c-.8,1.21-1.59,2.35-2.26,3.29Zm-15.6,11.75h14.48v11.9h-4.1v-.73h-6.45v.73h-3.93Zm2.52-8.67V26H724V25.1Zm0,4.74H724v-1h-2.58Zm1.41,7.24v.8h6.45v-.8Zm6.45,4.55v-.79h-6.45v.79Zm1.23-16.53h-2.61V26h2.61Zm0,3.78h-2.61v1h2.61Z"/><path class="cls-2" d="M745.7,38.55c1,1.82,2.75,2.58,5.51,2.7A141.6,141.6,0,0,0,766.3,41,19.68,19.68,0,0,0,765,45.09c-3.84.2-10.08.26-13.83.08-3.31-.14-5.51-.9-7.24-3.13-1.12,1.08-2.26,2.11-3.75,3.37l-2-4.25c1.09-.65,2.29-1.47,3.43-2.32V33.1h-3V29.17h7.13Zm-2.82-12.69A24.35,24.35,0,0,0,738.57,21l3.26-2.4a26,26,0,0,1,4.57,4.57Zm5.4,3.19c-.36.35-.68.68-1,1a28.06,28.06,0,0,0-3.11-3.4,20.37,20.37,0,0,0,6.33-8.68l4.25,1.23q-.57,1.32-1.23,2.64H756a28,28,0,0,0,1.06-3.6l4.72.82c-.47.94-.94,1.9-1.41,2.78h4.55v3.55H759.5v1.2h4.63V30H759.5v1.23H764v3.4H759.5v1.32h6v3.55H748.28Zm7.18-3.69h-3.08v1.2h3.08Zm0,4.6h-3.08v1.23h3.08Zm0,4.63h-3.08v1.32h3.08Z"/><path class="cls-1" d="M776.23,20.9c-.17.5-.44,1.44-.55,2A66.42,66.42,0,0,0,774.27,34a31.25,31.25,0,0,0,.23,4c.5-1.32,1.15-3,1.61-4.16l1.27.94a62.77,62.77,0,0,0-2.06,6.51,7.91,7.91,0,0,0-.14,1.29l.09,1-2.12.15a36.7,36.7,0,0,1-1-9.32,80.84,80.84,0,0,1,1.29-11.64,16.89,16.89,0,0,0,.2-2.05ZM782.86,35a10.54,10.54,0,0,0-.38,2.67c0,1.32.87,2.61,4.86,2.61a31.37,31.37,0,0,0,7.18-.76l0,2.46a38.68,38.68,0,0,1-7.24.59c-4.86,0-7-1.62-7-4.34a16.36,16.36,0,0,1,.47-3.43Zm-1.15-11.84a50.63,50.63,0,0,0,11.93,0v2.41a73.87,73.87,0,0,1-11.9,0Z"/><path class="cls-1" d="M811.69,32.48a27.62,27.62,0,0,0-2.87-1.73,17.48,17.48,0,0,1-7.47,3.43,7,7,0,0,0-1-1.76A15.39,15.39,0,0,0,807,29.79c-1-.5-2.08-1-3.1-1.41l-.33.58-1.78-.82c.7-1.26,1.58-2.93,2.4-4.66h-3.4V21.64H805c.56-1.18,1.05-2.29,1.49-3.32l2,.41c-.41.91-.85,1.91-1.32,2.91H812l.39-.06,1.17.26a15.57,15.57,0,0,1-3.34,7.48A25,25,0,0,1,813,30.87Zm13.19,2.7s-.06.64-.11,1c-.5,5.18-1,7.32-1.91,8.17a3.33,3.33,0,0,1-2.11.8c-.82,0-2.43,0-4.1-.09a5.12,5.12,0,0,0-.65-1.94c1.64.18,3.23.21,3.81.21A1.57,1.57,0,0,0,821,43c.58-.55,1-2.16,1.43-5.92h-8.65c-1.31,4.08-4.25,6.78-11.51,8.21a7.31,7.31,0,0,0-1.12-1.87c6.45-1.09,9.09-3.2,10.35-6.34h-8.77v-1.9H812c.17-.76.29-1.58.41-2.43h2.19a17.9,17.9,0,0,1-.38,2.43Zm-18.55-11.7c-.56,1.15-1.12,2.29-1.67,3.34,1.23.47,2.58,1,3.84,1.62a11.71,11.71,0,0,0,2.75-5Zm20.11-3a17,17,0,0,1-4.78,8.42,14.18,14.18,0,0,0,5.74,3.19,12.76,12.76,0,0,0-1.31,1.76,15.62,15.62,0,0,1-6-3.66,18.66,18.66,0,0,1-5.18,2.6,7.46,7.46,0,0,0-1.12-1.7,15.9,15.9,0,0,0,5-2.37,19.42,19.42,0,0,1-3.23-6.1l1.82-.47a16.14,16.14,0,0,0,2.9,5.34A14,14,0,0,0,823.94,22h-9.29V20.14h10.12l.38-.09Z"/><path class="cls-1" d="M849.47,20.29c-.18.7-.35,1.7-.5,2.25s-.29,1.29-.47,2a9.11,9.11,0,0,1,7.86,9.35c0,5.77-4.14,9.32-10.35,10.17L844.6,42c6-.53,9.41-3.72,9.41-8.18a7,7,0,0,0-6-7.24,37.67,37.67,0,0,1-4.25,9.88,17.75,17.75,0,0,0,1.79,2l-1.82,1.5c-.46-.53-.93-1.06-1.37-1.64-1.79,2.17-3.58,3.6-5.75,3.6S832.5,40,832.5,36.62a12.17,12.17,0,0,1,4.48-9c-.32-.91-.61-1.82-.88-2.67a20.21,20.21,0,0,0-.94-2.61l2.44-.76c.14.79.38,1.76.58,2.55s.41,1.4.68,2.22a14.78,14.78,0,0,1,7.44-2.05c.18-.7.33-1.4.44-2.08a10.49,10.49,0,0,0,.18-2.2ZM841,36.44c-.24-.35-.47-.73-.71-1.11a36.82,36.82,0,0,1-2.58-5.57,9.86,9.86,0,0,0-3.1,6.71c0,1.93.85,3.11,2.17,3.11S839.74,38.14,841,36.44Zm1.35-2a37.19,37.19,0,0,0,3.37-8.07,12.54,12.54,0,0,0-6.19,2,32.68,32.68,0,0,0,2.23,5.1C842,33.8,842.17,34.12,842.38,34.45Z"/><path class="cls-1" d="M865.85,23.28c1.9-.18,7.38-.74,12.72-1.17,3.16-.27,5.89-.41,7.83-.5V24a24.13,24.13,0,0,0-5.69.47,10.13,10.13,0,0,0-6.63,9.15c0,5.68,5.28,7.47,10,7.65l-.85,2.43c-5.37-.2-11.49-3.08-11.49-9.56a11.72,11.72,0,0,1,5.39-9.79c-2.55.3-10.46,1.06-13.6,1.7l-.26-2.58C864.38,23.39,865.29,23.34,865.85,23.28Z"/><path class="cls-1" d="M897.82,25.3c0,1.82,0,4.49.2,6.86.47,4.87,1.88,8.06,3.93,8.06,1.5,0,2.85-3,3.61-5.92l1.84,2.11c-1.73,4.92-3.51,6.59-5.51,6.59-2.72,0-5.36-2.72-6.15-10.25a74.9,74.9,0,0,1-.32-7.74,15.07,15.07,0,0,0-.18-2.58l2.81.06C897.94,23.19,897.85,24.54,897.82,25.3Zm20.46,12.19-2.38.94c-.49-5.22-2.25-11-5-14.36l2.29-.79C915.79,26.65,917.87,32.6,918.28,37.49Z"/><path class="cls-1" d="M946.15,42.54a21.41,21.41,0,0,0-7-4.37c0,.73.06,1.38.06,1.82,0,2-1.35,4.07-5.13,4.07-4.16,0-6.48-1.49-6.48-4.31,0-2.64,2.55-4.42,6.74-4.42a16,16,0,0,1,2.44.17c-.06-1.29-.12-2.67-.15-3.87H935c-2,0-5.22-.17-7.3-.41V29a50.38,50.38,0,0,0,7.3.56h1.55V25.39h-1.43c-2,0-5.1-.24-6.83-.44V22.78a46.55,46.55,0,0,0,6.8.56h1.49V21.43a15.87,15.87,0,0,0-.09-1.73H939a14.73,14.73,0,0,0-.15,1.94c0,.35,0,.9,0,1.61a63.37,63.37,0,0,0,7.45-.71l0,2.15c-2.28.23-4.77.46-7.5.61v4.16a76.76,76.76,0,0,0,8.06-.76l0,2.2c-2.73.35-5.31.56-8.06.67.06,1.5.15,3,.2,4.4a24.18,24.18,0,0,1,8.45,4.51Zm-9.29-5a15.33,15.33,0,0,0-2.82-.26c-2.75,0-4.25,1.05-4.25,2.37s1.14,2.35,4,2.35c1.67,0,3.08-.5,3.08-2.49C936.89,39,936.86,38.31,936.86,37.52Z"/><path class="cls-1" d="M971.14,25.54c0,1.64,0,3.42.06,4.74a7.07,7.07,0,0,1,.94,3.73c0,3.92-1.91,8.29-8.65,10.31l-2-2c3.81-.88,6.51-2.46,7.71-5a4.14,4.14,0,0,1-2.49.73,4.68,4.68,0,0,1-4.81-4.86A5.11,5.11,0,0,1,967,28.11a5.66,5.66,0,0,1,1.93.33c0-.85,0-1.88,0-2.88-4.4,0-9.33.24-13,.5l-.06-2.28c3.23-.06,8.68-.24,13-.3,0-.82,0-1.49-.06-1.9,0-.62-.12-1.47-.18-1.82h2.67l-.15,1.82c0,.44,0,1.11,0,1.87h.44c3.52,0,7.1,0,8.5,0l0,2.2c-1.64-.09-4.28-.14-8.53-.14Zm-1.55,6.36A2.57,2.57,0,0,0,967,30.11a3,3,0,0,0-2.93,3A2.79,2.79,0,0,0,967,36C968.74,36,969.85,34.65,969.59,31.9Z"/><path class="cls-2" d="M1.68,90.55A8.23,8.23,0,0,0,0,88.36C6.43,85,12.34,79.12,15.08,74h2.81A39,39,0,0,0,33.74,87.88,11.59,11.59,0,0,0,32,90.29c-5.81-3.06-12-8.43-15.3-13.58C13.8,81.6,7.92,87.12,1.68,90.55Zm9.93-3.65V92c0,5.15-.8,11.1-8.07,15.37a10.31,10.31,0,0,0-2.15-1.93c6.83-3.83,7.45-9,7.45-13.47v-5Zm13-.15v20.52H21.76V86.75Z"/><path class="cls-2" d="M48.31,82.26H36.59V80H48.31Zm-1,22.93H40.24v1.72H38.05V94.67h9.31ZM38.09,85h9.27v2.16H38.09Zm0,4.82h9.27V92H38.09Zm9.2-12.34h-9V75.25h9Zm-7,19.46V103H45.1V96.9Zm11.1-10.81a19.73,19.73,0,0,1-2,2.19,16.33,16.33,0,0,0-1.83-1.42,20,20,0,0,0,5.26-7.19l1.39.33V78.32h-5.3v-2h5.3V74h2.4v2.3H62V74h2.49v2.3H69.6v2H64.49v2H62.22c-.4.81-.8,1.61-1.2,2.3h7.66v1.9H61.13v1.72h6.68v1.61H61.13V89.6h6.68v1.61H61.13V93h8.39v1.86H51.34Zm16.83,11.1a15.77,15.77,0,0,1-6.13,6,35.35,35.35,0,0,0,8.18,2,10.88,10.88,0,0,0-1.57,2.16,34.46,34.46,0,0,1-9.24-2.78,41.76,41.76,0,0,1-10.59,2.85,8.67,8.67,0,0,0-1.17-2.12,41.69,41.69,0,0,0,9.28-2,17.05,17.05,0,0,1-4.6-4l1.46-.63H49.4V96.46H66.13l.47-.11ZM56.52,78.32v2h-1.6c-.37.77-.77,1.54-1.21,2.3h4.82a21.2,21.2,0,0,0,1.24-2.84l2.23.51v-2Zm2.2,6.2H53.79v1.72h4.93Zm0,3.33H53.79V89.6h4.93Zm0,3.36H53.79V93h4.93Zm-4,7.33a14.57,14.57,0,0,0,4.82,3.55,15.28,15.28,0,0,0,4.85-3.55Z"/><path class="cls-2" d="M89.32,102.74a22.74,22.74,0,0,0,3.1-.43c4.64-1,9.16-4.46,9.16-10.7,0-5.48-3.46-10-9.6-10.48a76.29,76.29,0,0,1-2.15,10.4c-2.23,7.42-5.12,11.25-8.47,11.25s-6.47-3.72-6.47-9.68c0-7.85,7-14.71,15.85-14.71,8.47,0,13.88,6,13.88,13.29,0,7.6-5,12.67-13.62,13.8ZM86.94,90.91a58.23,58.23,0,0,0,2-9.75C82,82,77.78,88,77.78,92.85c0,4.56,2.12,6.57,3.69,6.57S85.08,97,86.94,90.91Z"/><path class="cls-2" d="M117.58,93.94a13.8,13.8,0,0,0-.73,4.09c0,2.74,2.77,4.64,8.54,4.64a47,47,0,0,0,12.38-1.39l0,3.11a51,51,0,0,1-12.34,1.28c-7.34,0-11.62-2.45-11.62-7a20.53,20.53,0,0,1,.77-5Zm-1.5-14.6a80.52,80.52,0,0,0,9.57.47c3.47,0,7.16-.25,9.75-.51v3c-2.45.18-6.39.43-9.75.43-3.62,0-6.68-.14-9.57-.4Zm23.44.91-2,.91a38.9,38.9,0,0,0-3-5.11l2-.8A51.2,51.2,0,0,1,139.52,80.25Zm4.13-1.5-2,.88a33,33,0,0,0-3-5l1.94-.84A54.32,54.32,0,0,1,143.65,78.75Z"/><path class="cls-2" d="M155.12,87.59c1.31,1.35,4.63,5.15,5.36,6.13L158.8,96a52.31,52.31,0,0,0-3.68-5.26v16.58h-2.6V89.82a38,38,0,0,1-5.29,10.73,15.93,15.93,0,0,0-1.42-2.48c2.51-3,5.11-8.69,6.39-13.73h-5.59V81.79h5.91V74h2.6v7.82h5.18v2.55h-5.18Zm23.11-11.47v30.82h-2.67v-2.08H164.5v2.19h-2.59V76.12ZM164.5,78.68v6.1h11.06v-6.1Zm0,14.86h11.06V87.26H164.5Zm11.06,8.8V96H164.5v6.31Z"/><path class="cls-2" d="M196.16,82.26H182.65V80h13.51Zm-1.21,23h-8.28v1.68h-2.38V94.67H195Zm0-18.11H184.33V85h10.59Zm-10.59,2.66h10.59V92H184.33Zm10.51-12.34H184.47V75.25h10.37ZM186.67,96.9V103h6V96.9Zm20.85-2.63c0,2,1.27,8,8.83,10.77a22.87,22.87,0,0,0-1.64,2.3,14.49,14.49,0,0,1-8.55-9.12c-.54,2.22-3.1,6.79-9.49,9.12a12.65,12.65,0,0,0-1.61-2.19c8.48-2.92,9.75-8.8,9.75-10.88V89.05h2.71Zm-11.58,4.09c1.75-1.28,2.88-3.8,3.4-6.35l2.41.51c-.52,2.74-1.68,5.51-3.66,7.12Zm18.22-8.18a71.87,71.87,0,0,0-8.36-6c-1.42,2.85-3.84,4.89-8.07,6.32a7.9,7.9,0,0,0-1.53-2.12c7.48-2.3,8.5-6.61,8.87-14.35h2.63a36,36,0,0,1-1,7.85A85.89,85.89,0,0,1,216,88.14ZM202,76.89c-.36,2.41-1.35,5-3.06,6.54l-2.08-1c1.53-1.25,2.52-3.66,2.88-6Zm13.26.26a56.78,56.78,0,0,1-3.65,5.8l-2-.84a34.34,34.34,0,0,0,3.1-5.88Zm-5.59,21a38.06,38.06,0,0,0,3.4-6.36l2.63.92a58.85,58.85,0,0,1-4,6.31Z"/><path class="cls-2" d="M226.39,78.32c.3.58.92,1.75,1.28,2.37.62,1.2,1.35,2.66,2.08,4.16,4.35-1.93,9.24-3.87,13-3.87,5,0,8.07,2.89,8.07,6.83,0,4.16-2.66,7.34-8.32,7.34a16.23,16.23,0,0,1-5.41-1l.11-2.92a12.1,12.1,0,0,0,5.11,1.2c4,0,5.59-2.15,5.59-4.71,0-2.19-1.68-4.13-5.26-4.13-3.14,0-7.59,1.72-11.75,3.66.47,1,.94,2,1.38,3,2,4.45,4.24,11.21,5.48,15.19l-3.14.84a106.76,106.76,0,0,0-4.93-14.83c-.44-1-.91-2-1.35-3-2.78,1.35-5.3,2.67-6.94,3.4l-1.42-3c1.06-.29,2.33-.73,3-1,1.21-.48,2.67-1.14,4.24-1.83a38.43,38.43,0,0,0-2-4,23.23,23.23,0,0,0-1.75-2.56Zm10.85,2.59a42.35,42.35,0,0,0-4.71-4.2l2.12-1.53a44,44,0,0,1,4.71,4.09Z"/><path class="cls-2" d="M262.87,93.18v11c0,1.46-.33,2.23-1.24,2.66a11.39,11.39,0,0,1-4.53.48,10.6,10.6,0,0,0-.8-2.48c1.57,0,3,0,3.43,0s.62-.11.62-.66V94L256,95.4l-.7-2.62c1.39-.37,3.14-.92,5-1.5V83.79h-4.56V81.31h4.56V74h2.52v7.3h3.91v2.48h-3.91v6.72c1.21-.36,2.41-.76,3.62-1.17l.36,2.52ZM281,94.31a24.49,24.49,0,0,0,8.73,8.65,10.07,10.07,0,0,0-1.83,2.05,28.74,28.74,0,0,1-8.61-9.2v11.28h-2.56V95.84a27,27,0,0,1-9.49,9.28,8.7,8.7,0,0,0-1.86-2.12,23.73,23.73,0,0,0,9.6-8.69h-7.49V91.86h9.24v-4h2.56v4h9.35v2.45Zm6.61-17.67c-5,1.49-13,2.3-19.57,2.7a8.22,8.22,0,0,0-.69-2.23c6.39-.4,14.16-1.28,18.4-2.56ZM270.43,88.25a26,26,0,0,0-2.59-6.9l2.15-.62a24.34,24.34,0,0,1,2.78,6.75Zm6.43-1.17a21.38,21.38,0,0,0-1.72-6.83l2.34-.44a21.86,21.86,0,0,1,1.82,6.69Zm4.67,1.28a58.8,58.8,0,0,0,4.6-9l2.56,1a71.73,71.73,0,0,1-5.08,8.94Z"/><path class="cls-2" d="M322.94,103.66c0,1.75-.48,2.55-1.64,3s-3.36.47-6.8.44a10.16,10.16,0,0,0-.91-2.63c2.56.11,5,.07,5.7.07s1-.26,1-.95V96.21h-9.82V107h-2.7V96.21h-9.13c-.55,4.05-1.79,8.21-4.56,11.32a9.09,9.09,0,0,0-2.08-1.79c4-4.53,4.38-11,4.38-16V76.56h26.58Zm-15.19-10V87.55H299v2.16c0,1.2,0,2.55-.14,3.91ZM299,79.16V85h8.73V79.16Zm21.25,0h-9.82V85h9.82Zm0,14.46V87.55h-9.82v6.07Z"/><path class="cls-2" d="M337,77.15c-.22.62-.55,1.79-.7,2.44a83.77,83.77,0,0,0-1.75,13.84,37.56,37.56,0,0,0,.29,5c.62-1.64,1.43-3.76,2-5.19l1.57,1.17a77,77,0,0,0-2.55,8.11,9,9,0,0,0-.19,1.6l.11,1.28-2.63.19a45.39,45.39,0,0,1-1.31-11.62c0-5.33,1.17-11.53,1.61-14.49a21.49,21.49,0,0,0,.25-2.56Zm8.25,17.52a13.39,13.39,0,0,0-.47,3.33c0,1.64,1.09,3.25,6.06,3.25a39.09,39.09,0,0,0,8.94-1l0,3.07a48.94,48.94,0,0,1-9,.72c-6.06,0-8.76-2-8.76-5.4a20.83,20.83,0,0,1,.58-4.27Zm-1.42-14.75a63.11,63.11,0,0,0,14.86,0v3a91.79,91.79,0,0,1-14.83,0Z"/><path class="cls-2" d="M370.48,84.41c3.07-1,10.15-3.58,15.45-3.58,6,0,10.77,3.47,10.77,9.54,0,8.69-8.62,12.88-19.79,13.51l-1.28-3c9.46-.26,17.86-3.11,17.86-10.52,0-3.8-2.74-6.76-7.64-6.76-6,0-15.15,4-18,5.12l-1.35-3.22A38.52,38.52,0,0,0,370.48,84.41Z"/><path class="cls-2" d="M408.17,82.62c0,2.27,0,5.59.25,8.55.59,6.06,2.34,10,4.89,10,1.87,0,3.55-3.72,4.5-7.38l2.3,2.63c-2.16,6.14-4.39,8.22-6.87,8.22-3.39,0-6.68-3.4-7.67-12.78-.36-3.14-.4-7.52-.4-9.64a18.44,18.44,0,0,0-.22-3.21l3.51.07A32.81,32.81,0,0,0,408.17,82.62Zm25.48,15.19L430.7,99c-.63-6.5-2.82-13.65-6.25-17.89l2.85-1C430.55,84.3,433.14,91.72,433.65,97.81Z"/><path class="cls-2" d="M443.18,80.11c2.38-.22,9.21-.92,15.85-1.47,4-.32,7.34-.51,9.75-.62V81a30,30,0,0,0-7.08.58c-5.15,1.64-8.26,7.12-8.26,11.39,0,7.09,6.58,9.31,12.46,9.53l-1.06,3c-6.68-.25-14.32-3.83-14.32-11.9a14.58,14.58,0,0,1,6.72-12.2c-3.17.37-13,1.32-16.94,2.12L440,80.29C441.36,80.25,442.49,80.18,443.18,80.11Z"/><path class="cls-2" d="M494.05,82.62a42.39,42.39,0,0,1-6.54,1.32,65.26,65.26,0,0,1-7.88,15.3l-2.85-1.46a52,52,0,0,0,7.74-13.51c-1.06.07-2.12.11-3.18.11-1.35,0-2.85,0-4.2-.11l-.22-2.74a34.66,34.66,0,0,0,4.46.26c1.28,0,2.63-.08,4-.19a30.65,30.65,0,0,0,1.13-6.24l3.25.29c-.37,1.31-.84,3.51-1.43,5.59A36.24,36.24,0,0,0,494,79.92Zm4.24,4.2a34.33,34.33,0,0,0,0,3.91c0,1.31.18,3.69.25,5.88a24.23,24.23,0,0,1,7.49,4.53l-1.57,2.48a25.22,25.22,0,0,0-5.81-4.13c0,.55,0,1.06,0,1.47,0,2.88-1.9,5.25-6.35,5.25-4,0-7.23-1.64-7.23-5.22,0-3.32,3.14-5.48,7.23-5.48a17.06,17.06,0,0,1,3.43.33c-.11-3-.29-6.5-.37-9ZM495.84,98.4a13.09,13.09,0,0,0-3.65-.51c-2.67,0-4.42,1.2-4.42,2.85s1.35,2.81,4.16,2.81,3.95-1.65,3.95-3.43C495.88,99.64,495.88,99.06,495.84,98.4Zm9.64-10.59a44,44,0,0,0-8.25-5l1.42-2.26a54,54,0,0,1,8.47,4.82Z"/><path class="cls-2" d="M537,83.76c-.8.51-1.68,1-2.74,1.53a107.16,107.16,0,0,0-10,5.48c-3.35,2.23-5.36,4.56-5.36,7.3,0,3,2.85,4.86,8.54,4.86A53.28,53.28,0,0,0,539,101.69l0,3.28a69.91,69.91,0,0,1-11.43.88c-6.75,0-11.72-2-11.72-7.45,0-3.73,2.37-6.72,6.24-9.42-1.64-3-3.54-7.19-5.22-11.07l2.89-1.2a76.22,76.22,0,0,0,4.82,10.7c3.17-1.94,6.46-3.51,8.43-4.6a17.19,17.19,0,0,0,2.56-1.72Zm.73-7.53a53.1,53.1,0,0,1,3,5l-2,.88a37.94,37.94,0,0,0-3-5.08Zm4-1.46a46,46,0,0,1,3.06,5l-2,.91a30.62,30.62,0,0,0-3-5Z"/><path class="cls-2" d="M556.24,106.58a58.66,58.66,0,0,0-8.07-8.14l2.37-2.09a68,68,0,0,1,8.18,8.11Z"/><path class="cls-2" d="M598.12,89.56a29.5,29.5,0,0,1,6.94-1c5.55,0,9.93,3,9.93,7.93,0,4.27-2.23,7.48-8,8.91a29.63,29.63,0,0,1-4.75.58l-1.68-4.64a27.62,27.62,0,0,0,4.46-.25c2.92-.51,5.26-2,5.26-4.64,0-2.45-2.2-3.87-5.34-3.87a25.75,25.75,0,0,0-6.79,1c.08,2.88.19,5.66.19,6.9,0,4.49-1.65,5.66-4,5.66-3.55,0-8.55-3-8.55-6.87,0-3.18,3.69-6.43,8.11-8.36,0-.84,0-1.68,0-2.52v-3c-.69,0-1.35.07-1.94.07-1.64,0-3.46,0-5-.18l-.08-4.38a40.71,40.71,0,0,0,5,.29c.65,0,1.35,0,2.08-.07,0-1.28,0-2.34,0-3a28.68,28.68,0,0,0-.25-3.18h5c-.07.66-.22,2.23-.29,3.14s-.07,1.68-.11,2.6A50.88,50.88,0,0,0,605,79.38l.11,4.52a68.1,68.1,0,0,1-6.9,1.13c0,1.1,0,2.2,0,3.25Zm-4,10.15c0-.91,0-2.55-.11-4.45-2.23,1.13-3.69,2.63-3.69,3.91,0,1.09,1.68,2.11,2.63,2.11C593.63,101.28,594.14,101,594.14,99.71ZM609,78.9A78.81,78.81,0,0,1,617.91,84l-2.19,3.72A55.41,55.41,0,0,0,607,82.44Z"/><path class="cls-2" d="M648.51,87.77c-.07,8.77.4,15.67,2.52,15.67.55,0,.69-1.94.77-4.9a17.3,17.3,0,0,0,2.81,2.71c-.33,4.56-1.1,6.5-3.91,6.5-5.33,0-6.39-7-6.61-16.33H624.52v-3l-.33.3A35.58,35.58,0,0,0,620.25,86c3.61-2.74,6.35-7.45,7.78-12.49l4.52,1c-.29.91-.58,1.82-.91,2.7h21.58v3.62H630c-.29.58-.62,1.16-.94,1.71H649.9V86H628.83V82.88a28.43,28.43,0,0,1-3.69,4.89ZM641.21,93a33.85,33.85,0,0,1-3.87,5.65,42.49,42.49,0,0,1,5.77,4.64l-3.47,3.29a41.68,41.68,0,0,0-5.41-4.71,40.38,40.38,0,0,1-9.49,6.42,27.91,27.91,0,0,0-3.25-3.39,32.17,32.17,0,0,0,9.24-5.52c-2.08-1.38-4.2-2.66-6.14-3.76l3.11-2.84c1.9,1,4,2.22,6.1,3.54A24.35,24.35,0,0,0,637,91.61Z"/><path class="cls-2" d="M690.25,76.16a23.3,23.3,0,0,1-5.44,10A22.07,22.07,0,0,0,691.67,89a15.17,15.17,0,0,0-2.59,3.51,21.35,21.35,0,0,1-7.38-3.65,27.26,27.26,0,0,1-7.7,3.8,19.54,19.54,0,0,0-1.57-2.6V96H667v2.19h6V102h-6v5.73h-3.87V102H657v-3.8h6.06V96h-5.26V82.81h5.26v-2h-5.62V77h5.62V73.61H667V77h5.73V80.8H667v2h5.48V89a21.94,21.94,0,0,0,6.32-3A24.23,24.23,0,0,1,675,79.74l2.89-.77h-4.24V75.25h13.11l.73-.15ZM660.93,88h2.59V85.8h-2.59Zm0,5h2.59V90.77h-2.59Zm8.25-7.2h-2.7V88h2.7Zm0,5h-2.7V93h2.7Zm14.71,12.3h7.27v3.84h-19v-3.84h7.45V98.51h-5.52V94.86h5.52V90.8h4.3v4.06h5.63v3.65h-5.63ZM678.64,79a17.48,17.48,0,0,0,3,4.6,17.54,17.54,0,0,0,3.17-4.6Z"/><path class="cls-2" d="M703.72,76.38a35.85,35.85,0,0,0-1,3.69A94.22,94.22,0,0,0,701,93a6.19,6.19,0,0,0,0,.84c.48-1,.91-1.76,1.39-2.78l2.66,2.08c-1.09,3.29-2.22,7.27-2.63,9.32a12.72,12.72,0,0,0-.21,1.71c0,.4,0,1.06,0,1.64l-5,.33a46,46,0,0,1-1.46-11.9A101.76,101.76,0,0,1,697.19,80c.14-1.1.4-2.74.44-4.09Zm8.55,18a12,12,0,0,0-.37,2.88c0,1.61,1.5,2.19,4.46,2.19a43.18,43.18,0,0,0,9.13-.95l.11,5.92a51.93,51.93,0,0,1-9.54.69c-6.31,0-9.45-2.37-9.45-6.2a21.37,21.37,0,0,1,.66-5Zm12.19-15.88v5.65a107.91,107.91,0,0,1-15.88,0l0-5.62A82.84,82.84,0,0,0,724.46,78.54Z"/><path class="cls-2" d="M743.38,90.62a27,27,0,0,1,7.92-1.31c5.26,0,9.06,2.88,9.06,7.19s-2.74,7.16-7.71,8.36a23,23,0,0,1-4.45.48l-1-2.89a20.9,20.9,0,0,0,4.23-.25c3.18-.59,6.06-2.3,6.06-5.66,0-3.07-2.77-4.71-6.2-4.71a23.31,23.31,0,0,0-7.85,1.42c.07,3.07.14,6.24.14,7.81,0,3.36-1.28,4.42-3.21,4.42-2.85,0-7.56-2.74-7.56-6,0-2.95,3.76-6.09,7.92-7.88v-2c0-1.46,0-3.14,0-4.74-1,.07-1.9.1-2.67.1a44.2,44.2,0,0,1-4.6-.18L733.41,82a33.68,33.68,0,0,0,4.6.29c.84,0,1.79,0,2.78-.11,0-1.9.07-3.47.07-4.13a13.76,13.76,0,0,0-.22-2.55h3.18c-.08.65-.15,1.64-.19,2.48s-.07,2.3-.11,3.91a48,48,0,0,0,7.42-1.46l0,2.88a71.06,71.06,0,0,1-7.52,1.24c0,1.72-.07,3.44-.07,4.9Zm-2.52,10.08c0-1.32-.07-3.76-.11-6.39-2.92,1.39-5.08,3.43-5.08,5.07s2.49,3.07,3.91,3.07C740.42,102.45,740.86,101.83,740.86,100.7ZM755.1,79.45a60.39,60.39,0,0,1,8.25,5.29l-1.46,2.34a47,47,0,0,0-8.1-5.41Z"/><path class="cls-2" d="M771.5,88.32v19h-2.67V75.54h13.11V88.32Zm0-10.59V80.8h7.85V77.73Zm7.85,8.4V82.81H771.5v3.32Zm-.19,16.07v2.19h-2.48V91.57h13.58V102.2Zm0-8.33v6h8.58v-6Zm19.47,9.79c0,1.79-.44,2.7-1.61,3.17s-3.36.48-6.54.48a12.52,12.52,0,0,0-1-2.78c2.38.11,4.75.08,5.48,0s.88-.22.88-.91V88.32h-10.7V75.54h13.44Zm-10.85-26v3.1h8.11V77.7Zm8.11,8.47V82.81h-8.11v3.36Z"/><path class="cls-2" d="M821.27,74.08a43.38,43.38,0,0,0,16,13,12.24,12.24,0,0,0-1.79,2.33c-5.66-3-12-8.07-15.45-12.74-3,4.45-8.91,9.64-15.15,13a9.84,9.84,0,0,0-1.68-2.15c6.35-3.22,12.45-8.77,15.3-13.44ZM809.11,92.81h22.2v14.53h-2.78v-1.49H811.77v1.49h-2.66Zm20.19-7v2.41H811V85.84Zm-17.53,9.42v8.14h16.76V95.26Z"/><path class="cls-2" d="M865.34,76.49c-.07.58-.15,1.83-.18,2.59,0,1.65,0,3.43,0,5,1.43-.11,2.78-.22,3.94-.29,1,0,2-.11,2.85-.18v2.92c-.58,0-1.93,0-2.85,0s-2.44.07-4,.18a58,58,0,0,1-.55,7.6c-.33,1.6-1.13,2.08-2.77,2.08a44.34,44.34,0,0,1-4.79-.51l.08-2.6a21.43,21.43,0,0,0,3.61.48c.88,0,1.24-.15,1.35-1,.18-1.21.33-3.62.4-5.88-3.72.29-8,.69-11.54,1.06,0,3.72-.07,7.48,0,8.87.11,3.91.15,5.22,6.43,5.22a74.24,74.24,0,0,0,10.74-.8l-.11,3.07c-2.41.25-6.83.62-10.48.62-8.36,0-9.17-1.94-9.35-7.71,0-1.57,0-5.36,0-9l-3.83.4-3.69.51-.29-3c1.09,0,2.45-.07,3.76-.18l4-.37,0-5a20.69,20.69,0,0,0-.22-3H851c-.08.81-.11,1.79-.11,2.92l0,4.86c3.51-.33,7.71-.73,11.54-1.06V79.19a20,20,0,0,0-.18-2.7Z"/><path class="cls-2" d="M893.9,79.38v6.49l.47-.54a89.63,89.63,0,0,1,13,7.55l-1.89,2.45a83.64,83.64,0,0,0-11.54-7.26v19.2H891V79.38h-14V76.67h32.25v2.71Z"/><path class="cls-2" d="M942.31,82.55c-2.22.59-4.6,1.13-6.82,1.5,1.31,2.88,3.28,7.08,4.85,10.11l-1.68,1.76c-1.57-.33-5.14-.84-7.48-1.06l.29-2.38c1.39.11,3.91.4,5.11.52-1-2.23-2.85-6-3.94-8.51a77.74,77.74,0,0,1-15.37.07l-.11-2.92a61.68,61.68,0,0,0,14.35.22l-1.21-2.67a30.2,30.2,0,0,0-1.53-3l3.25-.62c.88,2.41,1.53,4,2.33,5.95a55.71,55.71,0,0,0,7.42-1.82ZM921.9,93.4a14.51,14.51,0,0,0-1,4.56c0,3.18,2.16,5.08,7.56,5.08a38,38,0,0,0,9.49-1l0,3a47.14,47.14,0,0,1-9.5.84c-6.71,0-10.44-2.7-10.44-7.23a20.75,20.75,0,0,1,1-5.55Z"/><path class="cls-2" d="M955.9,82.62c0,2.27,0,5.59.26,8.55.58,6.06,2.33,10,4.89,10,1.86,0,3.54-3.72,4.49-7.38l2.3,2.63c-2.15,6.14-4.38,8.22-6.86,8.22-3.4,0-6.69-3.4-7.67-12.78a94.23,94.23,0,0,1-.4-9.64,19.47,19.47,0,0,0-.22-3.21l3.5.07C956.05,80,955.94,81.67,955.9,82.62Zm25.49,15.19-3,1.17c-.62-6.5-2.81-13.65-6.24-17.89l2.84-1C978.28,84.3,980.88,91.72,981.39,97.81Z"/><circle class="cls-2" cx="599.95" cy="5" r="5"/><circle class="cls-2" cx="630.25" cy="5" r="5"/><circle class="cls-2" cx="660.55" cy="5" r="5"/><circle class="cls-2" cx="690.85" cy="5" r="5"/><circle class="cls-2" cx="721.15" cy="5" r="5"/><circle class="cls-2" cx="751.45" cy="5.5" r="5"/></g></g></svg>