<svg xmlns="http://www.w3.org/2000/svg" viewBox="0 0 277.55 40.05"><defs><style>.cls-1{fill:#00919a;}</style></defs><title>telnum</title><g id="レイヤー_2" data-name="レイヤー 2"><g id="レイヤー_1-2" data-name="レイヤー 1"><path class="cls-1" d="M0,20.46C0,7.6,5.32,1.27,13.21,1.27S26.47,7.7,26.47,20.46,21.09,40.05,13.21,40.05,0,33.32,0,20.46Zm18,0c0-10.2-2.16-12.31-4.82-12.31S8.44,10.26,8.44,20.46s2.11,12.66,4.77,12.66S18,30.71,18,20.46Z"/><path class="cls-1" d="M37.46,32.11H45.4V10.87H38.52V5.34A25.25,25.25,0,0,0,47.76,2h6.58V32.11h6.73v7.23H37.46Z"/><path class="cls-1" d="M71.26,34.22C80.6,25.73,86.88,19,86.88,13.53c0-3.42-1.91-5.28-4.87-5.28-2.56,0-4.57,1.71-6.33,3.62L70.81,7.05c3.67-3.87,7.08-5.78,12.41-5.78,7.23,0,12.25,4.62,12.25,11.76,0,6.42-5.52,13.51-11.25,19.28a53.3,53.3,0,0,1,6.08-.5h6.88v7.53H71.26Z"/><path class="cls-1" d="M106.82,20.46c0-12.86,5.32-19.19,13.21-19.19s13.26,6.43,13.26,19.19S127.91,40.05,120,40.05,106.82,33.32,106.82,20.46Zm18,0c0-10.2-2.16-12.31-4.82-12.31s-4.77,2.11-4.77,12.31,2.11,12.66,4.77,12.66S124.85,30.71,124.85,20.46Z"/><path class="cls-1" d="M139.57,19.47h7.6v3.36h-7.6Z"/><path class="cls-1" d="M169.92,34h-2.23v5h-4.46V34h-8.37V30.64L161.81,19h5.88V30.32h2.23Zm-6.69-3.63V27.39c0-1.26.14-3.17.19-4.43h-.1c-.52,1.13-1,2.29-1.62,3.41l-2.28,3.95Z"/><path class="cls-1" d="M175.4,35.08h4.24V23.71H176V20.76A13.36,13.36,0,0,0,180.9,19h3.52V35.08H188v3.86H175.4Z"/><path class="cls-1" d="M204.83,23.8a4.51,4.51,0,0,0-3-1.4c-2.07,0-3.7,1.48-3.89,5.83a5.32,5.32,0,0,1,3.81-2c3.33,0,5.86,1.93,5.86,6.28a6.41,6.41,0,0,1-6.58,6.77c-3.76,0-7.47-2.93-7.47-10.21s3.81-10.52,7.95-10.52A8,8,0,0,1,207.36,21Zm-1.58,8.75c0-2.2-1.08-2.93-2.39-2.93a3.27,3.27,0,0,0-2.82,1.8c.4,3.33,1.64,4.33,2.9,4.33S203.25,34.81,203.25,32.55Z"/><path class="cls-1" d="M212.73,29.49h7.6v3.36h-7.6Z"/><path class="cls-1" d="M225,36.55l2.17-3a6.08,6.08,0,0,0,4.11,1.91,2.84,2.84,0,0,0,3.14-3.11,2.78,2.78,0,0,0-2.93-3.09,4.4,4.4,0,0,0-2.81,1l-2.1-1.37.51-9.88h11.23v4h-7.12l-.3,3.38a5,5,0,0,1,2.07-.4c3.39,0,6.23,2,6.23,6.31A6.9,6.9,0,0,1,232,39.32,9.49,9.49,0,0,1,225,36.55Z"/><path class="cls-1" d="M244.49,28.84c0-6.87,2.85-10.25,7.07-10.25s7.09,3.43,7.09,10.25-2.88,10.48-7.09,10.48S244.49,35.72,244.49,28.84Zm9.65,0c0-5.45-1.16-6.58-2.58-6.58S249,23.39,249,28.84s1.12,6.77,2.55,6.77S254.14,34.32,254.14,28.84Z"/><path class="cls-1" d="M263.08,36.53l2.2-3a6.13,6.13,0,0,0,4.16,1.93c1.86,0,3.07-.78,3.07-2.28,0-1.72-.92-2.74-5.11-2.74V27.07c3.41,0,4.49-1.05,4.49-2.63,0-1.37-.81-2.12-2.29-2.12A5.35,5.35,0,0,0,266,24l-2.41-2.92a9.37,9.37,0,0,1,6.2-2.47c4.14,0,6.85,1.93,6.85,5.5a4.59,4.59,0,0,1-3.22,4.41v.13a4.94,4.94,0,0,1,3.86,4.86c0,3.73-3.41,5.83-7.38,5.83A8.58,8.58,0,0,1,263.08,36.53Z"/><path class="cls-1" d="M163.9,11.09h-4.69l-1.87,0-.1-.11V9.26l.11-.09,1.81,0h4.71V7.61H159.6l-2,0-.1-.11V5.81l.12-.1,1.89,0h4.33V4.26H159.4l-2,0-.1-.11V2.45l.11-.1,2,0h4.59l2.09,0,.11.1,0,1.84V9.17l0,1.85-.09.11Z"/><path class="cls-1" d="M175.39,6.28c-1.06.76-2.16,1.47-3.39,2.18-.28.15-.34.15-.6-.06l-1.49-1.3a23.76,23.76,0,0,0,8.4-6.28h.17L180.22,2l0,.17c-.89.92-1.76,1.71-2.58,2.41V7.83l.07,4.37h-2.41l.07-4.33Z"/><path class="cls-1" d="M185.11,11.38l.07-4.78V4.22l-.05-1.68.12-.1,2,0h4.55l2,0,.11.1,0,1.81V8.27l0,1.91-.1.11-2.12,0h-4.34v1.13Zm6.56-7h-4.29V8.33h4.29Z"/><path class="cls-1" d="M206.57,7.79h-6.23l-2.07,0-.1-.11v-2l.12-.09,2,0h6.21l2.14,0,.12.1v2l-.1.11Z"/><path class="cls-1" d="M214.48,2.94h5.18l2,0,.13.08,0,1.69V8.76l0,1.8-.1.11-1.92,0h-5.31l-1.84,0-.1-.11V8.69l.13-.08,1.75,0h5V4.92h-4.84l-1.91,0-.09-.11V3l.12-.08Zm6.21-1.53.72-.52h.14A8.6,8.6,0,0,1,223,2.35v.14l-.77.55h-.14a9.31,9.31,0,0,0-1.37-1.51ZM222,.53l.71-.52h.14a8.92,8.92,0,0,1,1.38,1.43l0,.14-.72.53h-.14A8.52,8.52,0,0,0,222,.65Z"/><path class="cls-1" d="M227.41,5.57l-1.77,0-.09-.11V3.72l.12-.08,1.71,0h.81V1.23l.11-.1h1.91l.11.11V3.68h2V1.21l.11-.1h2l.12.12V3.68H235l2,0,.13.08V5.5l-.1.11-2,0h-.54a8.17,8.17,0,0,1-1,4,6.79,6.79,0,0,1-3.63,2.75,1.19,1.19,0,0,1-.25.05.43.43,0,0,1-.3-.13l-1.6-1.3c2.06-.53,3.22-1.24,3.92-2.38a5.77,5.77,0,0,0,.68-3h-2v.16l.06,2.46h-2.26l.07-2.49V5.57Z"/><path class="cls-1" d="M239.12,9.49a10.91,10.91,0,0,0,2-2.91l.14-.06,1.74.85,0,.15a13.41,13.41,0,0,1-2.15,3.12h-.15l-1.64-1Zm5-8.17.11-.09h2l.11.11V3.68h2.34l1.85,0,.12.09V5.49l-.1.11-1.83,0h-2.38V8.32l0,1.85c0,1.67-.64,2.13-2.84,2.24-.28,0-.31,0-.43-.25l-1-1.82c1.87,0,2-.05,2-.89V5.56h-2.25l-2,0-.1-.11V3.72l.13-.08,1.89,0h2.32Zm7.09,8.07-1.63,1.23h-.14a12.16,12.16,0,0,0-2.37-2.94V7.55l1.52-1.1h.14a12,12,0,0,1,2.5,2.8Zm0-7.64a1.41,1.41,0,1,1-1.4-1.42A1.42,1.42,0,0,1,251.21,1.75Zm-2,0a.64.64,0,0,0,.64.63.62.62,0,0,0,.62-.63.62.62,0,0,0-.62-.64A.64.64,0,0,0,249.17,1.75Z"/><path class="cls-1" d="M262.27,7.79H256l-2.07,0-.1-.11v-2l.13-.09,2,0h6.21l2.15,0,.11.1v2l-.1.11Z"/><path class="cls-1" d="M273.07,7l.07,5.32h-2.42L270.79,7V1l.11-.1H273l.11.11V5.63l1.2-1.34h.14a17.24,17.24,0,0,1,3.14,2.13l0,.14-1.35,1.68-.14,0a15.72,15.72,0,0,0-3-2.19Z"/></g></g></svg>